<svg width="304" height="121" viewBox="0 0 304 121" fill="none" xmlns="http://www.w3.org/2000/svg">
<path d="M0 96.98V76.4189L44.6911 5.99988H62.9617V33.9118H52.3615L26.2074 75.3536V76.2058H90.9268V96.98H0ZM52.6811 115.091V90.6945L53.2138 81.6924V5.99988H77.8764V115.091H52.6811Z" fill="url(#paint0_linear_13710_69848)"/>
<path d="M213 96.9801V76.419L257.691 6H275.962V33.9119H265.362L239.207 75.3537V76.206H303.927V96.9801H213ZM265.681 115.091V90.6946L266.214 81.6925V6H290.876V115.091H265.681Z" fill="url(#paint1_linear_13710_69848)"/>
<path d="M131 41V43.5H133.5V41H131ZM131 80H133.5V77.5H131V80ZM171 80V77.5H168.5V80H171ZM171 41H168.5V43.5H171V41ZM131 9H133.5C133.5 7.067 135.067 5.5 137 5.5V3V0.5C132.306 0.5 128.5 4.30558 128.5 9H131ZM131 41H133.5V9H131H128.5V41H131ZM100 41V43.5H131V41V38.5H100V41ZM94 47H96.5C96.5 45.067 98.067 43.5 100 43.5V41V38.5C95.3056 38.5 91.5 42.3056 91.5 47H94ZM94 74H96.5V47H94H91.5V74H94ZM100 80V77.5C98.067 77.5 96.5 75.933 96.5 74H94H91.5C91.5 78.6944 95.3056 82.5 100 82.5V80ZM131 80V77.5H100V80V82.5H131V80ZM131 112H133.5V80H131H128.5V112H131ZM137 118V115.5C135.067 115.5 133.5 113.933 133.5 112H131H128.5C128.5 116.694 132.306 120.5 137 120.5V118ZM165 118V115.5H137V118V120.5H165V118ZM171 112H168.5C168.5 113.933 166.933 115.5 165 115.5V118V120.5C169.694 120.5 173.5 116.694 173.5 112H171ZM171 80H168.5V112H171H173.5V80H171ZM203 80V77.5H171V80V82.5H203V80ZM209 74H206.5C206.5 75.933 204.933 77.5 203 77.5V80V82.5C207.694 82.5 211.5 78.6944 211.5 74H209ZM209 47H206.5V74H209H211.5V47H209ZM203 41V43.5C204.933 43.5 206.5 45.067 206.5 47H209H211.5C211.5 42.3056 207.694 38.5 203 38.5V41ZM171 41V43.5H203V41V38.5H171V41ZM171 9H168.5V41H171H173.5V9H171ZM165 3V5.5C166.933 5.5 168.5 7.067 168.5 9H171H173.5C173.5 4.30558 169.694 0.5 165 0.5V3ZM137 3V5.5H165V3V0.5H137V3Z" fill="url(#paint2_linear_13710_69848)"/>
<circle cx="152" cy="60" r="51" fill="url(#paint3_linear_13710_69848)"/>
<circle cx="152" cy="60" r="46" stroke="white" stroke-width="2"/>
<path d="M162.333 53.0923C161.584 52.6653 160.621 52.6653 159.764 53.0923L153.77 56.6181L149.702 58.8608L143.814 62.389C143.065 62.816 142.101 62.816 141.245 62.389L136.643 59.6115C136.252 59.3815 135.928 59.0535 135.702 58.6601C135.477 58.2666 135.358 57.8213 135.358 57.3681V52.0241C135.358 51.1695 135.787 50.3148 136.643 49.7807L141.245 47.1103C141.994 46.6826 142.958 46.6826 143.814 47.1103L148.415 49.8878C148.807 50.1178 149.131 50.4457 149.357 50.8392C149.582 51.2326 149.7 51.678 149.7 52.1313V55.6563L153.768 53.3058V49.6744C153.768 48.8197 153.34 47.965 152.484 47.4309L143.921 42.4116C143.171 41.9839 142.208 41.9839 141.352 42.4116L132.573 47.5373C131.717 47.965 131.289 48.8197 131.289 49.6744V59.7154C131.289 60.5701 131.717 61.4224 132.573 61.9589L141.245 66.9806C141.994 67.4083 142.958 67.4083 143.814 66.9806L149.702 63.5619L153.77 61.2121L159.658 57.7934C160.407 57.3665 161.37 57.3665 162.227 57.7934L166.828 60.4646C167.22 60.6947 167.545 61.0231 167.771 61.4172C167.996 61.8113 168.115 62.2574 168.114 62.7112V68.052C168.114 68.9067 167.686 69.7613 166.83 70.2954L162.333 72.9666C161.584 73.3935 160.621 73.3935 159.764 72.9666L155.163 70.2954C154.772 70.0653 154.447 69.7374 154.222 69.3439C153.997 68.9504 153.878 68.5051 153.879 68.052V64.63L149.809 66.9806V70.5057C149.809 71.3603 150.237 72.215 151.094 72.7491L159.764 77.77C160.514 78.1978 161.477 78.1978 162.333 77.77L171.005 72.7483C171.396 72.5182 171.72 72.1902 171.945 71.7968C172.171 71.4033 172.289 70.958 172.289 70.5048V60.355C172.289 59.5004 171.861 58.6457 171.005 58.1116L162.333 53.0923Z" fill="white"/>
<defs>
<linearGradient id="paint0_linear_13710_69848" x1="-37.1285" y1="-77.5018" x2="150.753" y2="10.5847" gradientUnits="userSpaceOnUse">
<stop stop-color="#020024"/>
<stop offset="1" stop-color="#3363FF"/>
</linearGradient>
<linearGradient id="paint1_linear_13710_69848" x1="175.872" y1="-77.5017" x2="363.753" y2="10.5848" gradientUnits="userSpaceOnUse">
<stop stop-color="#020024"/>
<stop offset="1" stop-color="#3363FF"/>
</linearGradient>
<linearGradient id="paint2_linear_13710_69848" x1="47.0417" y1="-85.0247" x2="267.229" y2="38.8306" gradientUnits="userSpaceOnUse">
<stop stop-color="#020024"/>
<stop offset="1" stop-color="#3363FF"/>
</linearGradient>
<linearGradient id="paint3_linear_13710_69848" x1="59.35" y1="-69.0741" x2="254.647" y2="40.7802" gradientUnits="userSpaceOnUse">
<stop stop-color="#020024"/>
<stop offset="1" stop-color="#3363FF"/>
</linearGradient>
</defs>
</svg>
