<svg width="16" height="16" viewBox="0 0 16 16" fill="none" xmlns="http://www.w3.org/2000/svg">
<g id="Group 1000006124">
<path id="Vector" d="M13.226 5.58948H10.0117V7.73235H13.226V5.58948Z" fill="#312D2D"/>
<path id="Vector_2" d="M12.6903 0.500122H12.1546C12.0066 0.500122 11.8867 0.620046 11.8867 0.767981V1.83942C11.8867 1.98735 12.0066 2.10727 12.1546 2.10727H12.6903C12.8382 2.10727 12.9582 1.98735 12.9582 1.83942V0.767981C12.9582 0.620046 12.8382 0.500122 12.6903 0.500122Z" fill="#312D2D"/>
<path id="Vector_3" d="M0.902344 14.4287H8.81221C8.63739 14.1796 8.49432 13.9097 8.38631 13.6252H1.70592C1.63488 13.6252 1.56675 13.597 1.51651 13.5467C1.46628 13.4965 1.43806 13.4284 1.43806 13.3573V5.32156C1.43806 5.25052 1.46628 5.18238 1.51651 5.13215C1.56675 5.08192 1.63488 5.0537 1.70592 5.0537H13.4917C13.5627 5.0537 13.6309 5.08192 13.6811 5.13215C13.7313 5.18238 13.7596 5.25052 13.7596 5.32156V9.04211C13.9487 9.15133 14.1279 9.2768 14.2953 9.41711V4.25012H0.902344V14.4287Z" fill="#312D2D"/>
<path id="Vector_4" d="M10.0073 9.04181C10.4894 8.76027 11.0288 8.59117 11.5853 8.54711C12.1419 8.50305 12.7012 8.58517 13.2216 8.78735V8.2677H10.0073V9.04181ZM11.8823 9.07128C11.2465 9.07128 10.6251 9.25979 10.0965 9.61298C9.56791 9.96618 9.15593 10.4682 8.91264 11.0555C8.66936 11.6429 8.60571 12.2891 8.72973 12.9127C8.85376 13.5362 9.15989 14.1089 9.60942 14.5584C10.0589 15.008 10.6317 15.3141 11.2552 15.4381C11.8787 15.5621 12.525 15.4985 13.1123 15.2552C13.6997 15.0119 14.2017 14.5999 14.5549 14.0714C14.9081 13.5428 15.0966 12.9213 15.0966 12.2856C15.0959 11.4333 14.757 10.6162 14.1543 10.0135C13.5517 9.41086 12.7345 9.07199 11.8823 9.07128ZM11.2681 14.0821C11.2178 14.1323 11.1497 14.1605 11.0787 14.1605C11.0077 14.1605 10.9396 14.1323 10.8893 14.0821L9.55003 12.7428L9.92878 12.3641L11.0787 13.514L13.8358 10.7569L14.2145 11.1357L11.2681 14.0821Z" fill="#312D2D"/>
<path id="Vector_5" d="M3.04576 0.500122H2.51005C2.36211 0.500122 2.24219 0.620046 2.24219 0.767981V1.83942C2.24219 1.98735 2.36211 2.10727 2.51005 2.10727H3.04576C3.1937 2.10727 3.31362 1.98735 3.31362 1.83942V0.767981C3.31362 0.620046 3.1937 0.500122 3.04576 0.500122Z" fill="#312D2D"/>
<path id="Vector_6" d="M1.70592 1.8396H0.902344V3.71461H14.2953V1.8396H13.4917C13.4911 2.05253 13.4062 2.25655 13.2556 2.40711C13.1051 2.55767 12.901 2.64254 12.6881 2.64318H12.1524C11.9395 2.64254 11.7355 2.55767 11.5849 2.40711C11.4343 2.25655 11.3495 2.05253 11.3488 1.8396H3.84879C3.84815 2.05253 3.76329 2.25655 3.61272 2.40711C3.46216 2.55767 3.25814 2.64254 3.04521 2.64318H2.5095C2.29657 2.64254 2.09255 2.55767 1.94198 2.40711C1.79142 2.25655 1.70656 2.05253 1.70592 1.8396Z" fill="#312D2D"/>
<path id="Vector_7" d="M5.18696 11.2145H1.97266V13.0895H5.18696V11.2145Z" fill="#312D2D"/>
<path id="Vector_8" d="M5.72266 11.2145V13.0895H8.22178C8.16373 12.8255 8.1341 12.5562 8.13338 12.2859C8.13364 11.923 8.18688 11.562 8.29142 11.2145H5.72266Z" fill="#312D2D"/>
<path id="Vector_9" d="M5.18696 8.2677H1.97266V10.6784H5.18696V8.2677Z" fill="#312D2D"/>
<path id="Vector_10" d="M5.18696 5.58948H1.97266V7.73235H5.18696V5.58948Z" fill="#312D2D"/>
<path id="Vector_11" d="M9.47268 9.41681V8.2677H5.72266V10.6784H8.50035C8.73099 10.1935 9.06248 9.76337 9.47268 9.41681Z" fill="#312D2D"/>
<path id="Vector_12" d="M9.47268 5.58948H5.72266V7.73235H9.47268V5.58948Z" fill="#312D2D"/>
</g>
</svg>
