<svg width="295" height="286" viewBox="0 0 295 286" fill="none" xmlns="http://www.w3.org/2000/svg">
<path d="M248.074 150.341C246.212 149.717 245.547 150.153 245.498 152.032C245.304 159.142 245.538 166.332 244.52 173.338C243.261 181.973 242.992 190.586 242.939 199.256C242.926 201.597 242.081 203.956 242.213 206.275C242.393 209.389 243.16 212.469 243.648 215.57C243.763 216.286 243.825 217.016 243.825 217.736C243.842 221.886 244.045 226.048 243.776 230.18C243.516 234.177 242.763 238.138 242.222 242.117C241.931 244.244 241.464 246.367 241.358 248.503C240.993 255.806 240.456 263.118 240.588 270.416C240.649 273.902 242.001 277.383 242.904 280.833C243.666 283.738 241.975 286.258 238.932 285.979C235.268 285.642 231.595 285.07 228.028 284.184C224.698 283.354 224.297 280.523 226.068 277.754C227.561 275.417 228.248 272.578 229.366 269.993C231.088 266.009 231.335 262.034 230.388 257.741C229.587 254.12 229.851 250.276 229.309 246.581C228.728 242.637 227.728 238.75 226.953 234.832C226.632 233.22 226.196 231.595 226.187 229.971C226.147 222.427 226.222 214.884 226.301 207.341C226.31 206.498 226.856 205.629 226.755 204.821C226.35 201.562 225.799 198.321 225.275 195.076C224.989 193.303 224.606 191.547 224.341 189.774C223.72 185.585 223.218 181.379 222.531 177.203C221.8 172.757 220.814 168.354 220.118 163.903C219.642 160.846 219.308 157.745 219.206 154.657C219.057 150.075 218.894 145.467 219.228 140.907C219.682 134.731 220.347 128.611 223.038 122.772C224.932 118.67 226.543 114.281 226.002 109.467C225.702 106.807 226.019 104.086 225.936 101.396C225.738 95.0667 224.967 88.8426 222.743 82.8326C222.043 80.9369 221.88 78.8491 221.021 76.8137C220.395 79.382 219.836 81.9677 219.127 84.5185C218.22 87.7987 217.145 91.0309 216.238 94.3111C215.027 98.6877 213.085 102.833 213.054 107.576C213.028 111.503 212.081 115.421 211.557 119.347C211.226 121.828 210.997 124.327 210.579 126.794C210.231 128.83 209.628 130.822 209.218 132.844C208.804 134.879 208.201 136.941 208.254 138.976C208.285 140.077 209.474 141.178 210.222 142.221C212.548 145.454 213.521 149.144 214.045 153.001C214.111 153.486 214.45 153.94 214.472 154.421C214.503 155.189 214.56 156.552 214.283 156.64C213.261 156.954 212.002 157.373 211.381 155.753C210.883 154.456 210.121 153.255 209.478 152.014C209.293 152.045 209.108 152.075 208.923 152.101C209.033 153.023 208.945 154.028 209.297 154.844C210.319 157.207 211.614 159.452 212.596 161.824C212.962 162.706 212.746 163.82 212.794 164.829C211.773 164.838 210.553 165.214 209.769 164.79C205.237 162.353 202.22 158.5 200.472 153.77C198.935 149.612 199.19 145.344 200.265 141.051C200.639 139.548 200.406 137.862 200.283 136.277C200.137 134.425 199.75 132.586 199.578 130.734C199.322 127.996 198.979 125.244 199.001 122.497C199.032 118.596 199.292 114.696 199.587 110.804C199.754 108.598 200.172 106.41 200.512 104.222C200.727 102.828 201.08 101.457 201.251 100.064C201.82 95.4293 202.106 90.7426 202.934 86.1564C203.863 80.9937 204.911 75.8004 206.554 70.8298C208.025 66.3878 208.373 61.8628 208.932 57.329C209.593 52.0046 214.891 46.8244 220.334 46.2086C224.183 45.7762 228.08 45.4049 231.811 44.4396C234.691 43.6971 236.712 41.6617 238.016 38.6785C239.09 36.2194 237.87 34.8392 236.963 32.9873C235.25 29.4974 232.903 26.2914 232.691 22.1246C232.55 19.3117 231.555 16.5556 231.137 13.7428C230.525 9.60645 234.167 3.49591 238.963 1.61339C244.406 -0.522465 250.008 -0.587982 255.187 1.71821C260.524 4.09866 264.396 10.1568 261.903 16.8788C261.247 18.6478 260.908 20.6439 260.952 22.522C261.04 26.4705 258.38 29.279 257.085 32.6422C256.737 33.5463 255.693 34.2496 255.53 35.1493C255.323 36.2937 255.464 37.6171 255.843 38.7309C256.786 41.4957 259.225 44.0989 262.682 44.5663C266.615 45.0992 270.61 45.4005 274.45 46.3265C280.219 47.7155 283.597 51.1355 284.738 57.6347C285.79 63.623 286.138 69.7248 288.732 75.4379C289.943 78.1022 290.049 81.2601 290.665 84.1909C291.872 89.9215 292.462 95.7044 292.422 101.566C292.414 102.737 292.911 103.929 293.25 105.086C294.906 110.778 295.219 116.613 294.875 122.457C294.572 127.633 293.818 132.783 293.347 137.95C293.259 138.906 293.638 139.893 293.713 140.876C293.876 143.03 293.898 145.2 294.136 147.345C294.84 153.7 291.52 158.334 287.49 162.61C286.534 163.624 285.209 164.449 283.888 164.917C283.055 165.209 281.575 164.986 281.038 164.406C280.593 163.921 280.871 162.475 281.236 161.628C282.271 159.208 283.588 156.91 284.632 154.495C284.931 153.796 284.68 152.861 284.2 151.957C283.57 153.263 283.046 154.643 282.254 155.845C281.915 156.356 281.021 156.692 280.36 156.718C280.1 156.727 279.528 155.674 279.55 155.124C279.796 149.629 281.426 144.606 284.883 140.217C285.288 139.701 285.614 138.876 285.517 138.269C285.165 136.085 284.605 133.936 284.134 131.769C283.786 130.162 283.377 128.563 283.13 126.939C282.747 124.388 282.483 121.82 282.161 119.26C281.637 115.054 280.809 110.861 280.659 106.641C280.501 102.23 278.603 98.3644 277.559 94.2369C276.876 91.5419 276.026 88.8907 275.335 86.1958C274.666 83.5882 274.128 80.9457 273.459 78.3381C273.314 77.7703 272.829 77.2898 272.354 76.5298C271.587 79.845 271.028 82.8457 270.187 85.7721C267.928 93.6429 267.756 101.693 267.602 109.791C267.518 114.281 269.156 118.168 270.539 122.234C271.755 125.812 272.688 129.485 273.613 133.15C275.366 140.09 274.353 147.17 274.366 154.176C274.375 158.369 273.384 162.562 272.856 166.755C272.534 169.324 272.301 171.905 271.904 174.46C271.508 177.007 270.927 179.527 270.473 182.065C270.081 184.253 269.72 186.445 269.398 188.642C269.059 190.979 268.813 193.329 268.469 195.666C268.262 197.064 267.699 198.448 267.716 199.833C267.787 205.843 268.223 211.853 268.108 217.859C268.016 222.685 267.359 227.503 266.888 232.316C266.65 234.736 266.351 237.151 265.937 239.545C265.563 241.707 264.995 243.838 264.51 245.978C264.448 246.262 264.334 246.538 264.316 246.826C264.004 250.997 263.656 255.164 263.413 259.34C263.286 261.572 262.929 263.908 263.409 266.031C264.374 270.307 265.303 274.64 267.954 278.37C269.773 280.934 269.081 283.022 266.104 284.087C264.431 284.686 262.612 284.904 260.837 285.184C258.692 285.525 256.534 285.935 254.372 285.983C251.54 286.049 250.298 283.572 251.1 280.851C252.064 277.579 252.637 274.181 253.161 270.801C253.549 268.302 253.826 265.738 253.712 263.223C253.544 259.423 253.033 255.636 252.589 251.849C252.337 249.709 251.866 247.599 251.602 245.459C251.232 242.467 250.858 239.466 250.664 236.457C250.307 230.901 249.867 225.332 249.884 219.772C249.893 216.806 251.047 213.858 251.192 210.874C251.373 207.149 251.052 203.397 250.924 199.658C250.897 198.942 250.673 198.23 250.664 197.513C250.629 194.893 250.805 192.263 250.611 189.656C250.184 183.838 249.576 178.033 249.052 172.224C248.995 171.573 248.986 170.918 248.955 170.263C248.665 163.663 248.374 157.068 248.079 150.337L248.074 150.341ZM266.316 46.8507C264.492 50.275 262.823 53.7911 260.806 57.1062C258.041 61.6618 253.835 64.6232 248.612 65.5361C244.221 66.3004 240.235 64.5359 236.91 61.6662C232.445 57.8138 230.203 52.5681 228.08 47.187H222.549C223.113 50.7205 224.029 54.0706 224.099 57.4382C224.205 62.4699 223.743 67.5103 223.452 72.5464C223.377 73.8174 222.655 75.1409 222.875 76.3202C223.509 79.714 224.562 83.0247 225.288 86.4054C226.165 90.4762 227.226 94.5557 227.556 98.6833C227.948 103.601 227.688 108.576 227.622 113.525C227.609 114.495 227.261 115.482 226.962 116.425C226.301 118.522 225.57 120.597 224.795 122.898C239.94 124.781 254.517 124.602 269.227 122.929C268.689 121.601 268.152 120.579 267.866 119.496C267.174 116.893 266.184 114.281 266.051 111.634C265.686 104.353 266.051 97.0759 267.681 89.9215C268.399 86.7679 269.31 83.6537 270.046 80.5045C270.442 78.8011 270.988 77.0278 270.861 75.333C270.706 73.2583 269.465 71.2273 269.482 69.1832C269.531 63.4177 269.98 57.6522 270.288 51.8867C270.306 51.5417 270.548 51.2097 270.614 50.8603C270.83 49.7028 271.015 48.5366 271.235 47.2263C269.319 47.0821 267.817 46.9642 266.316 46.8507ZM272.997 154.412C271.944 154.412 271.358 154.329 270.808 154.425C268.06 154.914 265.329 155.805 262.572 155.884C259.177 155.98 255.764 155.412 252.36 155.12C252.153 155.102 251.915 155.028 251.752 154.906C250.087 153.639 249.677 154.569 249.783 156.076C250.012 159.317 250.343 162.554 250.616 165.794C250.906 169.228 251.197 172.661 251.448 176.098C251.761 180.387 252.113 184.672 252.302 188.966C252.434 191.944 252.311 194.928 252.342 197.911C252.346 198.549 252.562 199.182 252.593 199.82C252.747 203.327 253.108 206.847 252.936 210.337C252.8 213.076 251.558 215.78 251.567 218.496C251.58 224.843 251.994 231.193 252.36 237.531C252.522 240.383 252.928 243.227 253.267 246.07C253.791 250.469 254.729 254.854 254.804 259.257C254.901 264.939 254.385 270.639 253.989 276.326C253.883 277.85 253.408 279.392 252.84 280.825C251.915 283.153 252.54 284.437 254.997 284.323C257.869 284.188 260.776 283.996 263.576 283.406C267.395 282.602 268.267 280.72 266.223 278.322C263.347 274.946 262.29 270.622 261.938 266.669C261.374 260.318 262.29 253.836 262.59 247.411C262.599 247.197 262.696 246.987 262.74 246.778C263.242 244.419 263.805 242.074 264.228 239.702C264.625 237.47 264.88 235.208 265.193 232.962C265.734 229.066 266.496 225.179 266.73 221.265C266.884 218.645 266.144 215.985 266.047 213.338C265.792 206.332 265.734 199.326 266.875 192.373C267.126 190.835 267.544 189.324 267.861 187.795C268.377 185.305 268.949 182.829 269.354 180.322C269.755 177.863 269.945 175.373 270.292 172.905C270.817 169.18 271.389 165.463 271.948 161.741C272.023 161.243 272.151 160.754 272.217 160.26C272.477 158.369 272.719 156.478 272.992 154.412H272.997ZM220.607 154.233C221.012 156.535 221.439 158.395 221.655 160.282C222.025 163.563 222.258 166.856 222.553 170.145C222.571 170.359 222.62 170.577 222.664 170.787C223.183 173.194 223.8 175.583 224.201 178.011C224.615 180.54 224.773 183.108 225.134 185.646C225.394 187.467 225.768 189.271 226.165 191.071C226.618 193.133 227.627 195.198 227.539 197.23C227.385 200.864 229.569 204.463 227.653 208.083C228.085 216.173 226.755 224.297 228.442 232.368C229.283 236.382 229.639 240.497 230.238 244.559C230.516 246.45 230.815 248.341 231.172 250.224C232.216 255.727 232.423 261.266 231.894 266.83C231.789 267.935 231.419 269.045 231.013 270.089C229.926 272.893 228.86 275.71 227.587 278.431C226.209 281.379 226.002 281.729 229.159 282.786C232.084 283.764 235.285 284.048 238.395 284.319C241.068 284.555 241.821 283.026 241.182 280.467C240.169 276.418 239.011 272.303 238.853 268.18C238.663 263.319 238.157 258.409 239.447 253.491C240.508 249.455 240.821 245.201 241.231 241.025C241.675 236.522 241.94 231.993 242.111 227.472C242.248 223.838 242.318 220.182 242.072 216.561C241.9 214.046 240.953 211.586 240.707 209.066C240.469 206.646 240.508 204.166 240.737 201.737C241.006 198.911 242.239 196.041 241.913 193.325C241.446 189.429 241.2 185.755 241.997 181.82C242.869 177.491 242.71 172.953 243.001 168.507C243.041 167.926 243.076 167.345 243.116 166.769C243.358 163.03 243.626 159.286 243.794 155.543C243.811 155.163 243.16 154.377 242.922 154.416C240.601 154.783 238.315 155.452 235.986 155.701C233.907 155.923 231.767 155.884 229.683 155.666C226.865 155.373 224.077 154.801 220.616 154.242L220.607 154.233ZM220.519 152.285C228.622 154.084 236.104 154.478 243.71 152.42C243.794 151.123 243.873 149.913 243.961 148.585H249.686C249.757 149.97 249.814 151.18 249.876 152.403C257.583 154.425 265.087 154.246 272.609 152.447C272.684 152.005 272.79 151.717 272.776 151.438C272.393 145.178 273.675 138.854 271.997 132.639C271.539 130.939 271.46 129.144 271.063 127.423C270.649 125.619 269.764 124.226 267.514 124.733C266.391 124.986 265.29 125.449 264.158 125.532C259.441 125.882 254.716 126.366 249.995 126.345C243.882 126.314 237.769 125.882 231.661 125.55C230.309 125.475 228.979 124.969 227.627 124.921C226.253 124.873 224.61 124.755 223.571 125.419C222.813 125.899 222.752 127.585 222.549 128.76C222.157 131.018 221.765 133.285 221.593 135.565C221.171 141.147 220.871 146.742 220.523 152.276L220.519 152.285ZM212.09 153.587C212.517 150.101 210.579 144.829 208.606 142.484C207.677 141.383 206.774 139.806 206.805 138.465C206.862 136.024 207.668 133.608 208.078 131.171C208.448 128.983 208.659 126.768 209.024 124.58C209.813 119.823 210.905 115.102 211.389 110.315C211.764 106.633 211.57 103.007 213.045 99.3821C214.719 95.2764 215.569 90.8387 216.709 86.5233C217.991 81.6751 219.202 76.8094 220.492 71.7471C222.479 71.8563 222.716 70.428 222.571 68.6329C222.258 64.8329 222.047 61.0285 221.73 57.2285C221.501 54.5118 221.118 51.8081 220.902 49.087C220.796 47.7329 219.845 47.6369 219.065 47.9732C217.44 48.6764 215.767 49.4495 214.402 50.5458C210.786 53.4417 210.482 57.7832 209.782 61.9064C209.46 63.8064 209.394 65.7545 208.976 67.6283C208.562 69.4758 207.734 71.2273 207.294 73.0662C206.342 77.0583 205.36 81.0549 204.687 85.0994C203.942 89.5895 203.493 94.1277 202.987 98.6571C202.819 100.164 203.26 101.841 202.753 103.191C201.172 107.388 200.78 111.791 200.512 116.137C200.274 119.968 200.934 123.859 201.234 127.72C201.502 131.154 201.93 134.582 202.053 138.024C202.106 139.479 201.357 140.95 201.317 142.427C201.172 147.511 200.446 152.783 203.938 157.172C205.686 159.369 207.827 161.261 209.857 163.222C210.112 163.466 210.764 163.309 211.231 163.34C211.196 162.881 211.284 162.361 211.099 161.968C210.293 160.252 209.342 158.601 208.562 156.875C207.364 154.229 206.809 151.472 207.518 148.297C210.231 148.974 210.694 151.438 212.098 153.587H212.09ZM273.199 47.8596C272.719 49.895 272.12 51.5373 271.979 53.2145C271.578 58.0235 271.305 62.8455 271.129 67.6719C271.09 68.7464 271.486 70.6813 271.979 70.7818C274.186 71.2317 273.472 73.1535 274.067 74.3066C274.591 75.3287 274.331 76.7176 274.635 77.8882C275.661 81.8498 276.758 85.7939 277.885 89.7249C278.581 92.1622 279.47 94.5514 280.105 97.0017C280.875 99.998 282.584 102.789 282.17 106.065C282.073 106.847 282.157 107.663 282.254 108.454C282.769 112.66 283.293 116.862 283.857 121.06C284.143 123.178 284.495 125.288 284.861 127.393C285.345 130.188 285.878 132.97 286.385 135.762C286.473 136.255 286.358 136.884 286.622 137.233C287.552 138.452 287.217 139.5 286.437 140.592C284.147 143.798 282.395 147.262 281.553 151.123C281.364 151.984 281.417 152.901 281.355 153.87C282.549 152.066 283.522 150.507 284.601 149.027C284.83 148.712 285.455 148.55 285.887 148.572C286.068 148.581 286.323 149.236 286.363 149.612C286.724 153.067 286.045 156.312 284.284 159.326C283.544 160.597 282.795 161.863 282.051 163.13L282.439 163.641C283.192 163.383 284.178 163.344 284.663 162.833C286.733 160.662 288.776 158.443 290.582 156.059C291.454 154.91 292.259 153.351 292.255 151.979C292.242 147.895 291.81 143.816 291.55 139.732C291.52 139.225 291.498 138.71 291.568 138.207C292.101 134.325 292.911 130.459 293.14 126.559C293.418 121.846 293.211 117.102 293.202 112.372C293.202 111.865 293.211 111.341 293.092 110.856C292.299 107.716 290.907 104.61 290.784 101.448C290.551 95.5472 290.322 89.6856 288.948 83.9201C288.045 80.1464 287.076 76.3901 286.195 72.6119C285.376 69.1046 284.346 65.6103 283.945 62.0506C283.575 58.7835 283.02 55.6256 281.298 52.8607C279.479 49.9387 276.731 48.2003 273.195 47.8552L273.199 47.8596ZM253.861 38.0102C252.17 38.91 250.69 39.6001 249.316 40.4475C247.665 41.4652 246.066 41.5045 244.463 40.478C243.389 39.7879 242.42 38.9187 241.31 38.3072C240.892 38.0758 239.729 38.233 239.689 38.3946C238.535 43.3433 234.783 45.3307 230.159 46.5755C230.296 47.3049 230.282 48.0474 230.573 48.6458C231.718 51.0044 232.669 53.5377 234.246 55.5862C236.082 57.9754 238.249 60.2816 240.72 61.9851C244.217 64.4005 248.515 64.728 252.153 62.7101C258.463 59.2071 262.017 53.4111 263.849 46.475C258.49 45.6932 255.359 42.6357 253.87 38.0059L253.861 38.0102ZM246.969 12.4018C246.969 12.4018 246.969 12.3625 246.969 12.3407C244.476 12.3407 241.984 12.2621 239.496 12.3887C238.729 12.4281 237.562 12.8299 237.324 13.3802C236.708 14.7954 236.179 16.3984 236.215 17.914C236.307 21.7184 236.505 25.5533 237.122 29.3008C237.399 30.9868 238.646 32.5854 239.694 34.0574C240.654 35.407 241.755 36.8047 243.12 37.687C244.463 38.5562 246.405 39.5346 247.757 39.1939C251.58 38.233 253.628 34.9222 255.746 31.8866C256.107 31.3712 256.517 30.7641 256.561 30.1744C256.909 25.5664 257.367 20.954 257.402 16.3416C257.428 12.891 256.385 12.2446 252.91 12.3887C250.933 12.4717 248.951 12.4018 246.973 12.4018H246.969ZM259.155 21.3864L259.802 21.4039C259.961 19.8926 259.815 18.2722 260.331 16.8963C261.903 12.7207 260.097 6.78486 256.495 4.26464C253.593 2.23361 250.254 1.62212 246.973 1.57844C243.653 1.5304 239.976 1.97155 237.421 4.2559C235.426 6.03796 233.427 8.6106 232.982 11.1046C232.418 14.2538 233.436 17.6825 233.77 20.9889C234.352 20.277 234.33 19.5257 234.484 18.8094C234.995 16.4683 235.554 14.1402 236.131 11.8166C236.558 10.1 237.91 9.86852 239.385 9.96461C243.076 10.2048 246.762 10.5455 250.457 10.7071C251.483 10.7508 252.562 10.397 253.566 10.0782C255.077 9.60209 257.759 10.646 258.164 12.1704C258.64 13.9568 258.908 15.8131 259.12 17.6519C259.261 18.8837 259.146 20.1416 259.146 21.3864H259.155Z" fill="black"/>
<path d="M29.3622 16.2727H30.9432V21.9744C30.9432 22.5994 30.7955 23.1491 30.5 23.6236C30.2074 24.098 29.7955 24.4687 29.2642 24.7358C28.733 25 28.1122 25.1321 27.402 25.1321C26.6889 25.1321 26.0668 25 25.5355 24.7358C25.0043 24.4687 24.5923 24.098 24.2997 23.6236C24.0071 23.1491 23.8608 22.5994 23.8608 21.9744V16.2727H25.4418V21.8423C25.4418 22.206 25.5213 22.5298 25.6804 22.8139C25.8423 23.098 26.0696 23.321 26.3622 23.483C26.6548 23.642 27.0014 23.7216 27.402 23.7216C27.8026 23.7216 28.1491 23.642 28.4418 23.483C28.7372 23.321 28.9645 23.098 29.1236 22.8139C29.2827 22.5298 29.3622 22.206 29.3622 21.8423V16.2727ZM34.136 21.1648V25H32.5934V18.4545H34.0678V19.5668H34.1445C34.2951 19.2003 34.5352 18.9091 34.8647 18.6932C35.1971 18.4773 35.6076 18.3693 36.0962 18.3693C36.5479 18.3693 36.9414 18.4659 37.2766 18.6591C37.6147 18.8523 37.8761 19.1321 38.0607 19.4986C38.2482 19.8651 38.3406 20.3097 38.3377 20.8324V25H36.7951V21.071C36.7951 20.6335 36.6815 20.2912 36.4542 20.044C36.2298 19.7969 35.9187 19.6733 35.521 19.6733C35.2511 19.6733 35.011 19.733 34.8008 19.8523C34.5934 19.9687 34.43 20.1378 34.3107 20.3594C34.1942 20.581 34.136 20.8494 34.136 21.1648ZM42.3349 25.1151C41.8207 25.1151 41.3604 24.983 40.9542 24.7188C40.5479 24.4545 40.2269 24.071 39.9911 23.5682C39.7553 23.0653 39.6374 22.4545 39.6374 21.7358C39.6374 21.0085 39.7567 20.3949 39.9954 19.8949C40.2369 19.392 40.5621 19.0128 40.9712 18.7571C41.3803 18.4986 41.8363 18.3693 42.3391 18.3693C42.7227 18.3693 43.038 18.4347 43.2852 18.5653C43.5323 18.6932 43.7283 18.848 43.8732 19.0298C44.0181 19.2088 44.1303 19.3778 44.2099 19.5369H44.2738V16.2727H45.8207V25H44.3036V23.9688H44.2099C44.1303 24.1278 44.0153 24.2969 43.8647 24.4759C43.7141 24.652 43.5153 24.8026 43.2681 24.9276C43.021 25.0526 42.7099 25.1151 42.3349 25.1151ZM42.7653 23.8494C43.092 23.8494 43.3704 23.7614 43.6005 23.5852C43.8306 23.4062 44.0053 23.1577 44.1246 22.8395C44.244 22.5213 44.3036 22.1506 44.3036 21.7273C44.3036 21.304 44.244 20.9361 44.1246 20.6236C44.0082 20.3111 43.8349 20.0682 43.6048 19.8949C43.3775 19.7216 43.0977 19.6349 42.7653 19.6349C42.4215 19.6349 42.1346 19.7244 41.9045 19.9034C41.6744 20.0824 41.5011 20.3295 41.3846 20.6449C41.2681 20.9602 41.2099 21.321 41.2099 21.7273C41.2099 22.1364 41.2681 22.5014 41.3846 22.8224C41.5039 23.1406 41.6786 23.392 41.9087 23.5767C42.1417 23.7585 42.4272 23.8494 42.7653 23.8494ZM50.3622 25.1278C49.706 25.1278 49.1392 24.9915 48.6619 24.7188C48.1875 24.4432 47.8224 24.054 47.5668 23.5511C47.3111 23.0455 47.1832 22.4503 47.1832 21.7656C47.1832 21.0923 47.3111 20.5014 47.5668 19.9929C47.8253 19.4815 48.1861 19.0838 48.6491 18.7997C49.1122 18.5128 49.6562 18.3693 50.2812 18.3693C50.6847 18.3693 51.0653 18.4347 51.4233 18.5653C51.7841 18.6932 52.1023 18.892 52.3778 19.1619C52.6563 19.4318 52.875 19.7756 53.0341 20.1932C53.1932 20.608 53.2727 21.1023 53.2727 21.6761V22.1491H47.9077V21.1094H51.794C51.7912 20.8139 51.7273 20.5511 51.6023 20.321C51.4773 20.0881 51.3026 19.9048 51.0781 19.7713C50.8565 19.6378 50.598 19.571 50.3026 19.571C49.9872 19.571 49.7102 19.6477 49.4716 19.8011C49.233 19.9517 49.0469 20.1506 48.9134 20.3977C48.7827 20.642 48.7159 20.9105 48.7131 21.2031V22.1108C48.7131 22.4915 48.7827 22.8182 48.9219 23.0909C49.0611 23.3608 49.2557 23.5682 49.5057 23.7131C49.7557 23.8551 50.0483 23.9261 50.3835 23.9261C50.608 23.9261 50.8111 23.8949 50.9929 23.8324C51.1747 23.767 51.3324 23.6719 51.4659 23.5469C51.5994 23.4219 51.7003 23.267 51.7685 23.0824L53.2088 23.2443C53.1179 23.625 52.9446 23.9574 52.6889 24.2415C52.4361 24.5227 52.1122 24.7415 51.7173 24.8977C51.3224 25.0511 50.8707 25.1278 50.3622 25.1278ZM54.5778 25V18.4545H56.0735V19.5455H56.1417C56.261 19.1676 56.4656 18.8764 56.7553 18.6719C57.0479 18.4645 57.3817 18.3608 57.7567 18.3608C57.842 18.3608 57.9371 18.3651 58.0423 18.3736C58.1502 18.3793 58.2397 18.3892 58.3107 18.4034V19.8224C58.2454 19.7997 58.1417 19.7798 57.9996 19.7628C57.8604 19.7429 57.7255 19.733 57.5948 19.733C57.3136 19.733 57.0607 19.794 56.8363 19.9162C56.6147 20.0355 56.44 20.2017 56.3121 20.4148C56.1843 20.6278 56.1204 20.8736 56.1204 21.152V25H54.5778ZM60.7919 25L58.9425 18.4545H60.5149L61.6655 23.0568H61.7251L62.9013 18.4545H64.4567L65.6328 23.0312H65.6967L66.8303 18.4545H68.407L66.5533 25H64.9467L63.7195 20.5767H63.63L62.4027 25H60.7919ZM72.1942 25.1278C71.538 25.1278 70.9712 24.9915 70.494 24.7188C70.0195 24.4432 69.6545 24.054 69.3988 23.5511C69.1431 23.0455 69.0153 22.4503 69.0153 21.7656C69.0153 21.0923 69.1431 20.5014 69.3988 19.9929C69.6573 19.4815 70.0181 19.0838 70.4812 18.7997C70.9442 18.5128 71.4883 18.3693 72.1133 18.3693C72.5167 18.3693 72.8974 18.4347 73.2553 18.5653C73.6161 18.6932 73.9343 18.892 74.2099 19.1619C74.4883 19.4318 74.707 19.7756 74.8661 20.1932C75.0252 20.608 75.1048 21.1023 75.1048 21.6761V22.1491H69.7397V21.1094H73.6261C73.6232 20.8139 73.5593 20.5511 73.4343 20.321C73.3093 20.0881 73.1346 19.9048 72.9102 19.7713C72.6886 19.6378 72.43 19.571 72.1346 19.571C71.8192 19.571 71.5423 19.6477 71.3036 19.8011C71.065 19.9517 70.8789 20.1506 70.7454 20.3977C70.6147 20.642 70.5479 20.9105 70.5451 21.2031V22.1108C70.5451 22.4915 70.6147 22.8182 70.7539 23.0909C70.8931 23.3608 71.0877 23.5682 71.3377 23.7131C71.5877 23.8551 71.8803 23.9261 72.2156 23.9261C72.44 23.9261 72.6431 23.8949 72.8249 23.8324C73.0067 23.767 73.1644 23.6719 73.2979 23.5469C73.4315 23.4219 73.5323 23.267 73.6005 23.0824L75.0408 23.2443C74.9499 23.625 74.7766 23.9574 74.521 24.2415C74.2681 24.5227 73.9442 24.7415 73.5494 24.8977C73.1545 25.0511 72.7028 25.1278 72.1942 25.1278ZM76.4098 25V18.4545H77.9524V25H76.4098ZM77.1854 17.5256C76.9411 17.5256 76.7308 17.4446 76.5547 17.2827C76.3786 17.1179 76.2905 16.9205 76.2905 16.6903C76.2905 16.4574 76.3786 16.2599 76.5547 16.098C76.7308 15.9332 76.9411 15.8509 77.1854 15.8509C77.4325 15.8509 77.6428 15.9332 77.8161 16.098C77.9922 16.2599 78.0803 16.4574 78.0803 16.6903C78.0803 16.9205 77.9922 17.1179 77.8161 17.2827C77.6428 17.4446 77.4325 17.5256 77.1854 17.5256ZM82.3853 27.5909C81.8313 27.5909 81.3555 27.5156 80.9577 27.3651C80.56 27.2173 80.2404 27.0185 79.9989 26.7685C79.7575 26.5185 79.5898 26.2415 79.4961 25.9375L80.8853 25.6009C80.9478 25.7287 81.0387 25.8551 81.158 25.9801C81.2773 26.108 81.4379 26.2131 81.6396 26.2955C81.8441 26.3807 82.1012 26.4233 82.4109 26.4233C82.8484 26.4233 83.2106 26.3168 83.4975 26.1037C83.7844 25.8935 83.9279 25.5469 83.9279 25.0639V23.8239H83.8512C83.7717 23.983 83.6552 24.1463 83.5018 24.3139C83.3512 24.4815 83.1509 24.6222 82.9009 24.7358C82.6538 24.8494 82.3427 24.9062 81.9677 24.9062C81.4648 24.9062 81.0089 24.7884 80.5998 24.5526C80.1935 24.3139 79.8697 23.9588 79.6282 23.4872C79.3896 23.0128 79.2702 22.419 79.2702 21.706C79.2702 20.9872 79.3896 20.3807 79.6282 19.8864C79.8697 19.3892 80.195 19.0128 80.604 18.7571C81.0131 18.4986 81.4691 18.3693 81.9719 18.3693C82.3555 18.3693 82.6708 18.4347 82.918 18.5653C83.168 18.6932 83.3668 18.848 83.5146 19.0298C83.6623 19.2088 83.7745 19.3778 83.8512 19.5369H83.9364V18.4545H85.4577V25.1065C85.4577 25.6662 85.3242 26.1293 85.0572 26.4957C84.7901 26.8622 84.4251 27.1364 83.962 27.3182C83.4989 27.5 82.9734 27.5909 82.3853 27.5909ZM82.3981 23.696C82.7248 23.696 83.0032 23.6165 83.2333 23.4574C83.4634 23.2983 83.6381 23.0696 83.7575 22.7713C83.8768 22.473 83.9364 22.1151 83.9364 21.6974C83.9364 21.2855 83.8768 20.9247 83.7575 20.6151C83.641 20.3054 83.4677 20.0653 83.2376 19.8949C83.0103 19.7216 82.7305 19.6349 82.3981 19.6349C82.0543 19.6349 81.7674 19.7244 81.5373 19.9034C81.3072 20.0824 81.1339 20.3281 81.0174 20.6406C80.9009 20.9503 80.8427 21.3026 80.8427 21.6974C80.8427 22.098 80.9009 22.4489 81.0174 22.75C81.1367 23.0483 81.3114 23.2812 81.5415 23.4489C81.7745 23.6136 82.06 23.696 82.3981 23.696ZM88.5813 21.1648V25H87.0387V16.2727H88.5472V19.5668H88.6239C88.7773 19.1974 89.0146 18.9062 89.3356 18.6932C89.6594 18.4773 90.0714 18.3693 90.5714 18.3693C91.0259 18.3693 91.4222 18.4645 91.7603 18.6548C92.0984 18.8452 92.3597 19.1236 92.5444 19.4901C92.7319 19.8565 92.8256 20.304 92.8256 20.8324V25H91.283V21.071C91.283 20.6307 91.1694 20.2884 90.9421 20.044C90.7177 19.7969 90.4023 19.6733 89.9961 19.6733C89.7234 19.6733 89.479 19.733 89.2631 19.8523C89.0501 19.9687 88.8825 20.1378 88.7603 20.3594C88.641 20.581 88.5813 20.8494 88.5813 21.1648ZM97.6665 18.4545V19.6477H93.9038V18.4545H97.6665ZM94.8327 16.8864H96.3754V23.0312C96.3754 23.2386 96.4066 23.3977 96.4691 23.5085C96.5344 23.6165 96.6197 23.6903 96.7248 23.7301C96.8299 23.7699 96.9464 23.7898 97.0742 23.7898C97.1708 23.7898 97.2589 23.7827 97.3384 23.7685C97.4208 23.7543 97.4833 23.7415 97.5259 23.7301L97.7859 24.9361C97.7035 24.9645 97.5856 24.9957 97.4322 25.0298C97.2816 25.0639 97.0969 25.0838 96.8782 25.0895C96.4918 25.1009 96.1438 25.0426 95.8342 24.9148C95.5245 24.7841 95.2788 24.5824 95.0969 24.3097C94.918 24.0369 94.8299 23.696 94.8327 23.2869V16.8864Z" fill="black"/>
<path d="M54.8608 81V72.2727H56.4418V75.9673H60.4858V72.2727H62.071V81H60.4858V77.2926H56.4418V81H54.8608ZM66.62 81.1278C65.9638 81.1278 65.397 80.9915 64.9197 80.7188C64.4453 80.4432 64.0803 80.054 63.8246 79.5511C63.5689 79.0455 63.4411 78.4503 63.4411 77.7656C63.4411 77.0923 63.5689 76.5014 63.8246 75.9929C64.0831 75.4815 64.4439 75.0838 64.907 74.7997C65.37 74.5128 65.9141 74.3693 66.5391 74.3693C66.9425 74.3693 67.3232 74.4347 67.6811 74.5653C68.0419 74.6932 68.3601 74.892 68.6357 75.1619C68.9141 75.4318 69.1328 75.7756 69.2919 76.1932C69.451 76.608 69.5305 77.1023 69.5305 77.6761V78.1491H64.1655V77.1094H68.0518C68.049 76.8139 67.9851 76.5511 67.8601 76.321C67.7351 76.0881 67.5604 75.9048 67.3359 75.7713C67.1143 75.6378 66.8558 75.571 66.5604 75.571C66.245 75.571 65.968 75.6477 65.7294 75.8011C65.4908 75.9517 65.3047 76.1506 65.1712 76.3977C65.0405 76.642 64.9737 76.9105 64.9709 77.2031V78.1108C64.9709 78.4915 65.0405 78.8182 65.1797 79.0909C65.3189 79.3608 65.5135 79.5682 65.7635 79.7131C66.0135 79.8551 66.3061 79.9261 66.6413 79.9261C66.8658 79.9261 67.0689 79.8949 67.2507 79.8324C67.4325 79.767 67.5902 79.6719 67.7237 79.5469C67.8572 79.4219 67.9581 79.267 68.0263 79.0824L69.4666 79.2443C69.3757 79.625 69.2024 79.9574 68.9467 80.2415C68.6939 80.5227 68.37 80.7415 67.9751 80.8977C67.5803 81.0511 67.1286 81.1278 66.62 81.1278ZM72.7191 81.1321C72.3043 81.1321 71.9308 81.0582 71.5984 80.9105C71.2688 80.7599 71.0075 80.5384 70.8143 80.2457C70.6239 79.9531 70.5288 79.5923 70.5288 79.1634C70.5288 78.794 70.5969 78.4886 70.7333 78.2472C70.8697 78.0057 71.0558 77.8125 71.2915 77.6676C71.5273 77.5227 71.793 77.4134 72.0884 77.3395C72.3867 77.2628 72.695 77.2074 73.0131 77.1733C73.3967 77.1335 73.7077 77.098 73.9464 77.0668C74.185 77.0327 74.3583 76.9815 74.4663 76.9134C74.5771 76.8423 74.6325 76.733 74.6325 76.5852V76.5597C74.6325 76.2386 74.5373 75.9901 74.3469 75.8139C74.1566 75.6378 73.8825 75.5497 73.5245 75.5497C73.1467 75.5497 72.8469 75.6321 72.6254 75.7969C72.4066 75.9616 72.2589 76.1562 72.1822 76.3807L70.7418 76.1761C70.8555 75.7784 71.043 75.446 71.3043 75.179C71.5657 74.9091 71.8853 74.7074 72.2631 74.5739C72.641 74.4375 73.0586 74.3693 73.516 74.3693C73.8313 74.3693 74.1452 74.4062 74.4577 74.4801C74.7702 74.554 75.0558 74.6761 75.3143 74.8466C75.5728 75.0142 75.7802 75.2429 75.9364 75.5327C76.0955 75.8224 76.1751 76.1847 76.1751 76.6193V81H74.6921V80.1009H74.641C74.5472 80.2827 74.4151 80.4531 74.2447 80.6122C74.0771 80.7685 73.8654 80.8949 73.6097 80.9915C73.3569 81.0852 73.06 81.1321 72.7191 81.1321ZM73.1197 79.9986C73.4293 79.9986 73.6978 79.9375 73.9251 79.8153C74.1523 79.6903 74.3271 79.5256 74.4492 79.321C74.5742 79.1165 74.6367 78.8935 74.6367 78.652V77.8807C74.5884 77.9205 74.506 77.9574 74.3896 77.9915C74.2759 78.0256 74.1481 78.0554 74.006 78.081C73.864 78.1065 73.7234 78.1293 73.5842 78.1491C73.445 78.169 73.3242 78.1861 73.2219 78.2003C72.9918 78.2315 72.7859 78.2827 72.604 78.3537C72.4222 78.4247 72.2788 78.5241 72.1737 78.652C72.0685 78.777 72.016 78.9389 72.016 79.1378C72.016 79.4219 72.1197 79.6364 72.3271 79.7812C72.5344 79.9261 72.7987 79.9986 73.1197 79.9986ZM79.2688 72.2727V81H77.7262V72.2727H79.2688ZM84.1236 74.4545V75.6477H80.3608V74.4545H84.1236ZM81.2898 72.8864H82.8324V79.0312C82.8324 79.2386 82.8636 79.3977 82.9261 79.5085C82.9915 79.6165 83.0767 79.6903 83.1818 79.7301C83.2869 79.7699 83.4034 79.7898 83.5312 79.7898C83.6278 79.7898 83.7159 79.7827 83.7955 79.7685C83.8778 79.7543 83.9403 79.7415 83.983 79.7301L84.2429 80.9361C84.1605 80.9645 84.0426 80.9957 83.8892 81.0298C83.7386 81.0639 83.554 81.0838 83.3352 81.0895C82.9489 81.1009 82.6009 81.0426 82.2912 80.9148C81.9815 80.7841 81.7358 80.5824 81.554 80.3097C81.375 80.0369 81.2869 79.696 81.2898 79.2869V72.8864ZM87.0969 77.1648V81H85.5543V72.2727H87.0629V75.5668H87.1396C87.293 75.1974 87.5302 74.9062 87.8512 74.6932C88.1751 74.4773 88.587 74.3693 89.087 74.3693C89.5415 74.3693 89.9379 74.4645 90.2759 74.6548C90.614 74.8452 90.8754 75.1236 91.06 75.4901C91.2475 75.8565 91.3413 76.304 91.3413 76.8324V81H89.7987V77.071C89.7987 76.6307 89.685 76.2884 89.4577 76.044C89.2333 75.7969 88.918 75.6733 88.5117 75.6733C88.239 75.6733 87.9947 75.733 87.7788 75.8523C87.5657 75.9687 87.3981 76.1378 87.2759 76.3594C87.1566 76.581 87.0969 76.8494 87.0969 77.1648ZM93.6381 83.4545C93.4279 83.4545 93.2333 83.4375 93.0543 83.4034C92.8782 83.3722 92.7376 83.3352 92.6325 83.2926L92.9904 82.0909C93.2148 82.1563 93.4151 82.1875 93.5913 82.1847C93.7674 82.1818 93.9222 82.1264 94.0558 82.0185C94.1921 81.9134 94.3072 81.7372 94.4009 81.4901L94.533 81.1364L92.1594 74.4545H93.7958L95.3043 79.3977H95.3725L96.8853 74.4545H98.5259L95.9052 81.7926C95.783 82.1392 95.6211 82.4361 95.4194 82.6832C95.2177 82.9332 94.9705 83.1236 94.6779 83.2543C94.3881 83.3878 94.0415 83.4545 93.6381 83.4545Z" fill="black"/>
<path d="M39.6591 134.636C39.6591 135.577 39.483 136.382 39.1307 137.053C38.7813 137.72 38.304 138.232 37.6989 138.587C37.0966 138.942 36.4134 139.119 35.6491 139.119C34.8849 139.119 34.2003 138.942 33.5952 138.587C32.9929 138.229 32.5156 137.716 32.1634 137.048C31.8139 136.378 31.6392 135.574 31.6392 134.636C31.6392 133.696 31.8139 132.892 32.1634 132.224C32.5156 131.554 32.9929 131.041 33.5952 130.686C34.2003 130.331 34.8849 130.153 35.6491 130.153C36.4134 130.153 37.0966 130.331 37.6989 130.686C38.304 131.041 38.7813 131.554 39.1307 132.224C39.483 132.892 39.6591 133.696 39.6591 134.636ZM38.0696 134.636C38.0696 133.974 37.9659 133.416 37.7585 132.962C37.554 132.504 37.2699 132.159 36.9062 131.926C36.5426 131.69 36.1236 131.572 35.6491 131.572C35.1747 131.572 34.7557 131.69 34.392 131.926C34.0284 132.159 33.7429 132.504 33.5355 132.962C33.331 133.416 33.2287 133.974 33.2287 134.636C33.2287 135.298 33.331 135.858 33.5355 136.315C33.7429 136.77 34.0284 137.115 34.392 137.351C34.7557 137.584 35.1747 137.7 35.6491 137.7C36.1236 137.7 36.5426 137.584 36.9062 137.351C37.2699 137.115 37.554 136.77 37.7585 136.315C37.9659 135.858 38.0696 135.298 38.0696 134.636ZM46.9322 132.455L44.6012 139H42.8967L40.5657 132.455H42.2106L43.7148 137.317H43.783L45.2915 132.455H46.9322ZM50.6747 139.128C50.0185 139.128 49.4517 138.991 48.9744 138.719C48.5 138.443 48.1349 138.054 47.8793 137.551C47.6236 137.045 47.4957 136.45 47.4957 135.766C47.4957 135.092 47.6236 134.501 47.8793 133.993C48.1378 133.482 48.4986 133.084 48.9616 132.8C49.4247 132.513 49.9688 132.369 50.5938 132.369C50.9972 132.369 51.3778 132.435 51.7358 132.565C52.0966 132.693 52.4148 132.892 52.6903 133.162C52.9688 133.432 53.1875 133.776 53.3466 134.193C53.5057 134.608 53.5852 135.102 53.5852 135.676V136.149H48.2202V135.109H52.1065C52.1037 134.814 52.0398 134.551 51.9148 134.321C51.7898 134.088 51.6151 133.905 51.3906 133.771C51.169 133.638 50.9105 133.571 50.6151 133.571C50.2997 133.571 50.0227 133.648 49.7841 133.801C49.5455 133.952 49.3594 134.151 49.2259 134.398C49.0952 134.642 49.0284 134.911 49.0256 135.203V136.111C49.0256 136.491 49.0952 136.818 49.2344 137.091C49.3736 137.361 49.5682 137.568 49.8182 137.713C50.0682 137.855 50.3608 137.926 50.696 137.926C50.9205 137.926 51.1236 137.895 51.3054 137.832C51.4872 137.767 51.6449 137.672 51.7784 137.547C51.9119 137.422 52.0128 137.267 52.081 137.082L53.5213 137.244C53.4304 137.625 53.2571 137.957 53.0014 138.241C52.7486 138.523 52.4247 138.741 52.0298 138.898C51.6349 139.051 51.1832 139.128 50.6747 139.128ZM54.8903 139V132.455H56.386V133.545H56.4542C56.5735 133.168 56.7781 132.876 57.0678 132.672C57.3604 132.464 57.6942 132.361 58.0692 132.361C58.1545 132.361 58.2496 132.365 58.3548 132.374C58.4627 132.379 58.5522 132.389 58.6232 132.403V133.822C58.5579 133.8 58.4542 133.78 58.3121 133.763C58.1729 133.743 58.038 133.733 57.9073 133.733C57.6261 133.733 57.3732 133.794 57.1488 133.916C56.9272 134.036 56.7525 134.202 56.6246 134.415C56.4968 134.628 56.4329 134.874 56.4329 135.152V139H54.8903ZM61.1044 139L59.255 132.455H60.8274L61.978 137.057H62.0376L63.2138 132.455H64.7692L65.9453 137.031H66.0092L67.1428 132.455H68.7195L66.8658 139H65.2592L64.032 134.577H63.9425L62.7152 139H61.1044ZM72.5067 139.128C71.8505 139.128 71.2837 138.991 70.8065 138.719C70.332 138.443 69.967 138.054 69.7113 137.551C69.4556 137.045 69.3278 136.45 69.3278 135.766C69.3278 135.092 69.4556 134.501 69.7113 133.993C69.9698 133.482 70.3306 133.084 70.7937 132.8C71.2567 132.513 71.8008 132.369 72.4258 132.369C72.8292 132.369 73.2099 132.435 73.5678 132.565C73.9286 132.693 74.2468 132.892 74.5224 133.162C74.8008 133.432 75.0195 133.776 75.1786 134.193C75.3377 134.608 75.4173 135.102 75.4173 135.676V136.149H70.0522V135.109H73.9386C73.9357 134.814 73.8718 134.551 73.7468 134.321C73.6218 134.088 73.4471 133.905 73.2227 133.771C73.0011 133.638 72.7425 133.571 72.4471 133.571C72.1317 133.571 71.8548 133.648 71.6161 133.801C71.3775 133.952 71.1914 134.151 71.0579 134.398C70.9272 134.642 70.8604 134.911 70.8576 135.203V136.111C70.8576 136.491 70.9272 136.818 71.0664 137.091C71.2056 137.361 71.4002 137.568 71.6502 137.713C71.9002 137.855 72.1928 137.926 72.5281 137.926C72.7525 137.926 72.9556 137.895 73.1374 137.832C73.3192 137.767 73.4769 137.672 73.6104 137.547C73.744 137.422 73.8448 137.267 73.913 137.082L75.3533 137.244C75.2624 137.625 75.0891 137.957 74.8335 138.241C74.5806 138.523 74.2567 138.741 73.8619 138.898C73.467 139.051 73.0153 139.128 72.5067 139.128ZM76.7223 139V132.455H78.2649V139H76.7223ZM77.4979 131.526C77.2536 131.526 77.0433 131.445 76.8672 131.283C76.6911 131.118 76.603 130.92 76.603 130.69C76.603 130.457 76.6911 130.26 76.8672 130.098C77.0433 129.933 77.2536 129.851 77.4979 129.851C77.745 129.851 77.9553 129.933 78.1286 130.098C78.3047 130.26 78.3928 130.457 78.3928 130.69C78.3928 130.92 78.3047 131.118 78.1286 131.283C77.9553 131.445 77.745 131.526 77.4979 131.526ZM82.6978 141.591C82.1438 141.591 81.668 141.516 81.2702 141.365C80.8725 141.217 80.5529 141.018 80.3114 140.768C80.07 140.518 79.9023 140.241 79.8086 139.938L81.1978 139.601C81.2603 139.729 81.3512 139.855 81.4705 139.98C81.5898 140.108 81.7504 140.213 81.9521 140.295C82.1566 140.381 82.4137 140.423 82.7234 140.423C83.1609 140.423 83.5231 140.317 83.81 140.104C84.0969 139.893 84.2404 139.547 84.2404 139.064V137.824H84.1637C84.0842 137.983 83.9677 138.146 83.8143 138.314C83.6637 138.482 83.4634 138.622 83.2134 138.736C82.9663 138.849 82.6552 138.906 82.2802 138.906C81.7773 138.906 81.3214 138.788 80.9123 138.553C80.506 138.314 80.1822 137.959 79.9407 137.487C79.7021 137.013 79.5827 136.419 79.5827 135.706C79.5827 134.987 79.7021 134.381 79.9407 133.886C80.1822 133.389 80.5075 133.013 80.9165 132.757C81.3256 132.499 81.7816 132.369 82.2844 132.369C82.668 132.369 82.9833 132.435 83.2305 132.565C83.4805 132.693 83.6793 132.848 83.8271 133.03C83.9748 133.209 84.087 133.378 84.1637 133.537H84.2489V132.455H85.7702V139.107C85.7702 139.666 85.6367 140.129 85.3697 140.496C85.1026 140.862 84.7376 141.136 84.2745 141.318C83.8114 141.5 83.2859 141.591 82.6978 141.591ZM82.7106 137.696C83.0373 137.696 83.3157 137.616 83.5458 137.457C83.7759 137.298 83.9506 137.07 84.07 136.771C84.1893 136.473 84.2489 136.115 84.2489 135.697C84.2489 135.286 84.1893 134.925 84.07 134.615C83.9535 134.305 83.7802 134.065 83.5501 133.895C83.3228 133.722 83.043 133.635 82.7106 133.635C82.3668 133.635 82.0799 133.724 81.8498 133.903C81.6197 134.082 81.4464 134.328 81.3299 134.641C81.2134 134.95 81.1552 135.303 81.1552 135.697C81.1552 136.098 81.2134 136.449 81.3299 136.75C81.4492 137.048 81.6239 137.281 81.854 137.449C82.087 137.614 82.3725 137.696 82.7106 137.696ZM88.8938 135.165V139H87.3512V130.273H88.8597V133.567H88.9364C89.0898 133.197 89.3271 132.906 89.6481 132.693C89.9719 132.477 90.3839 132.369 90.8839 132.369C91.3384 132.369 91.7347 132.464 92.0728 132.655C92.4109 132.845 92.6722 133.124 92.8569 133.49C93.0444 133.857 93.1381 134.304 93.1381 134.832V139H91.5955V135.071C91.5955 134.631 91.4819 134.288 91.2546 134.044C91.0302 133.797 90.7148 133.673 90.3086 133.673C90.0359 133.673 89.7915 133.733 89.5756 133.852C89.3626 133.969 89.195 134.138 89.0728 134.359C88.9535 134.581 88.8938 134.849 88.8938 135.165ZM97.979 132.455V133.648H94.2163V132.455H97.979ZM95.1452 130.886H96.6879V137.031C96.6879 137.239 96.7191 137.398 96.7816 137.509C96.8469 137.616 96.9322 137.69 97.0373 137.73C97.1424 137.77 97.2589 137.79 97.3867 137.79C97.4833 137.79 97.5714 137.783 97.6509 137.768C97.7333 137.754 97.7958 137.741 97.8384 137.73L98.0984 138.936C98.016 138.964 97.8981 138.996 97.7447 139.03C97.5941 139.064 97.4094 139.084 97.1907 139.089C96.8043 139.101 96.4563 139.043 96.1467 138.915C95.837 138.784 95.5913 138.582 95.4094 138.31C95.2305 138.037 95.1424 137.696 95.1452 137.287V130.886Z" fill="black"/>
<path d="M69.6591 190.636C69.6591 191.577 69.483 192.382 69.1307 193.053C68.7813 193.72 68.304 194.232 67.6989 194.587C67.0966 194.942 66.4134 195.119 65.6491 195.119C64.8849 195.119 64.2003 194.942 63.5952 194.587C62.9929 194.229 62.5156 193.716 62.1634 193.048C61.8139 192.378 61.6392 191.574 61.6392 190.636C61.6392 189.696 61.8139 188.892 62.1634 188.224C62.5156 187.554 62.9929 187.041 63.5952 186.686C64.2003 186.331 64.8849 186.153 65.6491 186.153C66.4134 186.153 67.0966 186.331 67.6989 186.686C68.304 187.041 68.7813 187.554 69.1307 188.224C69.483 188.892 69.6591 189.696 69.6591 190.636ZM68.0696 190.636C68.0696 189.974 67.9659 189.416 67.7585 188.962C67.554 188.504 67.2699 188.159 66.9062 187.926C66.5426 187.69 66.1236 187.572 65.6491 187.572C65.1747 187.572 64.7557 187.69 64.392 187.926C64.0284 188.159 63.7429 188.504 63.5355 188.962C63.331 189.416 63.2287 189.974 63.2287 190.636C63.2287 191.298 63.331 191.858 63.5355 192.315C63.7429 192.77 64.0284 193.115 64.392 193.351C64.7557 193.584 65.1747 193.7 65.6491 193.7C66.1236 193.7 66.5426 193.584 66.9062 193.351C67.2699 193.115 67.554 192.77 67.7585 192.315C67.9659 191.858 68.0696 191.298 68.0696 190.636ZM71.1538 195V186.273H72.6964V189.537H72.7603C72.8398 189.378 72.9521 189.209 73.0969 189.03C73.2418 188.848 73.4379 188.693 73.685 188.565C73.9322 188.435 74.2475 188.369 74.631 188.369C75.1367 188.369 75.5927 188.499 75.9989 188.757C76.408 189.013 76.7319 189.392 76.9705 189.895C77.212 190.395 77.3327 191.009 77.3327 191.736C77.3327 192.455 77.2148 193.065 76.979 193.568C76.7433 194.071 76.4222 194.455 76.016 194.719C75.6097 194.983 75.1495 195.115 74.6353 195.115C74.2603 195.115 73.9492 195.053 73.7021 194.928C73.4549 194.803 73.256 194.652 73.1055 194.476C72.9577 194.297 72.8427 194.128 72.7603 193.969H72.6708V195H71.1538ZM72.6665 191.727C72.6665 192.151 72.7262 192.521 72.8455 192.839C72.9677 193.158 73.1424 193.406 73.3697 193.585C73.5998 193.761 73.8782 193.849 74.2049 193.849C74.5458 193.849 74.8313 193.759 75.0614 193.577C75.2915 193.392 75.4648 193.141 75.5813 192.822C75.7006 192.501 75.7603 192.136 75.7603 191.727C75.7603 191.321 75.7021 190.96 75.5856 190.645C75.4691 190.33 75.2958 190.082 75.0657 189.903C74.8356 189.724 74.5487 189.635 74.2049 189.635C73.8754 189.635 73.5955 189.722 73.3654 189.895C73.1353 190.068 72.9606 190.311 72.8413 190.624C72.7248 190.936 72.6665 191.304 72.6665 191.727ZM81.5419 195.128C80.8857 195.128 80.3189 194.991 79.8416 194.719C79.3672 194.443 79.0021 194.054 78.7464 193.551C78.4908 193.045 78.3629 192.45 78.3629 191.766C78.3629 191.092 78.4908 190.501 78.7464 189.993C79.005 189.482 79.3658 189.084 79.8288 188.8C80.2919 188.513 80.8359 188.369 81.4609 188.369C81.8643 188.369 82.245 188.435 82.603 188.565C82.9638 188.693 83.282 188.892 83.5575 189.162C83.8359 189.432 84.0547 189.776 84.2138 190.193C84.3729 190.608 84.4524 191.102 84.4524 191.676V192.149H79.0874V191.109H82.9737C82.9709 190.814 82.907 190.551 82.782 190.321C82.657 190.088 82.4822 189.905 82.2578 189.771C82.0362 189.638 81.7777 189.571 81.4822 189.571C81.1669 189.571 80.8899 189.648 80.6513 189.801C80.4126 189.952 80.2266 190.151 80.093 190.398C79.9624 190.642 79.8956 190.911 79.8928 191.203V192.111C79.8928 192.491 79.9624 192.818 80.1016 193.091C80.2408 193.361 80.4354 193.568 80.6854 193.713C80.9354 193.855 81.228 193.926 81.5632 193.926C81.7876 193.926 81.9908 193.895 82.1726 193.832C82.3544 193.767 82.5121 193.672 82.6456 193.547C82.7791 193.422 82.88 193.267 82.9482 193.082L84.3885 193.244C84.2976 193.625 84.1243 193.957 83.8686 194.241C83.6158 194.523 83.2919 194.741 82.897 194.898C82.5021 195.051 82.0504 195.128 81.5419 195.128ZM90.9308 190.185L89.5245 190.338C89.4847 190.196 89.4151 190.062 89.3157 189.938C89.2191 189.812 89.0884 189.712 88.9237 189.635C88.7589 189.558 88.5572 189.52 88.3185 189.52C87.9975 189.52 87.7276 189.589 87.5089 189.729C87.293 189.868 87.1864 190.048 87.1893 190.27C87.1864 190.46 87.256 190.615 87.3981 190.734C87.543 190.854 87.7816 190.952 88.114 191.028L89.2305 191.267C89.8498 191.401 90.31 191.612 90.6112 191.902C90.9151 192.192 91.0685 192.571 91.0714 193.04C91.0685 193.452 90.9478 193.815 90.7092 194.131C90.4734 194.443 90.1452 194.687 89.7248 194.864C89.3043 195.04 88.8214 195.128 88.2759 195.128C87.4748 195.128 86.8299 194.96 86.3413 194.625C85.8526 194.287 85.5614 193.817 85.4677 193.214L86.9719 193.07C87.0401 193.365 87.185 193.588 87.4066 193.739C87.6282 193.889 87.9165 193.964 88.2717 193.964C88.6381 193.964 88.9322 193.889 89.1538 193.739C89.3782 193.588 89.4904 193.402 89.4904 193.18C89.4904 192.993 89.418 192.838 89.2731 192.716C89.131 192.594 88.9094 192.5 88.6083 192.435L87.4918 192.2C86.864 192.07 86.3995 191.849 86.0984 191.54C85.7972 191.227 85.6481 190.832 85.6509 190.355C85.6481 189.952 85.7575 189.602 85.979 189.307C86.2035 189.009 86.5146 188.778 86.9123 188.616C87.3129 188.452 87.7745 188.369 88.2972 188.369C89.0643 188.369 89.668 188.533 90.1083 188.859C90.5515 189.186 90.8256 189.628 90.9308 190.185ZM95.2411 195.128C94.5849 195.128 94.0181 194.991 93.5408 194.719C93.0664 194.443 92.7013 194.054 92.4457 193.551C92.19 193.045 92.0621 192.45 92.0621 191.766C92.0621 191.092 92.19 190.501 92.4457 189.993C92.7042 189.482 93.065 189.084 93.5281 188.8C93.9911 188.513 94.5352 188.369 95.1602 188.369C95.5636 188.369 95.9442 188.435 96.3022 188.565C96.663 188.693 96.9812 188.892 97.2567 189.162C97.5352 189.432 97.7539 189.776 97.913 190.193C98.0721 190.608 98.1516 191.102 98.1516 191.676V192.149H92.7866V191.109H96.6729C96.6701 190.814 96.6062 190.551 96.4812 190.321C96.3562 190.088 96.1815 189.905 95.957 189.771C95.7354 189.638 95.4769 189.571 95.1815 189.571C94.8661 189.571 94.5891 189.648 94.3505 189.801C94.1119 189.952 93.9258 190.151 93.7923 190.398C93.6616 190.642 93.5948 190.911 93.592 191.203V192.111C93.592 192.491 93.6616 192.818 93.8008 193.091C93.94 193.361 94.1346 193.568 94.3846 193.713C94.6346 193.855 94.9272 193.926 95.2624 193.926C95.4869 193.926 95.69 193.895 95.8718 193.832C96.0536 193.767 96.2113 193.672 96.3448 193.547C96.4783 193.422 96.5792 193.267 96.6474 193.082L98.0877 193.244C97.9968 193.625 97.8235 193.957 97.5678 194.241C97.315 194.523 96.9911 194.741 96.5962 194.898C96.2013 195.051 95.7496 195.128 95.2411 195.128Z" fill="black"/>
<path d="M0.860795 252V243.273H6.53693V244.598H2.44176V246.967H6.2429V248.293H2.44176V250.675H6.57102V252H0.860795ZM9.34304 245.455L10.6641 247.871L12.0064 245.455H13.6385L11.6655 248.727L13.6726 252H12.049L10.6641 249.643L9.2919 252H7.65554L9.64986 248.727L7.70668 245.455H9.34304ZM18.1001 245.455V246.648H14.3374V245.455H18.1001ZM15.2663 243.886H16.8089V250.031C16.8089 250.239 16.8402 250.398 16.9027 250.509C16.968 250.616 17.0533 250.69 17.1584 250.73C17.2635 250.77 17.38 250.79 17.5078 250.79C17.6044 250.79 17.6925 250.783 17.772 250.768C17.8544 250.754 17.9169 250.741 17.9595 250.73L18.2195 251.936C18.1371 251.964 18.0192 251.996 17.8658 252.03C17.7152 252.064 17.5305 252.084 17.3118 252.089C16.9254 252.101 16.5774 252.043 16.2678 251.915C15.9581 251.784 15.7124 251.582 15.5305 251.31C15.3516 251.037 15.2635 250.696 15.2663 250.287V243.886ZM19.3903 252V245.455H20.886V246.545H20.9542C21.0735 246.168 21.2781 245.876 21.5678 245.672C21.8604 245.464 22.1942 245.361 22.5692 245.361C22.6545 245.361 22.7496 245.365 22.8548 245.374C22.9627 245.379 23.0522 245.389 23.1232 245.403V246.822C23.0579 246.8 22.9542 246.78 22.8121 246.763C22.6729 246.743 22.538 246.733 22.4073 246.733C22.1261 246.733 21.8732 246.794 21.6488 246.916C21.4272 247.036 21.2525 247.202 21.1246 247.415C20.9968 247.628 20.9329 247.874 20.9329 248.152V252H19.3903ZM26.7763 252.128C26.12 252.128 25.5533 251.991 25.076 251.719C24.6016 251.443 24.2365 251.054 23.9808 250.551C23.7251 250.045 23.5973 249.45 23.5973 248.766C23.5973 248.092 23.7251 247.501 23.9808 246.993C24.2393 246.482 24.6001 246.084 25.0632 245.8C25.5263 245.513 26.0703 245.369 26.6953 245.369C27.0987 245.369 27.4794 245.435 27.8374 245.565C28.1982 245.693 28.5163 245.892 28.7919 246.162C29.0703 246.432 29.2891 246.776 29.4482 247.193C29.6072 247.608 29.6868 248.102 29.6868 248.676V249.149H24.3217V248.109H28.2081C28.2053 247.814 28.1413 247.551 28.0163 247.321C27.8913 247.088 27.7166 246.905 27.4922 246.771C27.2706 246.638 27.0121 246.571 26.7166 246.571C26.4013 246.571 26.1243 246.648 25.8857 246.801C25.647 246.952 25.4609 247.151 25.3274 247.398C25.1967 247.642 25.13 247.911 25.1271 248.203V249.111C25.1271 249.491 25.1967 249.818 25.3359 250.091C25.4751 250.361 25.6697 250.568 25.9197 250.713C26.1697 250.855 26.4624 250.926 26.7976 250.926C27.022 250.926 27.2251 250.895 27.407 250.832C27.5888 250.767 27.7464 250.672 27.88 250.547C28.0135 250.422 28.1143 250.267 28.1825 250.082L29.6229 250.244C29.532 250.625 29.3587 250.957 29.103 251.241C28.8501 251.523 28.5263 251.741 28.1314 251.898C27.7365 252.051 27.2848 252.128 26.7763 252.128ZM30.9918 252V245.455H32.4663V246.567H32.543C32.6793 246.192 32.9052 245.899 33.2205 245.689C33.5359 245.476 33.9123 245.369 34.3498 245.369C34.793 245.369 35.1665 245.477 35.4705 245.693C35.7773 245.906 35.9933 246.197 36.1183 246.567H36.1864C36.3313 246.203 36.5756 245.913 36.9194 245.697C37.266 245.479 37.6765 245.369 38.1509 245.369C38.7532 245.369 39.2447 245.56 39.6254 245.94C40.006 246.321 40.1964 246.876 40.1964 247.607V252H38.6495V247.845C38.6495 247.439 38.5415 247.142 38.3256 246.955C38.1097 246.764 37.8455 246.669 37.533 246.669C37.1609 246.669 36.8697 246.786 36.6594 247.018C36.4521 247.249 36.3484 247.548 36.3484 247.918V252H34.8356V247.781C34.8356 247.443 34.7333 247.173 34.5288 246.972C34.3271 246.77 34.0629 246.669 33.7362 246.669C33.5146 246.669 33.3129 246.726 33.131 246.839C32.9492 246.95 32.8043 247.108 32.6964 247.312C32.5884 247.514 32.5344 247.75 32.5344 248.02V252H30.9918ZM44.6591 252.128C44.0028 252.128 43.4361 251.991 42.9588 251.719C42.4844 251.443 42.1193 251.054 41.8636 250.551C41.608 250.045 41.4801 249.45 41.4801 248.766C41.4801 248.092 41.608 247.501 41.8636 246.993C42.1222 246.482 42.483 246.084 42.946 245.8C43.4091 245.513 43.9531 245.369 44.5781 245.369C44.9815 245.369 45.3622 245.435 45.7202 245.565C46.081 245.693 46.3991 245.892 46.6747 246.162C46.9531 246.432 47.1719 246.776 47.331 247.193C47.4901 247.608 47.5696 248.102 47.5696 248.676V249.149H42.2045V248.109H46.0909C46.0881 247.814 46.0241 247.551 45.8991 247.321C45.7741 247.088 45.5994 246.905 45.375 246.771C45.1534 246.638 44.8949 246.571 44.5994 246.571C44.2841 246.571 44.0071 246.648 43.7685 246.801C43.5298 246.952 43.3438 247.151 43.2102 247.398C43.0795 247.642 43.0128 247.911 43.0099 248.203V249.111C43.0099 249.491 43.0795 249.818 43.2188 250.091C43.358 250.361 43.5526 250.568 43.8026 250.713C44.0526 250.855 44.3452 250.926 44.6804 250.926C44.9048 250.926 45.108 250.895 45.2898 250.832C45.4716 250.767 45.6293 250.672 45.7628 250.547C45.8963 250.422 45.9972 250.267 46.0653 250.082L47.5057 250.244C47.4148 250.625 47.2415 250.957 46.9858 251.241C46.733 251.523 46.4091 251.741 46.0142 251.898C45.6193 252.051 45.1676 252.128 44.6591 252.128ZM50.4173 243.273V252H48.8746V243.273H50.4173ZM52.9624 254.455C52.7521 254.455 52.5575 254.438 52.3786 254.403C52.2024 254.372 52.0618 254.335 51.9567 254.293L52.3146 253.091C52.5391 253.156 52.7393 253.188 52.9155 253.185C53.0916 253.182 53.2464 253.126 53.38 253.018C53.5163 252.913 53.6314 252.737 53.7251 252.49L53.8572 252.136L51.4837 245.455H53.12L54.6286 250.398H54.6967L56.2095 245.455H57.8501L55.2294 252.793C55.1072 253.139 54.9453 253.436 54.7436 253.683C54.5419 253.933 54.2947 254.124 54.0021 254.254C53.7124 254.388 53.3658 254.455 52.9624 254.455ZM69.7607 247.636C69.7607 248.577 69.5845 249.382 69.2322 250.053C68.8828 250.72 68.4055 251.232 67.8004 251.587C67.1982 251.942 66.5149 252.119 65.7507 252.119C64.9865 252.119 64.3018 251.942 63.6967 251.587C63.0945 251.229 62.6172 250.716 62.2649 250.048C61.9155 249.378 61.7408 248.574 61.7408 247.636C61.7408 246.696 61.9155 245.892 62.2649 245.224C62.6172 244.554 63.0945 244.041 63.6967 243.686C64.3018 243.331 64.9865 243.153 65.7507 243.153C66.5149 243.153 67.1982 243.331 67.8004 243.686C68.4055 244.041 68.8828 244.554 69.2322 245.224C69.5845 245.892 69.7607 246.696 69.7607 247.636ZM68.1712 247.636C68.1712 246.974 68.0675 246.416 67.8601 245.962C67.6555 245.504 67.3714 245.159 67.0078 244.926C66.6442 244.69 66.2251 244.572 65.7507 244.572C65.2763 244.572 64.8572 244.69 64.4936 244.926C64.13 245.159 63.8445 245.504 63.6371 245.962C63.4325 246.416 63.3303 246.974 63.3303 247.636C63.3303 248.298 63.4325 248.858 63.6371 249.315C63.8445 249.77 64.13 250.115 64.4936 250.351C64.8572 250.584 65.2763 250.7 65.7507 250.7C66.2251 250.7 66.6442 250.584 67.0078 250.351C67.3714 250.115 67.6555 249.77 67.8601 249.315C68.0675 248.858 68.1712 248.298 68.1712 247.636ZM71.2553 252V243.273H72.7979V246.537H72.8619C72.9414 246.378 73.0536 246.209 73.1985 246.03C73.3434 245.848 73.5394 245.693 73.7866 245.565C74.0337 245.435 74.3491 245.369 74.7326 245.369C75.2383 245.369 75.6942 245.499 76.1005 245.757C76.5096 246.013 76.8335 246.392 77.0721 246.895C77.3136 247.395 77.4343 248.009 77.4343 248.736C77.4343 249.455 77.3164 250.065 77.0806 250.568C76.8448 251.071 76.5238 251.455 76.1175 251.719C75.7113 251.983 75.2511 252.115 74.7369 252.115C74.3619 252.115 74.0508 252.053 73.8036 251.928C73.5565 251.803 73.3576 251.652 73.207 251.476C73.0593 251.297 72.9442 251.128 72.8619 250.969H72.7724V252H71.2553ZM72.7681 248.727C72.7681 249.151 72.8278 249.521 72.9471 249.839C73.0692 250.158 73.244 250.406 73.4712 250.585C73.7013 250.761 73.9798 250.849 74.3065 250.849C74.6474 250.849 74.9329 250.759 75.163 250.577C75.3931 250.392 75.5664 250.141 75.6829 249.822C75.8022 249.501 75.8619 249.136 75.8619 248.727C75.8619 248.321 75.8036 247.96 75.6871 247.645C75.5707 247.33 75.3974 247.082 75.1673 246.903C74.9371 246.724 74.6502 246.635 74.3065 246.635C73.9769 246.635 73.6971 246.722 73.467 246.895C73.2369 247.068 73.0621 247.311 72.9428 247.624C72.8263 247.936 72.7681 248.304 72.7681 248.727ZM81.6435 252.128C80.9872 252.128 80.4205 251.991 79.9432 251.719C79.4688 251.443 79.1037 251.054 78.848 250.551C78.5923 250.045 78.4645 249.45 78.4645 248.766C78.4645 248.092 78.5923 247.501 78.848 246.993C79.1065 246.482 79.4673 246.084 79.9304 245.8C80.3935 245.513 80.9375 245.369 81.5625 245.369C81.9659 245.369 82.3466 245.435 82.7045 245.565C83.0653 245.693 83.3835 245.892 83.6591 246.162C83.9375 246.432 84.1563 246.776 84.3153 247.193C84.4744 247.608 84.554 248.102 84.554 248.676V249.149H79.1889V248.109H83.0753C83.0724 247.814 83.0085 247.551 82.8835 247.321C82.7585 247.088 82.5838 246.905 82.3594 246.771C82.1378 246.638 81.8793 246.571 81.5838 246.571C81.2685 246.571 80.9915 246.648 80.7528 246.801C80.5142 246.952 80.3281 247.151 80.1946 247.398C80.0639 247.642 79.9972 247.911 79.9943 248.203V249.111C79.9943 249.491 80.0639 249.818 80.2031 250.091C80.3423 250.361 80.5369 250.568 80.7869 250.713C81.0369 250.855 81.3295 250.926 81.6648 250.926C81.8892 250.926 82.0923 250.895 82.2741 250.832C82.456 250.767 82.6136 250.672 82.7472 250.547C82.8807 250.422 82.9815 250.267 83.0497 250.082L84.4901 250.244C84.3991 250.625 84.2259 250.957 83.9702 251.241C83.7173 251.523 83.3935 251.741 82.9986 251.898C82.6037 252.051 82.152 252.128 81.6435 252.128ZM91.0323 247.185L89.6261 247.338C89.5863 247.196 89.5167 247.062 89.4173 246.938C89.3207 246.812 89.19 246.712 89.0252 246.635C88.8604 246.558 88.6587 246.52 88.4201 246.52C88.0991 246.52 87.8292 246.589 87.6104 246.729C87.3945 246.868 87.288 247.048 87.2908 247.27C87.288 247.46 87.3576 247.615 87.4996 247.734C87.6445 247.854 87.8832 247.952 88.2156 248.028L89.332 248.267C89.9513 248.401 90.4116 248.612 90.7127 248.902C91.0167 249.192 91.1701 249.571 91.1729 250.04C91.1701 250.452 91.0494 250.815 90.8107 251.131C90.5749 251.443 90.2468 251.687 89.8263 251.864C89.4059 252.04 88.9229 252.128 88.3775 252.128C87.5763 252.128 86.9315 251.96 86.4428 251.625C85.9542 251.287 85.663 250.817 85.5692 250.214L87.0735 250.07C87.1417 250.365 87.2866 250.588 87.5082 250.739C87.7298 250.889 88.0181 250.964 88.3732 250.964C88.7397 250.964 89.0337 250.889 89.2553 250.739C89.4798 250.588 89.592 250.402 89.592 250.18C89.592 249.993 89.5195 249.838 89.3746 249.716C89.2326 249.594 89.011 249.5 88.7099 249.435L87.5934 249.2C86.9656 249.07 86.5011 248.849 86.1999 248.54C85.8988 248.227 85.7496 247.832 85.7525 247.355C85.7496 246.952 85.859 246.602 86.0806 246.307C86.305 246.009 86.6161 245.778 87.0138 245.616C87.4144 245.452 87.8761 245.369 88.3988 245.369C89.1658 245.369 89.7695 245.533 90.2099 245.859C90.6531 246.186 90.9272 246.628 91.0323 247.185ZM95.3427 252.128C94.6864 252.128 94.1197 251.991 93.6424 251.719C93.168 251.443 92.8029 251.054 92.5472 250.551C92.2915 250.045 92.1637 249.45 92.1637 248.766C92.1637 248.092 92.2915 247.501 92.5472 246.993C92.8058 246.482 93.1665 246.084 93.6296 245.8C94.0927 245.513 94.6367 245.369 95.2617 245.369C95.6651 245.369 96.0458 245.435 96.4038 245.565C96.7646 245.693 97.0827 245.892 97.3583 246.162C97.6367 246.432 97.8555 246.776 98.0146 247.193C98.1737 247.608 98.2532 248.102 98.2532 248.676V249.149H92.8881V248.109H96.7745C96.7717 247.814 96.7077 247.551 96.5827 247.321C96.4577 247.088 96.283 246.905 96.0586 246.771C95.837 246.638 95.5785 246.571 95.283 246.571C94.9677 246.571 94.6907 246.648 94.4521 246.801C94.2134 246.952 94.0273 247.151 93.8938 247.398C93.7631 247.642 93.6964 247.911 93.6935 248.203V249.111C93.6935 249.491 93.7631 249.818 93.9023 250.091C94.0415 250.361 94.2362 250.568 94.4862 250.713C94.7362 250.855 95.0288 250.926 95.364 250.926C95.5884 250.926 95.7915 250.895 95.9734 250.832C96.1552 250.767 96.3129 250.672 96.4464 250.547C96.5799 250.422 96.6808 250.267 96.7489 250.082L98.1893 250.244C98.0984 250.625 97.9251 250.957 97.6694 251.241C97.4165 251.523 97.0927 251.741 96.6978 251.898C96.3029 252.051 95.8512 252.128 95.3427 252.128Z" fill="black"/>
<path d="M68.2102 38.1136V37.4318L73.6989 34.6364V35.7273L69.4886 37.7557L69.5227 37.6875V37.858L69.4886 37.7898L73.6989 39.8182V40.9091L68.2102 38.1136ZM78.8817 33.2727V42H77.8249V34.3807H77.7738L75.6431 35.7955V34.7216L77.8249 33.2727H78.8817ZM84.1871 42.1193C83.6019 42.1193 83.0849 42.0156 82.636 41.8082C82.19 41.598 81.842 41.3097 81.592 40.9432C81.342 40.5739 81.2184 40.1534 81.2212 39.6818C81.2184 39.3125 81.2908 38.9716 81.4386 38.6591C81.5863 38.3437 81.788 38.081 82.0437 37.8707C82.3022 37.6577 82.5906 37.5227 82.9087 37.4659V37.4148C82.4911 37.3068 82.1587 37.0724 81.9116 36.7116C81.6644 36.348 81.5423 35.9347 81.5451 35.4716C81.5423 35.0284 81.6545 34.6321 81.8817 34.2827C82.109 33.9332 82.4215 33.6577 82.8192 33.456C83.2198 33.2543 83.6758 33.1534 84.1871 33.1534C84.6928 33.1534 85.1445 33.2543 85.5423 33.456C85.94 33.6577 86.2525 33.9332 86.4798 34.2827C86.7099 34.6321 86.8263 35.0284 86.8292 35.4716C86.8263 35.9347 86.6999 36.348 86.4499 36.7116C86.2028 37.0724 85.8746 37.3068 85.4656 37.4148V37.4659C85.7809 37.5227 86.065 37.6577 86.3178 37.8707C86.5707 38.081 86.7724 38.3437 86.9229 38.6591C87.0735 38.9716 87.1502 39.3125 87.1531 39.6818C87.1502 40.1534 87.0224 40.5739 86.7695 40.9432C86.5195 41.3097 86.1715 41.598 85.7255 41.8082C85.2823 42.0156 84.7695 42.1193 84.1871 42.1193ZM84.1871 41.1818C84.582 41.1818 84.9229 41.1179 85.2099 40.9901C85.4968 40.8622 85.7184 40.6818 85.8746 40.4489C86.0309 40.2159 86.1104 39.9432 86.1133 39.6307C86.1104 39.3011 86.0252 39.0099 85.8576 38.7571C85.69 38.5043 85.4613 38.3054 85.1715 38.1605C84.8846 38.0156 84.5565 37.9432 84.1871 37.9432C83.815 37.9432 83.4826 38.0156 83.19 38.1605C82.9002 38.3054 82.6715 38.5043 82.5039 38.7571C82.3391 39.0099 82.2582 39.3011 82.261 39.6307C82.2582 39.9432 82.3335 40.2159 82.4869 40.4489C82.6431 40.6818 82.8661 40.8622 83.1559 40.9901C83.4457 41.1179 83.7894 41.1818 84.1871 41.1818ZM84.1871 37.0398C84.4996 37.0398 84.7766 36.9773 85.0181 36.8523C85.2624 36.7273 85.4542 36.5526 85.5934 36.3281C85.7326 36.1037 85.8036 35.8409 85.8065 35.5398C85.8036 35.2443 85.734 34.9872 85.5977 34.7685C85.4613 34.5469 85.2724 34.3764 85.0309 34.2571C84.7894 34.1349 84.5082 34.0739 84.1871 34.0739C83.8604 34.0739 83.5749 34.1349 83.3306 34.2571C83.0863 34.3764 82.8974 34.5469 82.7638 34.7685C82.6303 34.9872 82.565 35.2443 82.5678 35.5398C82.565 35.8409 82.6317 36.1037 82.7681 36.3281C82.9073 36.5526 83.0991 36.7273 83.3434 36.8523C83.5877 36.9773 83.869 37.0398 84.1871 37.0398ZM89.2667 42.0682C89.0565 42.0682 88.8761 41.9929 88.7255 41.8423C88.5749 41.6918 88.4996 41.5114 88.4996 41.3011C88.4996 41.0909 88.5749 40.9105 88.7255 40.7599C88.8761 40.6094 89.0565 40.5341 89.2667 40.5341C89.4769 40.5341 89.6573 40.6094 89.8079 40.7599C89.9585 40.9105 90.0337 41.0909 90.0337 41.3011C90.0337 41.4403 89.9982 41.5682 89.9272 41.6847C89.859 41.8011 89.7667 41.8949 89.6502 41.9659C89.5366 42.0341 89.4087 42.0682 89.2667 42.0682ZM94.3729 42.1193C93.8729 42.1193 93.4226 42.0199 93.022 41.821C92.6214 41.6222 92.3004 41.3494 92.0589 41.0028C91.8175 40.6562 91.6854 40.2614 91.6626 39.8182H92.6854C92.7251 40.2131 92.9041 40.5398 93.2223 40.7983C93.5433 41.054 93.9268 41.1818 94.3729 41.1818C94.7308 41.1818 95.049 41.098 95.3274 40.9304C95.6087 40.7628 95.8288 40.5327 95.9879 40.2401C96.1499 39.9446 96.2308 39.6108 96.2308 39.2386C96.2308 38.858 96.147 38.5185 95.9794 38.2202C95.8146 37.919 95.5874 37.6818 95.2976 37.5085C95.0078 37.3352 94.6768 37.2472 94.3047 37.2443C94.0376 37.2415 93.7635 37.2827 93.4822 37.3679C93.201 37.4503 92.9695 37.5568 92.7876 37.6875L91.799 37.5682L92.3274 33.2727H96.8615V34.2102H93.2138L92.907 36.7841H92.9581C93.1371 36.642 93.3615 36.5241 93.6314 36.4304C93.9013 36.3366 94.1825 36.2898 94.4751 36.2898C95.0092 36.2898 95.4851 36.4176 95.9027 36.6733C96.3232 36.9261 96.6527 37.2727 96.8913 37.7131C97.1328 38.1534 97.2536 38.6562 97.2536 39.2216C97.2536 39.7784 97.1286 40.2756 96.8786 40.7131C96.6314 41.1477 96.2905 41.4915 95.8558 41.7443C95.4212 41.9943 94.9268 42.1193 94.3729 42.1193Z" fill="#312D2D"/>
<path d="M48.9716 89.2727V98H47.9148V90.3807H47.8636L45.733 91.7955V90.7216L47.9148 89.2727H48.9716ZM54.277 98.1193C53.6918 98.1193 53.1747 98.0156 52.7259 97.8082C52.2798 97.598 51.9318 97.3097 51.6818 96.9432C51.4318 96.5739 51.3082 96.1534 51.3111 95.6818C51.3082 95.3125 51.3807 94.9716 51.5284 94.6591C51.6761 94.3437 51.8778 94.081 52.1335 93.8707C52.392 93.6577 52.6804 93.5227 52.9986 93.4659V93.4148C52.581 93.3068 52.2486 93.0724 52.0014 92.7116C51.7543 92.348 51.6321 91.9347 51.6349 91.4716C51.6321 91.0284 51.7443 90.6321 51.9716 90.2827C52.1989 89.9332 52.5114 89.6577 52.9091 89.456C53.3097 89.2543 53.7656 89.1534 54.277 89.1534C54.7827 89.1534 55.2344 89.2543 55.6321 89.456C56.0298 89.6577 56.3423 89.9332 56.5696 90.2827C56.7997 90.6321 56.9162 91.0284 56.919 91.4716C56.9162 91.9347 56.7898 92.348 56.5398 92.7116C56.2926 93.0724 55.9645 93.3068 55.5554 93.4148V93.4659C55.8707 93.5227 56.1548 93.6577 56.4077 93.8707C56.6605 94.081 56.8622 94.3437 57.0128 94.6591C57.1634 94.9716 57.2401 95.3125 57.2429 95.6818C57.2401 96.1534 57.1122 96.5739 56.8594 96.9432C56.6094 97.3097 56.2614 97.598 55.8153 97.8082C55.3722 98.0156 54.8594 98.1193 54.277 98.1193ZM54.277 97.1818C54.6719 97.1818 55.0128 97.1179 55.2997 96.9901C55.5866 96.8622 55.8082 96.6818 55.9645 96.4489C56.1207 96.2159 56.2003 95.9432 56.2031 95.6307C56.2003 95.3011 56.1151 95.0099 55.9474 94.7571C55.7798 94.5043 55.5511 94.3054 55.2614 94.1605C54.9744 94.0156 54.6463 93.9432 54.277 93.9432C53.9048 93.9432 53.5724 94.0156 53.2798 94.1605C52.9901 94.3054 52.7614 94.5043 52.5938 94.7571C52.429 95.0099 52.348 95.3011 52.3509 95.6307C52.348 95.9432 52.4233 96.2159 52.5767 96.4489C52.733 96.6818 52.956 96.8622 53.2457 96.9901C53.5355 97.1179 53.8793 97.1818 54.277 97.1818ZM54.277 93.0398C54.5895 93.0398 54.8665 92.9773 55.108 92.8523C55.3523 92.7273 55.544 92.5526 55.6832 92.3281C55.8224 92.1037 55.8935 91.8409 55.8963 91.5398C55.8935 91.2443 55.8239 90.9872 55.6875 90.7685C55.5511 90.5469 55.3622 90.3764 55.1207 90.2571C54.8793 90.1349 54.598 90.0739 54.277 90.0739C53.9503 90.0739 53.6648 90.1349 53.4205 90.2571C53.1761 90.3764 52.9872 90.5469 52.8537 90.7685C52.7202 90.9872 52.6548 91.2443 52.6577 91.5398C52.6548 91.8409 52.7216 92.1037 52.858 92.3281C52.9972 92.5526 53.1889 92.7273 53.4332 92.8523C53.6776 92.9773 53.9588 93.0398 54.277 93.0398ZM59.3565 98.0682C59.1463 98.0682 58.9659 97.9929 58.8153 97.8423C58.6648 97.6918 58.5895 97.5114 58.5895 97.3011C58.5895 97.0909 58.6648 96.9105 58.8153 96.7599C58.9659 96.6094 59.1463 96.5341 59.3565 96.5341C59.5668 96.5341 59.7472 96.6094 59.8977 96.7599C60.0483 96.9105 60.1236 97.0909 60.1236 97.3011C60.1236 97.4403 60.0881 97.5682 60.017 97.6847C59.9489 97.8011 59.8565 97.8949 59.7401 97.9659C59.6264 98.0341 59.4986 98.0682 59.3565 98.0682ZM64.4627 98.1193C63.9627 98.1193 63.5124 98.0199 63.1119 97.821C62.7113 97.6222 62.3903 97.3494 62.1488 97.0028C61.9073 96.6562 61.7752 96.2614 61.7525 95.8182H62.7752C62.815 96.2131 62.994 96.5398 63.3121 96.7983C63.6332 97.054 64.0167 97.1818 64.4627 97.1818C64.8207 97.1818 65.1388 97.098 65.4173 96.9304C65.6985 96.7628 65.9187 96.5327 66.0778 96.2401C66.2397 95.9446 66.3207 95.6108 66.3207 95.2386C66.3207 94.858 66.2369 94.5185 66.0692 94.2202C65.9045 93.919 65.6772 93.6818 65.3874 93.5085C65.0977 93.3352 64.7667 93.2472 64.3945 93.2443C64.1275 93.2415 63.8533 93.2827 63.5721 93.3679C63.2908 93.4503 63.0593 93.5568 62.8775 93.6875L61.8888 93.5682L62.4173 89.2727H66.9513V90.2102H63.3036L62.9968 92.7841H63.0479C63.2269 92.642 63.4513 92.5241 63.7212 92.4304C63.9911 92.3366 64.2724 92.2898 64.565 92.2898C65.0991 92.2898 65.5749 92.4176 65.9925 92.6733C66.413 92.9261 66.7425 93.2727 66.9812 93.7131C67.2227 94.1534 67.3434 94.6562 67.3434 95.2216C67.3434 95.7784 67.2184 96.2756 66.9684 96.7131C66.7212 97.1477 66.3803 97.4915 65.9457 97.7443C65.511 97.9943 65.0167 98.1193 64.4627 98.1193ZM72.8033 93.1676V94.1051H68.9851V93.1676H72.8033ZM74.1456 98V97.233L77.0263 94.0795C77.3643 93.7102 77.6428 93.3892 77.8615 93.1165C78.0803 92.8409 78.2422 92.5824 78.3473 92.3409C78.4553 92.0966 78.5092 91.8409 78.5092 91.5739C78.5092 91.267 78.4354 91.0014 78.2876 90.777C78.1428 90.5526 77.9439 90.3793 77.6911 90.2571C77.4382 90.1349 77.1541 90.0739 76.8388 90.0739C76.5036 90.0739 76.2109 90.1435 75.9609 90.2827C75.7138 90.419 75.522 90.6108 75.3857 90.858C75.2521 91.1051 75.1854 91.3949 75.1854 91.7273H74.1797C74.1797 91.2159 74.2976 90.767 74.5334 90.3807C74.7692 89.9943 75.0902 89.6932 75.4964 89.4773C75.9055 89.2614 76.3643 89.1534 76.8729 89.1534C77.3842 89.1534 77.8374 89.2614 78.2322 89.4773C78.6271 89.6932 78.9368 89.9844 79.1612 90.3509C79.3857 90.7173 79.4979 91.125 79.4979 91.5739C79.4979 91.8949 79.4396 92.2088 79.3232 92.5156C79.2095 92.8196 79.0107 93.1591 78.7266 93.5341C78.4453 93.9062 78.0547 94.3608 77.5547 94.8977L75.5945 96.9943V97.0625H79.6513V98H74.1456ZM81.0192 96.2102V95.3409L84.8544 89.2727H85.4851V90.6193H85.0589L82.1612 95.2045V95.2727H87.326V96.2102H81.0192ZM85.1271 98V95.946V95.5412V89.2727H86.1328V98H85.1271ZM89.2628 98.0682C89.0526 98.0682 88.8722 97.9929 88.7216 97.8423C88.571 97.6918 88.4957 97.5114 88.4957 97.3011C88.4957 97.0909 88.571 96.9105 88.7216 96.7599C88.8722 96.6094 89.0526 96.5341 89.2628 96.5341C89.473 96.5341 89.6534 96.6094 89.804 96.7599C89.9545 96.9105 90.0298 97.0909 90.0298 97.3011C90.0298 97.4403 89.9943 97.5682 89.9233 97.6847C89.8551 97.8011 89.7628 97.8949 89.6463 97.9659C89.5327 98.0341 89.4048 98.0682 89.2628 98.0682ZM94.5138 89.1534C94.8718 89.1562 95.2298 89.2244 95.5877 89.358C95.9457 89.4915 96.2724 89.7131 96.5678 90.0227C96.8633 90.3295 97.1005 90.7486 97.2795 91.2798C97.4585 91.8111 97.5479 92.4773 97.5479 93.2784C97.5479 94.054 97.4741 94.7429 97.3263 95.3452C97.1815 95.9446 96.9712 96.4503 96.6957 96.8622C96.4229 97.2741 96.0906 97.5866 95.6985 97.7997C95.3093 98.0128 94.869 98.1193 94.3775 98.1193C93.8888 98.1193 93.4528 98.0227 93.0692 97.8295C92.6886 97.6335 92.3761 97.3622 92.1317 97.0156C91.8903 96.6662 91.7354 96.2614 91.6673 95.8011H92.707C92.8008 96.2017 92.9869 96.5327 93.2653 96.794C93.5465 97.0526 93.9173 97.1818 94.3775 97.1818C95.0508 97.1818 95.582 96.8878 95.9712 96.2997C96.3633 95.7116 96.5593 94.8807 96.5593 93.8068H96.4911C96.332 94.0455 96.1431 94.2514 95.9244 94.4247C95.7056 94.598 95.4627 94.7315 95.1957 94.8253C94.9286 94.919 94.6445 94.9659 94.3434 94.9659C93.8434 94.9659 93.3846 94.8423 92.967 94.5952C92.5522 94.3452 92.2198 94.0028 91.9698 93.5682C91.7227 93.1307 91.5991 92.6307 91.5991 92.0682C91.5991 91.5341 91.7184 91.0455 91.957 90.6023C92.1985 90.1562 92.5366 89.8011 92.9712 89.5369C93.4087 89.2727 93.9229 89.1449 94.5138 89.1534ZM94.5138 90.0909C94.1559 90.0909 93.8335 90.1804 93.5465 90.3594C93.2624 90.5355 93.0366 90.7741 92.869 91.0753C92.7042 91.3736 92.6218 91.7045 92.6218 92.0682C92.6218 92.4318 92.7013 92.7628 92.8604 93.0611C93.0224 93.3565 93.2425 93.5923 93.521 93.7685C93.8022 93.9418 94.1218 94.0284 94.4798 94.0284C94.7496 94.0284 95.0011 93.9759 95.234 93.8707C95.467 93.7628 95.6701 93.6165 95.8434 93.4318C96.0195 93.2443 96.1573 93.0327 96.2567 92.7969C96.3562 92.5582 96.4059 92.3097 96.4059 92.0511C96.4059 91.7102 96.3235 91.3906 96.1587 91.0923C95.9968 90.794 95.7724 90.5526 95.4854 90.3679C95.2013 90.1832 94.8775 90.0909 94.5138 90.0909Z" fill="#312D2D"/>
<path d="M54.9034 156V155.233L57.7841 152.08C58.1222 151.71 58.4006 151.389 58.6193 151.116C58.8381 150.841 59 150.582 59.1051 150.341C59.2131 150.097 59.267 149.841 59.267 149.574C59.267 149.267 59.1932 149.001 59.0455 148.777C58.9006 148.553 58.7017 148.379 58.4489 148.257C58.196 148.135 57.9119 148.074 57.5966 148.074C57.2614 148.074 56.9688 148.143 56.7188 148.283C56.4716 148.419 56.2798 148.611 56.1435 148.858C56.0099 149.105 55.9432 149.395 55.9432 149.727H54.9375C54.9375 149.216 55.0554 148.767 55.2912 148.381C55.527 147.994 55.848 147.693 56.2543 147.477C56.6634 147.261 57.1222 147.153 57.6307 147.153C58.142 147.153 58.5952 147.261 58.9901 147.477C59.3849 147.693 59.6946 147.984 59.919 148.351C60.1435 148.717 60.2557 149.125 60.2557 149.574C60.2557 149.895 60.1974 150.209 60.081 150.516C59.9673 150.82 59.7685 151.159 59.4844 151.534C59.2031 151.906 58.8125 152.361 58.3125 152.898L56.3523 154.994V155.062H60.4091V156H54.9034ZM64.8963 156.119C64.3963 156.119 63.946 156.02 63.5455 155.821C63.1449 155.622 62.8239 155.349 62.5824 155.003C62.3409 154.656 62.2088 154.261 62.1861 153.818H63.2088C63.2486 154.213 63.4276 154.54 63.7457 154.798C64.0668 155.054 64.4503 155.182 64.8963 155.182C65.2543 155.182 65.5724 155.098 65.8509 154.93C66.1321 154.763 66.3523 154.533 66.5114 154.24C66.6733 153.945 66.7543 153.611 66.7543 153.239C66.7543 152.858 66.6705 152.518 66.5028 152.22C66.3381 151.919 66.1108 151.682 65.821 151.509C65.5313 151.335 65.2003 151.247 64.8281 151.244C64.5611 151.241 64.2869 151.283 64.0057 151.368C63.7244 151.45 63.4929 151.557 63.3111 151.688L62.3224 151.568L62.8509 147.273H67.3849V148.21H63.7372L63.4304 150.784H63.4815C63.6605 150.642 63.8849 150.524 64.1548 150.43C64.4247 150.337 64.706 150.29 64.9986 150.29C65.5327 150.29 66.0085 150.418 66.4261 150.673C66.8466 150.926 67.1761 151.273 67.4148 151.713C67.6562 152.153 67.777 152.656 67.777 153.222C67.777 153.778 67.652 154.276 67.402 154.713C67.1548 155.148 66.8139 155.491 66.3793 155.744C65.9446 155.994 65.4503 156.119 64.8963 156.119ZM73.2369 151.168V152.105H69.4187V151.168H73.2369ZM74.5792 156V155.233L77.4599 152.08C77.7979 151.71 78.0763 151.389 78.2951 151.116C78.5138 150.841 78.6758 150.582 78.7809 150.341C78.8888 150.097 78.9428 149.841 78.9428 149.574C78.9428 149.267 78.869 149.001 78.7212 148.777C78.5763 148.553 78.3775 148.379 78.1246 148.257C77.8718 148.135 77.5877 148.074 77.2724 148.074C76.9371 148.074 76.6445 148.143 76.3945 148.283C76.1474 148.419 75.9556 148.611 75.8192 148.858C75.6857 149.105 75.619 149.395 75.619 149.727H74.6133C74.6133 149.216 74.7312 148.767 74.967 148.381C75.2028 147.994 75.5238 147.693 75.93 147.477C76.3391 147.261 76.7979 147.153 77.3065 147.153C77.8178 147.153 78.271 147.261 78.6658 147.477C79.0607 147.693 79.3704 147.984 79.5948 148.351C79.8192 148.717 79.9315 149.125 79.9315 149.574C79.9315 149.895 79.8732 150.209 79.7567 150.516C79.6431 150.82 79.4442 151.159 79.1602 151.534C78.8789 151.906 78.4883 152.361 77.9883 152.898L76.0281 154.994V155.062H80.0849V156H74.5792ZM84.6232 147.153C84.9812 147.156 85.3391 147.224 85.6971 147.358C86.055 147.491 86.3817 147.713 86.6772 148.023C86.9727 148.33 87.2099 148.749 87.3888 149.28C87.5678 149.811 87.6573 150.477 87.6573 151.278C87.6573 152.054 87.5835 152.743 87.4357 153.345C87.2908 153.945 87.0806 154.45 86.805 154.862C86.5323 155.274 86.1999 155.587 85.8079 155.8C85.4187 156.013 84.9783 156.119 84.4869 156.119C83.9982 156.119 83.5621 156.023 83.1786 155.83C82.7979 155.634 82.4854 155.362 82.2411 155.016C81.9996 154.666 81.8448 154.261 81.7766 153.801H82.8164C82.9102 154.202 83.0962 154.533 83.3746 154.794C83.6559 155.053 84.0266 155.182 84.4869 155.182C85.1602 155.182 85.6914 154.888 86.0806 154.3C86.4727 153.712 86.6687 152.881 86.6687 151.807H86.6005C86.4414 152.045 86.2525 152.251 86.0337 152.425C85.815 152.598 85.5721 152.732 85.305 152.825C85.038 152.919 84.7539 152.966 84.4528 152.966C83.9528 152.966 83.494 152.842 83.0763 152.595C82.6616 152.345 82.3292 152.003 82.0792 151.568C81.832 151.131 81.7085 150.631 81.7085 150.068C81.7085 149.534 81.8278 149.045 82.0664 148.602C82.3079 148.156 82.646 147.801 83.0806 147.537C83.5181 147.273 84.0323 147.145 84.6232 147.153ZM84.6232 148.091C84.2653 148.091 83.9428 148.18 83.6559 148.359C83.3718 148.536 83.146 148.774 82.9783 149.075C82.8136 149.374 82.7312 149.705 82.7312 150.068C82.7312 150.432 82.8107 150.763 82.9698 151.061C83.1317 151.357 83.3519 151.592 83.6303 151.768C83.9116 151.942 84.2312 152.028 84.5891 152.028C84.859 152.028 85.1104 151.976 85.3434 151.871C85.5763 151.763 85.7795 151.616 85.9528 151.432C86.1289 151.244 86.2667 151.033 86.3661 150.797C86.4656 150.558 86.5153 150.31 86.5153 150.051C86.5153 149.71 86.4329 149.391 86.2681 149.092C86.1062 148.794 85.8817 148.553 85.5948 148.368C85.3107 148.183 84.9869 148.091 84.6232 148.091ZM89.7784 156.068C89.5682 156.068 89.3878 155.993 89.2372 155.842C89.0866 155.692 89.0114 155.511 89.0114 155.301C89.0114 155.091 89.0866 154.911 89.2372 154.76C89.3878 154.609 89.5682 154.534 89.7784 154.534C89.9886 154.534 90.169 154.609 90.3196 154.76C90.4702 154.911 90.5455 155.091 90.5455 155.301C90.5455 155.44 90.5099 155.568 90.4389 155.685C90.3707 155.801 90.2784 155.895 90.1619 155.966C90.0483 156.034 89.9205 156.068 89.7784 156.068ZM94.8846 156.119C94.3846 156.119 93.9343 156.02 93.5337 155.821C93.1332 155.622 92.8121 155.349 92.5707 155.003C92.3292 154.656 92.1971 154.261 92.1744 153.818H93.1971C93.2369 154.213 93.4158 154.54 93.734 154.798C94.055 155.054 94.4386 155.182 94.8846 155.182C95.2425 155.182 95.5607 155.098 95.8391 154.93C96.1204 154.763 96.3406 154.533 96.4996 154.24C96.6616 153.945 96.7425 153.611 96.7425 153.239C96.7425 152.858 96.6587 152.518 96.4911 152.22C96.3263 151.919 96.0991 151.682 95.8093 151.509C95.5195 151.335 95.1886 151.247 94.8164 151.244C94.5494 151.241 94.2752 151.283 93.994 151.368C93.7127 151.45 93.4812 151.557 93.2994 151.688L92.3107 151.568L92.8391 147.273H97.3732V148.21H93.7255L93.4187 150.784H93.4698C93.6488 150.642 93.8732 150.524 94.1431 150.43C94.413 150.337 94.6942 150.29 94.9869 150.29C95.521 150.29 95.9968 150.418 96.4144 150.673C96.8349 150.926 97.1644 151.273 97.4031 151.713C97.6445 152.153 97.7653 152.656 97.7653 153.222C97.7653 153.778 97.6403 154.276 97.3903 154.713C97.1431 155.148 96.8022 155.491 96.3675 155.744C95.9329 155.994 95.4386 156.119 94.8846 156.119Z" fill="#312D2D"/>
<path d="M55.8523 212.119C55.2898 212.119 54.7884 212.023 54.348 211.83C53.9105 211.636 53.5625 211.368 53.304 211.024C53.0483 210.678 52.9091 210.276 52.8864 209.818H53.9602C53.983 210.099 54.0795 210.342 54.25 210.547C54.4205 210.749 54.6435 210.905 54.919 211.016C55.1946 211.126 55.5 211.182 55.8352 211.182C56.2102 211.182 56.5426 211.116 56.8324 210.986C57.1222 210.855 57.3494 210.673 57.5142 210.44C57.679 210.207 57.7614 209.938 57.7614 209.631C57.7614 209.31 57.6818 209.027 57.5227 208.783C57.3636 208.536 57.1307 208.342 56.8239 208.203C56.517 208.064 56.142 207.994 55.6989 207.994H55V207.057H55.6989C56.0455 207.057 56.3494 206.994 56.6108 206.869C56.875 206.744 57.081 206.568 57.2287 206.341C57.3793 206.114 57.4545 205.847 57.4545 205.54C57.4545 205.244 57.3892 204.987 57.2585 204.768C57.1278 204.55 56.9432 204.379 56.7045 204.257C56.4688 204.135 56.1903 204.074 55.8693 204.074C55.5682 204.074 55.2841 204.129 55.017 204.24C54.7528 204.348 54.5369 204.506 54.3693 204.713C54.2017 204.918 54.1108 205.165 54.0966 205.455H53.0739C53.0909 204.997 53.2287 204.597 53.4872 204.253C53.7457 203.906 54.0838 203.636 54.5014 203.443C54.9219 203.25 55.3835 203.153 55.8864 203.153C56.4261 203.153 56.8892 203.263 57.2756 203.482C57.6619 203.697 57.9588 203.983 58.1662 204.338C58.3736 204.693 58.4773 205.077 58.4773 205.489C58.4773 205.98 58.348 206.399 58.0895 206.746C57.8338 207.092 57.4858 207.332 57.0455 207.466V207.534C57.5966 207.625 58.027 207.859 58.3366 208.237C58.6463 208.612 58.8011 209.077 58.8011 209.631C58.8011 210.105 58.6719 210.531 58.4134 210.909C58.1577 211.284 57.8082 211.58 57.3651 211.795C56.9219 212.011 56.4176 212.119 55.8523 212.119ZM63.3906 212.119C62.7486 212.119 62.2017 211.945 61.75 211.595C61.2983 211.243 60.9531 210.733 60.7145 210.065C60.4759 209.395 60.3565 208.585 60.3565 207.636C60.3565 206.693 60.4759 205.888 60.7145 205.22C60.956 204.55 61.3026 204.038 61.7543 203.686C62.2088 203.331 62.7543 203.153 63.3906 203.153C64.027 203.153 64.571 203.331 65.0227 203.686C65.4773 204.038 65.8239 204.55 66.0625 205.22C66.304 205.888 66.4247 206.693 66.4247 207.636C66.4247 208.585 66.3054 209.395 66.0668 210.065C65.8281 210.733 65.483 211.243 65.0312 211.595C64.5795 211.945 64.0327 212.119 63.3906 212.119ZM63.3906 211.182C64.027 211.182 64.5213 210.875 64.8736 210.261C65.2259 209.648 65.402 208.773 65.402 207.636C65.402 206.881 65.321 206.237 65.1591 205.706C65 205.175 64.7699 204.77 64.4688 204.491C64.1705 204.213 63.8111 204.074 63.3906 204.074C62.7599 204.074 62.267 204.385 61.9119 205.007C61.5568 205.626 61.3793 206.503 61.3793 207.636C61.3793 208.392 61.4588 209.034 61.6179 209.562C61.777 210.091 62.0057 210.493 62.304 210.768C62.6051 211.044 62.9673 211.182 63.3906 211.182ZM71.8111 207.168V208.105H67.9929V207.168H71.8111ZM76.3718 212.119C75.8093 212.119 75.3079 212.023 74.8675 211.83C74.43 211.636 74.082 211.368 73.8235 211.024C73.5678 210.678 73.4286 210.276 73.4059 209.818H74.4798C74.5025 210.099 74.5991 210.342 74.7695 210.547C74.94 210.749 75.163 210.905 75.4386 211.016C75.7141 211.126 76.0195 211.182 76.3548 211.182C76.7298 211.182 77.0621 211.116 77.3519 210.986C77.6417 210.855 77.869 210.673 78.0337 210.44C78.1985 210.207 78.2809 209.938 78.2809 209.631C78.2809 209.31 78.2013 209.027 78.0423 208.783C77.8832 208.536 77.6502 208.342 77.3434 208.203C77.0366 208.064 76.6616 207.994 76.2184 207.994H75.5195V207.057H76.2184C76.565 207.057 76.869 206.994 77.1303 206.869C77.3945 206.744 77.6005 206.568 77.7482 206.341C77.8988 206.114 77.9741 205.847 77.9741 205.54C77.9741 205.244 77.9087 204.987 77.7781 204.768C77.6474 204.55 77.4627 204.379 77.2241 204.257C76.9883 204.135 76.7099 204.074 76.3888 204.074C76.0877 204.074 75.8036 204.129 75.5366 204.24C75.2724 204.348 75.0565 204.506 74.8888 204.713C74.7212 204.918 74.6303 205.165 74.6161 205.455H73.5934C73.6104 204.997 73.7482 204.597 74.0067 204.253C74.2653 203.906 74.6033 203.636 75.021 203.443C75.4414 203.25 75.9031 203.153 76.4059 203.153C76.9457 203.153 77.4087 203.263 77.7951 203.482C78.1815 203.697 78.4783 203.983 78.6857 204.338C78.8931 204.693 78.9968 205.077 78.9968 205.489C78.9968 205.98 78.8675 206.399 78.609 206.746C78.3533 207.092 78.0053 207.332 77.565 207.466V207.534C78.1161 207.625 78.5465 207.859 78.8562 208.237C79.1658 208.612 79.3207 209.077 79.3207 209.631C79.3207 210.105 79.1914 210.531 78.9329 210.909C78.6772 211.284 78.3278 211.58 77.8846 211.795C77.4414 212.011 76.9371 212.119 76.3718 212.119ZM80.859 210.21V209.341L84.6942 203.273H85.3249V204.619H84.8988L82.0011 209.205V209.273H87.1658V210.21H80.859ZM84.967 212V209.946V209.541V203.273H85.9727V212H84.967ZM89.1026 212.068C88.8924 212.068 88.712 211.993 88.5614 211.842C88.4109 211.692 88.3356 211.511 88.3356 211.301C88.3356 211.091 88.4109 210.911 88.5614 210.76C88.712 210.609 88.8924 210.534 89.1026 210.534C89.3129 210.534 89.4933 210.609 89.6438 210.76C89.7944 210.911 89.8697 211.091 89.8697 211.301C89.8697 211.44 89.8342 211.568 89.7631 211.685C89.695 211.801 89.6026 211.895 89.4862 211.966C89.3725 212.034 89.2447 212.068 89.1026 212.068ZM94.3537 203.153C94.7116 203.156 95.0696 203.224 95.4276 203.358C95.7855 203.491 96.1122 203.713 96.4077 204.023C96.7031 204.33 96.9403 204.749 97.1193 205.28C97.2983 205.811 97.3878 206.477 97.3878 207.278C97.3878 208.054 97.3139 208.743 97.1662 209.345C97.0213 209.945 96.8111 210.45 96.5355 210.862C96.2628 211.274 95.9304 211.587 95.5384 211.8C95.1491 212.013 94.7088 212.119 94.2173 212.119C93.7287 212.119 93.2926 212.023 92.9091 211.83C92.5284 211.634 92.2159 211.362 91.9716 211.016C91.7301 210.666 91.5753 210.261 91.5071 209.801H92.5469C92.6406 210.202 92.8267 210.533 93.1051 210.794C93.3864 211.053 93.7571 211.182 94.2173 211.182C94.8906 211.182 95.4219 210.888 95.8111 210.3C96.2031 209.712 96.3991 208.881 96.3991 207.807H96.331C96.1719 208.045 95.983 208.251 95.7642 208.425C95.5455 208.598 95.3026 208.732 95.0355 208.825C94.7685 208.919 94.4844 208.966 94.1832 208.966C93.6832 208.966 93.2244 208.842 92.8068 208.595C92.392 208.345 92.0597 208.003 91.8097 207.568C91.5625 207.131 91.4389 206.631 91.4389 206.068C91.4389 205.534 91.5582 205.045 91.7969 204.602C92.0384 204.156 92.3764 203.801 92.8111 203.537C93.2486 203.273 93.7628 203.145 94.3537 203.153ZM94.3537 204.091C93.9957 204.091 93.6733 204.18 93.3864 204.359C93.1023 204.536 92.8764 204.774 92.7088 205.075C92.544 205.374 92.4616 205.705 92.4616 206.068C92.4616 206.432 92.5412 206.763 92.7003 207.061C92.8622 207.357 93.0824 207.592 93.3608 207.768C93.642 207.942 93.9616 208.028 94.3196 208.028C94.5895 208.028 94.8409 207.976 95.0739 207.871C95.3068 207.763 95.5099 207.616 95.6832 207.432C95.8594 207.244 95.9972 207.033 96.0966 206.797C96.196 206.558 96.2457 206.31 96.2457 206.051C96.2457 205.71 96.1634 205.391 95.9986 205.092C95.8366 204.794 95.6122 204.553 95.3253 204.368C95.0412 204.183 94.7173 204.091 94.3537 204.091Z" fill="#312D2D"/>
<path d="M79.8523 269.119C79.2898 269.119 78.7884 269.023 78.348 268.83C77.9105 268.636 77.5625 268.368 77.304 268.024C77.0483 267.678 76.9091 267.276 76.8864 266.818H77.9602C77.983 267.099 78.0795 267.342 78.25 267.547C78.4205 267.749 78.6435 267.905 78.919 268.016C79.1946 268.126 79.5 268.182 79.8352 268.182C80.2102 268.182 80.5426 268.116 80.8324 267.986C81.1222 267.855 81.3494 267.673 81.5142 267.44C81.679 267.207 81.7614 266.938 81.7614 266.631C81.7614 266.31 81.6818 266.027 81.5227 265.783C81.3636 265.536 81.1307 265.342 80.8239 265.203C80.517 265.064 80.142 264.994 79.6989 264.994H79V264.057H79.6989C80.0455 264.057 80.3494 263.994 80.6108 263.869C80.875 263.744 81.081 263.568 81.2287 263.341C81.3793 263.114 81.4545 262.847 81.4545 262.54C81.4545 262.244 81.3892 261.987 81.2585 261.768C81.1278 261.55 80.9432 261.379 80.7045 261.257C80.4688 261.135 80.1903 261.074 79.8693 261.074C79.5682 261.074 79.2841 261.129 79.017 261.24C78.7528 261.348 78.5369 261.506 78.3693 261.713C78.2017 261.918 78.1108 262.165 78.0966 262.455H77.0739C77.0909 261.997 77.2287 261.597 77.4872 261.253C77.7457 260.906 78.0838 260.636 78.5014 260.443C78.9219 260.25 79.3835 260.153 79.8864 260.153C80.4261 260.153 80.8892 260.263 81.2756 260.482C81.6619 260.697 81.9588 260.983 82.1662 261.338C82.3736 261.693 82.4773 262.077 82.4773 262.489C82.4773 262.98 82.348 263.399 82.0895 263.746C81.8338 264.092 81.4858 264.332 81.0455 264.466V264.534C81.5966 264.625 82.027 264.859 82.3366 265.237C82.6463 265.612 82.8011 266.077 82.8011 266.631C82.8011 267.105 82.6719 267.531 82.4134 267.909C82.1577 268.284 81.8082 268.58 81.3651 268.795C80.9219 269.011 80.4176 269.119 79.8523 269.119ZM87.2713 269.119C86.7713 269.119 86.321 269.02 85.9205 268.821C85.5199 268.622 85.1989 268.349 84.9574 268.003C84.7159 267.656 84.5838 267.261 84.5611 266.818H85.5838C85.6236 267.213 85.8026 267.54 86.1207 267.798C86.4418 268.054 86.8253 268.182 87.2713 268.182C87.6293 268.182 87.9474 268.098 88.2259 267.93C88.5071 267.763 88.7273 267.533 88.8864 267.24C89.0483 266.945 89.1293 266.611 89.1293 266.239C89.1293 265.858 89.0455 265.518 88.8778 265.22C88.7131 264.919 88.4858 264.682 88.196 264.509C87.9063 264.335 87.5753 264.247 87.2031 264.244C86.9361 264.241 86.6619 264.283 86.3807 264.368C86.0994 264.45 85.8679 264.557 85.6861 264.688L84.6974 264.568L85.2259 260.273H89.7599V261.21H86.1122L85.8054 263.784H85.8565C86.0355 263.642 86.2599 263.524 86.5298 263.43C86.7997 263.337 87.081 263.29 87.3736 263.29C87.9077 263.29 88.3835 263.418 88.8011 263.673C89.2216 263.926 89.5511 264.273 89.7898 264.713C90.0312 265.153 90.152 265.656 90.152 266.222C90.152 266.778 90.027 267.276 89.777 267.713C89.5298 268.148 89.1889 268.491 88.7543 268.744C88.3196 268.994 87.8253 269.119 87.2713 269.119ZM97.6403 265.114L92.1516 267.909V266.818L96.3619 264.79L96.3278 264.858V264.688L96.3619 264.756L92.1516 262.727V261.636L97.6403 264.432V265.114Z" fill="#312D2D"/>
<path d="M119 10C119 4.47715 123.477 0 129 0C134.523 0 139 4.47715 139 10V57H119V10Z" fill="#F8EB32"/>
<rect x="119" y="57" width="20" height="57" fill="#90C743"/>
<rect x="119" y="114" width="20" height="57" fill="#FDB23E"/>
<rect x="119" y="171" width="20" height="57" fill="#F25C2F"/>
<path d="M119 228H139V275C139 280.523 134.523 285 129 285C123.477 285 119 280.523 119 275V228Z" fill="#C11F2F"/>
<path d="M132.228 30.5265C132.236 30.534 132.248 30.537 132.256 30.5445L137.656 35.7806C137.96 36.0731 138.453 36.0731 138.756 35.7806C138.759 35.7776 138.761 35.7746 138.762 35.7716C138.836 35.7066 138.895 35.6251 138.936 35.5328C138.977 35.4406 138.999 35.3399 139 35.2377L139 24.7639C138.998 24.6598 138.976 24.5574 138.933 24.4638C138.89 24.3703 138.829 24.2879 138.754 24.2224L138.756 24.2194C138.604 24.0779 138.408 24 138.206 24C138.004 24 137.809 24.0779 137.656 24.2194L132.228 29.4676C132.157 29.5329 132.099 29.6141 132.06 29.7055C132.02 29.7969 132 29.8964 132 29.997C132 30.0977 132.02 30.1972 132.06 30.2886C132.099 30.38 132.157 30.4612 132.228 30.5265Z" fill="#312D2D"/>
<path d="M138 24H146C146.552 24 147 24.4477 147 25V35C147 35.5523 146.552 36 146 36H138V24Z" fill="#312D2D"/>
</svg>
