<svg width="271" height="220" viewBox="0 0 271 220" fill="none" xmlns="http://www.w3.org/2000/svg">
<rect opacity="0.8" width="271" height="220" rx="10" fill="#E3F0FF"/>
<path d="M117.646 188.193C109.719 188.193 103.252 185.67 98.5053 182.862C91.0605 178.453 86.5203 172.64 85.1573 170.728C70.5121 162.163 66.3065 151.36 65.3703 143.743C64.8205 139.217 65.2201 134.627 66.5434 130.265C57.5796 115.413 59.1776 103.509 62.1687 96.0696C64.0013 91.5448 66.7593 87.453 70.2658 84.0564C70.0139 73.8274 74.2853 67.3414 78.0133 63.6528C80.2155 61.4768 82.7759 59.6962 85.5822 58.3888C91.068 45.7326 98.8681 37.4757 108.753 33.8397C123.334 28.4742 136.94 35.2798 137.504 35.5712C137.858 35.7497 138.173 35.9964 138.432 36.2972C138.69 36.5979 138.886 36.9468 139.01 37.3237C139.133 37.7006 139.18 38.0981 139.149 38.4934C139.118 38.8887 139.009 39.2739 138.828 39.6269C138.648 39.9799 138.399 40.2937 138.097 40.5504C137.795 40.807 137.445 41.0013 137.067 41.1222C136.689 41.243 136.292 41.288 135.896 41.2546C135.501 41.2212 135.117 41.1099 134.765 40.9273C134.654 40.8728 122.849 35.0298 110.77 39.5079C102.256 42.6626 95.486 50.1769 90.6544 61.8405C90.4901 62.2349 90.2437 62.5898 89.9315 62.8816C89.6194 63.1733 89.2486 63.3952 88.844 63.5325C88.3025 63.7205 75.2478 68.5032 76.3401 85.1393C76.373 85.625 76.2875 86.1113 76.091 86.5567C75.8946 87.002 75.593 87.393 75.2121 87.6961C75.1707 87.7281 70.3692 91.6441 67.6658 98.5531C64.0731 107.714 65.6673 117.708 72.3959 128.287C72.6571 128.699 72.8146 129.168 72.8549 129.655C72.8951 130.141 72.817 130.63 72.6271 131.079C72.6083 131.12 70.4576 136.407 71.3769 143.275C72.5951 152.385 78.4325 159.98 88.7293 165.848C89.1475 166.085 89.5022 166.42 89.7633 166.823C89.8028 166.882 94.0591 173.3 101.761 177.797C111.848 183.683 122.96 183.676 134.793 177.778C135.507 177.422 136.333 177.364 137.09 177.618C137.846 177.871 138.472 178.414 138.828 179.128C139.184 179.842 139.241 180.668 138.988 181.425C138.735 182.181 138.192 182.807 137.478 183.163C130.146 186.817 123.498 188.193 117.646 188.193Z" fill="black"/>
<path d="M136 183.542C135.202 183.542 134.437 183.225 133.873 182.661C133.309 182.096 132.992 181.331 132.992 180.534V38.1838C132.992 37.386 133.309 36.6209 133.873 36.0568C134.437 35.4927 135.202 35.1758 136 35.1758C136.798 35.1758 137.563 35.4927 138.127 36.0568C138.691 36.6209 139.008 37.386 139.008 38.1838V180.534C139.008 181.331 138.691 182.096 138.127 182.661C137.563 183.225 136.798 183.542 136 183.542ZM109.524 138.273C108.726 138.291 107.954 137.992 107.377 137.441C106.8 136.889 106.465 136.131 106.447 135.334C106.429 134.536 106.729 133.764 107.28 133.187C107.831 132.61 108.589 132.275 109.387 132.257C113.439 132.065 117.249 130.273 119.983 127.275C122.716 124.278 124.149 120.319 123.968 116.266C123.95 115.871 124.009 115.477 124.144 115.105C124.278 114.734 124.484 114.392 124.75 114.1C125.017 113.808 125.338 113.572 125.695 113.404C126.053 113.236 126.44 113.141 126.835 113.122H126.976C127.75 113.122 128.495 113.419 129.055 113.954C129.615 114.488 129.948 115.218 129.984 115.991C130.237 121.639 128.239 127.155 124.43 131.332C120.62 135.508 115.31 138.003 109.663 138.269L109.524 138.273ZM89.752 108.308C89.6395 108.308 89.5272 108.302 89.4154 108.289C88.6227 108.201 87.8973 107.802 87.3988 107.179C86.9003 106.557 86.6695 105.762 86.7571 104.969C86.98 102.971 86.8069 100.949 86.2476 99.0179C85.6883 97.0869 84.7539 95.2852 83.4978 93.7157C82.2417 92.1462 80.6885 90.8396 78.9271 89.8708C77.1657 88.902 75.2306 88.2899 73.2324 88.0696C72.4511 87.968 71.7408 87.564 71.2542 86.9443C70.7677 86.3247 70.5437 85.5388 70.6303 84.7557C70.717 83.9726 71.1075 83.2548 71.7178 82.7566C72.3281 82.2583 73.1096 82.0194 73.8942 82.0912C76.677 82.3983 79.3721 83.2509 81.8253 84.6002C84.2785 85.9495 86.4417 87.7691 88.1913 89.9548C89.941 92.1406 91.2427 94.6497 92.0221 97.3388C92.8015 100.028 93.0433 102.844 92.7336 105.627C92.6532 106.362 92.3047 107.042 91.7546 107.537C91.2046 108.031 90.4916 108.306 89.752 108.308ZM82.8956 138.273C80.0943 138.28 77.3196 137.731 74.7318 136.659C72.1441 135.586 69.7948 134.011 67.8199 132.024C67.5405 131.744 67.319 131.412 67.168 131.047C67.0169 130.682 66.9393 130.29 66.9396 129.895C66.9401 129.096 67.2578 128.331 67.8227 127.767C68.3876 127.203 69.1535 126.886 69.9519 126.886C70.7503 126.887 71.5158 127.205 72.08 127.77C73.5006 129.192 75.1877 130.321 77.0448 131.091C78.902 131.861 80.8927 132.257 82.9031 132.257C84.9136 132.257 86.9043 131.861 88.7614 131.091C90.6185 130.321 92.3057 129.192 93.7263 127.77C94.0056 127.49 94.3373 127.269 94.7022 127.117C95.0672 126.966 95.4584 126.888 95.8535 126.888C96.2486 126.888 96.6398 126.966 97.0047 127.117C97.3697 127.269 97.7014 127.49 97.9807 127.77C98.2601 128.049 98.4817 128.381 98.6328 128.746C98.784 129.111 98.8618 129.502 98.8618 129.897C98.8618 130.292 98.784 130.683 98.6328 131.048C98.4817 131.413 98.2601 131.745 97.9807 132.024C96.0045 134.011 93.6536 135.587 91.0642 136.66C88.4748 137.732 85.6984 138.281 82.8956 138.273ZM106.773 119.236H106.693C106.298 119.226 105.909 119.138 105.548 118.977C105.187 118.816 104.861 118.586 104.59 118.299C104.318 118.012 104.105 117.675 103.964 117.306C103.822 116.937 103.755 116.544 103.765 116.149C103.839 113.35 104.463 110.592 105.602 108.034C106.742 105.476 108.374 103.167 110.406 101.241C112.438 99.3137 114.83 97.8062 117.445 96.8043C120.06 95.8024 122.847 95.3258 125.647 95.4016C126.042 95.4121 126.431 95.5003 126.792 95.6611C127.153 95.822 127.478 96.0524 127.75 96.3391C128.022 96.6258 128.235 96.9633 128.377 97.3323C128.518 97.7012 128.585 98.0945 128.575 98.4895C128.564 98.8845 128.476 99.2736 128.315 99.6345C128.154 99.9954 127.924 100.321 127.637 100.593C127.351 100.865 127.013 101.078 126.644 101.219C126.275 101.361 125.882 101.428 125.487 101.418C123.477 101.363 121.477 101.705 119.599 102.424C117.722 103.143 116.005 104.225 114.546 105.608C113.087 106.991 111.915 108.649 111.097 110.485C110.28 112.322 109.832 114.301 109.78 116.311C109.758 117.094 109.432 117.838 108.871 118.384C108.309 118.93 107.557 119.236 106.773 119.236ZM100.327 76.5358C99.707 76.5356 99.1022 76.3439 98.5954 75.9868C98.0886 75.6297 97.7045 75.1248 97.4957 74.5411C96.5506 71.9053 96.1341 69.1091 96.2702 66.3123C96.4062 63.5155 97.0921 60.7729 98.2886 58.2413C99.4851 55.7097 101.169 53.4387 103.243 51.5581C105.318 49.6775 107.743 48.2241 110.379 47.2811C110.751 47.1479 111.146 47.0893 111.54 47.1086C111.935 47.1278 112.322 47.2246 112.679 47.3934C113.036 47.5623 113.357 47.7998 113.622 48.0924C113.887 48.3851 114.093 48.7271 114.226 49.0991C114.359 49.471 114.418 49.8655 114.398 50.2601C114.379 50.6547 114.282 51.0416 114.113 51.3988C113.945 51.756 113.707 52.0764 113.414 52.3418C113.122 52.6072 112.78 52.8123 112.408 52.9455C110.515 53.6218 108.773 54.6648 107.284 56.0146C105.794 57.3645 104.585 58.9949 103.726 60.8125C102.867 62.6301 102.375 64.5991 102.278 66.6071C102.181 68.615 102.481 70.6225 103.16 72.5145C103.323 72.9685 103.373 73.455 103.309 73.9329C103.244 74.4107 103.065 74.866 102.787 75.2602C102.509 75.6545 102.141 75.9762 101.713 76.1981C101.284 76.4201 100.809 76.5359 100.327 76.5358ZM110.49 169.752C105.493 169.742 100.657 167.981 96.8246 164.774C92.992 161.567 90.4054 157.118 89.5151 152.2C89.4372 151.808 89.4382 151.405 89.518 151.013C89.5978 150.621 89.7549 150.25 89.98 149.919C90.2052 149.589 90.4938 149.307 90.8292 149.09C91.1646 148.872 91.5399 148.724 91.9332 148.653C92.3266 148.583 92.7301 148.591 93.1202 148.678C93.5103 148.765 93.8791 148.929 94.2051 149.16C94.5311 149.391 94.8078 149.685 95.019 150.024C95.2302 150.363 95.3717 150.741 95.4352 151.136C96.1576 155.129 98.4344 158.672 101.766 160.989C105.098 163.305 109.212 164.205 113.207 163.491C113.596 163.422 113.994 163.429 114.38 163.513C114.766 163.597 115.132 163.757 115.456 163.982C115.781 164.208 116.058 164.495 116.271 164.828C116.484 165.16 116.63 165.532 116.7 165.92C116.77 166.309 116.762 166.708 116.678 167.094C116.594 167.48 116.434 167.846 116.209 168.17C115.983 168.494 115.696 168.771 115.364 168.984C115.031 169.198 114.66 169.344 114.271 169.413C113.023 169.638 111.758 169.751 110.49 169.752Z" fill="black"/>
<path d="M122.938 74.1751C120.136 74.1818 117.361 73.633 114.773 72.5603C112.185 71.4877 109.836 69.9126 107.86 67.926C107.296 67.3606 106.98 66.5942 106.98 65.7955C106.981 64.9967 107.299 64.231 107.865 63.6669C108.43 63.1027 109.197 62.7862 109.995 62.7871C110.794 62.788 111.56 63.1061 112.124 63.6716C113.545 65.0941 115.231 66.2226 117.088 66.9926C118.945 67.7626 120.936 68.1589 122.946 68.1589C124.957 68.1589 126.947 67.7626 128.804 66.9926C130.661 66.2226 132.348 65.0941 133.768 63.6716C134.333 63.1074 135.098 62.7904 135.896 62.7904C136.694 62.7904 137.459 63.1074 138.023 63.6716C138.587 64.2357 138.904 65.0009 138.904 65.7988C138.904 66.5966 138.587 67.3618 138.023 67.926C136.047 69.9138 133.696 71.4897 131.107 72.5624C128.517 73.6351 125.741 74.1832 122.938 74.1751ZM122.938 157.211C120.136 157.218 117.361 156.669 114.773 155.596C112.185 154.524 109.836 152.948 107.86 150.962C107.296 150.396 106.98 149.63 106.98 148.831C106.981 148.033 107.299 147.267 107.865 146.703C108.43 146.139 109.197 145.822 109.995 145.823C110.794 145.824 111.56 146.142 112.124 146.707C113.545 148.13 115.231 149.258 117.088 150.028C118.945 150.798 120.936 151.195 122.946 151.195C124.957 151.195 126.947 150.798 128.804 150.028C130.661 149.258 132.348 148.13 133.768 146.707C134.333 146.143 135.098 145.826 135.896 145.826C136.694 145.826 137.459 146.143 138.023 146.707C138.587 147.272 138.904 148.037 138.904 148.835C138.904 149.632 138.587 150.398 138.023 150.962C136.047 152.95 133.696 154.526 131.107 155.598C128.517 156.671 125.741 157.219 122.938 157.211Z" fill="black"/>
<path d="M154.354 188.193C148.502 188.193 141.856 186.817 134.522 183.163C133.808 182.807 133.265 182.181 133.012 181.425C132.759 180.668 132.816 179.842 133.172 179.128C133.528 178.414 134.154 177.871 134.91 177.618C135.667 177.364 136.493 177.422 137.207 177.778C149.04 183.676 160.152 183.683 170.239 177.797C177.947 173.3 182.197 166.882 182.24 166.818C182.502 166.417 182.855 166.085 183.271 165.848C193.673 159.92 199.521 152.237 200.659 143.008C201.484 136.292 199.395 131.13 199.373 131.079C199.183 130.63 199.105 130.141 199.145 129.655C199.185 129.168 199.343 128.699 199.604 128.287C206.333 117.716 207.927 107.714 204.346 98.5569C201.642 91.6422 196.841 87.7318 196.792 87.6924C196.411 87.3911 196.109 87.0014 195.912 86.5573C195.716 86.1131 195.63 85.6277 195.664 85.1431C196.765 68.3622 183.295 63.5832 183.16 63.5362C182.755 63.399 182.384 63.1771 182.072 62.8853C181.76 62.5936 181.514 62.2387 181.349 61.8442C176.501 50.1544 169.712 42.6325 161.169 39.4891C149.034 35.0241 137.352 40.8728 137.235 40.9311C136.524 41.2943 135.698 41.3604 134.939 41.1146C134.18 40.8689 133.549 40.3315 133.186 39.6207C132.822 38.91 132.756 38.084 133.002 37.3246C133.248 36.5652 133.785 35.9345 134.496 35.5712C135.06 35.2798 148.666 28.4742 163.247 33.8397C173.132 37.4757 180.919 45.7326 186.418 58.385C189.224 59.6924 191.784 61.4731 193.987 63.649C197.715 67.3357 201.988 73.8217 201.734 84.0564C205.241 87.4546 207.999 91.5485 209.831 96.0753C212.822 103.514 214.42 115.411 205.457 130.271C206.78 134.633 207.179 139.223 206.63 143.748C205.69 151.357 201.488 162.172 186.848 170.734C185.48 172.646 180.94 178.459 173.5 182.867C168.748 185.67 162.279 188.193 154.354 188.193Z" fill="black"/>
<path d="M136 183.542C135.202 183.542 134.437 183.225 133.873 182.661C133.309 182.096 132.992 181.331 132.992 180.534V38.1838C132.992 37.386 133.309 36.6209 133.873 36.0568C134.437 35.4927 135.202 35.1758 136 35.1758C136.798 35.1758 137.563 35.4927 138.127 36.0568C138.691 36.6209 139.008 37.386 139.008 38.1838V180.534C139.008 181.331 138.691 182.096 138.127 182.661C137.563 183.225 136.798 183.542 136 183.542ZM162.476 138.273H162.337C156.689 138.007 151.378 135.511 147.568 131.334C143.759 127.156 141.762 121.638 142.016 115.989C142.053 115.192 142.405 114.441 142.995 113.903C143.585 113.365 144.364 113.083 145.162 113.12C145.96 113.156 146.71 113.508 147.249 114.098C147.787 114.688 148.069 115.468 148.032 116.266C147.85 120.32 149.283 124.28 152.017 127.279C154.751 130.278 158.563 132.069 162.617 132.261C163.415 132.279 164.173 132.613 164.724 133.19C165.275 133.767 165.575 134.54 165.556 135.337C165.538 136.135 165.204 136.893 164.627 137.444C164.05 137.996 163.278 138.295 162.48 138.277L162.476 138.273ZM182.248 108.308C181.508 108.307 180.795 108.033 180.244 107.539C179.693 107.045 179.344 106.366 179.263 105.631C178.952 102.847 179.193 100.029 179.973 97.3388C180.752 94.6484 182.054 92.138 183.805 89.9513C185.555 87.7646 187.72 85.9446 190.174 84.5952C192.629 83.2458 195.325 82.3936 198.109 82.0874C198.894 82.0156 199.676 82.2545 200.286 82.7528C200.896 83.2511 201.287 83.9689 201.373 84.752C201.46 85.5351 201.236 86.3209 200.749 86.9406C200.263 87.5602 199.553 87.9643 198.771 88.0658C196.774 88.2873 194.84 88.9002 193.079 89.8695C191.319 90.8388 189.767 92.1455 188.512 93.7149C187.257 95.2844 186.323 97.0857 185.764 99.0161C185.206 100.946 185.033 102.968 185.256 104.965C185.344 105.758 185.113 106.553 184.614 107.176C184.116 107.798 183.39 108.197 182.598 108.285C182.482 108.3 182.365 108.307 182.248 108.308ZM189.104 138.273C186.303 138.28 183.528 137.731 180.94 136.658C178.352 135.586 176.002 134.011 174.027 132.024C173.463 131.46 173.146 130.695 173.146 129.897C173.146 129.099 173.463 128.334 174.027 127.77C174.591 127.205 175.356 126.888 176.154 126.888C176.952 126.888 177.717 127.205 178.281 127.77C179.702 129.192 181.389 130.321 183.246 131.091C185.103 131.861 187.094 132.257 189.104 132.257C191.115 132.257 193.105 131.861 194.963 131.091C196.82 130.321 198.507 129.192 199.927 127.77C200.494 127.219 201.255 126.914 202.045 126.92C202.835 126.926 203.591 127.242 204.15 127.801C204.709 128.36 205.025 129.116 205.031 129.907C205.036 130.697 204.731 131.457 204.18 132.024C202.205 134.011 199.856 135.586 197.268 136.659C194.68 137.731 191.906 138.28 189.104 138.273ZM165.226 119.236C164.442 119.237 163.689 118.931 163.128 118.384C162.566 117.837 162.239 117.093 162.218 116.309C162.166 114.299 161.719 112.32 160.901 110.483C160.083 108.647 158.911 106.989 157.452 105.606C155.993 104.223 154.276 103.141 152.399 102.422C150.521 101.703 148.521 101.361 146.511 101.416C146.116 101.426 145.723 101.359 145.354 101.217C144.985 101.076 144.647 100.863 144.361 100.591C144.074 100.319 143.844 99.9936 143.683 99.6326C143.522 99.2717 143.434 98.8826 143.423 98.4876C143.413 98.0926 143.48 97.6994 143.622 97.3304C143.763 96.9614 143.976 96.624 144.248 96.3372C144.52 96.0505 144.845 95.8201 145.206 95.6592C145.567 95.4984 145.956 95.4102 146.351 95.3997C149.151 95.3236 151.938 95.8002 154.554 96.8021C157.169 97.804 159.561 99.3116 161.594 101.239C163.626 103.166 165.259 105.475 166.398 108.033C167.538 110.591 168.162 113.349 168.234 116.149C168.245 116.544 168.178 116.937 168.036 117.306C167.895 117.675 167.682 118.012 167.41 118.299C167.138 118.586 166.813 118.816 166.452 118.977C166.091 119.138 165.702 119.226 165.307 119.236H165.226ZM171.673 76.5358C171.19 76.536 170.715 76.4202 170.287 76.1981C169.858 75.976 169.49 75.6542 169.212 75.2597C168.934 74.8652 168.755 74.4097 168.691 73.9316C168.626 73.4534 168.677 72.9668 168.84 72.5126C169.519 70.6206 169.819 68.6132 169.722 66.6052C169.625 64.5973 169.132 62.6282 168.274 60.8106C167.415 58.993 166.206 57.3627 164.716 56.0128C163.226 54.6629 161.485 53.6199 159.592 52.9437C159.22 52.8105 158.878 52.6053 158.585 52.3399C158.293 52.0745 158.055 51.7541 157.886 51.3969C157.718 51.0398 157.621 50.6528 157.602 50.2582C157.582 49.8636 157.641 49.4691 157.774 49.0972C157.907 48.7252 158.112 48.3832 158.378 48.0905C158.643 47.7979 158.964 47.5604 159.321 47.3916C159.678 47.2228 160.065 47.1259 160.46 47.1067C160.854 47.0874 161.249 47.146 161.621 47.2792C164.257 48.2222 166.682 49.6756 168.757 51.5562C170.831 53.4368 172.515 55.7078 173.711 58.2394C174.908 60.771 175.594 63.5136 175.73 66.3104C175.866 69.1072 175.449 71.9034 174.504 74.5392C174.296 75.1233 173.912 75.6286 173.405 75.986C172.898 76.3434 172.293 76.5355 171.673 76.5358ZM161.51 169.752C160.242 169.751 158.977 169.638 157.729 169.413C157.34 169.344 156.969 169.198 156.636 168.984C156.304 168.771 156.017 168.494 155.791 168.17C155.566 167.846 155.406 167.48 155.322 167.094C155.238 166.708 155.23 166.309 155.3 165.92C155.37 165.532 155.516 165.16 155.729 164.828C155.942 164.495 156.219 164.208 156.543 163.982C156.868 163.757 157.233 163.597 157.619 163.513C158.005 163.429 158.404 163.422 158.793 163.491C162.788 164.205 166.902 163.305 170.234 160.989C173.565 158.672 175.842 155.129 176.565 151.136C176.628 150.741 176.77 150.363 176.981 150.024C177.192 149.685 177.469 149.391 177.795 149.16C178.121 148.929 178.49 148.765 178.88 148.678C179.27 148.591 179.673 148.583 180.067 148.653C180.46 148.724 180.835 148.872 181.171 149.09C181.506 149.307 181.795 149.589 182.02 149.919C182.245 150.25 182.402 150.621 182.482 151.013C182.562 151.405 182.563 151.808 182.485 152.2C181.594 157.117 179.007 161.567 175.175 164.774C171.343 167.98 166.507 169.742 161.51 169.752Z" fill="black"/>
<path d="M149.062 74.1747C146.261 74.1816 143.486 73.6328 140.898 72.5602C138.311 71.4875 135.961 69.9123 133.986 67.9256C133.422 67.3614 133.105 66.5962 133.105 65.7984C133.105 65.0005 133.422 64.2353 133.986 63.6712C134.551 63.107 135.316 62.79 136.114 62.79C136.912 62.79 137.677 63.107 138.241 63.6712C139.661 65.0937 141.348 66.2222 143.205 66.9922C145.062 67.7622 147.053 68.1585 149.063 68.1585C151.073 68.1585 153.064 67.7622 154.921 66.9922C156.778 66.2222 158.465 65.0937 159.885 63.6712C160.165 63.3918 160.496 63.1702 160.861 63.019C161.226 62.8679 161.618 62.79 162.013 62.79C162.408 62.79 162.799 62.8679 163.164 63.019C163.529 63.1702 163.86 63.3918 164.14 63.6712C164.419 63.9505 164.641 64.2821 164.792 64.6471C164.943 65.0121 165.021 65.4033 165.021 65.7984C165.021 66.1934 164.943 66.5846 164.792 66.9496C164.641 67.3146 164.419 67.6463 164.14 67.9256C162.164 69.9122 159.815 71.4873 157.227 72.56C154.639 73.6326 151.864 74.1814 149.062 74.1747ZM149.062 157.211C146.261 157.217 143.486 156.669 140.898 155.596C138.311 154.523 135.961 152.948 133.986 150.961C133.422 150.397 133.105 149.632 133.105 148.834C133.105 148.036 133.422 147.271 133.986 146.707C134.551 146.143 135.316 145.826 136.114 145.826C136.912 145.826 137.677 146.143 138.241 146.707C139.661 148.13 141.348 149.258 143.205 150.028C145.062 150.798 147.053 151.194 149.063 151.194C151.073 151.194 153.064 150.798 154.921 150.028C156.778 149.258 158.465 148.13 159.885 146.707C160.45 146.143 161.215 145.826 162.013 145.826C162.81 145.826 163.576 146.143 164.14 146.707C164.704 147.271 165.021 148.036 165.021 148.834C165.021 149.632 164.704 150.397 164.14 150.961C162.164 152.948 159.815 154.523 157.227 155.596C154.639 156.668 151.864 157.217 149.062 157.211Z" fill="black"/>
</svg>
