<svg width="271" height="220" viewBox="0 0 271 220" fill="none" xmlns="http://www.w3.org/2000/svg">
<rect opacity="0.8" width="271" height="220" rx="10" fill="#E3F0FF"/>
<g clip-path="url(#clip0_3600_45024)">
<path d="M124.697 96.238C123.374 108.207 117.982 117.682 106.666 122.688C94.4683 128.091 83.0357 125.703 71.6301 117.206C72.7734 119.833 73.7276 121.543 74.2857 123.367C77.4004 133.574 81.3253 143.657 83.2518 154.083C85.7543 167.666 81.7574 180.569 75.312 192.653C70.1808 202.269 64.5815 211.647 59.6214 221.342C47.7657 244.514 45.2991 269.104 50.2413 294.232C53.2479 309.533 57.938 324.526 62.43 339.694C60.9717 337.174 59.4414 334.688 58.082 332.114C56.6417 329.382 55.2914 326.597 54.0311 323.777C52.7708 320.965 51.5646 318.118 50.5023 315.227C37.1163 278.658 42.5535 243.65 59.7744 209.672C63.3662 202.586 67.1021 195.526 71.3691 188.819C77.1754 179.67 79.5249 169.754 78.1206 159.354C76.2212 145.287 73.3855 131.344 70.8379 117.365C70.5859 116.008 69.6497 114.685 68.7855 113.531C61.0797 103.227 59.0093 91.9457 62.8171 79.765C65.3917 71.524 68.3354 63.3976 71.6751 55.0068C71.6751 57.6598 72.1792 60.4362 71.5761 62.9569C69.8837 70.0873 67.6422 77.0855 65.7968 84.1719C61.4218 100.962 72.8994 114.915 84.9081 118.66C99.8065 123.314 116.082 115.717 122.699 101.033C123.41 99.4551 124.049 97.8334 124.715 96.238H124.697Z" fill="black"/>
<path d="M198.883 118.097C197.308 126.276 195.553 134.429 194.22 142.652C193.239 148.725 192.573 154.877 192.195 161.02C191.601 170.742 193.59 179.803 198.811 188.378C209.578 206.05 218.976 224.365 223.837 244.602C231.894 278.148 226.052 309.507 208.498 339.042C208.3 339.377 207.904 339.589 207.255 340.162C209.839 332.6 212.54 325.504 214.691 318.259C221.704 294.603 225.16 270.665 219.75 246.153C217.032 233.849 211.864 222.506 205.662 211.559C203.186 207.196 200.846 202.763 198.181 198.514C183.409 174.981 183.652 150.814 194.824 126.144C196.039 123.464 197.209 120.767 198.397 118.079C198.559 118.079 198.721 118.097 198.883 118.106V118.097Z" fill="black"/>
<path d="M108.674 0.105469C108.377 9.89766 102.346 17.5922 91.8582 20.157C84.3235 21.9991 76.6087 23.1361 68.993 24.6609C66.3554 25.1897 63.7268 25.7979 61.1702 26.6087C47.3701 30.9804 40.7536 38.2959 40.4205 52.4862C40.0964 66.6677 41.1586 80.9109 42.0679 95.0924C42.761 105.863 44.1563 116.598 45.2456 127.342C44.7325 127.395 44.2193 127.439 43.7062 127.492C41.1316 102.76 38.494 78.0288 36.0725 53.2706C35.7754 50.2739 36.4686 47.145 36.9637 44.113C38.5841 34.1798 44.3274 27.3932 54.2026 24.7754C62.6915 22.5191 71.4415 21.1706 80.0745 19.4519C88.2574 17.8301 96.1071 15.3446 102.012 9.25425C104.722 6.46026 106.649 2.93472 108.674 0.114283V0.105469Z" fill="black"/>
<path d="M225.007 128.673C226.087 118.203 227.555 107.749 228.158 97.2521C229.067 81.4488 229.913 65.6103 229.76 49.7894C229.643 38.1552 222.154 30.7339 211.207 27.4992C201.791 24.714 191.997 23.1275 182.337 21.162C169.348 18.5179 163.649 12.7624 161.552 0.00878906C163.883 3.16415 165.927 6.80427 168.798 9.62471C175.919 16.6141 185.326 18.6677 194.868 20.2807C201.062 21.3207 207.3 22.2902 213.359 23.8503C227.024 27.367 234.108 35.2642 234 49.0491C233.883 62.9309 232.407 76.8304 230.949 90.6681C229.607 103.342 227.501 115.929 225.727 128.559C225.484 128.594 225.25 128.638 225.007 128.673Z" fill="black"/>
<path d="M198.883 118.097C198.721 118.097 198.559 118.079 198.397 118.07C197.146 118.767 195.877 119.445 194.643 120.177C184.3 126.32 173.453 127.642 162.569 122.169C151.749 116.731 146.626 107.265 144.79 95.1984C147.248 99.6846 149.012 103.88 151.623 107.485C159.778 118.731 175.613 123.015 188.081 117.7C200.855 112.253 207.813 98.6182 204.654 84.5689C202.952 76.9978 200.54 69.5853 198.757 62.0318C198.217 59.7402 198.676 57.2283 199.153 54.875C201.575 61.8203 203.879 68.8009 206.436 75.6933C211.558 89.5311 210.397 102.461 201.035 114.342C200.153 115.461 199.604 116.845 198.901 118.106L198.883 118.097Z" fill="black"/>
<path d="M94.3624 100.546C92.6829 100.098 90.905 100.148 89.2549 100.691C88.7549 100.902 88.3571 101.293 88.144 101.784C87.9309 102.274 87.9189 102.825 88.1105 103.324C88.3132 103.761 88.6061 104.152 88.9708 104.473C89.3355 104.795 89.7642 105.038 90.2298 105.19C91.8746 105.922 93.7367 106.04 95.4645 105.522C95.9021 105.353 96.2984 105.097 96.6271 104.768C96.9559 104.439 97.2097 104.046 97.3719 103.614C97.5501 103.211 97.5928 102.763 97.4937 102.334C97.3947 101.906 97.1591 101.519 96.8208 101.23C97.0068 101.545 97.1048 101.903 97.1048 102.267C97.1048 102.631 97.0068 102.988 96.8208 103.303C96.6478 103.619 96.4096 103.896 96.1214 104.118C95.8333 104.339 95.5013 104.499 95.1466 104.589C93.6187 104.854 92.0443 104.659 90.6324 104.029C89.1913 103.614 88.3224 102.122 89.6364 101.396C90.3224 101.025 91.0806 100.799 91.8616 100.733C92.6902 100.617 93.5255 100.554 94.3624 100.546Z" fill="#312D2D"/>
<path d="M92.2036 102.953C92.6281 103.223 93.1176 103.38 93.6235 103.409C93.7783 103.434 93.9372 103.421 94.0854 103.37C94.2336 103.319 94.3663 103.233 94.4712 103.118C94.574 102.965 94.6137 102.779 94.5823 102.599C94.5508 102.418 94.4505 102.256 94.3017 102.144C94.0747 101.977 93.81 101.865 93.5298 101.818C93.2496 101.771 92.962 101.79 92.691 101.875C92.4337 101.943 92.2088 102.097 92.0552 102.31C91.928 102.517 91.928 102.828 92.2036 102.953ZM92.2036 102.953C92.034 102.787 91.928 102.517 92.2036 102.351C92.3896 102.222 92.611 102.15 92.8393 102.144C93.2616 102.181 93.6651 102.332 94.005 102.579C94.2593 102.725 94.1957 103.036 93.6871 103.118C93.442 103.196 93.1828 103.222 92.9269 103.193C92.671 103.164 92.4243 103.082 92.2036 102.953Z" fill="#312D2D"/>
<path d="M179.021 100.546C180.701 100.098 182.479 100.148 184.129 100.691C184.629 100.902 185.027 101.293 185.24 101.784C185.453 102.274 185.465 102.825 185.273 103.324C185.071 103.761 184.778 104.152 184.413 104.473C184.048 104.795 183.62 105.038 183.154 105.19C181.509 105.922 179.647 106.04 177.919 105.522C177.482 105.353 177.085 105.097 176.757 104.768C176.428 104.439 176.174 104.046 176.012 103.614C175.834 103.211 175.791 102.763 175.89 102.334C175.989 101.906 176.225 101.519 176.563 101.23C176.377 101.545 176.279 101.903 176.279 102.267C176.279 102.631 176.377 102.988 176.563 103.303C176.736 103.619 176.974 103.896 177.262 104.118C177.551 104.339 177.882 104.499 178.237 104.589C179.765 104.854 181.339 104.659 182.751 104.029C184.192 103.614 185.061 102.122 183.747 101.396C183.061 101.025 182.303 100.799 181.522 100.733C180.694 100.617 179.858 100.554 179.021 100.546Z" fill="#312D2D"/>
<path d="M181.18 102.953C180.756 103.223 180.266 103.38 179.76 103.409C179.605 103.434 179.447 103.421 179.298 103.37C179.15 103.319 179.017 103.233 178.913 103.118C178.81 102.965 178.77 102.779 178.802 102.599C178.833 102.418 178.933 102.256 179.082 102.144C179.309 101.977 179.574 101.865 179.854 101.818C180.134 101.771 180.422 101.79 180.693 101.875C180.95 101.943 181.175 102.097 181.329 102.31C181.456 102.517 181.456 102.828 181.18 102.953ZM181.18 102.953C181.35 102.787 181.456 102.517 181.18 102.351C180.994 102.222 180.773 102.15 180.544 102.144C180.122 102.181 179.719 102.332 179.379 102.579C179.125 102.725 179.188 103.036 179.697 103.118C179.942 103.196 180.201 103.222 180.457 103.193C180.713 103.164 180.959 103.082 181.18 102.953Z" fill="#312D2D"/>
<path d="M135.786 194.077C136.15 194.077 136.536 194.271 136.854 194.692C137.174 195.115 137.393 195.732 137.393 196.445C137.393 197.158 137.174 197.776 136.854 198.198C136.536 198.62 136.15 198.813 135.786 198.813C135.422 198.813 135.037 198.62 134.718 198.198C134.398 197.776 134.179 197.158 134.179 196.445C134.179 195.732 134.398 195.115 134.718 194.692C135.037 194.271 135.422 194.077 135.786 194.077Z" stroke="black" stroke-width="1.5"/>
</g>
<defs>
<clipPath id="clip0_3600_45024">
<rect width="198" height="220" fill="white" transform="translate(36)"/>
</clipPath>
</defs>
</svg>
