<svg width="20" height="20" viewBox="0 0 20 20" fill="none" xmlns="http://www.w3.org/2000/svg">
<g id="Group">
<g id="Group_2">
<path id="Vector" d="M18.2692 1.53846H16.9231V0.769231C16.9231 0.344615 16.5785 0 16.1538 0C15.7292 0 15.3846 0.344615 15.3846 0.769231V1.53846H4.61538V0.769231C4.61538 0.344615 4.27077 0 3.84615 0C3.42154 0 3.07692 0.344615 3.07692 0.769231V1.53846H1.73077C0.776538 1.53846 0 2.315 0 3.26923V5.38462H20V3.26923C20 2.315 19.2235 1.53846 18.2692 1.53846Z" fill="#C9311A"/>
<path id="Vector_2" d="M0 18.2692C0 19.2234 0.776538 20 1.73077 20H18.2692C19.2235 20 20 19.2234 20 18.2692V6.92303H0V18.2692ZM6.37923 9.77457C6.07885 9.47419 6.07885 8.98727 6.37923 8.68688C6.67923 8.3865 7.16692 8.3865 7.46692 8.68688L10 11.22L12.5331 8.68688C12.8335 8.3865 13.3204 8.3865 13.6208 8.68688C13.9212 8.98727 13.9212 9.47419 13.6208 9.77457L11.0877 12.3076L13.6208 14.8407C13.9212 15.1411 13.9212 15.628 13.6208 15.9284C13.4704 16.0788 13.2738 16.1538 13.0769 16.1538C12.88 16.1538 12.6835 16.0788 12.5331 15.9284L10 13.3953L7.46692 15.9284C7.31692 16.0788 7.12 16.1538 6.92308 16.1538C6.72615 16.1538 6.52923 16.0788 6.37923 15.9284C6.07885 15.628 6.07885 15.1411 6.37923 14.8407L8.91231 12.3076L6.37923 9.77457Z" fill="#C9311A"/>
</g>
</g>
</svg>
