<svg width="16" height="16" viewBox="0 0 16 16" fill="none" xmlns="http://www.w3.org/2000/svg">
<g id="Icons-with-opacity">
<g id="shop-">
<path id="Path" opacity="0.598982" d="M15.9046 3.66624L13.9046 0.332915C13.7841 0.132341 13.5673 0.00958252 13.3333 0.00958252H2.66667C2.43268 0.00958252 2.21584 0.132341 2.09534 0.332915L0.0953415 3.66624C0.0330016 3.76992 4.18075e-06 3.8886 4.18075e-06 4.00958C-0.00257219 5.47898 1.18594 6.67256 2.65534 6.67624H2.66067C3.31916 6.67792 3.95468 6.43431 4.44333 5.99291C5.45265 6.90513 6.98868 6.90513 7.99799 5.99291C9.00781 6.90714 10.5462 6.90714 11.556 5.99291C12.3378 6.69817 13.4618 6.87624 14.4233 6.44714C15.3848 6.01804 16.0029 5.06245 16 4.00958C16 3.8886 15.967 3.76992 15.9046 3.66624Z" fill="#312D2D"/>
<path id="Path_2" d="M13.344 7.6657C12.7243 7.66622 12.1129 7.50354 11.558 7.19043L11.548 7.19573C10.6019 7.73124 9.50654 7.8157 8.50532 7.43033C8.33192 7.36415 8.16264 7.28476 7.99866 7.1927L7.99132 7.19648C7.0455 7.73237 5.95016 7.81657 4.94933 7.43033C4.77614 7.36415 4.60709 7.28476 4.44333 7.1927C3.88939 7.50495 3.27913 7.66687 2.66067 7.6657C2.43918 7.6633 2.21824 7.64052 2 7.59758V15.2336C2 15.6516 2.29848 15.9904 2.66667 15.9904H6.66666V11.4497H9.33332V15.9904H13.3333C13.7015 15.9904 14 15.6516 14 15.2336V7.59456C13.7834 7.6386 13.564 7.66239 13.344 7.6657Z" fill="#312D2D"/>
</g>
</g>
</svg>
