<svg width="20" height="20" viewBox="0 0 20 20" fill="none" xmlns="http://www.w3.org/2000/svg">
<g id="Group 1000003781">
<rect id="Rectangle 40399" width="20" height="20" rx="4" fill="#312D2D"/>
<g id="icon-park-solid:appointment">
<path id="Vector (Stroke)" fill-rule="evenodd" clip-rule="evenodd" d="M10.6226 5.83083C9.87133 5.83083 9.26231 6.43984 9.26231 7.19109C9.26231 7.94235 9.87133 8.55136 10.6226 8.55136C11.3738 8.55136 11.9829 7.94235 11.9829 7.19109C11.9829 6.43984 11.3738 5.83083 10.6226 5.83083ZM8.35547 7.19109C8.35547 5.939 9.37049 4.92398 10.6226 4.92398C11.8747 4.92398 12.8897 5.939 12.8897 7.19109C12.8897 8.44319 11.8747 9.45821 10.6226 9.45821C9.37049 9.45821 8.35547 8.44319 8.35547 7.19109Z" fill="white"/>
<path id="Vector (Stroke)_2" fill-rule="evenodd" clip-rule="evenodd" d="M10.1038 11.3369C7.75526 11.3369 5.95827 13.0165 5.95827 14.9643C5.95827 15.2504 5.72627 15.4825 5.44007 15.4825C5.15388 15.4825 4.92188 15.2504 4.92188 14.9643C4.92188 12.3327 7.30103 10.3005 10.1038 10.3005C10.39 10.3005 10.622 10.5325 10.622 10.8187C10.622 11.1049 10.39 11.3369 10.1038 11.3369Z" fill="white"/>
<path id="Vector (Stroke)_3" fill-rule="evenodd" clip-rule="evenodd" d="M13.2111 11.2717C12.1736 11.2717 11.3326 12.1127 11.3326 13.1501C11.3326 14.1876 12.1736 15.0286 13.2111 15.0286C14.2485 15.0286 15.0896 14.1876 15.0896 13.1501C15.0896 12.1127 14.2485 11.2717 13.2111 11.2717ZM10.4258 13.1501C10.4258 11.6119 11.6728 10.3648 13.2111 10.3648C14.7494 10.3648 15.9964 11.6119 15.9964 13.1501C15.9964 14.6884 14.7494 15.9355 13.2111 15.9355C11.6728 15.9355 10.4258 14.6884 10.4258 13.1501Z" fill="white"/>
<path id="Vector (Stroke)_4" fill-rule="evenodd" clip-rule="evenodd" d="M12.9544 12.1141C13.0975 12.1141 13.2135 12.2301 13.2135 12.3732V13.1505H13.9908C14.1339 13.1505 14.2499 13.2665 14.2499 13.4096C14.2499 13.5527 14.1339 13.6687 13.9908 13.6687H12.9544C12.8113 13.6687 12.6953 13.5527 12.6953 13.4096V12.3732C12.6953 12.2301 12.8113 12.1141 12.9544 12.1141Z" fill="white"/>
</g>
</g>
</svg>
