<svg xmlns="http://www.w3.org/2000/svg"  viewBox="0 0 40 40" width="48px" height="48px"><path fill="#e1ebf2" d="M4,32.5c-1.378,0-2.5-1.122-2.5-2.5V10c0-1.378,1.122-2.5,2.5-2.5h32c1.378,0,2.5,1.122,2.5,2.5v20 c0,1.378-1.122,2.5-2.5,2.5H4z"/><path fill="#788b9c" d="M36,8c1.103,0,2,0.897,2,2v20c0,1.103-0.897,2-2,2H4c-1.103,0-2-0.897-2-2V10c0-1.103,0.897-2,2-2 H36 M36,7H4c-1.657,0-3,1.343-3,3v20c0,1.657,1.343,3,3,3h32c1.657,0,3-1.343,3-3V10C39,8.343,37.657,7,36,7L36,7z"/><path fill="#ffc49c" d="M17.922,32.5c6.109-1.476,16.299-4.731,20.578-10.711V30c0,1.378-1.122,2.5-2.5,2.5H17.922z"/><path fill="#a16a4a" d="M38,23.21V30c0,1.103-0.897,2-2,2H21.699C27.252,30.352,34.144,27.565,38,23.21 M39,20 c-4.841,9.707-26,13-26,13h23c1.657,0,3-1.343,3-3V20L39,20z"/><path fill="#ffc49c" d="M20.905,21.5c-1.147,0-2.013-0.86-2.013-2s0.866-2,2.013-2s2.013,0.86,2.013,2 S22.052,21.5,20.905,21.5z"/><path fill="#a16a4a" d="M20.905,18c0.877,0,1.513,0.631,1.513,1.5S21.782,21,20.905,21c-0.877,0-1.513-0.631-1.513-1.5 S20.028,18,20.905,18 M20.905,17c-1.424,0-2.513,1.083-2.513,2.5s1.089,2.5,2.513,2.5s2.513-1.083,2.513-2.5S22.329,17,20.905,17 L20.905,17z"/><g><path fill="#36404d" d="M8.622,17.082H9.6V22H8.622V17.082z M13.956,19.541c0,1.393,1.156,2.459,2.667,2.459 c0.444,0,0.8-0.082,1.244-0.246v-1.066c-0.356,0.328-0.711,0.492-1.244,0.492c-0.978,0-1.689-0.656-1.689-1.639 c0-0.902,0.711-1.639,1.689-1.639c0.444,0,0.8,0.164,1.244,0.492v-1.066C17.422,17.164,17.067,17,16.622,17 C15.111,17.082,13.956,18.23,13.956,19.541z M25.867,20.279l-1.422-3.197h-1.067L25.6,22h0.533l2.222-4.918h-1.067L25.867,20.279z M28.8,22h2.844v-0.82h-1.867v-1.311h1.778v-0.82h-1.778v-1.148h1.867v-0.82H28.8L28.8,22z M35.556,18.557 c0-0.902-0.622-1.475-1.778-1.475h-1.511V22h0.978v-1.967h0.089L34.756,22H36l-1.6-2.049 C35.111,19.787,35.556,19.295,35.556,18.557z M33.511,19.377h-0.267v-1.475h0.267c0.622,0,0.978,0.246,0.978,0.738 C34.489,19.049,34.222,19.377,33.511,19.377z M5.511,17.082H4V22h1.422c2.222,0,2.756-1.721,2.756-2.459 C8.267,18.066,7.111,17.082,5.511,17.082z M5.244,21.18H4.978v-3.279h0.356c1.333,0,1.867,0.82,1.867,1.639 C7.2,19.869,7.111,21.18,5.244,21.18z M12.267,18.967c-0.622-0.246-0.8-0.328-0.8-0.574c0-0.328,0.356-0.492,0.711-0.492 c0.267,0,0.533,0.082,0.8,0.41l0.533-0.656c-0.444-0.41-0.889-0.574-1.511-0.574c-0.889,0-1.6,0.574-1.6,1.393 c0,0.656,0.356,0.984,1.244,1.311c0.533,0.164,0.978,0.328,0.978,0.738c0,0.41-0.356,0.656-0.8,0.656 c-0.444,0-0.889-0.246-1.067-0.656l-0.622,0.574C10.578,21.754,11.111,22,11.911,22c1.067,0,1.778-0.656,1.778-1.557 C13.689,19.705,13.333,19.377,12.267,18.967z"/></g></svg>