<svg width="12" height="16" viewBox="0 0 12 16" fill="none" xmlns="http://www.w3.org/2000/svg">
<g id="Group 1000006126">
<path id="Vector" d="M2.72478 12.224C3.14233 12.224 3.48082 11.8855 3.48082 11.4679C3.48082 11.0504 3.14233 10.7119 2.72478 10.7119C2.30724 10.7119 1.96875 11.0504 1.96875 11.4679C1.96875 11.8855 2.30724 12.224 2.72478 12.224Z" fill="#312D2D"/>
<path id="Vector_2" d="M0.203125 10.4598V15.5H11.7957V10.4598C11.796 10.0859 11.7129 9.7166 11.5525 9.37886C11.392 9.04113 11.1583 8.74342 10.8683 8.50743C10.8929 9.03883 10.7294 9.56191 10.4066 9.98473C10.5248 10.1379 10.6062 10.3164 10.6442 10.5061L10.7632 11.1001C10.804 11.3035 10.7939 11.5139 10.7338 11.7125C10.6736 11.9111 10.5653 12.0917 10.4184 12.2382L9.37433 13.2823C9.32707 13.3295 9.26299 13.3561 9.19616 13.3561C9.12934 13.3561 9.06525 13.3295 9.01799 13.2823L8.66164 12.926L8.48347 13.1041L8.12713 12.7478L8.83982 12.0348L9.19616 12.3912L9.01799 12.5694L9.19616 12.7478L10.0621 11.8819C10.1501 11.7939 10.2151 11.6855 10.2512 11.5663C10.2873 11.4472 10.2934 11.321 10.269 11.1989L10.15 10.6049C10.121 10.4585 10.0491 10.3239 9.94356 10.2183C9.83801 10.1127 9.70349 10.0408 9.55704 10.0117L8.96305 9.89299C8.84104 9.8686 8.71489 9.8747 8.5958 9.91074C8.47671 9.94679 8.36835 10.0117 8.28035 10.0996L7.41419 10.9656L7.59236 11.144L7.77053 10.9656L8.12688 11.3219L7.41419 12.0348L7.05784 11.6785L7.23601 11.5003L6.87967 11.1437C6.83243 11.0965 6.80588 11.0324 6.80588 10.9656C6.80588 10.8987 6.83243 10.8346 6.87967 10.7874L7.92375 9.7433C8.07015 9.59621 8.25075 9.48773 8.44938 9.42761C8.648 9.36749 8.85845 9.35759 9.06184 9.3988L9.65583 9.5175C9.78502 9.54378 9.90933 9.59003 10.0243 9.65459C10.18 9.44307 10.2865 9.19945 10.336 8.94151C10.3855 8.68358 10.3768 8.41784 10.3106 8.16369C9.98542 8.01622 9.63256 7.93984 9.27555 7.93965H7.78868C7.74212 7.42671 7.78216 6.9096 7.90712 6.40994C8.41831 5.89819 8.72407 5.21673 8.76648 4.49465C8.92956 4.40969 9.06447 4.27921 9.15483 4.11906C9.2452 3.95891 9.28713 3.77597 9.27555 3.59245C9.28071 3.33204 9.19116 3.07861 9.02353 2.87926V2.86918C9.02353 2.17866 8.45903 1.0625 7.76347 1.0625C7.76095 1.0625 8.27002 0.883325 8.2675 0.883325C8.09109 0.648954 7.30481 0.696836 7.00744 0.631313C6.77811 0.311258 6.42529 0.676927 5.99939 0.676927C5.57349 0.676927 4.46464 0.684235 4.23531 1.00454C3.93794 1.07007 3.17182 0.770171 2.99541 1.00454C2.99541 1.00706 3.49944 1.43548 3.49944 1.438C2.80389 1.43775 2.97525 2.17866 2.97525 2.86918V2.87926C2.80763 3.07861 2.71808 3.33204 2.72324 3.59245C2.71166 3.77597 2.75359 3.95891 2.84395 4.11906C2.93432 4.27921 3.06923 4.40969 3.23231 4.49465C3.27472 5.21673 3.58048 5.89819 4.09167 6.40994C4.21662 6.9096 4.25666 7.42671 4.21011 7.93965H2.97525V9.97843C3.34909 10.0416 3.68554 10.2429 3.91794 10.5425C4.15034 10.8421 4.26172 11.218 4.23001 11.5958C4.19831 11.9736 4.02583 12.3257 3.74675 12.5823C3.46768 12.839 3.10238 12.9814 2.72324 12.9814C2.34411 12.9814 1.9788 12.839 1.69973 12.5823C1.42065 12.3257 1.24817 11.9736 1.21647 11.5958C1.18476 11.218 1.29615 10.8421 1.52854 10.5425C1.76094 10.2429 2.0974 10.0416 2.47123 9.97843V7.95225C1.84961 8.01473 1.27336 8.30587 0.854262 8.7692C0.435169 9.23253 0.203117 9.83502 0.203125 10.4598ZM5.99939 9.45172C5.71395 9.45159 5.43438 9.37059 5.19308 9.21809C4.95179 9.0656 4.75864 8.84786 4.63601 8.59009C4.74724 8.03345 4.76935 7.46268 4.70153 6.8991C4.74186 6.9243 4.78218 6.9495 4.82502 6.97218L5.35676 7.26955C5.55338 7.37864 5.77454 7.43588 5.99939 7.43588C6.22425 7.43588 6.4454 7.37864 6.64202 7.26955L7.17377 6.97218C7.21661 6.9495 7.25693 6.9243 7.29725 6.8991C7.22943 7.46268 7.25155 8.03345 7.36278 8.59009C7.24015 8.84786 7.047 9.0656 6.8057 9.21809C6.5644 9.37059 6.28484 9.45159 5.99939 9.45172ZM4.15215 5.69171C3.88033 5.29442 3.73374 4.82482 3.73129 4.34344V4.29556C3.73116 4.26262 3.72453 4.23003 3.71179 4.19966C3.69904 4.16929 3.68044 4.14172 3.65703 4.11855C3.63362 4.09537 3.60587 4.07704 3.57537 4.06461C3.54487 4.05217 3.51221 4.04587 3.47928 4.04607C3.36083 4.04607 3.22726 3.85202 3.22726 3.59245C3.22726 3.33288 3.36083 3.13883 3.47928 3.13883C3.53081 3.13967 3.58122 3.12375 3.62292 3.09347L3.69097 3.0481C4.27108 2.64794 4.95948 2.4343 5.66422 2.43572H6.33457C7.03931 2.4343 7.72771 2.64794 8.30782 3.0481L8.37586 3.09347C8.41757 3.12375 8.46798 3.13967 8.51951 3.13883C8.63795 3.13883 8.77152 3.33288 8.77152 3.59245C8.77152 3.85202 8.63795 4.04607 8.51951 4.04607C8.48657 4.04587 8.45392 4.05217 8.42342 4.06461C8.39291 4.07704 8.36517 4.09537 8.34176 4.11855C8.31835 4.14172 8.29974 4.16929 8.287 4.19966C8.27426 4.23003 8.26763 4.26262 8.2675 4.29556V4.34344C8.26504 4.82482 8.11846 5.29442 7.84664 5.69171C7.73001 5.8669 7.59202 6.0269 7.43586 6.16801C7.43519 6.16801 7.43455 6.16827 7.43408 6.16875C7.4336 6.16922 7.43334 6.16986 7.43334 6.17053C7.28013 6.31267 7.11001 6.4354 6.9268 6.53595L6.39505 6.83332C6.27392 6.90026 6.13779 6.93537 5.99939 6.93537C5.861 6.93537 5.72486 6.90026 5.60373 6.83332L5.07199 6.53595C4.70352 6.33042 4.38845 6.04124 4.15215 5.69171Z" fill="#312D2D"/>
</g>
</svg>
