<svg width="271" height="220" viewBox="0 0 271 220" fill="none" xmlns="http://www.w3.org/2000/svg">
<rect opacity="0.8" width="271" height="220" rx="10" fill="#E3F0FF"/>
<path d="M76.679 71.2076C76.2222 66.9813 74.6891 62.9436 72.2269 59.4822C69.7647 56.0208 66.4562 53.2519 62.6188 51.4413C58.2971 49.8009 53.5723 49.554 49.1039 50.7352C44.6355 51.9164 40.6465 54.4668 37.6941 58.0301C32.8036 64.8061 30.9813 71.8653 29.6484 80C28.3155 88.1347 29.1484 94.5 31.1484 104.5C40.8155 130.299 44.4211 136.077 54.5545 148.534C59.7181 154.719 65.8926 159.979 72.8144 164.091C76.2882 166.424 74.6484 166 80.6484 167.5C84.8141 167.868 85.8161 167.884 89.6436 166.196V165.281C86.1282 165.322 82.6395 164.664 79.3797 163.345C76.1199 162.025 73.1538 160.071 70.6532 157.594C65.3607 152.763 60.4465 147.531 55.954 141.945C46.8144 130.663 39.9603 117.701 35.7767 103.785C33.4871 96.672 32.8623 89.1257 33.9508 81.7313C34.9646 74.6297 38.4976 68.1321 43.9024 63.4292C45.9923 61.2543 48.5865 59.6316 51.4539 58.7055C54.3213 57.7794 57.3728 57.5788 60.3363 58.1216C66.895 60.652 72.3569 65.4138 75.766 71.5736L76.679 71.2076Z" fill="#312D2D"/>
<path d="M51.3033 117.152C47.112 112.799 44.5066 107.158 43.9079 101.138C42.3575 95.608 42.6786 89.7191 44.8209 84.3914C45.7779 82.0651 47.5482 80.1684 49.8004 79.0565C52.0525 77.9447 54.6318 77.6941 57.0551 78.3517C59.333 79.5752 61.2039 81.4403 62.437 83.7168C63.67 85.9934 64.2112 88.582 63.9939 91.1632C63.2615 97.2349 63.078 103.361 63.446 109.465C63.8862 111.296 64.7635 112.992 66.0024 114.407C67.2302 115.569 68.613 116.554 70.111 117.335C72.5312 118.512 74.4445 120.528 75.4976 123.009C76.6525 125.661 77.4212 128.465 77.7801 131.336C78.2366 134.448 79.0583 137.102 77.2323 139.023C75.059 141.292 73.5056 144.084 72.7219 147.129C71.9383 150.175 71.9509 153.371 72.7586 156.41C72.3908 153.453 72.7755 150.451 73.877 147.683C74.9785 144.915 76.7609 142.471 79.0583 140.579C80.3518 139.291 81.1034 137.555 81.1581 135.729C81.2546 134.144 81.2546 132.555 81.1581 130.97C80.9352 127.847 80.2903 124.769 79.2409 121.819C78.0959 118.55 75.8312 115.794 72.8498 114.041C70.0196 112.485 68.4676 111.204 68.1024 108.642C68.061 102.736 68.427 96.835 69.1979 90.9802C69.3014 87.4476 68.3823 83.9604 66.5515 80.94C64.7208 77.9196 62.0567 75.495 58.881 73.9592C57.1528 73.3236 55.3045 73.0841 53.4718 73.2583C51.6391 73.4325 49.8686 74.0159 48.2904 74.9658C45.2679 76.728 42.8972 79.4253 41.5342 82.6528C39.3839 88.8145 39.3839 95.5252 41.5342 101.687C42.8194 107.856 46.2897 113.349 51.3033 117.152Z" fill="#312D2D"/>
<path d="M63.9091 108.455C63.9091 110.834 62.9962 113.122 62.8136 115.593C62.474 118.106 63.0935 120.655 64.5483 122.731C66.0353 124.828 68.0567 126.486 70.4015 127.532C72.7462 128.578 75.3283 128.974 77.8779 128.679V126.208C75.6909 126.648 73.4261 126.489 71.3215 125.748C69.2169 125.008 67.3502 123.712 65.9177 121.999C64.4298 120.209 63.6789 117.918 63.8179 115.593C63.4527 113.214 63.7265 110.834 63.9091 108.455Z" fill="#312D2D"/>
<path d="M66.1738 84.0218C63.4733 83.2691 60.5896 83.556 58.0893 84.826C55.589 86.096 53.6529 88.2572 52.6615 90.8851C50.8114 95.7208 50.2451 100.955 51.0181 106.076V109.37L51.6572 106.167C52.1059 103.797 53.0549 101.55 54.4405 99.5773C55.8262 97.6045 57.6166 95.9513 59.6916 94.7286C57.4546 95.8402 55.4817 97.4204 53.9066 99.3623C52.3314 101.304 51.1908 103.562 50.5617 105.984H51.3833C50.9187 101.049 51.7037 96.076 53.6658 91.5256C54.5251 89.3847 56.1597 87.6483 58.2421 86.6641C60.3245 85.6798 62.701 85.5206 64.8956 86.2181L66.1738 84.0218Z" fill="#312D2D"/>
<path d="M193.965 71.2076C194.421 66.9813 195.955 62.9436 198.417 59.4822C200.879 56.0208 204.187 53.2519 208.025 51.4413C212.346 49.8009 217.071 49.554 221.54 50.7352C226.008 51.9164 229.997 54.4668 232.949 58.0301C237.84 64.8061 239.662 71.8653 240.995 80C242.328 88.1347 241.495 94.5 239.495 104.5C229.828 130.299 226.222 136.077 216.089 148.534C210.925 154.719 204.751 159.979 197.829 164.091C194.355 166.424 195.995 166 189.995 167.5C185.829 167.868 184.827 167.884 181 166.196V165.281C184.515 165.322 188.004 164.664 191.264 163.345C194.524 162.025 197.49 160.071 199.99 157.594C205.283 152.763 210.197 147.531 214.69 141.945C223.829 130.663 230.683 117.701 234.867 103.785C237.157 96.672 237.781 89.1257 236.693 81.7313C235.679 74.6297 232.146 68.1321 226.741 63.4292C224.651 61.2543 222.057 59.6316 219.19 58.7055C216.322 57.7794 213.271 57.5788 210.307 58.1216C203.749 60.652 198.287 65.4138 194.878 71.5736L193.965 71.2076Z" fill="#312D2D"/>
<path d="M219.34 117.152C223.532 112.799 226.137 107.158 226.736 101.138C228.286 95.608 227.965 89.7191 225.823 84.3914C224.866 82.0651 223.095 80.1684 220.843 79.0565C218.591 77.9447 216.012 77.6941 213.589 78.3517C211.311 79.5752 209.44 81.4403 208.207 83.7168C206.974 85.9934 206.432 88.582 206.65 91.1632C207.382 97.2349 207.566 103.361 207.198 109.465C206.757 111.296 205.88 112.992 204.641 114.407C203.413 115.569 202.031 116.554 200.533 117.335C198.112 118.512 196.199 120.528 195.146 123.009C193.991 125.661 193.222 128.465 192.863 131.336C192.407 134.448 191.585 137.102 193.411 139.023C195.585 141.292 197.138 144.084 197.922 147.129C198.705 150.175 198.693 153.371 197.885 156.41C198.253 153.453 197.868 150.451 196.767 147.683C195.665 144.915 193.883 142.471 191.585 140.579C190.292 139.291 189.54 137.555 189.485 135.729C189.389 134.144 189.389 132.555 189.485 130.97C189.708 127.847 190.353 124.769 191.403 121.819C192.548 118.55 194.812 115.794 197.794 114.041C200.624 112.485 202.176 111.204 202.541 108.642C202.583 102.736 202.217 96.835 201.446 90.9802C201.342 87.4476 202.261 83.9604 204.092 80.94C205.923 77.9196 208.587 75.495 211.763 73.9592C213.491 73.3236 215.339 73.0841 217.172 73.2583C219.004 73.4325 220.775 74.0159 222.353 74.9658C225.376 76.728 227.746 79.4253 229.109 82.6528C231.26 88.8145 231.26 95.5252 229.109 101.687C227.824 107.856 224.354 113.349 219.34 117.152Z" fill="#312D2D"/>
<path d="M206.734 108.455C206.734 110.834 207.647 113.122 207.83 115.593C208.17 118.106 207.55 120.655 206.095 122.731C204.608 124.828 202.587 126.486 200.242 127.532C197.897 128.578 195.315 128.974 192.766 128.679V126.208C194.953 126.648 197.217 126.489 199.322 125.748C201.427 125.008 203.293 123.712 204.726 121.999C206.214 120.209 206.965 117.918 206.826 115.593C207.191 113.214 206.917 110.834 206.734 108.455Z" fill="#312D2D"/>
<path d="M204.47 84.0218C207.17 83.2691 210.054 83.556 212.554 84.826C215.055 86.096 216.991 88.2572 217.982 90.8851C219.832 95.7208 220.398 100.955 219.625 106.076V109.37L218.986 106.167C218.538 103.797 217.589 101.55 216.203 99.5773C214.817 97.6045 213.027 95.9513 210.952 94.7286C213.189 95.8402 215.162 97.4204 216.737 99.3623C218.312 101.304 219.453 103.562 220.082 105.984H219.26C219.725 101.049 218.94 96.076 216.978 91.5256C216.118 89.3847 214.484 87.6483 212.401 86.6641C210.319 85.6798 207.943 85.5206 205.748 86.2181L204.47 84.0218Z" fill="#312D2D"/>
</svg>
