<svg width="20" height="20" viewBox="0 0 20 20" fill="none" xmlns="http://www.w3.org/2000/svg">
<g id="Group 1000003781">
<rect id="Rectangle 40399" width="20" height="20" rx="4" fill="#312D2D"/>
<path id="Vector" d="M10.5662 6.53846L9.92552 7.17436L6.51218 10.5897C6.43375 10.6689 6.38335 10.7716 6.36868 10.8821L6.00479 13.4154C5.96686 13.7179 6.15342 14 6.58906 14L9.12087 13.6359C9.2313 13.6212 9.33389 13.5708 9.413 13.4923L12.8263 10.0769L13.4004 9.50257C13.4221 9.48154 13.4426 9.45928 13.4619 9.4359C13.8185 9.04629 14.0111 8.534 13.9995 8.00579C13.9879 7.47759 13.7731 6.97424 13.3997 6.60066C13.0263 6.22707 12.5233 6.01208 11.9954 6.00049C11.4675 5.98891 10.9555 6.18162 10.5662 6.53846ZM11.9499 7.0359C12.0842 7.03413 12.2174 7.05911 12.3419 7.10938C12.4664 7.15965 12.5796 7.23422 12.6751 7.32872C12.7705 7.42323 12.8461 7.53578 12.8976 7.65984C12.9491 7.78389 12.9754 7.91696 12.975 8.05128C12.9753 8.27011 12.9032 8.48289 12.77 8.65641L11.3452 7.23077C11.52 7.10121 11.7325 7.03274 11.9499 7.0359ZM8.80824 12.6462L7.11695 12.8872L7.35783 11.1949L10.6072 7.94872L12.0524 9.39487L8.80824 12.6462Z" fill="white"/>
</g>
</svg>
