<svg width="21" height="21" viewBox="0 0 21 21" fill="none" xmlns="http://www.w3.org/2000/svg">
<path d="M1.70832 3.03896C1.68234 3.49486 1.66438 3.94084 1.62942 4.38587C1.60013 4.76382 1.71257 5.06948 2.03524 5.27971C2.18147 5.37479 2.35288 5.42373 2.52726 5.42019C2.70164 5.41666 2.87093 5.3608 3.01318 5.25987C3.31223 5.05011 3.43081 4.68587 3.37695 4.32493C3.31411 3.89974 3.29381 3.47455 3.25318 3.02715H4.94873C4.92984 3.44667 4.9426 3.87045 4.88307 4.28383C4.82449 4.68917 4.93031 5.0572 5.26102 5.27594C5.41078 5.37276 5.58628 5.42212 5.76456 5.41757C5.94283 5.41302 6.11558 5.35476 6.26021 5.25042C6.57485 5.02129 6.66367 4.66366 6.59895 4.26635C6.53423 3.86903 6.54226 3.45612 6.51722 3.02904H8.14097C8.14097 3.43439 8.1849 3.85202 8.12868 4.25737C8.07246 4.66272 8.15183 5.03594 8.47309 5.26082C8.61981 5.36153 8.79327 5.4161 8.97122 5.41753C9.14917 5.41896 9.32349 5.36719 9.47181 5.26885C9.80251 5.0435 9.89039 4.67736 9.83606 4.27107C9.78173 3.86478 9.82425 3.44667 9.82425 3.02196H11.4376C11.413 3.45045 11.4187 3.87234 11.3554 4.28571C11.2954 4.67878 11.3965 5.04586 11.7126 5.26318C11.8595 5.36402 12.0335 5.41822 12.2117 5.41873C12.39 5.41923 12.5642 5.36601 12.7118 5.26601C13.0306 5.04586 13.1634 4.68067 13.0651 4.29186C13.0444 4.2329 13.0308 4.17168 13.0245 4.1095C13.0203 3.75565 13.0245 3.40085 13.0245 3.02952H14.6842C14.6629 3.424 14.6842 3.83265 14.6086 4.22619C14.533 4.62823 14.6053 5.00098 14.9194 5.24239C15.062 5.34915 15.2334 5.4103 15.4113 5.4178C15.5892 5.42531 15.7653 5.37882 15.9163 5.28444C16.2427 5.0794 16.3684 4.71421 16.3207 4.32257C16.2692 3.89738 16.2734 3.46604 16.2545 3.04274C17.1611 2.8944 17.9081 3.48778 17.9614 4.37264C17.9794 4.66272 17.9671 4.95515 17.9676 5.24617C17.9676 6.28552 17.9676 7.32488 17.9676 8.36423C17.9676 8.43982 17.9676 8.5343 17.9255 8.58769C17.6525 8.93824 17.3676 9.28028 17.0416 9.6809V7.16331H0.91889V18.8381C0.91889 19.6195 1.32235 20.0277 2.11131 20.0286C4.3393 20.0314 6.56745 20.0314 8.79576 20.0286C11.1187 20.0286 13.4412 20.0324 15.7637 20.0229C16.0064 20.0267 16.2474 19.9816 16.4723 19.8902C16.8451 19.7253 17.0392 19.4154 17.0369 18.9883C17.0303 18.0831 17.0318 17.1778 17.0416 16.2723C17.0454 16.1508 17.086 16.0334 17.1578 15.9354C17.4007 15.6175 17.6624 15.3147 17.9406 14.9769C17.9527 15.0217 17.9614 15.0673 17.9666 15.1134C17.9666 16.5699 17.9666 18.0264 17.9633 19.4829C17.961 20.3806 17.3676 20.9697 16.4638 20.9697C11.4796 20.9697 6.49579 20.9697 1.51226 20.9697C0.767702 20.9697 0.231971 20.5917 0.0552807 19.9421C0.0195655 19.8053 0.0016169 19.6645 0.00188973 19.5231C-0.000629911 14.5077 -0.000629911 9.4924 0.00188973 4.47705C0 3.53077 0.727552 2.90715 1.70832 3.03896Z" fill="white"/>
<path d="M20.0293 11.1089C19.9846 11.1983 19.9334 11.2843 19.8762 11.3664C18.698 12.8082 17.5182 14.2488 16.3368 15.6882C15.5809 16.6104 14.8261 17.5332 14.0724 18.4566C13.7597 18.8388 13.7063 18.8464 13.3482 18.5171C12.2323 17.4904 11.118 16.4619 10.0052 15.4316C9.79735 15.2394 9.58571 15.0537 9.38351 14.8534C9.19453 14.6706 9.19832 14.5406 9.37548 14.3484C9.75846 13.932 10.1424 13.5164 10.5273 13.1016C10.7521 12.8593 10.8797 12.8569 11.1197 13.0789C11.805 13.7145 12.4912 14.3493 13.1781 14.9833C13.4082 15.1959 13.5258 15.195 13.7233 14.9531C14.7059 13.7498 15.6829 12.5437 16.6661 11.339C17.0912 10.8165 17.5287 10.2996 17.9634 9.78419C18.1349 9.5801 18.2624 9.56356 18.467 9.72891C18.93 10.1024 19.3892 10.4804 19.8446 10.8628C19.9183 10.9256 19.9655 11.0201 20.0293 11.1089Z" fill="white"/>
<path d="M4.4971 12.7148V14.751H2.44531V12.7148H4.4971Z" fill="white"/>
<path d="M12.6875 11.4686V9.44141H14.7317V11.4705L12.6875 11.4686Z" fill="white"/>
<path d="M4.48824 18.1416H2.44922V16.1025H4.48824V18.1416Z" fill="white"/>
<path d="M5.89062 9.43701H7.92729V11.4647H5.89062V9.43701Z" fill="white"/>
<path d="M7.93011 16.1069V18.1313H5.89062V16.1069H7.93011Z" fill="white"/>
<path d="M9.5546 2.90673C9.5546 3.30027 9.55461 3.69381 9.55225 4.08782C9.55316 4.1977 9.53917 4.3072 9.51067 4.41332C9.47665 4.53578 9.40135 4.6427 9.29751 4.71597C9.19367 4.78925 9.06768 4.82436 8.94091 4.81537C8.81859 4.80641 8.70258 4.75763 8.61061 4.67649C8.51864 4.59536 8.45577 4.48633 8.43163 4.36608C8.41122 4.25786 8.40189 4.14785 8.40376 4.03774C8.40187 3.26704 8.40187 2.4954 8.40376 1.72282C8.40326 1.63644 8.4099 1.55016 8.4236 1.46487C8.47084 1.18141 8.68391 0.984878 8.94328 0.970705C9.21256 0.956532 9.43603 1.11905 9.51587 1.40015C9.54029 1.49087 9.55252 1.58445 9.55225 1.67841C9.55697 2.08895 9.5546 2.49666 9.5546 2.90673Z" fill="white"/>
<path d="M9.33594 9.43604H11.3556V11.4727H9.33594V9.43604Z" fill="white"/>
<path d="M3.05806 2.89822C3.05806 3.33853 3.06656 3.77931 3.05806 4.22103C3.04908 4.57819 2.80626 4.82007 2.48879 4.81629C2.18359 4.81252 1.92989 4.58008 1.92469 4.2352C1.91052 3.33884 1.91052 2.44248 1.92469 1.54611C1.92532 1.39424 1.98605 1.2488 2.09362 1.14159C2.20119 1.03438 2.34683 0.974123 2.49871 0.973999C2.81476 0.973999 3.05145 1.21919 3.05948 1.57919C3.06987 2.01949 3.06231 2.4598 3.06231 2.902L3.05806 2.89822Z" fill="white"/>
<path d="M11.6445 2.91477C11.6445 2.48958 11.6445 2.06439 11.6445 1.6392C11.6478 1.24236 11.8874 0.967402 12.2209 0.970237C12.5625 0.973071 12.7845 1.23338 12.7878 1.6444C12.79 2.47809 12.79 3.31177 12.7878 4.14546C12.7878 4.55459 12.5563 4.81773 12.2171 4.81348C11.8779 4.80923 11.6502 4.54325 11.6474 4.14026C11.6445 3.73728 11.645 3.32342 11.6445 2.91477Z" fill="white"/>
<path d="M6.30334 2.90219C6.30334 3.31888 6.30334 3.73556 6.30334 4.15225C6.30334 4.54909 6.06333 4.81885 5.72601 4.81366C5.39531 4.80893 5.16761 4.54579 5.16666 4.15792C5.1632 3.31699 5.1632 2.4759 5.16666 1.63465C5.16666 1.2345 5.40288 0.967107 5.74397 0.973248C6.07184 0.978445 6.30145 1.24442 6.30381 1.62899C6.30523 2.0537 6.30334 2.47795 6.30334 2.90219Z" fill="white"/>
<path d="M14.8939 2.89066C14.8939 2.46547 14.8911 2.04028 14.8939 1.61509C14.8972 1.231 15.133 0.96738 15.4609 0.969742C15.7887 0.972104 16.0278 1.24187 16.0278 1.62076C16.0316 2.47114 16.0316 3.31994 16.0278 4.16717C16.0278 4.54512 15.784 4.81204 15.4547 4.8111C15.1254 4.81015 14.893 4.54842 14.8906 4.16197C14.892 3.73962 14.8939 3.31537 14.8939 2.89066Z" fill="white"/>
</svg>
