<svg width="271" height="220" viewBox="0 0 271 220" fill="none" xmlns="http://www.w3.org/2000/svg">
<rect opacity="0.8" width="271" height="220" rx="10" fill="#E3F0FF"/>
<g clip-path="url(#clip0_3600_44359)">
<path d="M78.3537 131.598C75.5847 128.889 73.3537 125.629 71.8282 122.065C70.0998 144.72 82.3042 166.542 98.618 182.369C105.897 189.43 114.575 195.729 124.464 198.482C134.544 201.284 145.227 199.147 154.561 194.817C159.437 192.558 164.014 189.659 168.19 186.281C181.479 175.519 191.055 160.212 196.029 143.94C198.251 136.677 199.565 129.096 199.631 121.493C198.008 124.603 196.386 127.708 194.763 130.818C208.802 95.5478 206.628 56.2117 204.243 18.3337C204.671 37.5877 205.65 56.8328 207.179 76.0295C210.407 55.388 211.558 34.4249 210.61 13.5543C212.554 26.7075 212.744 40.1249 211.165 53.3265C216.677 51.5821 219.388 59.8898 218.952 65.6515C217.81 80.778 215.499 95.8165 212.047 110.591C216.875 91.7816 217.55 71.9197 214 52.8287C203.952 84.4297 207.012 119.229 195.667 150.389C191.721 161.225 186.077 171.48 183.383 182.691C180.689 193.901 181.474 206.83 189.155 215.437C182.563 204.376 179.5 190.5 182 175.5C181.951 176.971 176.496 182.933 175.557 184.038C174.023 185.845 172.361 187.545 170.593 189.126C167.052 192.293 163.088 194.985 158.847 197.121C150.5 201.323 140.981 203.438 131.638 202.636C115.43 201.244 96.4046 187.501 87.3747 174C87.8597 174.727 90.5529 182.606 90.5 183.5C90.6816 185.5 90.8668 186.307 90.6816 187.893C90.3465 190.752 89.8615 193.588 89.2266 196.394C88.5961 199.191 87.6878 201.914 86.7045 204.605C85.7874 207.116 84.1296 210.063 83.8122 212.627C89.5969 204.182 89.4955 192.875 87.3747 183.25C85.1393 173.105 80.5406 163.666 76.9119 153.935C65.9067 124.431 63.8829 92.4908 60.8406 61.1497C60.629 58.978 59.9368 56.2646 57.7807 55.9166C54.8883 55.4497 53.7552 59.533 53.8654 62.4623C54.4827 78.6857 56.092 94.8738 58.6713 110.903C54.9985 95.8297 53.2349 80.3463 52.1326 64.8674C51.9298 62.0394 51.7843 59.0441 53.0806 56.5245C54.3813 54.0048 57.6793 52.2825 60.1484 53.6833C58.2348 40.1601 58.4024 26.3463 60.6422 12.876C58.8918 33.7113 60.0778 54.7889 64.1519 75.2939C64.7427 55.9871 65.3335 36.6802 65.9243 17.3734C68.27 36.7023 65.576 56.2425 65.2365 75.708C64.897 95.1734 67.2735 115.63 78.3757 131.633C78.3669 131.624 78.3581 131.615 78.3493 131.607L78.3537 131.598Z" fill="black"/>
<path d="M111.329 65.4927C110.69 65.5852 109.967 65.3561 109.372 65.0434C108.508 64.5852 107.661 63.9553 106.682 63.9597C106.127 63.9597 105.584 64.1756 105.029 64.1624C104.473 64.1492 103.843 63.7703 103.874 63.2153C103.821 63.7483 102.983 63.7219 102.595 63.3519C102.207 62.9819 101.956 62.4224 101.444 62.2683C101.109 62.1669 100.752 62.2683 100.404 62.2683C98.9839 62.255 98.1506 60.5768 96.8014 60.1319C96.021 59.8764 94.9496 59.9336 94.6453 59.1716C94.372 59.3698 94.0942 59.568 93.8208 59.7707C93.8252 59.7707 88.3535 57.6254 87.1763 57.8413C86.5766 57.9514 85.8712 58.1056 85.2054 57.3788C84.9188 57.0616 83.5123 56.6784 82.8245 57.718C82.7319 57.8589 82.3791 57.8721 82.1455 57.8765C81.3254 57.8942 80.5009 57.8765 79.6808 57.8853C79.0194 57.8942 78.3448 57.762 77.8907 58.5064C77.3616 59.3654 76.4489 59.1672 75.62 59.176C74.9983 59.1804 74.381 59.2553 73.5829 59.3081C73.5829 59.2905 73.5168 58.9822 73.4551 58.665C74.0371 58.5769 75.7963 57.599 76.3431 57.37C77.1852 57.0176 78.1023 56.6828 78.9973 56.6476C80.0688 56.6079 80.545 56.0705 80.8977 55.1631C81.1975 55.1455 81.5194 55.1543 81.828 55.1014C82.7319 54.9472 83.6049 55.0442 84.5705 54.6389C85.7565 54.1411 87.3041 54.4847 88.6974 54.5112C88.8385 54.5112 88.9752 54.8459 89.1692 55.0882C89.5396 54.7446 89.9628 53.8989 90.3773 55.0486C90.3993 55.1058 91.2415 55.053 91.3782 54.8415C91.775 54.2292 91.8808 54.2337 92.1762 54.9032C92.2688 55.1102 92.8596 55.0926 93.133 55.3745C93.5078 55.5683 93.8649 55.8547 94.2661 55.934C95.0201 56.0881 95.8093 55.7489 96.5236 56.5198C96.8411 56.8634 97.8552 56.4581 98.4901 56.6299C99.3366 56.8634 100.095 57.4052 100.937 57.6607C101.541 57.8457 102.141 58.3258 102.855 57.969C102.97 57.9118 103.217 57.8721 103.248 57.9206C103.993 59.0967 105.152 58.273 106.083 58.5197C106.316 58.5813 106.568 58.5769 106.832 58.6033C106.867 59.035 106.898 59.4183 106.929 59.8059C106.815 60.3345 107.013 60.5415 107.546 60.4138C108.146 60.0966 108.68 59.9865 109.385 60.3477C109.896 60.612 110.628 60.4578 111.343 60.4931C111.374 60.9159 111.404 61.3256 111.435 61.7925C111.506 62.7792 114.284 63.3166 112.132 65.1359C111.898 65.3341 111.625 65.4442 111.334 65.4839L111.329 65.4927Z" fill="black"/>
<path d="M159.172 61.2284C159.41 60.9201 159.662 60.713 159.895 60.7174C160.451 60.7263 160.989 61.039 161.531 60.9245C162.104 60.8055 162.466 60.2593 162.942 59.9201C163.709 59.3695 164.843 59.4048 165.57 60.0038C165.38 59.2462 166.02 58.493 166.752 58.2154C167.484 57.9379 168.29 57.9952 169.071 57.9335C171.13 57.7749 172.272 56.0526 174.512 56.2332C175.773 56.3345 177.065 55.9293 178.039 55.1232C178.317 54.8941 178.603 54.6166 178.965 54.599C179.366 54.577 179.701 54.8765 180.076 55.0219C180.451 55.1672 181.024 55.0042 180.984 54.6034C181.756 54.762 182.558 54.6474 183.343 54.599C184.922 54.4977 186.813 54.5505 188.312 55.1232C189.485 55.5725 190.504 56.775 191.809 56.6209C193.317 56.4447 194.489 57.3256 195.702 58.0304C196.077 58.2507 196.434 58.4929 196.95 58.8233C196.941 59.0039 196.919 59.3739 196.91 59.5237C195.997 59.4004 195.16 59.3607 194.366 59.1449C193.846 59.0039 193.392 58.6119 192.902 58.3388C192.651 58.1978 192.395 57.982 192.135 57.9688C188.471 57.7705 185.274 57.3609 181.549 58.1053C178.339 58.7484 175.001 59.4444 172.409 61.4443C171.932 61.8143 171.439 62.2416 170.839 62.29C170.239 62.3385 169.569 61.735 169.82 61.1844C169.516 61.8936 169.19 62.6292 168.586 63.1093C167.982 63.5895 167.012 63.704 166.478 63.149C166.324 63.6467 166.174 64.1445 166.02 64.6466C165.724 63.933 164.794 63.6776 164.036 63.8493C163.277 64.0211 162.642 64.5013 161.972 64.8977C161.209 65.347 160.323 65.7038 159.455 65.5408C158.586 65.3779 157.801 64.5189 158.004 63.6555C158.11 63.2106 158.608 61.9508 159.164 61.2372L159.172 61.2284Z" fill="black"/>
<path d="M92.0924 91.2795C91.7264 91.4954 91.3649 91.7112 90.8887 91.9887C90.9725 91.3852 90.7608 91.0152 91.2238 90.3413C91.8852 89.3722 92.7273 88.0507 91.7485 86.2975C91.5589 86.9803 91.4443 87.4032 91.3252 87.8304C91.2238 87.8613 91.1268 87.8921 91.0254 87.923C90.924 87.5133 90.8226 87.0992 90.6727 86.5046C90.364 86.7645 90.1039 86.9803 89.8482 87.1917C88.5827 85.8835 86.8985 87.0464 85.417 86.4121C86.1048 85.8438 86.4355 85.2359 85.2715 84.6633C85.3817 84.562 85.4875 84.4607 85.5978 84.3638C85.9902 84.5576 86.3649 84.7954 86.775 84.932C87.1277 85.0509 87.529 85.0069 87.8861 85.117C88.3094 85.2448 88.7106 85.4518 89.1207 85.6236C89.0942 85.7249 89.0677 85.8306 89.0413 85.9319H95.3507L95.2582 85.6544C95.6682 85.4694 96.065 85.2139 96.4927 85.117C97.3437 84.9276 98.3754 85.5223 99.0368 84.4871C99.0897 84.4034 99.3807 84.4871 99.557 84.4563C100.562 84.2977 101.532 84.5532 102.613 83.9717C103.587 83.4475 105.055 83.8484 106.303 83.8043C106.814 83.7867 107.419 84.0422 107.754 83.3154C107.824 83.1612 108.344 83.1832 108.662 83.1788C110.126 83.1656 111.59 83.1524 113.053 83.1877C113.485 83.1965 113.887 83.104 114.314 83.6458C114.605 84.0114 115.664 83.888 116.351 83.7911C117.317 83.6546 117.771 84.2316 118.512 85.0333C117.061 85.0289 115.875 85.5707 114.733 84.6193C114.482 84.4122 113.988 84.4695 113.605 84.4563C112.93 84.4342 112.251 84.4519 111.303 84.4519V87.3151C111.166 87.3283 111.025 87.3415 110.888 87.3547C110.646 86.3107 111.069 84.9232 109.469 84.4034V88.7379C108.494 88.0991 108.922 87.3415 108.856 86.7468C108.781 86.0464 108.838 85.3284 108.838 84.54H107.533V89.1387C107.419 89.1519 107.304 89.1607 107.189 89.174C106.581 88.544 106.995 87.6807 106.925 86.9451C106.845 86.139 106.907 85.324 106.907 84.3373C106.347 84.7074 105.95 84.9672 105.487 85.2712C105.399 86.509 105.311 87.8349 105.201 89.1563C105.201 89.1651 105.002 89.1563 104.755 89.1563C105.038 87.6322 104.398 86.3636 103.821 85.073C103.702 85.0906 103.587 85.1082 103.468 85.1302C103.468 85.7513 103.512 86.3812 103.455 86.9979C103.397 87.5882 103.803 88.3062 102.917 88.7247C102.718 88.8172 102.873 89.5924 102.807 90.0461C102.785 90.1871 102.573 90.3016 102.449 90.4294C102.357 90.306 102.158 90.1519 102.185 90.0638C102.419 89.2929 101.744 88.3811 102.701 87.6631C102.961 87.4692 103.27 86.39 102.366 85.9055C102.11 85.7689 102.004 85.3461 101.85 85.0862C101.51 86.3328 101.105 87.4384 100.928 88.5793C100.752 89.6937 100.073 91.2575 99.4204 91.2971C99.4204 90.7994 99.4115 90.3104 99.4248 89.8215C99.4292 89.6497 99.4645 89.3413 99.5306 89.3325C100.77 89.0991 100.091 88.1256 100.267 87.4869C100.382 87.0728 100.505 86.6631 100.677 86.0861C100.404 86.0509 99.9583 85.9936 99.5174 85.9363C99.169 87.064 98.8516 88.0859 98.4768 89.3017C98.3313 89.0154 98.1461 88.8083 98.1241 88.5881C98.08 88.0551 98.1285 87.5177 98.102 86.9847C98.0932 86.857 97.9521 86.6984 97.8287 86.6323C97.7669 86.5971 97.5421 86.7116 97.5068 86.8041C97.0791 87.9538 96.7088 89.1255 96.2811 90.2752C96.0297 90.9491 95.6814 91.4293 95.2714 91.9359C95.2449 91.9667 95.1347 91.9358 94.9804 91.9226C95.0509 91.3896 94.5086 90.8302 95.4037 90.3545C95.8225 90.1342 95.9945 89.3457 96.1708 88.7819C96.3693 88.1388 96.4486 87.456 96.6029 86.6499C96.431 86.6411 96.0474 86.6191 95.6947 86.6015C95.3904 87.4692 95.1347 88.2577 94.8216 89.0286C94.7776 89.1343 94.4513 89.1255 94.2573 89.1651C94.2573 88.5264 94.2396 87.8921 94.2573 87.2534C94.2793 86.5794 93.9839 86.4869 93.446 86.694C93.3931 87.3063 93.543 87.9978 93.2652 88.3943C92.6347 89.2885 92.0395 90.1386 92.0968 91.2839L92.0924 91.2795Z" fill="black"/>
<path d="M159.018 159.198C157.642 159.375 156.514 158.899 155.442 158.036C154.931 157.621 154.084 157.639 153.529 157.256C152.761 156.736 151.968 156.573 151.09 156.586C151.13 155.485 149.671 156.155 149.512 155.265C149.503 155.203 149.265 155.181 149.128 155.15C148.092 154.917 146.893 154.939 146.055 154.397C144.719 153.534 143.361 154.009 142.025 153.868C140.795 153.741 139.953 154.604 139.009 155.181C138.595 155.432 138.225 155.754 137.775 156C136.483 158.317 134.702 157.181 133.013 156.533C132.387 155.714 131.734 155.009 130.698 154.406C129.014 153.424 127.387 154.15 125.769 153.895C125.504 153.851 125.187 154.177 124.887 154.322C124.741 154.393 124.578 154.507 124.428 154.498C123.189 154.428 122.228 154.943 121.289 155.71C120.954 155.983 120.257 155.802 119.825 156.036C119.486 156.243 119.146 156.459 118.802 156.652C118.088 157.058 117.4 157.538 116.646 157.837C115.694 158.212 114.684 158.428 113.617 158.542C113.97 157.833 114.362 157.247 115.235 157.3C116.21 157.362 116.567 156.657 116.801 156.247C117.916 155.626 118.798 155.062 119.737 154.635C120.491 154.291 121.338 154.164 122.109 153.855C122.872 153.547 123.595 153.133 124.336 152.763C124.397 152.732 124.45 152.635 124.499 152.639C126.324 152.807 127.969 151.437 129.803 151.974C130.451 152.164 131.002 152.679 131.611 153.023C132.532 153.542 133.467 154.031 134.389 154.547C134.525 154.622 134.618 154.802 134.755 154.838C135.217 154.948 136.06 155.177 136.108 155.071C136.602 153.979 137.986 154.084 138.546 153.217C139.08 152.393 140.138 152.921 140.491 152.516C141.364 151.512 142.369 152.115 143.291 151.983C143.582 151.939 143.93 152.274 144.252 152.437C144.344 152.481 144.428 152.556 144.521 152.573C145.601 152.798 146.708 152.943 147.757 153.265C148.41 153.468 148.983 153.935 149.591 154.283C150.041 154.538 150.473 154.838 150.945 155.049C151.584 155.335 152.259 155.538 152.902 155.802C153.224 155.934 153.515 156.137 153.846 156.388C154.666 156.873 155.46 157.414 156.315 157.828C156.994 158.159 157.766 158.309 158.462 158.608C158.687 158.705 158.82 159.022 158.996 159.238L159.027 159.207L159.018 159.198Z" fill="black"/>
<path d="M171.06 89.116H170.134C170.46 87.5566 169.733 86.3497 169.067 85.1031C168.75 86.6977 169.014 88.3143 168.776 89.8736C168.635 89.8736 168.494 89.8648 168.357 89.8604C168.027 88.2879 167.7 86.7109 167.348 85.0238C166.598 85.5172 167.158 86.3144 166.92 86.8695C166.673 87.4421 166.303 87.9575 165.928 88.5962C165.306 87.3408 165.743 86.2616 166.311 85.3365C165.54 85.0062 164.914 84.7419 164.045 84.3675V89.1072C163.904 89.1072 163.763 89.1072 163.626 89.1072V84.504H162.184V88.3451C162.035 88.3539 161.885 88.3583 161.735 88.3671V84.5128C161.563 84.4732 161.391 84.4335 161.214 84.3895C160.8 85.4775 160.39 86.5611 159.883 87.887C159.601 86.5743 159.319 85.526 160.315 84.5349C158.886 84.7331 157.528 84.0107 156.095 84.9621C155.381 85.4335 154.094 85.0458 152.775 85.0458C153.437 84.4996 153.587 83.7728 154.455 83.808C155.275 83.8389 156.263 84.0767 156.885 83.7199C158.6 82.7288 160.377 83.3587 162.114 83.209C162.577 83.1693 163.071 83.5525 163.56 83.7111C163.789 83.786 164.05 83.8036 164.292 83.808C165.147 83.8212 166.012 83.7684 166.863 83.8345C167.603 83.8917 168.348 83.6098 169.076 84.3498C169.455 84.7331 170.509 84.4159 171.254 84.4732C171.871 84.5216 172.55 84.2353 173.057 85.0018C173.216 85.244 174.001 85.0855 174.495 85.1031C175.05 85.1251 175.751 84.9401 175.531 85.9576C177.634 85.9576 179.596 85.9576 181.558 85.9576C181.735 85.9576 182.039 85.9665 182.065 85.8916C182.511 84.6274 183.591 85.2396 184.398 85.1251C184.587 85.0987 184.834 85.4423 185.156 85.6978C184.027 86.1294 183.194 86.4466 182.22 86.8166C182.189 87.0413 182.136 87.4465 182.078 87.8518C181.968 87.8782 181.858 87.9046 181.748 87.931C181.638 87.5478 181.532 87.1646 181.395 86.6801C180.901 86.6228 180.231 86.2131 180.081 87.4597C179.958 87.4818 179.83 87.4994 179.706 87.5214C179.636 87.1029 179.565 86.6801 179.495 86.2616C179.31 86.3981 179.129 86.5347 178.944 86.6668C179.252 87.5302 178.366 88.4729 179.481 89.3671C179.984 89.7679 180.041 90.7546 180.24 91.4946C180.266 91.5871 179.918 91.7766 179.746 91.9219C179.446 90.715 178.467 91.4946 177.837 91.2744C177.383 90.4815 176.933 89.7062 176.483 88.9266C176.43 88.9662 176.377 89.0015 176.32 89.0411C176.003 88.2702 175.685 87.4994 175.324 86.6184C175.046 86.636 174.676 86.6536 174.468 86.6668C174.645 87.517 174.808 88.3099 174.975 89.1072C174.799 89.16 174.623 89.2129 174.442 89.2657C174.067 88.1909 173.692 87.1205 173.278 85.9444C173.185 86.0678 172.943 86.244 172.969 86.3673C173.137 87.1426 172.458 88.0588 173.476 88.7416C173.736 88.9178 173.516 89.8031 173.516 90.4286C173.362 90.4286 173.124 90.4639 173.115 90.4242C172.828 89.53 172.422 88.6402 172.339 87.724C172.259 86.8386 171.721 86.4554 171.025 86.0105V89.1688L171.051 89.138L171.06 89.116ZM177.105 86.6184C177.074 86.7902 176.99 86.9752 177.03 87.1249C177.224 87.8562 177.436 88.5786 177.669 89.2966C177.731 89.486 177.899 89.6402 178.018 89.812C178.115 89.6225 178.247 89.4419 178.304 89.2393C178.6 88.1865 177.546 87.5566 177.449 86.6184C177.449 86.6096 177.25 86.6184 177.101 86.6184H177.105Z" fill="black"/>
<path d="M145.332 113.432C145.089 113.044 144.895 112.868 144.878 112.679C144.834 112.146 144.909 111.604 144.847 111.075C144.772 110.41 145.138 109.683 144.313 109.102C144.018 108.89 144.291 107.948 144.199 107.357C144.075 106.569 144.688 105.595 143.626 105.01C143.511 104.948 143.577 104.538 143.573 104.287C143.573 103.146 143.599 102.001 143.56 100.86C143.537 100.213 143.851 99.4549 143.026 98.988C142.885 98.9087 142.933 98.4506 142.933 98.1687C142.929 95.6358 142.567 93.0281 143.044 90.5878C143.418 88.6672 143.207 86.7203 143.705 84.9186C143.952 84.02 143.811 82.7118 144.296 82.3329C145.248 81.5885 144.296 80.2494 145.451 79.7208C145.663 79.6239 145.574 78.8795 145.623 78.4346C145.764 78.4478 145.901 78.4566 146.042 78.4698C146.073 78.7605 146.13 79.0513 146.126 79.342C146.126 84.553 146.611 89.8257 145.976 94.9575C145.239 100.909 145.795 106.811 145.482 112.727C145.473 112.864 145.425 112.996 145.328 113.432H145.332Z" fill="black"/>
<path d="M125.557 113.136C125.557 112.762 125.557 112.387 125.557 112.013C125.557 105.661 125.61 99.3047 125.526 92.9527C125.495 90.7503 125.046 88.5566 124.94 86.3542C124.834 84.112 124.913 81.8567 124.913 79.6102C124.913 79.227 124.913 78.8481 124.913 78.4473C125.138 78.4473 125.328 78.4165 125.337 78.4473C125.632 79.2886 125.8 80.1961 126.223 80.9625C126.752 81.9184 126.54 83.1165 127.338 83.9755C127.532 84.1825 127.418 84.6583 127.479 85.0018C127.673 86.0634 126.972 87.2792 128.061 88.213C128.229 88.354 128.119 88.8297 128.119 89.1513C128.119 92.4726 128.132 95.7895 128.11 99.1108C128.11 99.6482 128.397 100.335 127.576 100.639C127.484 100.675 127.493 101.036 127.493 101.247C127.479 102.031 127.546 102.824 127.466 103.599C127.378 104.467 127.651 105.3 126.981 106.22C126.501 106.881 126.889 108.154 126.822 109.15C126.787 109.678 127.091 110.282 126.315 110.709C126.055 110.854 126.24 111.775 126.183 112.339C126.152 112.634 126.033 112.925 125.954 113.215C125.822 113.189 125.689 113.163 125.557 113.136Z" fill="black"/>
<path d="M150.218 134.584V136.505C150.862 136.232 151.426 135.989 151.99 135.747C152.048 135.844 152.105 135.937 152.167 136.033C151.916 136.377 151.735 136.87 151.4 137.029C150.65 137.373 149.834 137.716 149.028 137.756C147.07 137.857 145.103 137.791 143.529 137.791C142.524 138.646 141.744 139.284 141.003 139.963C140.588 140.341 140.267 140.83 139.852 141.205C138.794 142.161 137.568 142.654 136.109 142.513C135.509 142.456 134.892 142.478 134.288 142.513C132.921 142.588 131.964 141.764 130.946 141.059C130.589 140.813 130.24 140.557 129.967 140.249C129.469 139.72 128.918 139.227 128.481 138.65C127.643 137.549 126.475 137.804 125.364 137.795C124.473 137.787 123.578 137.756 122.687 137.804C121.426 137.87 120.351 137.553 119.442 136.624C119.24 136.417 118.781 136.461 118.358 136.373C118.331 136.011 118.309 135.646 118.278 135.21C118.909 135.536 119.425 135.8 120.108 136.148C120.17 134.901 120.695 134.479 121.7 134.545C121.933 134.558 122.189 134.192 122.348 134.064C122.784 134.254 123.172 134.558 123.565 134.567C124.879 134.589 125.809 135.364 126.801 136.033C127.326 136.386 127.859 136.734 128.331 137.152C129.416 138.117 130.421 139.165 131.537 140.09C132.101 140.562 132.802 141.059 133.49 141.148C134.786 141.319 136.171 141.421 137.432 141.148C138.715 140.87 139.874 140.112 140.787 139.046C141.704 137.972 142.542 136.584 143.732 136.069C144.724 135.641 145.346 134.549 146.55 134.584C147.722 134.615 148.895 134.593 150.214 134.593L150.218 134.584Z" fill="black"/>
<path d="M152.691 173.81C154.256 172.515 155.804 171.233 157.369 169.942C157.585 171.162 155.857 173.061 154.45 173.184C154.115 173.942 153.749 174.545 152.753 174.686C152.078 174.783 151.492 175.391 150.831 175.699C150.112 176.034 149.362 176.321 148.604 176.55C147.938 176.748 147.034 176.166 146.602 177.166C146.589 177.202 146.47 177.202 146.399 177.202C144.318 177.21 142.352 178.241 140.218 177.875C139.711 177.787 139.027 177.602 138.683 178.378C138.626 178.51 138.154 178.483 137.876 178.488C136.307 178.497 134.631 178.836 133.185 178.408C131.183 177.818 129.146 178.188 127.246 177.721C126.369 177.505 125.293 177.572 124.631 177.127C123.71 176.501 122.802 176.748 121.915 176.519C121.276 176.356 120.76 175.766 120.152 175.435C119.693 175.184 119.164 175.065 118.684 174.854C117.921 174.515 117.176 174.149 116.342 173.757C115.58 172.977 114.636 172.149 113.864 171.189C113.296 170.484 112.132 170.162 112.277 168.951C112.29 168.854 112.348 168.766 112.431 168.563C113.04 169.127 113.635 169.621 114.164 170.171C114.852 170.889 115.487 171.66 116.166 172.383C116.263 172.488 116.497 172.501 116.669 172.501C117.665 172.488 118.093 173.14 118.265 173.589C119.345 174.686 120.751 174.263 121.616 175.219C121.638 175.246 121.677 175.259 121.708 175.268C122.85 175.492 123.988 175.721 125.13 175.933C126.029 176.1 127.061 175.532 127.833 176.501C127.978 176.686 128.516 176.572 128.873 176.576C133.229 176.576 137.585 176.598 141.946 176.554C142.488 176.55 143.018 176.153 143.573 176.065C144.301 175.955 145.055 176.021 145.786 175.915C146.157 175.862 146.488 175.563 146.858 175.448C147.189 175.347 147.55 175.369 147.89 175.29C148.974 175.043 150.063 174.81 151.13 174.501C151.695 174.338 152.219 174.03 152.696 173.819L152.691 173.81Z" fill="black"/>
<path d="M160.345 162.96C160.16 163.066 159.979 163.251 159.785 163.264C159.146 163.304 158.489 163.211 157.859 163.299C156.994 163.414 155.972 162.824 155.275 163.859C155.178 164 154.733 163.92 154.446 163.92C152.303 163.925 150.156 163.894 148.017 163.947C147.528 163.96 147.056 164.277 146.562 164.418C146.258 164.506 145.936 164.555 145.623 164.559C144.336 164.577 143.048 164.533 141.765 164.581C141.13 164.608 140.341 164.224 139.922 165.119C139.874 165.22 139.521 165.202 139.309 165.202C136.774 165.207 134.124 165.656 131.73 165.075C129.389 164.506 126.986 165.171 124.865 164.453C121.999 163.489 119.182 164.268 116.378 163.907C116.016 163.859 115.694 163.577 115.333 163.476C114.931 163.365 114.504 163.295 114.085 163.286C112.828 163.264 111.572 163.277 110.311 163.277C110.297 163.128 110.289 162.973 110.275 162.824C110.615 162.762 110.959 162.652 111.298 162.652C113.23 162.643 115.231 162.33 117.074 162.731C122.251 163.863 127.453 163.088 132.634 163.246C137.881 163.409 143.137 163.282 148.388 163.277C149.852 163.277 151.32 163.308 152.779 163.233C153.22 163.211 153.644 162.718 154.08 162.705C156.135 162.647 158.194 162.678 160.248 162.678C160.279 162.771 160.31 162.859 160.341 162.951L160.345 162.96Z" fill="black"/>
<path d="M118.252 63.9198C118.468 64.0872 118.851 64.237 118.873 64.4308C118.953 65.1003 118.895 65.7831 118.926 66.4571C118.935 66.6773 119.054 66.8887 119.248 67.0914C119.923 65.836 118.869 64.0564 120.721 63.1357V68.5406C120.571 68.6904 120.421 68.8401 120.271 68.9899C120.245 68.7388 120.284 68.4481 120.17 68.2543C120.095 68.1353 119.751 68.0781 119.579 68.1397C119.222 68.2675 118.9 68.4965 118.512 68.708C118.142 67.338 117.855 66.2676 117.568 65.1972C117.661 64.8404 117.754 64.4792 117.842 64.1224L118.252 63.9198Z" fill="black"/>
<path d="M116.126 64.5408C116.223 65.0253 115.782 65.6816 116.646 65.9371C116.787 65.9768 116.761 66.5846 116.814 66.937C117.384 67.1338 117.628 67.6448 117.546 68.47C116.668 68.5448 116.289 68.0647 116.025 66.4965C115.69 66.4701 115.346 66.4393 114.909 66.404C114.887 66.153 114.834 65.8799 114.843 65.6156C114.887 64.62 114.869 63.7347 113.763 63.162C113.335 62.9418 113.203 62.1665 112.916 61.6555C112.722 61.3119 112.493 60.9948 112.272 60.6556C113.313 60.334 114.032 60.7789 114.155 61.8141C114.265 62.7347 114.808 63.184 115.694 63.2809C115.839 63.7038 115.985 64.1223 116.13 64.5452L116.126 64.5408Z" fill="black"/>
<path d="M152.153 66.4656V68.5535C152.065 68.5844 151.972 68.6196 151.884 68.6505C151.668 68.417 151.452 68.1791 151.174 67.8796C150.962 68.1527 150.777 68.3906 150.596 68.6196C149.684 68.0338 149.38 67.2453 149.622 66.2894C149.737 65.8445 149.962 65.404 150.235 65.034C150.79 64.2675 149.97 63.4218 150.372 62.6289C151.809 63.1619 151.465 64.338 151.5 65.3644C151.518 65.8665 151.346 66.4876 152.184 66.4964L152.153 66.4612V66.4656Z" fill="black"/>
<path d="M156.241 61.9951C156.659 61.656 157.091 61.3344 157.493 60.9732C157.867 60.634 158.207 60.2596 158.749 59.709C158.855 60.3565 158.921 60.753 158.987 61.145C158.987 61.145 159.023 61.1053 159.023 61.1098C157.995 60.6164 157.973 61.8057 157.629 62.1493C156.95 62.8189 156.695 63.9113 156.21 64.7967C155.875 65.409 155.407 65.9508 155.068 66.5587C154.768 67.0961 153.996 67.4088 154.274 68.2413C154.345 68.4528 154.23 68.7215 154.199 68.9637C154.014 68.8228 153.829 68.6818 153.644 68.5409V66.4353C153.864 66.3384 154.177 66.3032 154.283 66.1358C154.6 65.638 154.79 65.061 155.107 64.5632C155.619 63.7615 156.302 63.0435 156.249 61.9951H156.241Z" fill="black"/>
<path d="M111.378 65.8181C111.889 65.1662 112.401 64.5142 112.912 63.8623C113.12 63.946 113.455 63.9812 113.508 64.1178C113.768 64.8182 113.953 65.5494 114.164 66.2674C113.627 65.893 113.547 68.0514 112.762 66.5185C112.696 66.3863 112.198 66.5361 111.964 66.4216C111.726 66.3026 111.572 66.0251 111.382 65.8137L111.378 65.8181Z" fill="black"/>
<path d="M160.809 165.903C160.932 167.101 159.274 169.225 158.243 169.185C158.212 168.352 159.848 166.265 160.809 165.903Z" fill="black"/>
<path d="M162.876 59.7921C162.682 60.0036 162.471 60.193 162.303 60.422C161.646 61.3294 160.985 61.3559 160.297 60.4573C160.35 60.2679 160.412 59.9067 160.46 59.9067C161.47 59.9463 161.919 59.2107 162.435 58.5543C162.475 58.5015 162.638 58.5455 162.872 58.5455V59.7877L162.876 59.7921Z" fill="black"/>
<path d="M153.626 65.175C153.639 65.6067 153.648 66.0384 153.661 66.4657C153.159 66.4657 152.656 66.4657 152.153 66.4657C152.153 66.4657 152.184 66.4965 152.184 66.5009C152.184 65.4525 152.184 64.4042 152.184 63.3778C153.15 63.0827 152.934 63.761 153 64.1839C153.066 64.6068 152.757 65.2631 153.63 65.175H153.626Z" fill="black"/>
<path d="M82.1187 217.679C81.6954 218.009 81.3383 218.291 80.9768 218.577C80.5932 217.56 81.4926 215.965 83.0887 215.221C82.6963 216.216 82.4097 216.947 82.1187 217.683V217.679Z" fill="black"/>
<path d="M78.1904 131.765C78.5564 132.073 79.0502 132.311 79.2574 132.699C79.6543 133.434 79.8879 134.262 80.2186 135.13C79.231 135.02 78.1067 132.91 78.2213 131.729L78.1904 131.765Z" fill="black"/>
<path d="M193.444 130.421C193.502 130.963 193.925 131.593 193.012 131.888C192.893 131.927 193.004 132.469 192.858 132.659C192.497 133.13 192.051 133.535 191.637 133.967L191.672 133.998C191.654 133.46 191.28 132.817 192.144 132.544C192.232 132.518 192.25 132.161 192.245 131.958C192.236 131.108 192.845 130.773 193.471 130.452L193.444 130.421Z" fill="black"/>
<path d="M66.1705 17.2412C66.1705 16.0915 66.1793 14.9374 66.1661 13.7877C66.1617 13.3252 66.2675 13.0344 66.8098 13.1622L66.7746 13.127C66.779 14.1445 66.8407 15.1664 66.7613 16.1796C66.7349 16.5364 66.3557 16.8667 66.1396 17.2103L66.1705 17.2456V17.2412Z" fill="black"/>
<path d="M108.811 159.952C109.75 159.701 110.685 159.428 111.638 159.221C111.805 159.186 112.039 159.441 112.237 159.56C112.048 159.657 111.867 159.785 111.664 159.847C110.897 160.076 110.13 160.305 109.354 160.476C109.173 160.516 108.944 160.344 108.736 160.274L108.816 159.952H108.811Z" fill="black"/>
<path d="M116.126 64.5407C115.98 64.1179 115.835 63.6994 115.689 63.2765C116.135 63.2853 116.69 62.977 116.858 63.7567C116.88 63.858 117.365 63.8624 117.634 63.9152C117.704 63.9813 117.771 64.0518 117.841 64.1179C117.749 64.4747 117.656 64.8359 117.568 65.1927C117.294 65.0385 117.03 64.8711 116.748 64.739C116.554 64.6465 116.333 64.6024 116.126 64.5407Z" fill="black"/>
<path d="M210.35 13.6553C209.71 13.9856 209.627 13.5936 209.627 13.0958C209.627 12.0387 209.627 10.9771 209.627 9.91989L209.596 9.95072C210.134 9.77452 210.261 10.0256 210.257 10.5234C210.257 11.5761 210.297 12.6289 210.323 13.6773L210.35 13.6509V13.6553Z" fill="black"/>
<path d="M158.987 159.229C160.279 158.956 161.205 159.732 162.206 160.309C161.483 160.326 160.636 161.022 160.138 159.925C160.094 159.833 159.693 159.947 159.547 159.842C159.331 159.687 159.19 159.419 159.018 159.203L158.987 159.234V159.229Z" fill="black"/>
<path d="M62.0524 5.17628C62.0613 6.0881 62.0877 7.00433 62.0657 7.91615C62.0569 8.16282 61.8893 8.4051 61.7923 8.65177C61.6909 8.62534 61.5851 8.59891 61.4837 8.57248C61.4837 7.63423 61.4484 6.69598 61.5101 5.76654C61.5233 5.56832 61.8893 5.39653 62.0921 5.21152L62.0524 5.17188V5.17628Z" fill="black"/>
<path d="M209.626 9.91979C209.415 9.68192 209.044 9.46167 209.027 9.21059C208.952 8.30758 208.996 7.39135 209.19 6.46191C209.913 7.54112 209.437 8.79212 209.6 9.95062L209.631 9.91979H209.626Z" fill="black"/>
<path d="M108.146 161.062H104.817C104.786 160.991 104.751 160.916 104.72 160.846C104.923 160.736 105.147 160.502 105.324 160.533C106.263 160.705 107.317 160.167 108.15 161.062H108.146Z" fill="black"/>
<path d="M166.232 160.995H162.898C163.172 160.414 164.971 160.277 166.232 160.995Z" fill="black"/>
<path d="M165.87 58.5898C165.799 59.0656 165.724 59.5457 165.641 60.1051C165.023 59.7968 164.609 59.5898 164.194 59.3827V58.5898H165.87Z" fill="black"/>
<path d="M204.736 14.5361V18.0601C204.062 17.0866 204.115 15.0339 204.736 14.5361Z" fill="black"/>
<path d="M60.7208 12.3693C60.7472 11.5588 60.7516 10.7439 60.8089 9.93779C60.8266 9.68231 60.9897 9.44004 61.0823 9.19336C61.1969 9.21979 61.3116 9.24622 61.4262 9.27265C61.4262 10.2153 61.4483 11.1624 61.3954 12.1006C61.3909 12.1975 60.9456 12.268 60.7031 12.3473L60.7208 12.3693Z" fill="black"/>
<path d="M62.0929 5.21575V2.35254C62.3795 2.47588 62.644 2.52874 62.6484 2.59922C62.6881 3.33924 62.7146 4.08808 62.6661 4.82811C62.6573 4.96026 62.2693 5.06157 62.0576 5.18051L62.0973 5.22015L62.0929 5.21575Z" fill="black"/>
<path d="M110.332 165.819C110.853 166.303 111.567 166.673 111.377 167.616C111.351 167.753 111.073 167.841 110.91 167.951C110.584 167.334 110.262 166.717 109.936 166.096L110.332 165.814V165.819Z" fill="black"/>
<path d="M203.753 11.1094C204.41 11.7613 204.423 13.0564 203.753 13.8713V11.1094Z" fill="black"/>
<path d="M66.8107 13.1616C66.8107 12.4876 66.7798 11.8093 66.8195 11.1353C66.8327 10.9151 67.0179 10.708 67.1237 10.4922C67.2163 10.523 67.3089 10.5495 67.3971 10.5803C67.3971 11.2454 67.4456 11.915 67.3706 12.5713C67.3486 12.7783 66.9826 12.9413 66.7754 13.1263L66.8107 13.1616Z" fill="black"/>
<path d="M162.541 163.084C163.304 164.234 162.286 164.568 162.061 165.176C161.902 165.057 161.593 164.868 161.611 164.837C161.876 164.278 162.184 163.736 162.541 163.084Z" fill="black"/>
<path d="M208.488 5.77972V3.32617H208.784V5.77972C208.687 5.77972 208.585 5.77972 208.488 5.77972Z" fill="black"/>
<path d="M212.391 110.563V112.343C211.756 112.458 211.503 111.875 211.632 110.594C211.888 110.594 212.153 110.594 212.422 110.594L212.391 110.563Z" fill="black"/>
<path d="M190.759 220C190.274 219.299 189.375 218.987 189.847 217.793C190.46 218.41 191.319 218.744 190.759 220Z" fill="black"/>
<path d="M117.841 64.1222C117.77 64.0562 117.704 63.9857 117.634 63.9196C117.665 63.2721 117.696 62.6246 117.722 61.9814C117.867 61.9814 118.013 61.9814 118.154 61.9814C118.185 62.629 118.216 63.2765 118.247 63.9196L117.837 64.1222H117.841Z" fill="black"/>
<path d="M67.8907 7.80957V9.84906C67.7849 9.84906 67.6791 9.84906 67.5732 9.84465V7.82279C67.6791 7.82279 67.7849 7.81398 67.8907 7.80957Z" fill="black"/>
<path d="M171.029 89.1475C171.236 89.2665 171.602 89.3678 171.615 89.5087C171.681 90.0858 171.642 90.6804 171.501 91.2839C170.698 90.6892 171.104 89.8567 171.055 89.1211L171.029 89.1519V89.1475Z" fill="black"/>
<path d="M205.803 116.73H207.576C207.585 116.814 207.593 116.898 207.598 116.982H205.79C205.79 116.898 205.794 116.814 205.799 116.73H205.803Z" fill="black"/>
<path d="M208.11 0.589906C208.388 1.22422 208.471 1.8365 208.136 2.40474C207.986 2.39152 207.836 2.37831 207.687 2.36509C207.726 1.76602 207.761 1.16255 207.801 0.563477C207.903 0.572286 208.008 0.581096 208.11 0.594311V0.589906Z" fill="black"/>
<path d="M63.1728 0.0127369V1.7659C63.0317 1.75709 62.8862 1.75269 62.7451 1.74388C62.776 1.16242 62.8024 0.576568 62.8333 -0.00488281C62.9479 -0.000477879 63.0626 0.00392705 63.1772 0.00833199L63.1728 0.0127369Z" fill="black"/>
<path d="M203.449 8.69581V10.493C203.343 10.493 203.238 10.493 203.132 10.493V8.69581C203.238 8.69581 203.343 8.69581 203.449 8.69141V8.69581Z" fill="black"/>
</g>
<defs>
<clipPath id="clip0_3600_44359">
<rect width="167" height="220" fill="white" transform="translate(52)"/>
</clipPath>
</defs>
</svg>
