<svg width="32" height="32" viewBox="0 0 32 32" fill="none" xmlns="http://www.w3.org/2000/svg">
<path d="M21.5547 13.5904L21.5098 15.8667L19.6016 14.8178V12.6085L21.5547 13.5904Z" fill="#7293FF"/>
<path d="M31.8306 21.7137L23.7486 26.3331L20.875 28.0068V24.7487L23.7486 23.0973L30.4162 19.2812L31.8306 21.7137Z" fill="#003CFF"/>
<path d="M30.8021 10.3996L21.5078 15.867L21.5527 13.5908L29.4775 9.01599L30.8021 10.3996Z" fill="#003CFF"/>
<path d="M29.4795 9.01613L21.5547 13.5909L19.6016 12.6313L27.5713 8.07886L29.4795 9.01613Z" fill="#4772FF"/>
<path d="M19.3952 2.52202L12.795 6.29343L9.76421 8.03408L6.89062 6.49428L9.89891 4.709L17.9809 0.0672607L19.3952 2.52202Z" fill="#4772FF"/>
<path d="M29.0332 9.30579L15.0469 1.78528L18.0552 0L31.9068 7.58745L29.0332 9.30579Z" fill="#4772FF"/>
<path d="M29.0312 23.3192L31.9048 21.6902V7.58643L29.0312 9.30476V23.3192Z" fill="#003CFF"/>
<path d="M13.9863 17.987L0 10.4665L3.03074 8.70349L16.8823 16.2909L13.9863 17.987Z" fill="#4772FF"/>
<path d="M13.9844 32.0005L16.8804 30.3938V16.29L13.9844 17.9861V32.0005Z" fill="#003CFF"/>
</svg>
