<svg width="82" height="90" viewBox="0 0 82 90" fill="none" xmlns="http://www.w3.org/2000/svg">
<path fill-rule="evenodd" clip-rule="evenodd" d="M16 6.45834C10.8223 6.45834 6.625 10.6557 6.625 15.8333V74.1667C6.625 79.3442 10.8223 83.5417 16 83.5417H66C71.1775 83.5417 75.375 79.3442 75.375 74.1667V32.859C75.375 30.6658 74.6062 28.5421 73.2021 26.8573L59.0142 9.83164C57.2329 7.69418 54.5942 6.45834 51.8121 6.45834H16ZM0.375 15.8333C0.375 7.20389 7.37054 0.208344 16 0.208344H51.8121C56.4492 0.208344 60.8467 2.26809 63.8154 5.83047L78.0033 22.8561C80.3433 25.6641 81.625 29.2037 81.625 32.859V74.1667C81.625 82.7963 74.6296 89.7917 66 89.7917H16C7.37054 89.7917 0.375 82.7963 0.375 74.1667V15.8333Z" fill="url(#paint0_linear_13474_21999)"/>
<defs>
<linearGradient id="paint0_linear_13474_21999" x1="-32.8021" y1="-68.3616" x2="129.693" y2="14.5394" gradientUnits="userSpaceOnUse">
<stop stop-color="#020024"/>
<stop offset="1" stop-color="#3363FF"/>
</linearGradient>
</defs>
</svg>
