<svg width="271" height="220" viewBox="0 0 271 220" fill="none" xmlns="http://www.w3.org/2000/svg">
<rect opacity="0.8" width="271" height="220" rx="10" fill="#E3F0FF"/>
<g clip-path="url(#clip0_3605_47806)">
<path d="M124.658 19.0531C125.251 25.4606 125.541 31.9114 126.514 38.2626C127.634 45.5619 130.614 52.1642 135.843 57.5543C139.057 60.8663 142.842 63.2215 147.5 63.9228C150.199 64.3298 152.79 63.8363 155.247 62.7582C157.366 61.8274 159.499 60.8663 161.462 59.6541C167.137 56.1473 173.305 54.7965 179.897 55.026C187.942 55.303 195.23 57.7059 201.575 62.7279C208.379 68.1137 212.423 75.2528 214.521 83.5739C216.225 90.3234 216.303 97.1682 215.533 104.039C213.829 119.257 207.977 132.756 198.461 144.692C195.52 148.385 192.176 151.692 188.591 154.766C186.908 156.208 185.459 157.931 183.755 159.347C174.019 167.447 162.929 172.625 150.376 174.5C142.716 175.643 135.337 174.976 128.261 171.344C124.451 169.387 120.835 167.313 117.681 164.382C112.742 159.788 106.713 157.55 100.112 156.693C98.7842 156.52 97.4391 156.277 96.1198 156.342C93.2781 156.485 90.6397 155.775 87.971 154.939C86.3446 154.433 84.5669 153.944 82.9147 154.091C79.8351 154.364 77.8454 156.498 76.4354 159.091C74.5452 162.572 73.9916 166.334 74.2424 170.278C74.7918 178.877 80.3152 186.327 88.2305 189.02C89.3378 189.397 90.5229 189.644 91.5177 190.215C93.6501 191.436 94.3854 193.579 94.8395 195.852C95.2894 198.112 94.8266 200.203 93.7063 202.173C92.6163 204.091 91.375 205.879 89.5929 207.238C88.7625 207.87 87.8369 208.174 86.8334 207.892C80.5358 206.121 74.2641 204.281 69.0261 200.086C64.1991 196.22 60.4577 191.557 57.9101 185.864C56.3919 182.466 55.064 179.054 54.558 175.365C53.3123 166.282 53.9957 157.412 57.7803 148.952C60.7907 142.22 65.8211 137.925 73.2217 136.76C77.9362 136.02 82.201 134.306 85.9943 131.405C89.368 128.82 93.2954 128.232 97.3958 128.331C102.919 128.465 108.235 129.924 113.633 130.872C117.171 131.492 120.731 132.154 124.334 131.453C128.534 130.634 132.158 128.591 135.489 125.985C139.65 122.725 142.941 118.759 145.126 113.919C148.607 106.199 147.69 99.0428 142.375 92.4492C139.606 89.0116 136.189 86.2625 132.868 83.4051C129.745 80.7208 126.501 78.1362 123.707 75.1359C117.647 68.6332 113.888 60.784 111.349 52.3244C109.736 46.9473 108.905 41.4187 108.456 35.8425C108.014 30.4004 107.712 24.9454 107.426 19.4904C107.331 17.6677 107.413 15.8234 107.582 14.0051C107.634 13.4639 108.17 12.8621 108.637 12.4811C110.415 11.0351 112.539 10.3857 114.775 10.1259C117.772 9.77525 120.649 10.1909 123.244 11.849C124.373 12.572 125.056 13.5418 124.922 15.0268C124.801 16.3559 124.896 17.7067 124.896 19.0488C124.814 19.0531 124.736 19.0618 124.654 19.0661L124.658 19.0531ZM147.306 155.624C148.543 156.927 149.057 158.451 148.283 160.096C147.656 161.434 148.581 162.161 149.213 162.927C149.438 163.2 150.325 162.97 150.904 162.901C151.255 162.862 151.588 162.685 151.934 162.585C153.439 162.152 154.935 161.676 156.458 161.308C158.681 160.767 159.542 161.468 159.55 163.728C159.55 164.429 159.858 164.785 160.554 164.728C161.203 164.681 161.852 164.581 162.5 164.503C164.663 164.252 166.903 164.408 168.91 163.325C170.416 162.512 172.029 162.243 173.72 162.161C174.391 162.126 175.16 161.905 175.688 161.507C179.559 158.611 183.387 155.649 187.219 152.697C187.855 152.208 188.435 151.64 188.915 151.216C188.651 150.268 188.409 149.493 188.214 148.705C187.769 146.913 186.095 145.986 184.408 146.709C183.344 147.164 182.41 147.012 181.411 146.532C178.655 145.211 177.371 145.549 175.541 147.969C175.325 148.255 175.13 148.597 174.845 148.783C174.334 149.108 173.772 149.523 173.21 149.562C171.64 149.666 170.061 149.597 168.478 149.597C169.326 148.779 170.563 148.718 171.596 148.805C173.236 148.943 174.14 148.277 174.953 146.999C176.471 144.61 178.742 143.964 181.207 145.389C182.661 146.229 183.88 146.043 185.225 145.367C184.451 143.934 183.647 142.514 182.907 141.059C182.202 139.678 181.683 138.241 181.921 136.635C181.943 136.488 181.934 136.275 181.843 136.176C180.805 135.059 179.815 133.881 178.331 133.297C177.167 132.838 176.449 131.95 176.333 130.721C176.19 129.236 175.355 128.461 174.04 127.989C173.426 127.768 172.864 127.4 172.28 127.097C172.838 127.115 173.283 127.383 173.768 127.509C175.506 127.959 176.653 128.898 176.921 130.795C177.051 131.712 177.66 132.483 178.595 132.669C180.13 132.977 181.393 133.656 182.362 134.959C183.119 133.687 183.967 132.574 184.469 131.323C184.966 130.08 185.109 128.695 185.455 127.153C185.697 129.288 185.494 131.093 184.49 132.782C183.941 133.704 183.448 134.674 183.037 135.665C182.284 137.488 182.903 139.129 183.919 140.735C183.27 137.99 184.607 136.189 186.597 134.639C187.678 133.795 187.786 132.526 187.829 131.258C187.898 129.193 189.546 127.496 191.653 127.296C189.356 128.89 188.617 128.985 188.539 132.851C188.521 133.63 187.877 134.444 187.384 135.146C186.999 135.695 186.38 136.076 185.892 136.557C184.879 137.553 184.52 138.743 184.875 140.137C184.97 140.514 185.13 140.934 185.052 141.289C184.572 143.458 185.727 144.856 187.284 146.008C188.318 146.774 188.958 147.714 189.231 148.952C189.339 149.437 189.533 149.9 189.715 150.45C189.953 150.251 190.057 150.177 190.148 150.091C198.136 142.454 204.166 133.492 208.292 123.24C208.669 122.309 208.124 122.092 207.501 121.989C207.008 121.906 206.437 121.963 205.965 122.136C204.836 122.556 203.772 123.157 202.635 123.538C201.415 123.95 200.148 124.257 198.88 124.482C198.063 124.629 197.561 124.101 197.085 123.404C196.597 122.694 195.848 122.144 195.156 121.59C194.893 121.378 194.477 121.348 194.131 121.24C194.149 121.153 194.17 121.062 194.187 120.975C194.486 121.001 194.789 121.01 195.087 121.058C196.216 121.24 197.055 121.885 197.765 122.738C198.361 123.456 199.075 123.716 199.975 123.374C199.542 122.218 199.058 121.144 198.746 120.019C198.608 119.508 198.807 118.902 198.863 118.339C198.902 117.928 199.071 117.499 198.989 117.118C198.79 116.191 199.287 115.152 200.126 114.958C199.962 115.282 199.676 115.594 199.659 115.923C199.603 117.144 199.447 118.382 199.425 119.564C199.404 120.763 200.351 121.984 200.874 123.196C203.625 122.214 205.87 120.014 208.919 121.404C209.049 121.131 209.175 120.936 209.235 120.724C210.351 116.564 211.688 112.447 212.497 108.225C213.202 104.554 213.301 100.762 213.703 97.0296C213.798 96.1248 213.426 95.7438 212.583 95.562C211.376 95.3022 210.321 95.6572 209.3 96.2114C207.808 97.0166 206.303 97.8046 204.871 98.7051C204.153 99.1554 203.439 99.7442 202.972 100.437C202.453 101.207 201.912 101.762 200.974 101.775C199.56 101.796 198.405 102.441 197.293 103.212C196.272 103.918 195.264 104.641 194.235 105.338C193.123 106.087 192.747 107.061 193.067 108.386C193.353 109.555 193.595 110.749 193.69 111.944C193.764 112.867 193.426 113.702 192.315 114.044C193.366 112.421 193.227 110.84 192.336 109.208C191.51 109.355 191.233 109.983 190.969 110.615C190.585 111.546 190.083 112.256 188.911 112.26C188.595 112.26 188.283 112.732 187.963 112.979C187.691 113.191 187.258 113.62 187.159 113.555C186.774 113.299 186.493 112.888 186.177 112.533C186.259 112.46 186.346 112.39 186.428 112.317C186.67 112.516 186.912 112.715 187.025 112.81C187.626 112.347 188.136 111.659 188.716 111.585C189.616 111.477 189.979 111.044 190.226 110.317C190.55 109.351 191.026 108.524 192.206 108.295C191.696 106.191 192.847 105.035 194.408 104.004C196.527 102.602 198.465 100.883 201.229 100.857C201.541 100.857 201.99 100.415 202.129 100.078C202.592 98.9519 203.47 98.3501 204.508 97.8739C205.239 97.5362 205.952 97.1595 206.631 96.8175C204.849 96.1031 203.141 95.4018 201.424 94.7351C200.662 94.4407 199.983 94.6788 199.3 95.1074C198.31 95.7265 197.289 96.3369 196.216 96.7915C194.815 97.3846 194.058 97.1292 193.379 95.7958C192.544 94.1549 191.22 93.2241 189.533 92.6873C189.369 92.6353 189.222 92.5228 189.066 92.4362C189.322 92.3149 189.546 92.289 189.745 92.3409C191.662 92.8301 193.249 93.8129 194.175 95.6139C194.568 96.3802 195.104 96.5101 195.775 96.1897C196.713 95.7395 197.669 95.2806 198.513 94.6788C199.867 93.7133 201.19 93.6181 202.639 94.393C203.314 94.7567 204.041 95.0251 204.836 95.3758C204.149 92.6007 203.513 91.8344 201.246 90.5702C200.688 90.2585 200.113 89.7173 199.88 89.1458C199.59 88.4358 199.573 87.6479 198.686 87.3145C198.491 87.2409 198.266 86.8859 198.284 86.6824C198.374 85.6131 198.539 84.548 198.677 83.483C198.785 83.496 198.889 83.5133 198.997 83.5263C198.932 84.0155 198.854 84.5091 198.811 84.9983C198.733 85.8858 198.911 86.5828 199.914 86.9162C200.252 87.0288 200.615 87.5526 200.667 87.9293C200.818 89.0982 201.558 89.6221 202.492 90.1546C203.223 90.5702 203.902 91.2023 204.382 91.8907C204.897 92.6266 205.178 93.5315 205.511 94.3801C205.97 95.5403 207.189 96.1551 208.344 95.6096C210.018 94.8173 211.666 94.1073 213.556 94.7524C214.625 83.7038 206.389 66.9404 197.942 62.8751C196.151 64.4077 194.187 64.49 192.012 63.6544C189.854 62.8275 188.119 64.3818 188.56 66.6244C188.699 67.3301 188.954 68.0098 189.071 68.7155C189.196 69.4385 189.335 70.1918 189.261 70.9105C189.144 72.0578 189.04 73.2657 188.591 74.3004C188.136 75.3394 188.625 75.794 189.192 76.4391C189.875 77.2141 189.78 78.1319 189.356 79.0151C188.876 80.0152 187.946 80.7122 187.155 80.7035C187.176 80.6472 187.185 80.578 187.224 80.5433C189.235 78.8029 189.313 78.0323 187.73 76.0235C187.267 75.4347 186.912 74.8112 187.596 74.1056C187.708 73.9887 187.652 73.7029 187.669 73.4951C187.725 72.8414 187.591 72.0924 187.864 71.5469C188.725 69.8281 188.292 68.2739 187.583 66.6633C184.823 69.4342 184.144 69.7199 182.86 68.5639C186.264 68.9752 186.601 65.8884 188.262 64.1999C187.894 63.8622 187.622 63.6717 187.418 63.4163C186.532 62.2907 185.576 61.5374 184.088 62.4725C183.716 62.7063 183.223 62.8318 182.777 62.8362C181.921 62.8492 180.913 63.005 180.238 62.624C179.36 62.1262 178.668 61.3902 177.405 62.0049C178.054 61.1131 179.049 60.8923 179.823 61.4291C180.788 62.1002 181.752 62.1088 182.79 61.7149C183.43 61.4724 184.079 61.2516 184.728 61.0308C185.757 60.6801 186.588 61.0135 187.258 61.8144C187.509 62.1132 187.687 62.5028 187.989 62.7323C188.301 62.9704 188.902 63.3124 189.071 63.1912C190.355 62.2604 191.657 62.637 192.916 63.0786C194.447 63.6111 195.636 63.1176 196.748 62.1435C196.722 62.0872 196.718 62.0439 196.696 62.0266C196.597 61.9486 196.493 61.8664 196.385 61.8014C188.331 57.1863 179.741 56.1473 170.723 57.918C170.13 58.0349 169.996 58.3509 170.005 58.8705C170.031 60.7494 169.287 62.2907 167.916 63.5548C167.081 64.3211 166.73 65.2303 166.986 66.3819C167.159 67.1699 167.055 67.9275 166.432 68.4687C166.51 66.8105 166.588 65.1437 166.657 63.6977C165.822 63.8189 164.858 63.9618 163.672 64.135C163.084 64.832 162.829 66.2088 161.575 66.698C162.098 65.7152 162.587 64.7714 163.106 63.8449C163.313 63.4726 163.452 62.9574 164.109 63.2215C164.931 63.5505 165.627 63.2345 166.294 62.7366C166.791 62.3643 167.34 62.0742 167.833 61.6975C168.119 61.4767 168.469 61.1997 168.547 60.8836C168.724 60.1693 168.755 59.4203 168.846 58.6886C168.755 58.5977 168.668 58.5068 168.577 58.4115C166.696 59.351 164.793 60.2515 162.941 61.243C160.753 62.4119 158.638 63.7194 156.441 64.8667C154.338 65.9663 152.094 66.62 149.68 66.6244C144.853 66.6374 140.627 64.9099 136.998 61.8794C129.429 55.5541 125.35 47.2504 123.927 37.5959C122.98 31.1711 122.997 24.6813 123.028 18.2046C123.028 17.6677 123.028 17.1352 123.028 16.5421C118.391 18.04 113.845 18.9232 109.238 16.62C109.238 16.8971 109.226 17.1569 109.238 17.4123C109.541 23.192 109.732 28.9804 110.173 34.7515C110.692 41.5226 112.033 48.1552 114.303 54.5671C117.033 62.269 120.791 69.3909 126.795 75.0623C130.212 78.2921 133.914 81.2187 137.478 84.2926C141.337 87.6176 144.935 91.1676 147.293 95.7741C148.205 97.5578 149.944 97.8955 151.432 96.5664C151.748 96.285 152.085 95.9949 152.301 95.6399C153.387 93.8519 154.935 92.7176 156.903 92.0422C158.244 91.5833 158.789 90.4879 159.005 89.1069C159.144 88.2367 159.594 87.4184 159.909 86.5785C160.182 85.8555 160.731 85.1282 160.692 84.4225C160.576 82.0933 161.622 81.5434 163.854 80.8334C163.495 81.0932 163.279 81.2967 163.024 81.4222C161.622 82.1192 161.263 83.3228 161.566 84.7169C161.795 85.7603 161.493 86.5092 160.718 87.1327C160.026 87.6912 159.702 88.4271 159.784 89.293C159.944 90.9598 159.157 91.9253 157.665 92.5098C156.687 92.8907 155.757 93.3886 154.814 93.8302C155.619 94.826 156.402 95.6226 156.977 96.5491C157.453 97.3197 158.002 97.5881 158.837 97.4063C159.157 97.337 159.468 97.2418 159.788 97.1768C161.774 96.7655 163.664 96.8608 165.45 97.9908C165.783 98.2029 166.397 98.1509 166.817 98.0167C168.128 97.6054 169.412 97.5881 170.394 97.8436C169.287 98.06 167.907 98.3588 166.519 98.5882C166.099 98.6575 165.571 98.6791 165.221 98.4886C162.829 97.1985 160.359 97.6314 158.019 97.9388C157.859 99.4974 157.937 100.982 157.518 102.311C157.037 103.835 156.376 105.286 156.397 106.931C156.397 107.217 156.164 107.507 156.034 107.797C156.83 108.814 156.869 109.139 156.328 109.632C156.056 109.195 155.761 108.762 155.511 108.308C155.389 108.091 155.238 107.805 155.286 107.589C155.58 106.195 155.736 104.732 156.293 103.446C157.807 99.952 157.254 97.337 154.191 94.9126C152.799 96.982 151.302 98.9216 148.257 97.9388C149.209 100.64 149.628 103.264 149.485 105.978C149.274 109.944 148.067 113.603 146.207 117.079C146.025 117.421 145.943 117.971 146.086 118.309C146.86 120.162 146.648 121.872 145.562 123.53C145.151 124.153 144.741 124.798 144.481 125.491C143.966 126.868 144.239 127.322 145.567 127.937C146.267 128.257 146.929 128.682 147.574 129.11C148.274 129.578 148.932 130.106 149.784 130.738C149.17 130.582 148.594 130.556 148.145 130.305C146.752 129.522 145.411 128.651 144.049 127.816C143.261 129.435 143.145 130.786 144.382 132.041C145.32 132.994 146.107 134.106 147.102 134.99C147.773 135.587 148.677 136.228 149.498 136.258C150.355 136.288 151.198 136.163 152.046 136.466C152.336 136.57 152.716 136.553 153.011 136.457C154.304 136.033 155.364 136.483 156.397 137.219C157.115 137.726 157.898 138.137 158.642 138.583C158.59 138.605 158.387 138.765 158.266 138.717C157.613 138.466 156.903 138.267 156.358 137.851C155.398 137.12 154.468 136.83 153.266 137.206C152.691 137.388 151.994 137.193 151.35 137.154C151.064 137.137 150.757 136.994 150.498 137.063C148.629 137.566 147.327 136.821 146.181 135.375C145.095 134.007 143.841 132.777 142.656 131.479C142.249 132.085 141.908 132.686 141.484 133.219C140.147 134.89 139.269 136.743 138.966 138.877C138.884 139.445 138.62 140.003 138.356 140.518C138.201 140.817 137.872 141.029 137.478 141.427C137.941 139.873 138.326 138.574 138.733 137.206C137.491 136.951 136.812 137.553 136.159 138.115C135.195 138.951 134.135 139.51 132.85 139.189C131.445 138.838 130.42 139.215 129.49 140.336C128.123 141.982 126.54 142.06 124.701 140.67C124.913 140.696 125.035 140.691 125.147 140.726C127.535 141.44 127.842 141.38 129.321 139.458C130.169 138.354 131.259 138.029 132.526 138.315C133.737 138.587 134.706 138.254 135.584 137.449C136.492 136.613 137.496 135.985 138.638 136.098C139.299 134.938 139.935 133.912 140.48 132.842C141.246 131.34 142.167 129.864 142.621 128.262C143.201 126.205 143.69 124.175 144.948 122.387C145.671 121.356 145.701 120.162 145.238 118.971C145.126 119.006 145.082 119.001 145.069 119.023C144.935 119.205 144.797 119.387 144.671 119.577C142.098 123.387 138.94 126.621 135.156 129.232C129.74 132.964 123.871 134.951 117.219 133.786C112.976 133.041 108.75 132.223 104.507 131.487C100.605 130.812 96.6778 130.214 92.7288 131.02C88.7409 131.834 85.4363 133.665 83.6673 137.592C83.5375 137.877 83.278 138.098 82.9017 138.574V136.808C81.3619 137.18 79.8826 137.557 78.3947 137.886C75.7866 138.466 73.0962 138.8 70.5659 139.618C64.8003 141.488 61.2665 145.74 59.1774 151.255C56.4265 158.516 55.5744 166.036 56.6514 173.729C57.6549 180.885 60.3798 187.284 65.1593 192.787C70.1507 198.532 76.3878 202.32 83.5332 204.662C87.4433 205.944 87.2832 205.996 90.2028 202.861C92.3611 200.541 92.8629 197.675 92.1276 194.618C91.7643 193.099 90.9424 192.06 89.2556 191.674C86.0332 190.934 83.0963 189.501 80.4968 187.444C72.1403 180.834 69.463 167.347 74.7269 158.052C77.0625 153.931 80.4579 151.424 85.4882 151.77C85.4234 151.524 85.3455 151.238 85.2071 150.718C88.4338 153.454 92.1233 153.926 95.9209 154.169C98.555 154.338 101.18 154.675 103.793 155.056C108.94 155.81 113.205 158.446 117.227 161.555C117.517 161.78 117.824 161.988 118.131 162.209C118.65 160.97 118.43 160.061 117.526 159.187C116.289 157.992 116.237 157.044 117.353 155.762C118.3 154.68 118.438 153.558 117.915 152.316C117.547 151.45 117.072 150.627 116.648 149.783C116.561 149.614 116.483 149.45 116.397 149.281C117.945 150.982 119.048 152.861 118.754 155.052C119.572 155.113 120.363 155.139 121.15 155.234C121.92 155.329 122.496 155.269 122.617 154.294C122.72 153.433 123.283 152.736 124.126 152.718C125.277 152.693 126.432 152.948 127.582 153.086C127.565 153.199 127.548 153.307 127.526 153.42C126.691 153.316 125.852 153.195 125.017 153.112C123.983 153.013 123.348 153.45 123.114 154.39C122.777 155.727 122.634 155.836 121.241 155.766C120.947 155.753 120.657 155.684 120.368 155.667C119.511 155.624 118.758 156.277 118.239 157.29C117.82 158.109 118.313 158.472 118.81 158.91C119.442 159.468 119.723 160.174 119.585 161.022C119.511 161.473 119.338 161.927 119.364 162.373C119.39 162.767 119.524 163.278 119.801 163.516C126.414 169.196 134.165 171.898 142.803 172.231C151.22 172.556 159.131 170.56 166.644 166.867C168.798 165.806 170.87 164.59 172.981 163.442C172.937 163.317 172.89 163.196 172.846 163.07C171.925 163.3 170.943 163.399 170.091 163.78C167.042 165.148 163.858 165.668 160.55 165.62C158.919 165.598 158.569 165.243 158.646 163.655C158.711 162.377 158.279 161.992 157.007 162.278C155.662 162.581 154.602 163.356 153.664 164.36C153.071 164.997 152.388 165.577 151.674 166.07C150.524 166.863 149.295 167.542 148.132 168.317C147.262 168.897 146.345 169.209 145.363 168.781C144.364 168.343 143.421 167.785 142.453 167.283C142.491 167.187 142.53 167.092 142.569 166.997C143.257 167.283 143.953 167.547 144.628 167.854C145.852 168.413 146.929 168.283 147.989 167.391C148.806 166.702 149.767 166.187 150.64 165.568C151.51 164.949 152.353 164.295 153.21 163.655C153.153 163.564 153.093 163.477 153.037 163.386C152.158 163.616 151.289 163.88 150.407 164.066C148.854 164.395 147.297 164.347 145.978 163.399C144.369 162.247 142.686 161.724 140.679 161.793C138.664 161.862 136.726 160.161 136.332 158.273C136.501 158.481 136.626 158.615 136.734 158.767C137.924 160.399 139.503 161.295 141.54 161.005C143.11 160.78 144.421 161.204 145.696 162.048C146.406 162.516 147.202 162.849 147.812 163.165C147.647 162.278 147.163 161.338 147.409 160.667C148.049 158.94 148.231 157.334 147.314 155.658L147.306 155.624ZM116.241 15.49C117.716 15.2 119.598 14.8406 121.47 14.438C121.778 14.3731 122.037 14.0916 122.323 13.9098C122.085 13.6241 121.894 13.1781 121.596 13.0829C120.329 12.6889 119.048 12.2646 117.742 12.1088C115.225 11.8057 112.703 11.8144 110.419 13.1868C110.091 13.386 109.844 13.728 109.563 14.0051C109.892 14.2562 110.212 14.5116 110.553 14.7454C110.653 14.8147 110.8 14.832 110.93 14.845C112.547 15.0441 114.165 15.2389 116.25 15.49H116.241Z" fill="black"/>
</g>
<defs>
<clipPath id="clip0_3605_47806">
<rect width="162" height="198" fill="white" transform="translate(54 10)"/>
</clipPath>
</defs>
</svg>
