<svg width="271" height="220" viewBox="0 0 271 220" fill="none" xmlns="http://www.w3.org/2000/svg">
<rect opacity="0.8" width="271" height="220" rx="10" fill="#E3F0FF"/>
<g clip-path="url(#clip0_3606_48566)">
<path d="M94.7299 56.7C95.3099 58.69 96.1199 60.66 96.4499 62.71C97.7099 70.47 91.6799 78.19 83.8999 78.96C75.8899 79.75 69.1899 74.79 67.7999 66.9C67.5299 65.36 67.7899 63.72 67.7399 62.13C67.7199 61.63 67.6599 61 67.3499 60.66C64.8299 57.86 63.4199 54.61 62.9999 50.88C62.9199 50.18 62.9999 50.5 62.9999 49.5C62.9999 48 62.9997 48 62.9997 48C63 47 62.9999 47.5 63.2303 46.5C63.2303 46 63.1899 46.25 63.2299 45.7C63.3599 43.82 64.2699 42.23 65.0999 40.63C66.2399 38.44 67.8599 36.6 69.9799 35.31C70.8199 34.8 71.0499 34.24 71.0499 33.3C71.0999 25.16 78.4399 18.41 86.4899 19.04C96.8399 19.86 103.01 30.35 98.7099 39.81C98.5999 40.06 98.4799 40.31 98.3399 40.61C102.77 45.06 104.99 50.62 105.87 56.69C106.52 61.22 107.32 65.72 107.29 70.36C107.17 88.34 107.23 106.33 107.25 124.32C107.25 129.32 108.44 134.04 110.76 138.47C110.92 138.78 111.12 139.08 111.38 139.51C117.45 131.43 125.63 127.38 135.5 127.32C145.39 127.26 153.61 131.23 159.83 139.29C161.24 136.95 162.3 134.55 162.81 131.98C163.33 129.33 163.78 126.62 163.79 123.93C163.87 105.27 163.63 86.6 163.94 67.94C164.06 60.64 164.92 53.25 168.46 46.59C169.46 44.71 170.84 43.02 172.16 41.32C172.59 40.77 172.7 40.43 172.41 39.78C168.44 31.07 173.28 21.39 182.61 19.31C190.52 17.55 198.82 23.24 199.79 31.29C200.06 33.55 200.64 35.17 202.63 36.51C204.91 38.06 206.22 40.54 207.18 43.13C207.28 43.39 207.3 43.77 207.49 43.89C209 44.82 208.53 46.31 208.62 47.64C208.6 47.68 208.58 47.7 208.56 47.73C208.51 47.59 208.47 47.45 208.42 47.31C208.5 47.33 208.58 47.34 208.67 47.36C208.22 49.74 207.88 52.15 207.28 54.49C206.7 56.8 205.39 58.77 203.82 60.58C203.5 60.95 203.3 61.64 203.39 62.12C204.73 70.05 199.15 77.72 191.13 78.92C183.12 80.12 175.6 74.37 174.6 66.36C174.17 62.93 174.95 59.8 176.64 56.83C172.24 56.17 168.55 59.04 167.73 63.83C167.47 65.36 167.36 66.93 167.36 68.48C167.33 86.87 167.31 105.25 167.36 123.64C167.37 130.23 165.79 136.34 162.42 142.01C162.18 142.41 162.06 143.1 162.24 143.5C166.75 153.5 163.74 164.55 155.92 171.51C154.97 172.36 153.93 173.11 152.92 173.89C152.26 174.41 151.58 174.89 150.92 175.42C148.25 177.57 146.91 180.27 146.78 183.79C146.69 186.38 146.02 188.98 145.34 191.51C144.87 193.28 143.82 194.83 142.19 195.9C141.73 196.2 141.41 196.8 141.16 197.33C140.03 199.66 138.16 200.82 135.61 200.75C133.07 200.68 131.21 199.5 130.21 197.09C130.05 196.7 129.83 196.24 129.49 196.02C126.47 194.08 125.64 190.96 125.04 187.76C124.72 186.08 124.59 184.35 124.52 182.64C124.43 180.46 123.71 178.55 122.16 177.05C120.93 175.86 119.62 174.74 118.24 173.73C112.83 169.8 109.09 164.76 107.63 158.17C106.56 153.3 107.06 148.57 109.01 144C109.29 143.34 109.32 142.87 108.94 142.25C105.38 136.54 103.78 130.32 103.8 123.6C103.86 105.17 103.84 86.75 103.78 68.32C103.78 66.35 103.51 64.32 102.98 62.42C102.12 59.35 100.19 57.25 96.7599 56.98C96.0199 56.92 95.2799 56.77 94.7599 56.69L94.7299 56.7ZM85.7099 22.58C79.0599 22.5 74.0199 28.11 74.6499 34.95C74.7599 36.09 74.4799 36.88 73.4099 37.38C65.5399 41.07 63.9899 52.68 70.4999 58.71C71.5599 59.7 71.7899 60.62 71.4199 61.98C70.2799 66.23 71.9899 70.74 75.6099 73.41C79.1899 76.04 84.0499 76.25 87.7799 73.93C94.3999 69.82 94.9199 60.72 88.7899 55.85C87.8599 55.11 87.4599 54.32 87.8099 53.17C88.5299 50.84 88.6399 48.47 88.1299 46.08C87.9199 45.09 88.3299 44.37 89.2499 43.96C89.6099 43.8 89.9799 43.65 90.3399 43.47C94.9099 41.25 97.3899 36.21 96.3099 31.31C95.1899 26.23 90.8299 22.65 85.6899 22.59L85.7099 22.58ZM196.39 34.17H196.46C196.46 33.93 196.46 33.69 196.46 33.45C196.42 27.63 191.78 22.82 185.99 22.6C180.08 22.37 175.05 26.76 174.55 32.57C174.13 37.44 176.72 41.71 181.33 43.75C182.85 44.42 182.93 44.87 182.86 46.52C182.77 48.57 182.77 50.68 183.15 52.68C183.44 54.2 183.23 55.11 182.02 56.07C177.82 59.38 176.75 65.39 179.44 70.01C182.2 74.77 187.92 76.77 193.01 74.77C198.01 72.8 200.99 67.32 199.67 62.15C199.27 60.6 199.6 59.67 200.71 58.6C207.19 52.31 205.25 40.8 197.59 37.34C197.09 37.11 196.64 36.5 196.44 35.96C196.24 35.44 196.4 34.78 196.4 34.19L196.39 34.17ZM160.72 155.19C160.78 148.21 159.06 143.75 155.81 139.98C146.5 129.17 129.99 127.68 118.91 136.69C112.32 142.05 109.35 148.97 111.07 157.48C112.27 163.43 115.89 167.77 120.74 171.25C122.44 172.47 123.99 173.96 125.4 175.51C126.99 177.26 127.81 179.39 127.91 181.83C127.99 183.78 128.24 185.73 128.58 187.65C128.98 189.9 129.65 192.03 131.79 193.41C132.49 193.86 132.94 194.81 133.34 195.61C133.83 196.6 134.48 197.2 135.63 197.22C136.77 197.24 137.44 196.68 137.99 195.72C138.51 194.8 139.25 194.01 139.9 193.17C140.59 192.27 141.57 191.47 141.92 190.45C142.55 188.62 142.85 186.67 143.2 184.76C143.59 182.61 143.56 180.33 144.28 178.32C145.43 175.14 148.01 173.01 150.73 171.11C156.94 166.77 160.55 160.98 160.73 155.2L160.72 155.19ZM96.2999 43.68C94.9399 44.64 93.6499 45.5 92.4199 46.44C92.1399 46.65 91.9199 47.11 91.9099 47.46C91.8599 49.12 91.8899 50.78 91.8899 52.57C95.0399 53.53 98.7099 53.15 101.89 54.99C101.36 51.14 98.8699 46.16 96.2999 43.67V43.68ZM179.15 52.57C179.15 50.77 179.17 49.1 179.14 47.44C179.14 47.13 179.05 46.68 178.83 46.53C177.5 45.55 176.12 44.64 174.69 43.66C171.72 46.83 170.08 50.68 169.07 55.05C172.35 53.11 175.99 53.55 179.16 52.57H179.15Z" fill="black"/>
<path d="M153.58 154.44C153.48 160.04 151.46 164.2 147.57 167.47C146.29 168.55 145.01 169.63 143.75 170.74C142.76 171.61 142.28 172.72 141.93 174.01C141.54 175.44 140.98 176.93 140.1 178.1C137.92 181.03 133.86 181.02 131.72 178.06C130.84 176.84 130.49 175.25 129.82 173.86C129.32 172.81 128.87 171.65 128.1 170.81C126.95 169.55 125.53 168.54 124.23 167.42C119.17 163.02 117.18 157.5 118.78 150.99C120.41 144.36 124.99 140.56 131.54 139.17C135.8 138.26 140.05 138.51 144.07 140.37C150.27 143.23 153.3 148.18 153.56 154.44H153.58ZM135.96 142.32C135.32 142.32 134.68 142.3 134.04 142.32C133.6 142.34 133.17 142.41 132.74 142.5C127.51 143.54 123.67 146.29 122.27 151.61C120.9 156.84 122.46 161.28 126.6 164.79C127.79 165.8 128.98 166.79 130.16 167.81C131.91 169.32 133.04 171.17 133.41 173.5C133.53 174.26 133.89 175.03 134.31 175.68C135.22 177.1 136.56 177.15 137.46 175.73C138 174.88 138.36 173.86 138.58 172.87C138.92 171.34 139.52 169.97 140.65 168.9C142.18 167.45 143.78 166.05 145.39 164.69C151.78 159.26 151.6 149.72 144.98 144.91C142.3 142.96 139.25 142.19 135.96 142.3V142.32Z" fill="black"/>
</g>
<defs>
<clipPath id="clip0_3606_48566">
<rect width="146.62" height="181.75" fill="white" transform="translate(62 19)"/>
</clipPath>
</defs>
</svg>
