<svg width="24" height="25" viewBox="0 0 24 25" fill="none" xmlns="http://www.w3.org/2000/svg">
<path d="M20.5368 8.48242H15.1797V12.0538H20.5368V8.48242Z" fill="#28A745"/>
<path d="M19.644 0H18.7511C18.5046 0 18.3047 0.199873 18.3047 0.446429V2.23214C18.3047 2.4787 18.5046 2.67857 18.7511 2.67857H19.644C19.8905 2.67857 20.0904 2.4787 20.0904 2.23214V0.446429C20.0904 0.199873 19.8905 0 19.644 0Z" fill="#28A745"/>
<path d="M0 23.2143H13.183C12.8917 22.7991 12.6532 22.3492 12.4732 21.875H1.33929C1.22089 21.875 1.10733 21.828 1.02361 21.7442C0.939891 21.6605 0.892857 21.547 0.892857 21.4286V8.03571C0.892857 7.91731 0.939891 7.80376 1.02361 7.72004C1.10733 7.63632 1.22089 7.58929 1.33929 7.58929H20.9821C21.1005 7.58929 21.2141 7.63632 21.2978 7.72004C21.3815 7.80376 21.4286 7.91731 21.4286 8.03571V14.2366C21.7438 14.4186 22.0425 14.6278 22.3214 14.8616V6.25H0V23.2143Z" fill="#28A745"/>
<path d="M15.1775 14.2365C15.9809 13.7672 16.88 13.4854 17.8075 13.412C18.7351 13.3385 19.6673 13.4754 20.5346 13.8124V12.9463H15.1775V14.2365ZM18.3025 14.2856C17.2429 14.2856 16.2072 14.5998 15.3262 15.1884C14.4452 15.7771 13.7586 16.6137 13.3531 17.5926C12.9476 18.5715 12.8415 19.6487 13.0483 20.6878C13.255 21.727 13.7652 22.6816 14.5144 23.4308C15.2636 24.18 16.2181 24.6902 17.2573 24.8969C18.2965 25.1036 19.3737 24.9975 20.3525 24.5921C21.3314 24.1866 22.1681 23.5 22.7568 22.619C23.3454 21.738 23.6596 20.7023 23.6596 19.6427C23.6584 18.2223 23.0936 16.8604 22.0892 15.856C21.0848 14.8515 19.7229 14.2868 18.3025 14.2856ZM17.2788 22.6369C17.1951 22.7206 17.0815 22.7676 16.9632 22.7676C16.8448 22.7676 16.7313 22.7206 16.6475 22.6369L14.4154 20.4048L15.0467 19.7735L16.9632 21.69L21.5583 17.0949L22.1895 17.7262L17.2788 22.6369Z" fill="#28A745"/>
<path d="M3.57171 0H2.67885C2.43229 0 2.23242 0.199873 2.23242 0.446429V2.23214C2.23242 2.4787 2.43229 2.67857 2.67885 2.67857H3.57171C3.81826 2.67857 4.01814 2.4787 4.01814 2.23214V0.446429C4.01814 0.199873 3.81826 0 3.57171 0Z" fill="#28A745"/>
<path d="M1.33929 2.23242H0V5.35742H22.3214V2.23242H20.9821C20.9811 2.5873 20.8396 2.92733 20.5887 3.17827C20.3378 3.4292 19.9977 3.57065 19.6429 3.57171H18.75C18.3951 3.57065 18.0551 3.4292 17.8042 3.17827C17.5532 2.92733 17.4118 2.5873 17.4107 2.23242H4.91071C4.90965 2.5873 4.76821 2.92733 4.51728 3.17827C4.26634 3.4292 3.9263 3.57065 3.57143 3.57171H2.67857C2.3237 3.57065 1.98366 3.4292 1.73272 3.17827C1.48179 2.92733 1.34035 2.5873 1.33929 2.23242Z" fill="#28A745"/>
<path d="M7.1423 17.8574H1.78516V20.9824H7.1423V17.8574Z" fill="#28A745"/>
<path d="M8.03516 17.8574V20.9824H12.2003C12.1036 20.5425 12.0542 20.0935 12.053 19.6431C12.0534 19.0383 12.1422 18.4367 12.3164 17.8574H8.03516Z" fill="#28A745"/>
<path d="M7.1423 12.9463H1.78516V16.9641H7.1423V12.9463Z" fill="#28A745"/>
<path d="M7.1423 8.48242H1.78516V12.0538H7.1423V8.48242Z" fill="#28A745"/>
<path d="M14.2852 14.8615V12.9463H8.03516V16.9641H12.6646C13.049 16.1559 13.6015 15.4391 14.2852 14.8615Z" fill="#28A745"/>
<path d="M14.2852 8.48242H8.03516V12.0538H14.2852V8.48242Z" fill="#28A745"/>
</svg>
