<svg width="19" height="19" viewBox="0 0 19 19" fill="none" xmlns="http://www.w3.org/2000/svg">
<path d="M16.1157 12.0828C16.1157 10.2362 15.3556 8.56781 14.1385 7.36843V4.94001C14.1385 3.70499 13.6575 2.54123 12.7788 1.65061C11.8941 0.777812 10.7303 0.296875 9.49533 0.296875C6.93627 0.296875 4.8522 2.38094 4.8522 4.94001V7.36843C3.63502 8.56781 2.875 10.2362 2.875 12.0828C2.87501 15.7344 5.84376 18.7031 9.49533 18.7031C13.1469 18.7031 16.1157 15.7344 16.1157 12.0828ZM9.49533 13.5316C8.69378 13.5316 8.04658 12.8844 8.04658 12.0828C8.04658 11.2812 8.69379 10.6281 9.49533 10.6281C10.2969 10.6281 10.9441 11.2812 10.9441 12.0828C10.9441 12.8844 10.2969 13.5316 9.49533 13.5316ZM6.63345 4.94001C6.63345 3.36061 7.91597 2.07812 9.49533 2.07812C10.2553 2.07812 10.9738 2.375 11.5141 2.91529C12.0603 3.46153 12.3572 4.17998 12.3572 4.94V6.11561C11.4903 5.69999 10.5225 5.45656 9.49533 5.45656C8.46815 5.45656 7.50034 5.69998 6.63345 6.11562V4.94001Z" fill="#969696"/>
</svg>
