<svg width="271" height="45" viewBox="0 0 271 45" fill="none" xmlns="http://www.w3.org/2000/svg">
<path d="M76.0874 25.49C76.0724 26.2912 75.8964 27.081 75.5701 27.8113C75.2438 28.5416 74.7741 29.1972 74.1894 29.7381C73.6047 30.2791 72.9174 30.6942 72.1691 30.9582C71.4209 31.2221 70.6274 31.3294 69.8368 31.2736H61.6484V11.3944H69.3055C70.087 11.3205 70.8752 11.41 71.621 11.6574C72.3668 11.9048 73.0543 12.3048 73.6407 12.8325C74.227 13.3602 74.6997 14.0043 75.0292 14.7247C75.3587 15.4452 75.5381 16.2265 75.5561 17.02C75.5727 17.7517 75.4268 18.4779 75.1294 19.1451C74.8319 19.8124 74.3904 20.4037 73.8372 20.8757C74.5839 21.3733 75.186 22.0631 75.5815 22.8741C75.977 23.6851 76.1517 24.588 76.0874 25.49ZM66.0551 15.7874V19.1691H69.1805C69.4072 19.1783 69.6334 19.1394 69.8443 19.0549C70.0553 18.9704 70.2465 18.8421 70.4054 18.6784C70.5644 18.5146 70.6877 18.319 70.7674 18.1042C70.8471 17.8893 70.8814 17.6599 70.8682 17.4309C70.8814 17.2018 70.8471 16.9724 70.7674 16.7576C70.6877 16.5427 70.5644 16.3471 70.4054 16.1833C70.2465 16.0196 70.0553 15.8913 69.8443 15.8068C69.6334 15.7223 69.4072 15.6834 69.1805 15.6926L66.0551 15.7874ZM71.6182 25.2687C71.6364 25.0177 71.6014 24.7657 71.5156 24.5294C71.4298 24.2931 71.2951 24.0781 71.1206 23.8986C70.9461 23.7191 70.7358 23.5794 70.5036 23.4887C70.2714 23.3979 70.0228 23.3583 69.7743 23.3725H66.0551V27.1334H69.7743C70.0438 27.1535 70.3143 27.1102 70.5646 27.0069C70.8148 26.9036 71.038 26.7431 71.2166 26.538C71.3952 26.3329 71.5244 26.0887 71.5941 25.8246C71.6638 25.5606 71.6226 25.1098 71.6182 25.0159V25.2687Z" fill="#003CFF"/>
<path d="M90.0246 26.7849V31.1147H78.5859V11.3936H83.0552V26.7849H90.0246Z" fill="#003CFF"/>
<path d="M90.3133 21.2548C90.3133 19.2219 90.9098 17.2348 92.0273 15.545C93.1448 13.8552 94.733 12.5387 96.5908 11.7622C98.4486 10.9858 100.493 10.7842 102.464 11.1831C104.435 11.582 106.245 12.5634 107.664 14.003C109.083 15.4427 110.048 17.2758 110.436 19.2704C110.825 21.2649 110.619 23.3311 109.846 25.2074C109.072 27.0837 107.765 28.6857 106.091 29.8106C104.416 30.9354 102.45 31.5325 100.439 31.5262C99.1034 31.5389 97.7785 31.2817 96.5422 30.7697C95.3059 30.2576 94.1832 29.5009 93.24 28.5442C92.2968 27.5874 91.552 26.4498 91.0495 25.198C90.5469 23.9463 90.2966 22.6057 90.3133 21.2548ZM106.127 21.2548C106.103 20.1229 105.748 19.0235 105.109 18.0943C104.469 17.1652 103.572 16.4476 102.531 16.0316C101.49 15.6156 100.35 15.5196 99.255 15.7556C98.16 15.9916 97.1582 16.5491 96.3752 17.3584C95.5921 18.1676 95.0627 19.1925 94.8531 20.3047C94.6436 21.4169 94.7633 22.5669 95.1973 23.6106C95.6312 24.6543 96.3601 25.5453 97.2926 26.1719C98.2251 26.7985 99.3197 27.1329 100.439 27.1332C101.203 27.156 101.963 27.0186 102.672 26.7296C103.381 26.4406 104.022 26.0063 104.557 25.454C105.091 24.9017 105.507 24.2434 105.777 23.5207C106.047 22.798 106.167 22.0265 106.127 21.2548Z" fill="#003CFF"/>
<path d="M112.527 21.2549C112.494 19.9088 112.729 18.5698 113.22 17.3182C113.711 16.0666 114.447 14.9283 115.385 13.9718C116.322 13.0153 117.44 12.2602 118.673 11.7521C119.907 11.244 121.228 10.9933 122.56 11.015C124.22 10.9871 125.859 11.3909 127.32 12.1879C128.781 12.9848 130.016 14.1481 130.904 15.5661L127.06 17.81C126.589 17.0413 125.923 16.4135 125.132 15.9913C124.341 15.5691 123.453 15.3678 122.56 15.4081C121.096 15.5168 119.727 16.1817 118.727 17.2692C117.728 18.3566 117.173 19.7862 117.173 21.2707C117.173 22.7552 117.728 24.1847 118.727 25.2721C119.727 26.3596 121.096 27.0245 122.56 27.1333C123.456 27.1703 124.346 26.9642 125.138 26.5363C125.929 26.1084 126.593 25.4743 127.06 24.6997L130.904 26.9436C130.022 28.3696 128.79 29.5409 127.328 30.3437C125.866 31.1466 124.223 31.554 122.56 31.5263C121.226 31.5482 119.901 31.2965 118.666 30.7865C117.431 30.2764 116.311 29.5185 115.373 28.5586C114.435 27.5987 113.7 26.4566 113.211 25.2013C112.722 23.946 112.489 22.6035 112.527 21.2549Z" fill="#003CFF"/>
<path d="M144.087 31.1147L137.836 21.981V31.1147H133.398V11.3936H137.836V19.9583L143.806 11.3936H148.869L142.306 20.8749L149.15 30.9883L144.087 31.1147Z" fill="#003CFF"/>
<path d="M170.627 31.1147H166.314V19.6423L161.282 28.0175H160.782L155.719 19.6423V31.1147H151.281V11.3936H155.719L161.032 20.148L166.314 11.3936H170.783L170.627 31.1147Z" fill="#003CFF"/>
<path d="M186.509 26.7849V31.1147H174.258V11.3936H186.384V15.7234H178.821V18.8838H185.79V23.2768H178.821V26.7849H186.509Z" fill="#003CFF"/>
<path d="M206.572 21.2541C206.623 22.5308 206.417 23.8046 205.969 24.999C205.52 26.1935 204.838 27.284 203.962 28.205C203.086 29.1259 202.036 29.8584 200.873 30.3585C199.71 30.8585 198.46 31.1157 197.196 31.1147H189.383V11.3936H197.196C198.46 11.3925 199.71 11.6498 200.873 12.1498C202.036 12.6498 203.086 13.3823 203.962 14.3033C204.838 15.2243 205.52 16.3147 205.969 17.5092C206.417 18.7037 206.623 19.9775 206.572 21.2541ZM202.29 21.2541C202.353 20.5362 202.264 19.813 202.029 19.1325C201.794 18.452 201.419 17.8297 200.929 17.3068C200.438 16.7839 199.843 16.3723 199.184 16.0993C198.524 15.8264 197.815 15.6982 197.102 15.7234H193.758V26.7849H197.102C197.815 26.81 198.524 26.6819 199.184 26.4089C199.843 26.1359 200.438 25.7244 200.929 25.2015C201.419 24.6786 201.794 24.0563 202.029 23.3758C202.264 22.6953 202.353 21.9721 202.29 21.2541Z" fill="#003CFF"/>
<path d="M230.384 17.5259C230.402 18.3357 230.255 19.1406 229.954 19.8912C229.653 20.6417 229.203 21.322 228.632 21.8903C228.062 22.4586 227.382 22.9029 226.635 23.1959C225.888 23.4889 225.09 23.6243 224.29 23.594H219.133V31.1158H217.664V11.3947H224.29C225.094 11.3685 225.896 11.509 226.645 11.8075C227.394 12.1059 228.075 12.5561 228.645 13.1303C229.216 13.7045 229.665 14.3906 229.964 15.1465C230.263 15.9024 230.406 16.7121 230.384 17.5259ZM228.884 17.5259C228.884 16.8907 228.81 16.2898 228.588 15.7124C228.367 15.135 228.03 14.6101 227.599 14.1708C227.167 13.7314 226.651 13.3872 226.081 13.1596C225.512 12.932 224.902 12.8261 224.29 12.8485H219.133V22.3298H224.29C224.908 22.3446 225.522 22.2287 226.093 21.9895C226.664 21.7503 227.179 21.3932 227.606 20.9409C228.032 20.4887 228.361 19.9513 228.57 19.3633C228.78 18.7752 228.884 18.1611 228.884 17.5259Z" fill="#312D2D"/>
<path d="M241.946 23.0241H235.695V31.1149H234.195V11.3937H241.884C243.285 11.3828 244.643 11.8901 245.701 12.8202C246.759 13.7502 247.444 15.0391 247.629 16.4444C247.813 17.8497 247.483 19.2746 246.701 20.4514C245.92 21.6281 244.74 22.4756 243.384 22.8345L248.228 31.1149H246.509L241.946 23.0241ZM235.695 21.6335H241.946C243.039 21.5399 244.057 21.0349 244.799 20.2184C245.54 19.4019 245.952 18.3335 245.952 17.2247C245.952 16.1159 245.54 15.0475 244.799 14.2311C244.057 13.4146 243.039 12.9096 241.946 12.8159H235.695V21.6335Z" fill="#312D2D"/>
<path d="M250.695 21.2547C250.695 19.242 251.286 17.2744 252.391 15.6009C253.497 13.9274 255.069 12.623 256.908 11.8528C258.747 11.0825 260.77 10.881 262.722 11.2737C264.674 11.6663 266.467 12.6356 267.875 14.0588C269.282 15.482 270.241 17.2953 270.629 19.2694C271.017 21.2435 270.818 23.2896 270.056 25.1492C269.295 27.0087 268.005 28.5981 266.35 29.7163C264.695 30.8345 262.749 31.4314 260.759 31.4314C259.436 31.4355 258.126 31.1751 256.903 30.6652C255.68 30.1553 254.569 29.4058 253.634 28.46C252.698 27.5142 251.957 26.3907 251.453 25.1541C250.949 23.9175 250.691 22.5923 250.695 21.2547ZM269.447 21.2547C269.441 19.5358 268.931 17.8573 267.981 16.4315C267.032 15.0058 265.686 13.8967 264.113 13.2447C262.54 12.5927 260.811 12.4269 259.145 12.7684C257.479 13.1099 255.951 13.9433 254.753 15.1632C253.556 16.3831 252.743 17.9347 252.417 19.6218C252.092 21.309 252.268 23.0558 252.924 24.6415C253.581 26.2272 254.687 27.5806 256.104 28.5304C257.521 29.4802 259.184 29.9838 260.884 29.9775C263.119 29.9114 265.24 28.9603 266.789 27.3289C268.338 25.6975 269.473 23.5162 269.447 21.2547Z" fill="#312D2D"/>
<path d="M30.3091 19.1113L30.2459 22.3122L27.5625 20.8372V17.7305L30.3091 19.1113Z" fill="#B0B0B0"/>
<path d="M44.7576 30.5348L33.3925 37.0308L29.3516 39.3844V34.8027L33.3925 32.4805L42.7687 27.1143L44.7576 30.5348Z" fill="#312D2D"/>
<path d="M43.312 14.6234L30.2422 22.3118L30.3053 19.1109L41.4494 12.6777L43.312 14.6234Z" fill="#312D2D"/>
<path d="M41.4532 12.6793L30.3091 19.1125L27.5625 17.7631L38.7697 11.3613L41.4532 12.6793Z" fill="#6D6D6D"/>
<path d="M27.2718 3.54668L17.9903 8.85014L13.7284 11.2979L9.6875 9.13257L13.9178 6.62206L25.2829 0.0947266L27.2718 3.54668Z" fill="#6D6D6D"/>
<path d="M40.8242 13.086L21.1562 2.51051L25.3866 0L44.8651 10.6697L40.8242 13.086Z" fill="#6D6D6D"/>
<path d="M40.8281 32.7919L44.869 30.501V10.668L40.8281 13.0843V32.7919Z" fill="#312D2D"/>
<path d="M19.6679 25.293L0 14.7174L4.26191 12.2383L23.7404 22.908L19.6679 25.293Z" fill="#6D6D6D"/>
<path d="M19.6641 44.9997L23.7366 42.7403V22.9072L19.6641 25.2922V44.9997Z" fill="#312D2D"/>
</svg>
