<svg width="271" height="220" viewBox="0 0 271 220" fill="none" xmlns="http://www.w3.org/2000/svg">
<rect opacity="0.8" width="271" height="220" rx="10" fill="#E3F0FF"/>
<path d="M163.614 72.6468C160.018 70.3532 155.114 70.0255 151.191 71.9915C147.922 73.9574 145.633 77.234 145.633 80.8383V98.5319L138.114 91.3234V33H131.575V91.3234L123.729 98.5319V80.8383C123.729 77.234 121.767 73.9574 118.171 71.9915C114.248 70.0255 109.344 70.0255 105.748 72.6468C55.7276 106.068 58.0161 144.732 58.0161 146.043V176.843C58.0161 180.119 59.6507 183.396 62.5931 185.034C64.5547 186.345 66.8432 187 69.1317 187C70.7663 187 72.7279 186.672 74.0356 186.017L117.844 165.702C121.44 164.064 124.056 160.46 124.056 156.528V107.051L124.383 107.379L135.172 97.2213L145.96 107.379L146.287 107.051V156.528C146.287 160.46 148.576 163.736 152.499 165.702L195.98 186.017C197.615 186.672 199.25 187 200.884 187C203.173 187 205.461 186.345 207.423 185.034C210.365 183.068 212 180.119 212 176.843V146.37C211.673 144.732 213.962 106.068 163.614 72.6468ZM114.902 159.477L71.4202 179.791C69.4586 180.774 67.497 180.447 66.1893 179.791C65.5355 179.464 64.5547 178.481 64.5547 176.843V146.043C64.5547 145.715 62.5931 109.345 109.671 78.217C111.633 76.9064 113.921 77.234 115.229 77.8894C115.883 78.217 117.19 79.2 117.19 80.8383V97.2213L102.152 112.621H92.3437L80.2473 122.779L84.4974 127.694L94.9591 119.174H100.517V127.366L87.7667 136.213L86.7859 142.766L68.1509 148.664L70.1125 154.889L85.4782 149.974L84.4974 156.528L91.036 157.511L93.3245 140.145L98.8823 136.213L105.421 144.732L110.652 140.8L104.113 132.609L106.075 130.97V117.536L116.537 107.051V156.855C117.19 157.838 116.537 158.821 114.902 159.477ZM205.134 146.043V176.843C205.134 178.481 204.154 179.136 203.5 179.791C202.192 180.447 200.231 181.102 198.269 180.119L154.787 159.804C153.48 159.149 152.499 157.838 152.499 156.528V106.723L162.961 117.209V130.643L164.922 132.281L158.384 140.472L163.614 144.404L170.153 135.885L175.711 139.817L177.999 157.183L184.538 156.2L183.557 149.647L198.923 154.562L200.884 148.336L182.576 142.766L181.596 136.213L169.172 127.038V118.847H174.73L185.192 127.366L189.442 122.451L177.345 112.621H167.538L152.499 97.5489V81.166C152.499 79.5277 153.807 78.5447 154.46 78.217C155.114 77.8894 156.095 77.5617 157.076 77.5617C158.057 77.5617 159.037 77.8894 160.018 78.5447C207.096 109.345 205.134 145.715 205.134 146.043Z" fill="black"/>
</svg>
