<svg width="271" height="220" viewBox="0 0 271 220" fill="none" xmlns="http://www.w3.org/2000/svg">
<rect opacity="0.8" width="271" height="220" rx="10" fill="#E3F0FF"/>
<path d="M201.064 111.88L189.667 92.7568C189.501 82.6323 186.881 72.6992 182.032 63.8096C177.184 54.92 170.251 47.3393 161.829 41.7179C153.407 36.0964 143.746 32.602 133.677 31.5345C123.608 30.4669 113.429 31.8579 104.016 35.5884C94.6019 39.3188 86.2337 45.2772 79.6289 52.9525C73.024 60.6277 68.3796 69.7907 66.0942 79.6553C63.8088 89.52 63.9506 99.7917 66.5073 109.59C69.0641 119.387 73.9595 128.419 80.7737 135.909V186.375C80.7737 187.154 81.0832 187.901 81.6341 188.452C82.185 189.003 82.9321 189.312 83.7112 189.312H143.372C144.151 189.312 144.898 189.003 145.449 188.452C146 187.901 146.309 187.154 146.309 186.375V167.487H176.36C179.907 167.471 183.304 166.049 185.804 163.532C188.304 161.016 189.704 157.61 189.696 154.062V128.477L195.571 126.479C196.998 126.006 198.3 125.216 199.379 124.169C200.458 123.122 201.287 121.845 201.804 120.433C202.321 119.021 202.512 117.511 202.364 116.014C202.215 114.518 201.731 113.075 200.947 111.792L201.064 111.88ZM196.364 118.46C196.151 119.029 195.814 119.543 195.377 119.964C194.94 120.386 194.414 120.705 193.838 120.898L185.819 123.571C185.211 123.776 184.686 124.173 184.326 124.704C183.965 125.234 183.788 125.868 183.821 126.509V154.062C183.825 155.046 183.635 156.021 183.262 156.931C182.889 157.842 182.341 158.669 181.648 159.368C180.955 160.066 180.132 160.621 179.224 161.001C178.317 161.381 177.344 161.579 176.36 161.582H143.372C142.593 161.582 141.846 161.892 141.295 162.443C140.744 162.994 140.434 163.741 140.434 164.52V183.437H86.6487V134.822C86.6653 134.685 86.6653 134.547 86.6487 134.411C86.6627 134.186 86.6627 133.96 86.6487 133.735C86.5425 133.526 86.4145 133.329 86.2668 133.147C86.209 133.033 86.1401 132.925 86.0612 132.824C79.5639 126.119 74.8165 117.918 72.2376 108.945C69.6586 99.9717 69.3275 90.5016 71.2734 81.37C73.2193 72.2384 77.3823 63.726 83.3954 56.5835C89.4085 49.441 97.0868 43.8879 105.753 40.4141C114.419 36.9403 123.807 35.6525 133.089 36.6642C142.371 37.6759 151.261 40.9562 158.975 46.2155C166.689 51.4749 172.991 58.5518 177.324 66.822C181.657 75.0923 183.888 84.3017 183.821 93.6381C183.808 93.6962 183.808 93.7563 183.821 93.8143C183.807 94.0099 183.807 94.2063 183.821 94.4018C183.872 94.594 183.941 94.7808 184.027 94.96C184.027 94.96 184.027 94.96 184.027 95.1362L195.777 114.906C196.127 115.42 196.36 116.004 196.462 116.618C196.563 117.232 196.53 117.86 196.364 118.46ZM149.893 51.25C139.582 45.8382 127.635 44.4259 116.347 47.2843C105.012 49.927 95.0526 56.6641 88.3818 66.2018C85.2132 70.6615 83.0319 75.7455 81.9833 81.1148C80.9348 86.4841 81.0432 92.0152 82.3012 97.3393C83.6525 102.979 85.9437 106.504 89.2925 108.12C90.7408 108.812 92.3284 109.164 93.9337 109.148C98.4575 109.148 103.686 106.739 109.855 103.919C115.809 101 122.025 98.6496 128.42 96.8987C134.911 95.5019 141.522 94.7346 148.16 94.6075C157.384 94.1668 164.669 93.8143 168.341 88.7325C170.573 85.795 170.984 81.5943 169.604 75.9543C168.256 70.6751 165.802 65.7425 162.404 61.4835C159.006 57.2245 154.741 53.7363 149.893 51.25ZM163.641 85.3837C161.614 88.0568 155.239 88.3212 147.866 88.7325C140.861 88.8674 133.886 89.684 127.039 91.1706C120.278 93.0076 113.707 95.4863 107.417 98.5731C100.69 101.657 94.9031 104.301 91.8775 102.832C90.2325 102.039 88.94 99.7187 88 95.9587C86.9426 91.4335 86.862 86.7349 87.7636 82.1762C88.6652 77.6174 90.5283 73.3032 93.2287 69.5212C99.0961 61.1831 107.827 55.2962 117.757 52.9831C121.153 52.1677 124.633 51.7536 128.126 51.7493C134.75 51.7088 141.281 53.3137 147.132 56.42C151.262 58.5401 154.893 61.5146 157.785 65.1459C160.677 68.7772 162.763 72.9823 163.905 77.4818C164.399 78.748 164.631 80.1015 164.585 81.46C164.54 82.8184 164.218 84.1535 163.641 85.3837Z" fill="black"/>
</svg>
