<svg width="86" height="90" viewBox="0 0 86 90" fill="none" xmlns="http://www.w3.org/2000/svg">
<rect width="86" height="90" fill="#C2C2C2"/>
<g id="All Patients">
<rect width="1440" height="1043" transform="translate(-802 -691)" fill="white"/>
<rect id="Rectangle 40515" x="-532" y="-681" width="1150" height="1023" rx="20" fill="#FAFAFB"/>
<g id="Group 1000005782">
<g id="Group 1000004648">
<rect id="Rectangle 40443" x="-511.5" y="-275.5" width="1109" height="597" rx="17.5" fill="white" stroke="#EDEDED"/>
<g id="Group 1000005428">
<g id="Group 40360">
<path id="Vector (Stroke)" fill-rule="evenodd" clip-rule="evenodd" d="M56.4695 75.1787C55.5402 75.1787 54.7156 75.6017 54.1944 76.2624C53.8377 76.7159 53.6261 77.278 53.6261 77.8867C53.6261 78.4956 53.838 79.0578 54.1946 79.5111C54.7156 80.1716 55.5402 80.5947 56.4695 80.5947C58.0405 80.5947 59.3129 79.3828 59.3129 77.8867C59.3129 76.3904 58.0407 75.1787 56.4695 75.1787ZM52.6664 75.1689C53.5331 74.0704 54.9138 73.3584 56.4695 73.3584C59.0963 73.3584 61.2242 75.3852 61.2242 77.8867C61.2242 80.3881 59.0961 82.4149 56.4695 82.4149C54.9138 82.4149 53.5329 81.7029 52.6663 80.6041L52.6658 80.6035C52.0709 79.8478 51.7148 78.9052 51.7148 77.8867C51.7148 76.8684 52.0707 75.9258 52.6658 75.1697L52.6664 75.1689Z" fill="#969696"/>
<path id="Vector (Stroke)_2" fill-rule="evenodd" clip-rule="evenodd" d="M24.5478 75.1787C23.6627 75.1787 22.8774 75.6017 22.381 76.2624C22.0413 76.7159 21.8398 77.278 21.8398 77.8867C21.8398 78.4956 22.0415 79.0578 22.3812 79.5111C22.8774 80.1716 23.6628 80.5947 24.5478 80.5947C26.044 80.5947 27.2558 79.3828 27.2558 77.8867C27.2558 76.3904 26.0441 75.1787 24.5478 75.1787ZM20.9258 75.1689C21.7512 74.0704 23.0661 73.3584 24.5478 73.3584C27.0495 73.3584 29.076 75.3852 29.076 77.8867C29.076 80.3881 27.0493 82.4149 24.5478 82.4149C23.0662 82.4149 21.751 81.7029 20.9257 80.6041L20.9252 80.6035C20.3586 79.8478 20.0195 78.9052 20.0195 77.8867C20.0195 76.8684 20.3584 75.9258 20.9252 75.1697L20.9258 75.1689Z" fill="#969696"/>
<path id="Vector (Stroke)_3" fill-rule="evenodd" clip-rule="evenodd" d="M26.4562 75.2344C26.6115 74.9172 26.9289 74.7168 27.2762 74.7168H53.5176C53.8648 74.7168 54.1822 74.9171 54.3375 75.2342C54.4928 75.5513 54.4595 75.9309 54.2513 76.2146C53.9088 76.6814 53.7055 77.2601 53.7055 77.8867C53.7055 78.5134 53.9087 79.0918 54.2513 79.5583C54.4596 79.842 54.4931 80.2216 54.3378 80.5388C54.1825 80.856 53.865 81.0564 53.5178 81.0564H27.2762C26.9289 81.0564 26.6115 80.856 26.4562 80.5387C26.3009 80.2215 26.3344 79.8419 26.5428 79.5582C26.8851 79.0921 27.0882 78.5137 27.0882 77.8867C27.0882 77.2598 26.8852 76.6813 26.5427 76.2149C26.3344 75.9312 26.3009 75.5516 26.4562 75.2344ZM28.7421 76.5895C28.859 77.0016 28.9219 77.437 28.9219 77.8867C28.9219 78.3363 28.859 78.7717 28.7421 79.1837H52.0518C51.9348 78.7717 51.8719 78.3364 51.8719 77.8867C51.8719 77.4369 51.9348 77.0015 52.0518 76.5895H28.7421Z" fill="#969696"/>
<path id="Vector (Stroke)_4" fill-rule="evenodd" clip-rule="evenodd" d="M14.1289 42.1025C14.1289 41.6085 14.5367 41.208 15.0398 41.208H43.3743C43.8774 41.208 44.2852 41.6085 44.2852 42.1025C44.2852 42.5965 43.8774 42.997 43.3743 42.997H15.9508V56.6264H64.8348V42.997H61.5611C61.0581 42.997 60.6502 42.5965 60.6502 42.1025C60.6502 41.6085 61.0581 41.208 61.5611 41.208H65.7458C66.2489 41.208 66.6567 41.6085 66.6567 42.1025V57.5209C66.6567 58.0149 66.2489 58.4154 65.7458 58.4154H15.0398C14.5367 58.4154 14.1289 58.0149 14.1289 57.5209V42.1025Z" fill="#969696"/>
<path id="Vector (Stroke)_5" fill-rule="evenodd" clip-rule="evenodd" d="M13.7936 57.2406C13.9178 56.8604 14.2697 56.6035 14.6665 56.6035H65.6695C66.0663 56.6035 66.4182 56.8604 66.5424 57.2406L69.7818 67.1595C69.8741 67.442 69.8264 67.7521 69.6536 67.9932C69.4808 68.2342 69.2038 68.377 68.909 68.377H11.4269C11.132 68.377 10.855 68.2342 10.6822 67.9932C10.5094 67.7521 10.4617 67.442 10.554 67.1595L13.7936 57.2406Z" fill="#696969"/>
<path id="Vector (Stroke)_6" fill-rule="evenodd" clip-rule="evenodd" d="M13.9228 41.7097C14.0783 41.4022 14.3963 41.208 14.7441 41.208H66.0476C66.3954 41.208 66.7134 41.4022 66.8689 41.7097L79.6948 67.064C79.8371 67.3454 79.8219 67.6795 79.6546 67.9471C79.4872 68.2147 79.1917 68.3776 78.8734 68.3776H1.9183C1.60004 68.3776 1.30447 68.2147 1.13715 67.9471C0.969828 67.6795 0.954618 67.3454 1.09695 67.064L13.9228 41.7097ZM15.3117 43.0233L3.40413 66.5623H77.3876L65.48 43.0233H15.3117Z" fill="#969696"/>
<path id="Vector (Stroke)_7" fill-rule="evenodd" clip-rule="evenodd" d="M1 67.4822C1 66.9759 1.41113 66.5654 1.91829 66.5654H78.8734C79.3806 66.5654 79.7917 66.9759 79.7917 67.4822V88.2899C79.7917 88.7963 79.3806 89.2067 78.8734 89.2067H1.91829C1.41113 89.2067 1 88.7963 1 88.2899V67.4822ZM2.83659 68.399V87.3732H77.9551V68.399H2.83659Z" fill="#969696"/>
<g id="Group">
<path id="Vector (Stroke)_8" fill-rule="evenodd" clip-rule="evenodd" d="M6.64589 31.9427C6.97787 31.6504 7.51115 31.7634 7.83702 32.195L11.0233 36.4157C11.3492 36.8474 11.3442 37.4343 11.0122 37.7266C10.6803 38.0189 10.147 37.906 9.82111 37.4743L6.63484 33.2536C6.30897 32.8219 6.31392 32.235 6.64589 31.9427Z" fill="white"/>
<path id="Vector (Stroke)_9" fill-rule="evenodd" clip-rule="evenodd" d="M13.1551 30.2479C13.6194 30.3464 13.9924 30.8408 13.988 31.3522L13.9577 34.8881C13.9533 35.3995 13.5733 35.7343 13.1089 35.6358C12.6445 35.5373 12.2716 35.0429 12.276 34.5315L12.3063 30.9956C12.3107 30.4842 12.6907 30.1494 13.1551 30.2479Z" fill="white"/>
<path id="Vector (Stroke)_10" fill-rule="evenodd" clip-rule="evenodd" d="M3.48407 38.1004C3.48731 37.5564 3.89035 37.1999 4.38431 37.3041L7.79939 38.0242C8.29334 38.1284 8.69115 38.6538 8.68792 39.1978C8.68468 39.7417 8.28163 40.0983 7.78768 39.9941L4.3726 39.2739C3.87864 39.1698 3.48084 38.6444 3.48407 38.1004Z" fill="white"/>
</g>
<g id="Group_2">
<path id="Vector" d="M26.1102 53.8193C26.0955 53.8193 26.0807 53.8189 26.0659 53.8182C25.3883 53.786 24.7279 53.701 24.1031 53.566C23.6087 53.4592 23.2944 52.9717 23.4014 52.4773C23.5084 51.983 23.9956 51.6688 24.49 51.7758C25.0166 51.8895 25.576 51.9612 26.1529 51.9886C26.6581 52.0126 27.0482 52.4418 27.0241 52.947C27.001 53.4374 26.596 53.8193 26.1102 53.8193ZM29.7506 53.522C29.3215 53.522 28.9383 53.2188 28.8529 52.7818C28.7556 52.2854 29.0793 51.8042 29.5757 51.7071C30.1265 51.5994 30.6995 51.4604 31.2783 51.2942C31.7647 51.1541 32.2719 51.4354 32.4115 51.9218C32.551 52.4079 32.27 52.9153 31.7839 53.0549C31.1543 53.2355 30.5299 53.387 29.9276 53.505C29.8682 53.5163 29.8091 53.522 29.7506 53.522ZM20.9642 52.1324C20.779 52.1324 20.592 52.0764 20.4303 51.9601C19.8805 51.5648 19.3733 51.1072 18.9229 50.6002C18.587 50.2221 18.6212 49.6431 18.9993 49.3069C19.3774 48.971 19.9564 49.0054 20.2923 49.3833C20.6534 49.7898 21.0595 50.1563 21.4998 50.473C21.9105 50.7683 22.0039 51.3406 21.7086 51.7514C21.5297 52 21.2491 52.1324 20.9642 52.1324ZM18.0933 47.6561C17.6374 47.6561 17.2424 47.316 17.1855 46.8518C17.106 46.2054 17.0492 45.5703 17.0169 44.9645C16.99 44.4593 17.3776 44.0282 17.8828 44.0012C18.3844 43.9721 18.8192 44.3619 18.8461 44.8669C18.8764 45.4307 18.9293 46.0233 19.0035 46.6282C19.0652 47.1302 18.7084 47.5873 18.2063 47.649C18.1684 47.6538 18.1305 47.6561 18.0933 47.6561ZM18.0719 42.1788C18.0273 42.1788 17.9823 42.1755 17.9369 42.1689C17.4364 42.0951 17.0908 41.6295 17.1646 41.129C17.2639 40.4569 17.406 39.8123 17.5872 39.213C17.7333 38.7289 18.2448 38.4545 18.7287 38.6012C19.213 38.7475 19.4869 39.2586 19.3405 39.7427C19.1852 40.2565 19.0628 40.8129 18.9768 41.3966C18.9095 41.8517 18.5184 42.1788 18.0719 42.1788ZM53.3231 40.2043C53.2972 40.2043 53.2714 40.2032 53.2452 40.201C52.6554 40.1514 52.0183 40.0686 51.3515 39.9549C50.8529 39.8697 50.5177 39.3965 50.6029 38.8979C50.6881 38.3993 51.1599 38.0634 51.66 38.1493C52.2755 38.2544 52.8605 38.3306 53.3987 38.3759C53.9028 38.4182 54.277 38.8611 54.2345 39.3652C54.1944 39.8429 53.7942 40.2043 53.3231 40.2043ZM56.9608 39.9865C56.5532 39.9865 56.1815 39.7125 56.0747 39.2996C55.9482 38.81 56.2425 38.3103 56.7322 38.1837C57.265 38.046 57.746 37.8456 58.162 37.5882C58.5918 37.3221 59.1565 37.4547 59.4228 37.8848C59.6892 38.3149 59.5564 38.8794 59.1263 39.1456C58.5537 39.5002 57.9025 39.7733 57.191 39.9572C57.1139 39.977 57.0368 39.9865 56.9608 39.9865ZM47.9336 39.1575C47.8543 39.1575 47.7739 39.1471 47.6935 39.1254C47.1352 38.9741 46.5518 38.8076 45.9094 38.616C45.4247 38.4715 45.149 37.9613 45.2933 37.4767C45.4379 36.992 45.9473 36.7159 46.4329 36.8606C47.0603 37.0477 47.6294 37.2101 48.1727 37.3572C48.6609 37.4895 48.9494 37.9925 48.8173 38.4808C48.7065 38.8888 48.337 39.1575 47.9336 39.1575ZM42.6754 37.5593C42.5821 37.5593 42.4874 37.545 42.394 37.5148L40.6505 36.9513C40.1692 36.796 39.9047 36.2798 40.06 35.7986C40.2153 35.3172 40.7315 35.0525 41.2127 35.208L42.9564 35.7715C43.4376 35.9268 43.7021 36.443 43.5467 36.9244C43.4218 37.3122 43.0622 37.5593 42.6754 37.5593ZM20.1665 37.1858C19.956 37.1858 19.7446 37.1136 19.5721 36.9663C19.1874 36.6377 19.142 36.0596 19.4706 35.6751C19.9122 35.1582 20.4174 34.6926 20.9725 34.291C21.382 33.9947 21.9548 34.0863 22.2512 34.4962C22.5478 34.906 22.4558 35.4786 22.0461 35.775C21.6086 36.0915 21.2106 36.458 20.8633 36.8647C20.6823 37.0768 20.4251 37.1858 20.1665 37.1858ZM60.9115 36.4888C60.7959 36.4888 60.6785 36.4668 60.5649 36.4203C60.3116 36.3166 60.1299 36.1127 60.0465 35.8731C59.8265 35.7969 59.6078 35.7114 59.3911 35.6171C58.9275 35.4148 58.7156 34.8752 58.9176 34.4114C59.1197 33.9478 59.6597 33.7355 60.1231 33.9379C60.2323 33.9855 60.3416 34.03 60.4515 34.0718C60.499 33.9106 60.5433 33.7516 60.5845 33.5957C60.7139 33.1066 61.2145 32.8145 61.7041 32.9443C62.1932 33.0737 62.4848 33.5748 62.3555 34.0639C62.3013 34.2687 62.2425 34.4779 62.1791 34.6898C62.3659 34.8928 62.4593 35.1774 62.4077 35.4702C62.3322 35.8981 61.9708 36.2038 61.5546 36.2258C61.3835 36.3937 61.1518 36.4888 60.9115 36.4888ZM37.4332 35.8993C37.3462 35.8993 37.2579 35.8869 37.1704 35.8607C36.5492 35.6749 35.9797 35.511 35.4289 35.3595C34.9411 35.2254 34.6546 34.7213 34.7887 34.2335C34.9228 33.7459 35.4267 33.4594 35.9147 33.5933C36.4785 33.7485 37.0608 33.9161 37.6952 34.1057C38.1799 34.2507 38.4552 34.7611 38.3103 35.2456C38.1916 35.6427 37.8274 35.8993 37.4332 35.8993ZM65.0746 35.7671C64.7423 35.7671 64.4217 35.5856 64.2592 35.2696C64.0281 34.8197 64.2054 34.2676 64.6553 34.0364C65.0907 33.8128 65.4873 33.5052 65.8342 33.1222C66.1738 32.7474 66.7528 32.7183 67.128 33.0581C67.5029 33.3977 67.5315 33.9769 67.1921 34.3519C66.6966 34.8988 66.1249 35.3408 65.4927 35.6658C65.3585 35.7345 65.2154 35.7671 65.0746 35.7671ZM32.1158 34.5077C32.0585 34.5077 32.0004 34.5022 31.942 34.4911C31.3633 34.3799 30.7784 34.2918 30.2036 34.2291C29.7008 34.1744 29.3376 33.7223 29.3923 33.2195C29.4473 32.7166 29.8996 32.3541 30.402 32.4082C31.0261 32.4763 31.6604 32.5717 32.2874 32.6923C32.7842 32.7877 33.1095 33.2678 33.0141 33.7646C32.93 34.2029 32.5463 34.5077 32.1158 34.5077ZM24.8358 34.4761C24.4211 34.4761 24.0454 34.1927 23.9456 33.7716C23.8287 33.2794 24.133 32.7857 24.6252 32.6688C25.2352 32.5239 25.8856 32.4186 26.5588 32.3556C27.06 32.3071 27.5089 32.6784 27.556 33.1821C27.6033 33.6856 27.2332 34.1322 26.7295 34.1793C26.1411 34.2344 25.5753 34.3258 25.0481 34.451C24.9771 34.4682 24.9058 34.4761 24.8358 34.4761ZM56.8402 33.5321C56.5735 33.5321 56.3092 33.4162 56.128 33.1929C55.6428 32.5939 55.2988 31.9682 55.1057 31.3329L55.0892 31.2772C54.9467 30.792 55.2244 30.283 55.7098 30.1403C56.1953 29.9978 56.7043 30.2758 56.8466 30.7609L56.8585 30.8006C56.9824 31.2084 57.2154 31.6251 57.5511 32.0396C57.8695 32.4327 57.809 33.0094 57.4161 33.3279C57.2465 33.4653 57.0426 33.5321 56.8402 33.5321ZM68.151 31.4187C68.0735 31.4187 67.9946 31.4088 67.9162 31.3879C67.4271 31.2584 67.1357 30.7572 67.265 30.2681C67.4011 29.7538 67.5079 29.1899 67.5822 28.5922C67.6449 28.0903 68.1045 27.735 68.6042 27.7965C69.1063 27.859 69.4625 28.3166 69.4001 28.8187C69.3155 29.4979 69.1929 30.1432 69.0359 30.7371C68.9271 31.1472 68.5566 31.4187 68.151 31.4187ZM61.9188 31.1256C61.4398 31.1256 61.037 30.7532 61.0058 30.2685C60.9694 29.7019 60.8582 29.2161 60.6754 28.8247C60.4616 28.3664 60.6596 27.8213 61.1181 27.6075C61.5763 27.3937 62.1216 27.5917 62.3355 28.0502C62.6149 28.6492 62.7826 29.3561 62.8338 30.1511C62.8664 30.6559 62.4833 31.0913 61.9787 31.1239C61.9585 31.125 61.9386 31.1256 61.9188 31.1256ZM56.8855 28.5959C56.6332 28.5959 56.3825 28.4924 56.2015 28.2895C55.8648 27.9117 55.8981 27.3329 56.2757 26.9962C56.8635 26.4723 57.5768 26.1199 58.3384 25.977C58.8361 25.8836 59.314 26.2111 59.4074 26.7083C59.5009 27.2054 59.1735 27.6841 58.6762 27.7773C58.2483 27.8575 57.8286 28.0658 57.4947 28.3636C57.32 28.5193 57.1022 28.5959 56.8855 28.5959ZM68.6698 26.0677C68.2697 26.0677 68.0415 25.8843 67.9035 25.6413C67.7771 25.4923 67.6971 25.3017 67.6874 25.0914C67.6826 24.9904 67.6773 24.8886 67.6713 24.7857C67.6707 24.7774 67.6702 24.7692 67.6698 24.7609C67.6617 24.6179 67.6588 24.5237 67.6588 24.4667C67.6588 23.8342 68.1336 23.4932 68.5802 23.4932C69.4037 23.4932 69.505 24.3028 69.5431 24.6074C69.5602 24.7433 69.5886 24.9915 69.5886 25.1282C69.5888 25.7164 69.1217 26.0677 68.6698 26.0677Z" fill="#B4B4B4"/>
</g>
<g id="Group_3">
<path id="Vector (Stroke)_11" fill-rule="evenodd" clip-rule="evenodd" d="M64.822 6.63565L66.4594 18.0973C66.4652 18.138 66.4683 18.1789 66.4686 18.22C66.4686 18.2208 66.4687 18.2222 66.4687 18.2241C66.469 18.2314 66.4696 18.2464 66.4711 18.2679C66.4742 18.3111 66.4809 18.3789 66.4948 18.4627C66.5235 18.6345 66.579 18.8497 66.6811 19.0537C66.7813 19.2542 66.9172 19.4268 67.104 19.5513C67.2851 19.672 67.5677 19.7839 68.0256 19.7839C68.4836 19.7839 68.7662 19.672 68.9472 19.5513C69.134 19.4268 69.27 19.2542 69.3702 19.0537C69.4722 18.8497 69.5278 18.6345 69.5565 18.4627C69.5704 18.3789 69.577 18.3111 69.5801 18.2679C69.5817 18.2464 69.5823 18.2314 69.5825 18.2241C69.5826 18.2222 69.5826 18.2208 69.5827 18.22C69.583 18.179 69.586 18.138 69.5918 18.0973L71.2292 6.63565C71.2284 6.61887 71.2272 6.59853 71.2255 6.57492C71.2192 6.48658 71.2061 6.35439 71.1793 6.19335C71.1249 5.86695 71.0178 5.44574 70.8127 5.03562C70.6095 4.62909 70.3189 4.25042 69.9003 3.97134C69.4874 3.69607 68.8957 3.48118 68.0256 3.48118C67.1555 3.48118 66.5638 3.69607 66.1509 3.97134C65.7323 4.25042 65.4418 4.62909 65.2385 5.03562C65.0335 5.44574 64.9264 5.86695 64.872 6.19335C64.8451 6.35439 64.8321 6.48658 64.8258 6.57492C64.8241 6.59853 64.8229 6.61887 64.822 6.63565ZM72.1471 6.68676C73.063 6.68676 73.063 6.6863 73.063 6.68582L73.063 6.68478L73.063 6.68241L73.0629 6.67651C73.0629 6.6739 73.0629 6.67095 73.0628 6.66766C73.0628 6.66533 73.0628 6.66284 73.0627 6.66017C73.0625 6.6473 73.0622 6.63047 73.0615 6.60997C73.0601 6.56898 73.0575 6.51309 73.0526 6.44442C73.0428 6.30737 73.0237 6.11757 72.9861 5.89221C72.9117 5.44584 72.7612 4.83668 72.4511 4.21644C72.1392 3.5926 71.6569 2.94091 70.9164 2.44722C70.1701 1.9497 69.2163 1.64941 68.0256 1.64941C66.835 1.64941 65.8811 1.9497 65.1349 2.44722C64.3943 2.94091 63.9121 3.5926 63.6002 4.21644C63.29 4.83668 63.1395 5.44584 63.0651 5.89221C63.0276 6.11757 63.0084 6.30737 62.9987 6.44442C62.9938 6.51309 62.9912 6.56898 62.9898 6.60997C62.9891 6.63047 62.9887 6.6473 62.9885 6.66017C62.9884 6.66661 62.9884 6.67207 62.9883 6.67651L62.9883 6.68241L62.9883 6.68478L62.9883 6.68582C62.9883 6.6863 62.9883 6.68676 63.9042 6.68676H62.9883C62.9883 6.7301 62.9914 6.77339 62.9975 6.81629L64.6387 18.3049C64.6398 18.3307 64.6414 18.3621 64.644 18.3984C64.6506 18.4904 64.6633 18.6158 64.688 18.7638C64.7366 19.0556 64.8356 19.4587 65.0427 19.8729C65.2516 20.2907 65.5793 20.7363 66.088 21.0754C66.6024 21.4184 67.2471 21.6156 68.0256 21.6156C68.8041 21.6156 69.4489 21.4184 69.9633 21.0754C70.472 20.7363 70.7997 20.2907 71.0086 19.8729C71.2157 19.4587 71.3147 19.0556 71.3633 18.7638C71.388 18.6158 71.4007 18.4904 71.4072 18.3984C71.4098 18.3621 71.4115 18.3307 71.4125 18.3049L73.0538 6.81629C73.0599 6.77339 73.063 6.7301 73.063 6.68676H72.1471Z" fill="#2D58E6"/>
<path id="Vector (Stroke)_12" fill-rule="evenodd" clip-rule="evenodd" d="M52.8151 11.1885C52.848 11.2847 52.8932 11.4074 52.9524 11.5494C53.1098 11.9269 53.3603 12.4265 53.7315 12.9213C54.4626 13.8958 55.6416 14.8374 57.5647 14.8374C60.2371 14.8374 62.5182 13.5321 63.823 12.5777L63.382 9.49086C62.0276 8.5781 59.95 7.53782 57.5647 7.53782C55.6417 7.53782 54.4628 8.47972 53.7316 9.45472C53.3604 9.94973 53.1098 10.4496 52.9525 10.8272C52.8933 10.9693 52.848 11.0922 52.8151 11.1885ZM51.8573 11.1885L50.9688 11.4108C50.9323 11.2649 50.9323 11.1123 50.9688 10.9664L51.8573 11.1885ZM52.2661 8.35574C53.2472 7.04745 54.922 5.70605 57.5647 5.70605C60.6963 5.70605 63.2939 7.1672 64.7659 8.22216C64.9689 8.36768 65.1037 8.5898 65.139 8.83707L65.7123 12.8505C65.7583 13.1724 65.6301 13.4947 65.3755 13.697C64.0719 14.733 61.1701 16.6692 57.5647 16.6692C54.9221 16.6692 53.2474 15.3284 52.2662 14.0205C51.7813 13.3741 51.461 12.7325 51.2616 12.2541C51.1614 12.0137 51.0903 11.8111 51.0434 11.665C51.0198 11.5919 51.0023 11.5326 50.9901 11.4896C50.984 11.468 50.9792 11.4505 50.9757 11.4373C50.9739 11.4307 50.9724 11.4251 50.9713 11.4207L50.9698 11.4149L50.9692 11.4126L50.969 11.4116C50.9689 11.4112 50.9688 11.4108 51.8573 11.1885C50.9688 10.9664 50.9689 10.9659 50.969 10.9655L50.9692 10.9645L50.9698 10.9623L50.9713 10.9564C50.9724 10.952 50.9739 10.9465 50.9756 10.9399C50.9792 10.9266 50.9839 10.9091 50.99 10.8876C51.0022 10.8445 51.0198 10.7852 51.0433 10.712C51.0903 10.5659 51.1614 10.3632 51.2616 10.1227C51.461 9.64418 51.7812 9.00238 52.2661 8.35574ZM72.6736 9.49087L72.2326 12.5777C73.5374 13.5321 75.8185 14.8374 78.4909 14.8374C80.4135 14.8374 81.5921 13.8959 82.3229 12.9214C82.6939 12.4266 82.9444 11.927 83.1017 11.5495C83.1608 11.4075 83.206 11.2847 83.2389 11.1885C83.206 11.0922 83.1608 10.9693 83.1016 10.8271C82.9443 10.4495 82.6938 9.94961 82.3227 9.45461C81.5918 8.47961 80.4132 7.53782 78.4909 7.53782C76.1058 7.53782 74.0281 8.5781 72.6736 9.49087ZM84.1967 11.1885C85.0853 10.9665 85.0852 10.966 85.0851 10.9656L85.0848 10.9646L85.0842 10.9624L85.0827 10.9565C85.0816 10.9521 85.0802 10.9466 85.0784 10.94C85.0749 10.9267 85.0701 10.9092 85.064 10.8877C85.0518 10.8446 85.0342 10.7853 85.0107 10.7121C84.9638 10.566 84.8927 10.3633 84.7926 10.1229C84.5932 9.6443 84.2731 9.0025 83.7884 8.35585C82.8076 7.04756 81.1332 5.70605 78.4909 5.70605C75.3595 5.70605 72.7617 7.1672 71.2898 8.22216C71.0868 8.36768 70.952 8.58979 70.9167 8.83707L70.3433 12.8505C70.2973 13.1724 70.4255 13.4947 70.6801 13.697C71.9838 14.733 74.8856 16.6692 78.4909 16.6692C81.1331 16.6692 82.8075 15.3283 83.7883 14.0204C84.2731 13.374 84.5932 12.7324 84.7925 12.254C84.8927 12.0136 84.9638 11.811 85.0107 11.6649C85.0342 11.5918 85.0518 11.5325 85.064 11.4894C85.0701 11.4679 85.0749 11.4504 85.0784 11.4371C85.0801 11.4305 85.0816 11.425 85.0827 11.4206L85.0842 11.4147L85.085 11.4115C85.0852 11.4111 85.0853 11.4106 84.1967 11.1885ZM84.1967 11.1885L85.0853 11.4106C85.1217 11.2648 85.1217 11.1123 85.0853 10.9665L84.1967 11.1885Z" fill="#2D58E6"/>
<path id="Vector (Stroke)_13" fill-rule="evenodd" clip-rule="evenodd" d="M70.8634 0.0745126C71.3282 0.274057 71.5433 0.812618 71.3437 1.27742L70.5194 3.19748C70.3199 3.66228 69.7813 3.87732 69.3165 3.67777C68.8517 3.47823 68.6367 2.93967 68.8362 2.47486L69.6605 0.55481C69.8601 0.0900047 70.3986 -0.125032 70.8634 0.0745126Z" fill="#2D58E6"/>
<path id="Vector (Stroke)_14" fill-rule="evenodd" clip-rule="evenodd" d="M65.1954 0.0745126C65.6602 -0.125032 66.1988 0.0900047 66.3983 0.55481L67.2226 2.47486C67.4222 2.93967 67.2071 3.47823 66.7423 3.67777C66.2775 3.87732 65.739 3.66228 65.5394 3.19748L64.7151 1.27742C64.5156 0.812618 64.7306 0.274057 65.1954 0.0745126Z" fill="#2D58E6"/>
<path id="Vector (Stroke)_15" fill-rule="evenodd" clip-rule="evenodd" d="M64.5234 16.9315C64.5234 16.4257 64.9335 16.0156 65.4393 16.0156H70.6871C71.193 16.0156 71.603 16.4257 71.603 16.9315C71.603 17.4373 71.193 17.8474 70.6871 17.8474H65.4393C64.9335 17.8474 64.5234 17.4373 64.5234 16.9315Z" fill="#2D58E6"/>
<path id="Vector (Stroke)_16" fill-rule="evenodd" clip-rule="evenodd" d="M64.0781 13.7508C64.0781 13.245 64.4882 12.835 64.994 12.835H71.1418C71.6476 12.835 72.0577 13.245 72.0577 13.7508C72.0577 14.2567 71.6476 14.6667 71.1418 14.6667H64.994C64.4882 14.6667 64.0781 14.2567 64.0781 13.7508Z" fill="#2D58E6"/>
</g>
</g>
</g>
</g>
</g>
</g>
</svg>
