<svg width="18" height="16" viewBox="0 0 18 16" fill="none" xmlns="http://www.w3.org/2000/svg">
<g id="Group 1000006125">
<path id="Vector" d="M15.25 8.625H7.125C6.95924 8.625 6.80027 8.69085 6.68306 8.80806C6.56585 8.92527 6.5 9.08424 6.5 9.25V11.75H1.5V5.5C1.5 5.33424 1.43415 5.17527 1.31694 5.05806C1.19973 4.94085 1.04076 4.875 0.875 4.875C0.70924 4.875 0.550269 4.94085 0.433058 5.05806C0.315848 5.17527 0.25 5.33424 0.25 5.5V14.875C0.25 15.0408 0.315848 15.1997 0.433058 15.3169C0.550269 15.4342 0.70924 15.5 0.875 15.5C1.04076 15.5 1.19973 15.4342 1.31694 15.3169C1.43415 15.1997 1.5 15.0408 1.5 14.875V13H16.5V14.875C16.5 15.0408 16.5658 15.1997 16.6831 15.3169C16.8003 15.4342 16.9592 15.5 17.125 15.5C17.2908 15.5 17.4497 15.4342 17.5669 15.3169C17.6842 15.1997 17.75 15.0408 17.75 14.875V11.125C17.7493 10.4622 17.4857 9.82669 17.017 9.358C16.5483 8.88931 15.9128 8.6257 15.25 8.625Z" fill="#312D2D"/>
<path id="Vector_2" d="M4 11.75C5.03553 11.75 5.875 10.9105 5.875 9.875C5.875 8.83947 5.03553 8 4 8C2.96447 8 2.125 8.83947 2.125 9.875C2.125 10.9105 2.96447 11.75 4 11.75Z" fill="#312D2D"/>
<path id="Vector_3" d="M9 0.5C8.83424 0.5 8.67527 0.565848 8.55806 0.683058C8.44085 0.800269 8.375 0.95924 8.375 1.125V2.375H7.125C6.95924 2.375 6.80027 2.44085 6.68306 2.55806C6.56585 2.67527 6.5 2.83424 6.5 3C6.5 3.16576 6.56585 3.32473 6.68306 3.44194C6.80027 3.55915 6.95924 3.625 7.125 3.625H8.375V4.875C8.375 5.04076 8.44085 5.19973 8.55806 5.31694C8.67527 5.43415 8.83424 5.5 9 5.5C9.16576 5.5 9.32473 5.43415 9.44194 5.31694C9.55915 5.19973 9.625 5.04076 9.625 4.875V3.625H10.875C11.0408 3.625 11.1997 3.55915 11.3169 3.44194C11.4342 3.32473 11.5 3.16576 11.5 3C11.5 2.83424 11.4342 2.67527 11.3169 2.55806C11.1997 2.44085 11.0408 2.375 10.875 2.375H9.625V1.125C9.625 0.95924 9.55915 0.800269 9.44194 0.683058C9.32473 0.565848 9.16576 0.5 9 0.5Z" fill="#312D2D"/>
</g>
</svg>
