<svg width="158" height="159" viewBox="0 0 158 159" fill="none" xmlns="http://www.w3.org/2000/svg">
<mask id="mask0_9469_101484" style="mask-type:alpha" maskUnits="userSpaceOnUse" x="19" y="19" width="120" height="120">
<path d="M99.4704 23.1766C101.707 23.75 103.839 24.6718 105.788 25.9082L115.779 32.2442C117.729 33.4805 119.472 35.016 120.944 36.7943L128.488 45.9077C129.961 47.686 131.144 49.6849 131.994 51.8311L136.353 62.8297C137.204 64.9759 137.711 67.2426 137.857 69.5466L138.603 81.3539C138.749 83.6578 138.531 85.9704 137.958 88.2066L135.02 99.6668C134.446 101.903 133.524 104.035 132.288 105.985L125.952 115.976C124.716 117.926 123.18 119.668 121.402 121.141L112.288 128.685C110.51 130.157 108.511 131.34 106.365 132.191L95.3664 136.549C93.2202 137.4 90.9535 137.907 88.6496 138.053L76.8423 138.8C74.5383 138.946 72.2257 138.728 69.9895 138.154L58.5294 135.216C56.2931 134.643 54.1611 133.721 52.2114 132.484L42.2202 126.148C40.2706 124.912 38.5278 123.377 37.0556 121.598L29.5113 112.485C28.0392 110.707 26.8562 108.708 26.0056 106.561L21.6467 95.5628C20.7962 93.4166 20.2887 91.15 20.143 88.846L19.3963 77.0387C19.2505 74.7347 19.4684 72.4222 20.0418 70.1859L22.9802 58.7258C23.5536 56.4895 24.4754 54.3575 25.7117 52.4079L32.0477 42.4167C33.2841 40.467 34.8196 38.7242 36.5979 37.2521L45.7113 29.7078C47.4896 28.2356 49.4885 27.0526 51.6347 26.202L62.6333 21.8432C64.7795 20.9926 67.0462 20.4852 69.3502 20.3395L81.1574 19.5927C83.4614 19.447 85.774 19.6648 88.0102 20.2382L99.4704 23.1766Z" fill="#D9D9D9"/>
<path d="M99.222 24.1453C101.357 24.6926 103.392 25.5725 105.253 26.7527L115.244 33.0887C117.105 34.2688 118.769 35.7345 120.174 37.432L127.718 46.5454C129.123 48.2428 130.253 50.1509 131.064 52.1996L135.423 63.1982C136.235 65.2468 136.72 67.4105 136.859 69.6097L137.605 81.417C137.745 83.6162 137.537 85.8237 136.989 87.9583L134.051 99.4184C133.504 101.553 132.624 103.588 131.443 105.449L125.107 115.44C123.927 117.301 122.462 118.965 120.764 120.37L111.651 127.915C109.953 129.32 108.045 130.449 105.997 131.261L94.998 135.62C92.9493 136.432 90.7857 136.916 88.5864 137.055L76.7792 137.802C74.5799 137.941 72.3725 137.733 70.2379 137.186L58.7777 134.247C56.6431 133.7 54.608 132.82 52.747 131.64L42.7558 125.304C40.8948 124.124 39.2311 122.658 37.8259 120.961L30.2816 111.847C28.8764 110.15 27.7471 108.242 26.9353 106.193L22.5764 95.1944C21.7645 93.1458 21.2801 90.9821 21.141 88.7829L20.3943 76.9756C20.2552 74.7763 20.4631 72.5689 21.0104 70.4343L23.9489 58.9742C24.4962 56.8396 25.3761 54.8044 26.5562 52.9434L32.8922 42.9522C34.0724 41.0912 35.5381 39.4276 37.2356 38.0224L46.3489 30.4781C48.0464 29.0729 49.9545 27.9436 52.0031 27.1317L63.0017 22.7728C65.0504 21.9609 67.214 21.4766 69.4133 21.3375L81.2206 20.5907C83.4198 20.4516 85.6272 20.6595 87.7618 21.2069L99.222 24.1453Z" stroke="white" stroke-opacity="0.2" stroke-width="2"/>
</mask>
<g mask="url(#mask0_9469_101484)">
<g style="mix-blend-mode:screen">
<g style="mix-blend-mode:screen">
<path d="M78.3008 -12.8826L93.1058 13.6041L54.0146 7.13221L19.6036 53.114L50.9948 59.399L64.1152 38.7723L81.2351 37.8994L65.2639 58.5951L42.3832 101.182L32.5396 106.489L16.1379 89.9024L74.0928 78.5792L81.055 96.6457L58.0096 119.164L93.2003 57.0411L103.999 82.2683L114.005 70.648L112.154 97.5161L131.136 103.627L79.3507 115.675L37.3516 140.372L73.0057 138.163L77.6442 163.116L42.2536 165.44L21.2882 181.848L14.315 161.26L-8.41406 135.761L-3.84365 201.128L41.0128 190.752L44.9309 211.356L66.9506 200.908L98.7678 137.384L120.469 128.319L120.752 150.026L130.963 122.638L148.662 87.5881L170.394 110.818L171.769 138.544L193.921 122.134L175.687 93.1512" stroke="white" stroke-opacity="0.2" stroke-width="0.8" stroke-miterlimit="10"/>
<path d="M171.88 138.759L130.963 122.638L120.533 128.588L112.155 97.5161L79.3514 115.675L81.0557 96.6457L98.7685 137.384L72.9756 137.886L42.2543 165.44L37.5785 140.259L58.0103 119.164L32.5403 106.489L74.0935 78.5792L50.9955 59.399L80.9722 38.0658L54.0153 7.1322L63.9051 38.949L19.6043 53.114L16.1386 89.9024L50.9362 59.3759L58.1553 119.095L73.0174 138.004L66.9052 201.141L41.053 190.611L42.2324 165.604L14.509 161.383L-3.84294 201.128L44.914 211.502L16.1123 90.056L-8.47266 135.628L32.4722 106.525L37.539 140.216L77.6427 163.047L79.3272 115.721L104.02 82.4449L131.209 103.737L148.81 87.6854L114.18 70.7888L93.201 57.0411L81.1699 38.0965L93.3218 13.7398L93.2076 57.2383L65.1833 58.5593L74.2451 78.6406L104.015 82.3271L148.718 87.7008L154.929 163.287L130.937 122.843L170.14 111" stroke="white" stroke-opacity="0.2" stroke-width="0.8" stroke-miterlimit="10"/>
<path d="M98.5831 137.502L120.752 150.026L154.99 163.336L66.9043 201.141L77.6418 163.047L98.5831 137.502Z" stroke="white" stroke-opacity="0.2" stroke-width="0.8" stroke-miterlimit="10"/>
<path d="M79.3521 115.675L98.7692 137.384L58.156 119.095L42.2507 100.975L103.946 82.3604L111.978 97.7594L64.9381 58.1471L16.2558 89.9946L54.2555 7.15784L114.007 70.648L93.3225 13.7398L77.6434 163.047L154.991 163.336L41.0538 190.611L73.0181 138.004L32.5411 106.489L14.5098 161.383L44.9148 211.502L21.1666 181.551" stroke="white" stroke-opacity="0.2" stroke-width="0.8" stroke-miterlimit="10"/>
</g>
<g style="mix-blend-mode:screen">
<path d="M63.8815 39.6734C64.6304 39.7963 64.7973 38.4395 64.0462 38.3166C63.2973 38.1937 63.1304 39.5505 63.8815 39.6734Z" fill="#589CFF" stroke="white" stroke-opacity="0.2" stroke-miterlimit="10"/>
</g>
<g style="mix-blend-mode:screen">
<path d="M50.9577 60.0849C51.7066 60.2078 51.8735 58.851 51.1224 58.7281C50.3735 58.6052 50.2066 59.962 50.9577 60.0849Z" fill="#589CFF" stroke="white" stroke-opacity="0.2" stroke-miterlimit="10"/>
</g>
<g style="mix-blend-mode:screen">
<path d="M65.0729 59.1584C65.8218 59.2813 65.9888 57.9244 65.2376 57.8016C64.4887 57.6787 64.3218 59.0355 65.0729 59.1584Z" fill="#589CFF" stroke="white" stroke-opacity="0.2" stroke-miterlimit="10"/>
</g>
<g style="mix-blend-mode:screen">
<path d="M74.0671 79.3396C74.816 79.4624 74.9829 78.1056 74.2318 77.9827C73.4828 77.8598 73.3159 79.2167 74.0671 79.3396Z" fill="#589CFF" stroke="white" stroke-opacity="0.2" stroke-miterlimit="10"/>
</g>
<g style="mix-blend-mode:screen">
<path d="M42.3268 101.681C43.0757 101.804 43.2427 100.447 42.4915 100.325C41.7426 100.202 41.5757 101.558 42.3268 101.681Z" fill="#589CFF" stroke="white" stroke-opacity="0.2" stroke-miterlimit="10"/>
</g>
<g style="mix-blend-mode:screen">
<path d="M79.2253 116.394C79.9742 116.517 80.1411 115.16 79.39 115.037C78.6411 114.914 78.4741 116.271 79.2253 116.394Z" fill="#589CFF" stroke="white" stroke-opacity="0.2" stroke-miterlimit="10"/>
</g>
<g style="mix-blend-mode:screen">
<path d="M111.965 98.3761C112.714 98.4989 112.881 97.1421 112.13 97.0192C111.381 96.8963 111.214 98.2532 111.965 98.3761Z" fill="#589CFF" stroke="white" stroke-opacity="0.2" stroke-miterlimit="10"/>
</g>
<g style="mix-blend-mode:screen">
<path d="M81.0299 97.4061C81.7789 97.529 81.9458 96.1721 81.1947 96.0492C80.4457 95.9264 80.2788 97.2832 81.0299 97.4061Z" fill="#589CFF" stroke="white" stroke-opacity="0.2" stroke-miterlimit="10"/>
</g>
<g style="mix-blend-mode:screen">
<path d="M103.901 83.0929C104.65 83.2157 104.817 81.8589 104.066 81.736C103.317 81.6131 103.15 82.97 103.901 83.0929Z" fill="#589CFF" stroke="white" stroke-opacity="0.2" stroke-miterlimit="10"/>
</g>
<g style="mix-blend-mode:screen">
<path d="M120.432 129.154C121.181 129.277 121.348 127.92 120.597 127.797C119.848 127.674 119.681 129.031 120.432 129.154Z" fill="#589CFF" stroke="white" stroke-opacity="0.2" stroke-miterlimit="10"/>
</g>
<g style="mix-blend-mode:screen">
<path d="M130.801 123.452C131.55 123.575 131.717 122.219 130.966 122.096C130.217 121.973 130.05 123.33 130.801 123.452Z" fill="#589CFF" stroke="white" stroke-opacity="0.2" stroke-miterlimit="10"/>
</g>
<g style="mix-blend-mode:screen">
<path d="M93.0846 58.009C93.8336 58.1319 94.0005 56.775 93.2494 56.6521C92.5004 56.5293 92.3335 57.8861 93.0846 58.009Z" fill="#589CFF" stroke="white" stroke-opacity="0.2" stroke-miterlimit="10"/>
</g>
<g style="mix-blend-mode:screen">
<path d="M58.0534 119.863C58.8023 119.986 58.9692 118.629 58.2181 118.506C57.4692 118.383 57.3023 119.74 58.0534 119.863Z" fill="#589CFF" stroke="white" stroke-opacity="0.2" stroke-miterlimit="10"/>
</g>
<g style="mix-blend-mode:screen">
<path d="M72.9342 138.795C73.6832 138.918 73.8501 137.561 73.099 137.438C72.35 137.315 72.1831 138.672 72.9342 138.795Z" fill="#589CFF" stroke="white" stroke-opacity="0.2" stroke-miterlimit="10"/>
</g>
<g style="mix-blend-mode:screen">
<path d="M80.9342 38.6391C81.6832 38.762 81.8501 37.4052 81.099 37.2823C80.35 37.1594 80.1831 38.5162 80.9342 38.6391Z" fill="#589CFF" stroke="white" stroke-opacity="0.2" stroke-miterlimit="10"/>
</g>
<g style="mix-blend-mode:screen">
<path d="M98.5924 138.148C99.3414 138.271 99.5083 136.914 98.7572 136.791C98.0082 136.668 97.8413 138.025 98.5924 138.148Z" fill="#589CFF" stroke="white" stroke-opacity="0.2" stroke-miterlimit="10"/>
</g>
<g style="mix-blend-mode:screen">
<path d="M130.969 104.341C131.718 104.464 131.885 103.107 131.134 102.985C130.385 102.862 130.218 104.219 130.969 104.341Z" fill="#589CFF" stroke="white" stroke-opacity="0.2" stroke-miterlimit="10"/>
</g>
<g style="mix-blend-mode:screen">
<path d="M114.61 71.1189C114.628 70.973 114.645 70.827 114.663 70.6837C114.678 70.5915 114.671 70.5019 114.645 70.4149C114.632 70.3278 114.601 70.2485 114.551 70.1768C114.507 70.1025 114.45 70.0436 114.379 70.0052C114.316 69.9515 114.243 69.9182 114.162 69.9105C114.109 69.9105 114.056 69.9105 114.004 69.9105C113.901 69.9259 113.808 69.9694 113.725 70.0437C113.69 70.0846 113.652 70.1256 113.617 70.1665C113.551 70.2638 113.512 70.3739 113.496 70.4968C113.479 70.6427 113.461 70.7886 113.444 70.932C113.428 71.0242 113.435 71.1138 113.461 71.2008C113.474 71.2879 113.505 71.3672 113.556 71.4389C113.6 71.5131 113.657 71.572 113.727 71.6104C113.791 71.6642 113.863 71.6975 113.944 71.7051C113.997 71.7051 114.05 71.7051 114.103 71.7051C114.206 71.6898 114.298 71.6463 114.382 71.572C114.417 71.5311 114.454 71.4901 114.489 71.4491C114.555 71.3519 114.595 71.2418 114.61 71.1189Z" fill="#589CFF" stroke="white" stroke-opacity="0.2" stroke-miterlimit="10"/>
</g>
<g style="mix-blend-mode:screen">
<path d="M19.5163 53.8409C20.2652 53.9638 20.4321 52.6069 19.681 52.4841C18.9321 52.3612 18.7652 53.718 19.5163 53.8409Z" fill="#589CFF" stroke="white" stroke-opacity="0.2" stroke-miterlimit="10"/>
</g>
<g style="mix-blend-mode:screen">
<path d="M32.4909 107.172C33.2398 107.295 33.4067 105.938 32.6556 105.816C31.9067 105.693 31.7398 107.05 32.4909 107.172Z" fill="#589CFF" stroke="white" stroke-opacity="0.2" stroke-miterlimit="10"/>
</g>
</g>
</g>
<path fill-rule="evenodd" clip-rule="evenodd" d="M63.9986 20.3978C42.2338 25.7517 25.1016 42.8841 19.748 64.649H28.0273C32.9988 47.312 46.6617 33.649 63.9986 28.6771V20.3978ZM63.9986 129.621C46.9965 124.745 33.5279 111.51 28.325 94.649H20.0032C25.6293 115.938 42.5683 132.628 63.9986 137.9V129.621ZM93.9986 137.645V129.324C110.529 124.223 123.573 111.179 128.674 94.649H136.995C131.457 115.606 114.956 132.107 93.9986 137.645ZM93.9986 28.9743V20.6526C115.288 26.2785 131.979 43.218 137.251 64.649H128.971C124.096 47.6462 110.861 34.1771 93.9986 28.9743Z" fill="white"/>
<path d="M72.1167 102.194L50.921 77.5785C49.4442 75.8633 51.5046 73.4004 53.4536 74.5513L72.4165 85.7491C73.1646 86.1909 74.1124 86.0991 74.7619 85.5221L107.232 56.6733C109.073 55.0376 111.667 57.5278 110.109 59.4343L75.1806 102.155C74.3935 103.117 72.9281 103.136 72.1167 102.194Z" fill="white"/>
</svg>
