<svg width="19" height="20" viewBox="0 0 19 20" fill="none" xmlns="http://www.w3.org/2000/svg">
<g id="Vector">
<path fill-rule="evenodd" clip-rule="evenodd" d="M12.8902 4.51158C12.8902 7.00423 10.8713 9.02316 8.37865 9.02316C5.886 9.02316 3.86707 7.00423 3.86707 4.51158C3.86707 2.01893 5.886 0 8.37865 0C10.8713 0 12.8902 2.01893 12.8902 4.51158ZM0 13.7925C0 11.0495 5.58231 9.66767 8.37865 9.66767C10.1161 9.66767 12.929 10.2011 14.8103 11.2631C12.4998 12.4727 10.8235 14.7286 10.4107 17.4018H0V13.7925Z" fill="#312D2D"/>
<path d="M14.4109 11.2387C13.5445 11.2387 12.6975 11.4956 11.9771 11.9769C11.2567 12.4583 10.6952 13.1425 10.3637 13.9429C10.0321 14.7434 9.94536 15.6242 10.1144 16.474C10.2834 17.3237 10.7006 18.1043 11.3133 18.7169C11.9259 19.3296 12.7065 19.7468 13.5563 19.9158C14.406 20.0849 15.2868 19.9981 16.0873 19.6665C16.8877 19.335 17.5719 18.7735 18.0533 18.0531C18.5346 17.3327 18.7915 16.4857 18.7915 15.6193C18.7902 14.4579 18.3282 13.3445 17.507 12.5233C16.6857 11.702 15.5723 11.24 14.4109 11.2387ZM16.3097 14.6799L14.3185 17.0693C14.283 17.1118 14.2391 17.1464 14.1895 17.1709C14.14 17.1955 14.0858 17.2094 14.0306 17.2119H14.0126C13.907 17.2119 13.8057 17.1699 13.7311 17.0952L12.5364 15.9005C12.4638 15.8254 12.4237 15.7248 12.4246 15.6204C12.4255 15.516 12.4674 15.4161 12.5412 15.3422C12.615 15.2684 12.7149 15.2265 12.8193 15.2256C12.9238 15.2247 13.0244 15.2648 13.0995 15.3374L13.986 16.2239L15.6984 14.1689C15.7319 14.1288 15.773 14.0956 15.8194 14.0713C15.8657 14.047 15.9164 14.0321 15.9685 14.0274C16.0206 14.0227 16.0731 14.0284 16.123 14.044C16.173 14.0596 16.2194 14.0848 16.2595 14.1184C16.2997 14.1519 16.3328 14.193 16.3571 14.2393C16.3814 14.2857 16.3963 14.3363 16.401 14.3884C16.4057 14.4406 16.4001 14.4931 16.3845 14.543C16.3689 14.5929 16.3432 14.6397 16.3097 14.6799Z" fill="#312D2D"/>
</g>
</svg>
