<svg width="25" height="25" viewBox="0 0 25 25" fill="none" xmlns="http://www.w3.org/2000/svg">
<path d="M12.5 0C19.4036 0 25 5.59644 25 12.5C25 19.4036 19.4036 25 12.5 25C5.59644 25 0 19.4036 0 12.5C0 5.59644 5.59644 0 12.5 0ZM12.5 2.16602C6.79284 2.16602 2.16602 6.79284 2.16602 12.5C2.16616 18.207 6.79293 22.833 12.5 22.833C18.207 22.8329 22.8329 18.207 22.833 12.5C22.833 6.79293 18.207 2.16616 12.5 2.16602Z" fill="#D526C3"/>
<path d="M3.1896 13.2605H0.876953V11.7383H3.1896C3.60675 11.7383 3.95072 12.0749 3.95072 12.4994C3.95072 12.9239 3.61407 13.2605 3.1896 13.2605ZM21.8079 13.2605H24.1205V11.7383H21.8079C21.3907 11.7383 21.0467 12.0749 21.0467 12.4994C21.0467 12.9239 21.3834 13.2605 21.8079 13.2605Z" fill="#D526C3"/>
<path d="M11.7402 3.19789V0.87793H13.2625V3.19058C13.2625 3.60773 12.9258 3.9517 12.5014 3.9517C12.0842 3.9517 11.7402 3.61505 11.7402 3.19789ZM11.7402 21.8088V24.1215H13.2625V21.8088C13.2625 21.3917 12.9258 21.0477 12.5014 21.0477C12.0842 21.0477 11.7402 21.3917 11.7402 21.8088Z" fill="#D526C3"/>
<path d="M5.37763 6.46223L3.73828 4.82289L4.8141 3.74707L6.45344 5.38641C6.7535 5.68647 6.7535 6.16218 6.45344 6.46223C6.1607 6.75497 5.67768 6.75497 5.37763 6.46223ZM18.5436 19.6209L20.183 21.2602L21.2588 20.1844L19.6194 18.5451C19.3194 18.245 18.8437 18.245 18.5436 18.5451C18.2436 18.8451 18.2436 19.3282 18.5436 19.6209Z" fill="#D526C3"/>
<path d="M19.6194 6.46223L21.2588 4.82289L20.183 3.74707L18.5436 5.38641C18.2436 5.68647 18.2436 6.16218 18.5436 6.46223C18.8363 6.75497 19.3194 6.75497 19.6194 6.46223ZM6.45344 19.6209L4.8141 21.2602L3.73828 20.1844L5.37763 18.5451C5.67768 18.245 6.15339 18.245 6.45344 18.5451C6.7535 18.8451 6.7535 19.3282 6.45344 19.6209Z" fill="#D526C3"/>
<path d="M16.2035 17.0962L11.9515 12.8441C11.8051 12.6978 11.7246 12.5002 11.7246 12.2952V8.47498C11.7246 8.04319 12.0686 7.69922 12.5004 7.69922C12.9322 7.69922 13.2761 8.04319 13.2761 8.47498V11.9732L17.3013 15.9984C17.6014 16.2985 17.6014 16.7888 17.3013 17.0962C16.9939 17.3962 16.5036 17.3962 16.2035 17.0962Z" fill="#D526C3"/>
</svg>
