<svg width="14" height="12" viewBox="0 0 14 12" fill="none" xmlns="http://www.w3.org/2000/svg">
<path id="Vector" d="M3.75 7.73938H4.8225C4.90917 7.73938 4.99323 7.72326 5.0747 7.69101C5.15617 7.65876 5.22918 7.61039 5.29375 7.5459L8.3325 4.51464C8.43 4.4179 8.50323 4.30761 8.5522 4.18378C8.60117 4.05995 8.62543 3.93913 8.625 3.82132C8.62457 3.70351 8.6003 3.58806 8.5522 3.47498C8.5041 3.3619 8.43628 3.25699 8.34875 3.16025L7.7475 2.54755C7.65 2.4508 7.54167 2.37835 7.4225 2.3302C7.30333 2.28204 7.17875 2.25775 7.04875 2.25732C6.92958 2.25732 6.81042 2.28161 6.69125 2.3302C6.57208 2.37878 6.46375 2.45123 6.36625 2.54755L3.295 5.56268C3.23 5.62717 3.18125 5.69984 3.14875 5.78067C3.11625 5.86151 3.1 5.9447 3.1 6.03027V7.09443C3.1 7.27717 3.1624 7.43045 3.2872 7.55428C3.412 7.67811 3.56627 7.73981 3.75 7.73938ZM7.0325 4.45014L6.415 3.85357L7.04875 3.22474L7.65 3.83744L7.0325 4.45014ZM6.48 7.73938H10.25C10.4342 7.73938 10.5886 7.67747 10.7134 7.55364C10.8382 7.42981 10.9004 7.27674 10.9 7.09443C10.8996 6.91213 10.8372 6.75906 10.7128 6.63523C10.5884 6.5114 10.4342 6.44948 10.25 6.44948H7.78L6.48 7.73938ZM3.1 10.3192L1.605 11.8026C1.39917 12.0068 1.16343 12.0526 0.897801 11.9399C0.632168 11.8273 0.499568 11.6256 0.500001 11.335V1.2899C0.500001 0.935175 0.627401 0.631619 0.882201 0.37923C1.137 0.12684 1.44293 0.000429966 1.8 0H12.2C12.5575 0 12.8636 0.12641 13.1184 0.37923C13.3732 0.632049 13.5004 0.935605 13.5 1.2899V9.02928C13.5 9.384 13.3728 9.68777 13.1184 9.94059C12.8641 10.1934 12.5579 10.3196 12.2 10.3192H3.1Z" fill="#312D2D"/>
</svg>
