<svg width="18" height="18" viewBox="0 0 18 18" fill="none" xmlns="http://www.w3.org/2000/svg">
<g id="Group 1000006129">
<path id="Vector" d="M9.45911 8.03407C8.87474 6.45868 7.30578 5.32953 5.45703 5.32953C3.10891 5.32953 1.20703 7.14495 1.20703 9.38635C1.20703 11.6277 3.10891 13.4432 5.45703 13.4432C7.30578 13.4432 8.87474 12.314 9.45911 10.7386H12.5404V13.4432H15.3737V10.7386H16.7904V8.03407H9.45911ZM5.45703 10.7386C4.67432 10.7386 4.04036 10.1335 4.04036 9.38635C4.04036 8.63922 4.67432 8.03407 5.45703 8.03407C6.23974 8.03407 6.8737 8.63922 6.8737 9.38635C6.8737 10.1335 6.23974 10.7386 5.45703 10.7386Z" fill="#312D2D"/>
<path id="Vector_2" d="M16.6579 6.31076C16.1976 5.51617 15.4604 4.92021 14.5882 4.63746C15.006 4.38827 15.3307 4.00848 15.5124 3.55642C15.694 3.10436 15.7225 2.60504 15.5936 2.13515C15.4647 1.66526 15.1854 1.25078 14.7987 0.955386C14.4119 0.659986 13.9392 0.5 13.4529 0.5C12.9667 0.5 12.4939 0.659986 12.1072 0.955386C11.7204 1.25078 11.4412 1.66526 11.3122 2.13515C11.1833 2.60504 11.2118 3.10436 11.3935 3.55642C11.5751 4.00848 11.8998 4.38827 12.3177 4.63746C11.4454 4.9202 10.7083 5.51615 10.248 6.3107C10.2263 6.34828 10.2149 6.39092 10.2148 6.43434C10.2148 6.47776 10.2262 6.52042 10.2478 6.55804C10.2695 6.59565 10.3006 6.62689 10.3381 6.6486C10.3756 6.67032 10.4182 6.68176 10.4615 6.68176L16.4443 6.68182C16.4877 6.68182 16.5302 6.67039 16.5677 6.64867C16.6053 6.62695 16.6364 6.59572 16.658 6.5581C16.6797 6.52049 16.6911 6.47783 16.691 6.43441C16.691 6.39099 16.6796 6.34834 16.6579 6.31076Z" fill="#312D2D"/>
</g>
</svg>
