<svg width="271" height="220" viewBox="0 0 271 220" fill="none" xmlns="http://www.w3.org/2000/svg">
<rect opacity="0.8" width="271" height="220" rx="10" fill="#E3F0FF"/>
<g clip-path="url(#clip0_3612_54587)">
<path fill-rule="evenodd" clip-rule="evenodd" d="M218.378 190.127C221.477 190.127 224.021 187.67 224.124 184.57C224.391 175.807 223.697 159.038 215.229 151.906C203.507 142.03 187.6 140.7 177.689 134.994C167.778 129.288 155.105 119.777 155.483 100.682C155.858 81.5878 168.2 84.0775 169.283 61.7656C169.9 49.0792 163.374 29.7515 137.29 28.2661C110.334 26.7328 102.983 40.6631 98.9678 49.3609C96.2653 55.2202 92.3458 60.3511 90.0764 63.0747C89.0606 64.2553 88.9494 65.965 89.7985 67.2683C92.0506 70.3101 95.882 75.786 95.8897 77.3308C95.8993 79.0156 95.8993 81.9155 95.8973 84.4704C95.8993 87.1959 97.814 89.5458 100.484 90.0978C104.756 91.0101 110.495 93.5727 110.746 100.682C111.146 112.057 106.33 126.045 88.2613 131.933C70.1948 137.821 54.5548 143.513 50.8078 157.61C48.3698 166.786 47.881 177.793 47.8369 184.359C47.8331 185.883 48.433 187.344 49.5083 188.423C50.5835 189.5 52.044 190.106 53.5658 190.106C80.1251 190.127 192.373 190.127 218.378 190.127Z" fill="#FAC7A5"/>
<path fill-rule="evenodd" clip-rule="evenodd" d="M102.707 42.4123C108.408 38.3567 116.803 35.5737 129.652 36.3058C155.736 37.7913 162.26 57.1189 161.645 69.8053C160.56 92.1173 148.221 89.6275 147.843 108.721C147.467 127.817 160.138 137.328 170.051 143.034C179.962 148.739 195.869 150.07 207.591 159.946C215.315 166.451 216.569 180.974 216.529 190.126H218.378C221.478 190.126 224.021 187.669 224.124 184.57C224.391 175.807 223.697 159.038 215.229 151.906C203.507 142.029 187.6 140.699 177.689 134.993C167.778 129.287 155.105 119.777 155.483 100.681C155.859 81.5871 168.2 84.0768 169.283 61.7649C169.9 49.0785 163.374 29.7508 137.29 28.2654C116.866 27.102 107.697 34.8185 102.707 42.4123ZM98.5003 126.874C95.6924 128.889 92.3095 130.614 88.2615 131.932C72.8611 136.952 59.2221 141.83 53.2114 151.892C60.2322 146.823 70.0091 143.432 80.6236 139.973C89.4058 137.111 95.058 132.335 98.5003 126.874Z" fill="#F20D0D" fill-opacity="0.15"/>
<path fill-rule="evenodd" clip-rule="evenodd" d="M134.118 80.7225V68.4788C134.118 66.8918 132.83 65.6038 131.243 65.6038C129.656 65.6038 128.368 66.8918 128.368 68.4788V83.5553C123.983 80.9141 117.295 75.1584 116.797 64.4596C116.724 62.8745 115.377 61.6478 113.792 61.7206C112.207 61.7954 110.98 63.1409 111.053 64.726C111.795 80.6899 123.613 87.8141 128.368 90.0451V109.382C117.761 132.804 105.22 137.726 93.5344 141.73C88.0336 143.612 82.7225 145.341 77.8254 148.406C58.1164 160.738 59.941 177.451 59.941 177.451C60.0905 179.03 61.4954 180.192 63.0748 180.042C64.6541 179.895 65.8156 178.49 65.6661 176.91C65.6661 176.91 64.6388 163.44 80.8749 153.28C83.2362 151.802 85.7049 150.667 88.2483 149.676C85.7585 154.261 83.4125 161.027 82.6727 170.76C82.5539 172.343 83.7403 173.725 85.3234 173.846C86.9047 173.964 88.2866 172.778 88.4074 171.197C89.7797 153.128 97.1589 147.005 98.3299 146.14C99.1656 145.841 100.005 145.531 100.845 145.203C110.112 141.594 119.682 136.122 128.368 121.787V144.776C121.251 156.082 106.848 160.41 106.848 160.41C105.33 160.872 104.471 162.48 104.933 163.998C105.395 165.516 107.001 166.373 108.519 165.913C108.519 165.913 111.011 165.148 114.541 163.448C113.199 166.591 111.959 170.3 111.379 174.183C111.143 175.753 112.226 177.217 113.796 177.453C115.363 177.687 116.83 176.604 117.063 175.036C118.417 166.012 123.831 158.077 124.213 157.527C125.629 156.431 127.032 155.218 128.368 153.88V181.28C128.368 182.867 129.656 184.155 131.243 184.155C132.83 184.155 134.118 182.867 134.118 181.28V145.586V121.327C140.228 131.443 146.434 138.071 152.644 142.88C154.122 145.343 161.291 158.436 154.78 170.585C154.03 171.985 154.557 173.729 155.956 174.478C157.356 175.228 159.1 174.7 159.849 173.301C164.583 164.464 163.397 155.206 161.325 148.594C168.739 152.758 176.087 155.434 183.21 159.497C183.712 159.783 184.2 160.069 184.68 160.352C185.441 162.677 187.143 169.15 184.67 174.553C184.011 175.996 184.645 177.704 186.088 178.363C187.532 179.024 189.239 178.388 189.899 176.945C191.748 172.905 191.844 168.402 191.415 164.734C202.073 172.423 203.499 177.798 203.499 177.798C203.841 179.346 205.376 180.33 206.924 179.989C208.475 179.647 209.456 178.114 209.115 176.563C209.115 176.563 207.298 166.622 186.058 154.503C169.344 144.967 151.119 143.673 134.118 109.331V89.3666C138.02 85.4835 151.793 70.0313 145.051 51.2326C144.514 49.7376 142.868 48.9614 141.373 49.4961C139.879 50.0328 139.101 51.6792 139.638 53.1742C143.816 64.8237 138.526 74.9169 134.118 80.7225Z" fill="#F65C5C"/>
<path fill-rule="evenodd" clip-rule="evenodd" d="M93.0132 79.3123C93.0228 81.0181 93.0228 83.7608 93.0209 86.1912C93.0209 86.1931 93.0209 86.1931 93.0209 86.195C93.0228 90.2852 95.8959 93.8099 99.8998 94.6379C103.131 95.3279 107.68 97.0989 107.869 102.508C108.235 112.86 103.812 125.563 87.3686 130.922C78.1188 133.937 69.4976 136.925 62.7011 140.941C55.368 145.272 50.0971 150.808 48.0271 158.595C45.5316 167.985 45.0045 183.387 44.9585 190.109C44.949 191.694 46.2293 192.992 47.8144 193.003C49.4014 193.013 50.699 191.734 50.7085 190.147C50.7526 183.734 51.203 169.031 53.5835 160.071C55.2625 153.761 59.6843 149.403 65.626 145.892C72.1024 142.066 80.3345 139.264 89.1511 136.391C108.841 129.972 114.054 114.702 113.615 102.305C113.305 93.4937 106.376 90.1414 101.082 89.0106C101.077 89.0087 101.071 89.0068 101.063 89.0068C99.7292 88.7308 98.7709 87.5558 98.7709 86.1931C98.7728 83.6324 98.7728 80.7268 98.7632 79.0382C98.7594 78.3098 98.3741 76.9682 97.5193 75.3984C96.2121 73.0045 93.822 69.6005 92.1795 67.3791C92.0568 67.1433 92.0875 66.8673 92.2542 66.6738C92.2638 66.6623 92.2734 66.6508 92.283 66.6393C94.6577 63.7892 98.7479 58.4168 101.577 52.2892C103.428 48.2757 106.004 43.0221 111.273 38.9818C116.584 34.9088 124.588 32.1469 137.123 32.8599C146.709 33.4062 153.446 36.4997 158.011 40.8505C164.79 47.3116 166.745 56.4273 166.408 63.3483C165.908 73.6753 162.803 78.2619 159.778 82.4767C156.225 87.4313 152.809 91.9622 152.604 102.349C152.202 122.809 165.632 133.096 176.252 139.208C181.35 142.143 187.976 143.984 194.85 146.33C201.207 148.5 207.799 151.128 213.376 155.828C216.36 158.342 218.122 162.821 219.299 167.707C221.234 175.749 221.403 184.955 221.25 190.04C221.202 191.627 222.45 192.953 224.037 193.001C225.622 193.049 226.948 191.799 226.996 190.214C227.161 184.783 226.958 174.95 224.888 166.361C223.394 160.159 220.868 154.622 217.079 151.431C210.934 146.252 203.71 143.279 196.707 140.889C190.217 138.673 183.934 136.996 179.121 134.225C169.918 128.927 158.005 120.191 158.354 102.462C158.525 93.7543 161.471 89.9843 164.451 85.8308C167.961 80.9376 171.57 75.615 172.152 63.6282C172.555 55.3271 170.107 44.4366 161.979 36.6875C156.604 31.5662 148.735 27.7616 137.451 27.1195C123.03 26.2992 113.884 29.7338 107.775 34.4182C101.625 39.1351 98.5179 45.1956 96.3559 49.8799C93.7856 55.4498 90.0577 60.3238 87.8881 62.9305C86.0442 65.1002 85.8468 68.1975 87.3897 70.5627C87.4204 70.6106 87.453 70.6566 87.4855 70.7026C89.2585 73.0984 92.7066 78.8043 93.0132 79.3123Z" fill="black"/>
<path fill-rule="evenodd" clip-rule="evenodd" d="M134.114 189.266V68.4775C134.114 66.8925 132.826 65.6025 131.239 65.6025C129.654 65.6025 128.364 66.8925 128.364 68.4775V189.266C128.364 190.853 129.654 192.141 131.239 192.141C132.826 192.141 134.114 190.853 134.114 189.266Z" fill="black"/>
<path fill-rule="evenodd" clip-rule="evenodd" d="M209.113 176.564C209.113 176.564 207.296 166.621 186.055 154.504C169.246 144.913 150.908 143.659 133.822 108.735C133.125 107.311 131.402 106.719 129.976 107.417C128.552 108.114 127.959 109.838 128.657 111.264C146.57 147.88 165.582 149.442 183.205 159.496C201.393 169.873 203.497 177.797 203.497 177.797C203.836 179.347 205.372 180.329 206.922 179.988C208.471 179.648 209.454 178.113 209.113 176.564Z" fill="black"/>
<path fill-rule="evenodd" clip-rule="evenodd" d="M65.6642 176.909C65.6642 176.909 64.6349 163.439 80.871 153.279C86.9986 149.445 93.8487 147.927 100.843 145.202C112.113 140.813 123.831 133.669 133.865 111.169C134.513 109.72 133.859 108.02 132.41 107.373C130.961 106.727 129.261 107.378 128.613 108.827C117.955 132.726 105.308 137.694 93.5306 141.729C88.0317 143.613 82.7187 145.34 77.8216 148.405C58.1144 160.736 59.9391 177.45 59.9391 177.45C60.0886 179.031 61.4916 180.192 63.0728 180.043C64.6522 179.893 65.8137 178.49 65.6642 176.909ZM152.388 142.469C152.388 142.469 162 157.106 154.778 170.586C154.028 171.985 154.555 173.728 155.954 174.477C157.352 175.226 159.096 174.699 159.845 173.302C168.564 157.03 157.212 139.339 157.212 139.339C156.347 138.009 154.567 137.627 153.235 138.492C151.903 139.354 151.523 141.137 152.388 142.469ZM184.361 159.464C184.361 159.464 187.742 167.836 184.668 174.552C184.007 175.995 184.643 177.703 186.086 178.362C187.528 179.023 189.236 178.387 189.897 176.946C193.885 168.229 189.715 157.363 189.715 157.363C189.134 155.887 187.464 155.159 185.989 155.738C184.511 156.318 183.783 157.988 184.361 159.464ZM108.517 165.911C108.517 165.911 125.692 160.641 133.715 147.044C134.522 145.677 134.068 143.912 132.701 143.105C131.335 142.3 129.57 142.754 128.765 144.121C121.803 155.916 106.844 160.411 106.844 160.411C105.326 160.871 104.469 162.479 104.929 163.997C105.391 165.515 106.999 166.373 108.517 165.911Z" fill="black"/>
<path fill-rule="evenodd" clip-rule="evenodd" d="M119.528 154.189C119.528 154.189 112.973 163.521 111.375 174.182C111.139 175.752 112.224 177.216 113.791 177.452C115.361 177.687 116.826 176.605 117.061 175.035C118.464 165.68 124.23 157.497 124.23 157.497C125.144 156.2 124.831 154.404 123.532 153.491C122.234 152.579 120.44 152.892 119.528 154.189ZM95.5295 141.094C95.5295 141.094 84.4492 147.341 82.6706 170.761C82.5498 172.342 83.7381 173.724 85.3194 173.844C86.9026 173.965 88.2845 172.777 88.4033 171.196C89.8964 151.558 98.485 146.028 98.485 146.028C99.8458 145.213 100.289 143.446 99.474 142.085C98.6594 140.723 96.8922 140.28 95.5295 141.094ZM133.125 90.3085C133.125 90.3085 152.861 73.0163 145.047 51.2315C144.512 49.7384 142.863 48.9603 141.37 49.4969C139.877 50.0317 139.099 51.68 139.634 53.1731C146.208 71.4983 129.355 85.9653 129.355 85.9653C128.157 87.0061 128.028 88.8231 129.069 90.021C130.108 91.2189 131.925 91.3473 133.125 90.3085Z" fill="black"/>
<path fill-rule="evenodd" clip-rule="evenodd" d="M132.153 85.411C132.153 85.411 117.539 80.4718 116.795 64.458C116.72 62.8729 115.375 61.6463 113.79 61.721C112.205 61.7938 110.978 63.1413 111.051 64.7263C111.981 84.744 130.325 90.862 130.325 90.862C131.83 91.3661 133.461 90.5553 133.967 89.0508C134.471 87.5462 133.658 85.9151 132.153 85.411Z" fill="black"/>
</g>
<defs>
<clipPath id="clip0_3612_54587">
<rect width="184" height="184" fill="white" transform="translate(44 18)"/>
</clipPath>
</defs>
</svg>
