<svg width="30" height="30" viewBox="0 0 30 30" fill="none" xmlns="http://www.w3.org/2000/svg">
<g clip-path="url(#clip0_6685_54689)">
<path d="M1.7733 27.0409C2.1984 27.2209 2.6121 27.2782 2.9652 27.2782C4.0281 27.2461 4.6761 26.9059 5.4348 26.5015L5.436 26.5006L5.4372 26.5C5.6313 26.389 5.8329 26.2633 6.0381 26.131C7.05 25.4776 8.2068 24.5575 9.6681 23.2528C11.4174 21.6865 13.5741 19.5739 16.2369 16.771C16.9752 15.9946 17.0907 14.8534 16.6011 13.9624C16.0569 14.0902 15.4905 14.1598 14.9076 14.1598C14.0592 14.1598 13.2441 14.0146 12.4842 13.7506C10.0128 16.3408 8.0199 18.2863 6.4659 19.6774C6.0627 20.0395 5.6871 20.3647 5.3409 20.6545L5.2416 19.8745C5.484 19.6672 5.745 19.4386 6.0249 19.1869C7.6341 17.7451 9.5862 15.8257 11.8248 13.4854C11.3766 13.2793 10.9521 13.0303 10.557 12.7429C10.2795 12.631 9.9768 12.568 9.6594 12.568V12.5674C8.7792 12.5758 8.0976 12.8464 7.5078 13.1539C6.4833 13.7077 5.6475 14.4631 4.8258 15.3256C3.6087 16.6207 2.49 18.1723 1.6167 19.675C1.1808 20.428 0.8085 21.1657 0.5229 21.886C0.2448 22.6204 0.0159 23.2891 0 24.2017C0.0063 24.718 0.0792 25.4398 0.6546 26.1901C0.9375 26.5528 1.3497 26.8657 1.7733 27.0409Z" fill="white"/>
<path d="M17.5555 15.04C17.5762 15.8569 17.2777 16.6336 16.714 17.2264C14.1679 19.9063 11.9443 22.0996 10.1074 23.7451C8.79277 24.919 7.73047 25.777 6.79297 26.4208L6.79297 65.4457C6.79297 67.4947 8.45407 69.1546 10.5025 69.1546C12.5503 69.1546 14.2114 67.4947 14.2114 65.4457L14.2114 38.3644H15.6019L15.6019 65.4457C15.6019 67.4947 17.263 69.1546 19.3114 69.1546C21.3592 69.1546 23.0203 67.4947 23.0203 65.4457L23.0203 20.458C23.1982 20.8228 23.3773 21.241 23.5543 21.7291C24.3994 24.0733 25.111 27.9184 25.108 33.9211C25.1086 35.5744 25.0546 37.3924 24.9391 39.3889C24.862 40.7125 25.8721 41.8477 27.1954 41.9239C27.2431 41.9269 27.2902 41.9281 27.3373 41.9284C28.5994 41.9284 29.6569 40.9435 29.7313 39.6676C29.8516 37.588 29.908 35.6779 29.9086 33.9214C29.8963 24.8668 28.45 19.8556 26.4778 16.8418C25.4923 15.346 24.3397 14.3869 23.2744 13.8553C22.2601 13.3441 21.3676 13.2244 20.8252 13.2163C20.7838 13.2142 20.7433 13.21 20.7016 13.21L18.5305 13.21C18.1243 13.4389 17.6947 13.63 17.2462 13.7797C17.4361 14.1679 17.5441 14.5948 17.5555 15.04Z" fill="white"/>
<path d="M14.9063 13.5C18.6342 13.5 21.6563 10.4779 21.6563 6.75C21.6563 3.02208 18.6342 0 14.9063 0C11.1783 0 8.15625 3.02208 8.15625 6.75C8.15625 10.4779 11.1783 13.5 14.9063 13.5Z" fill="white"/>
</g>
<defs>
<clipPath id="clip0_6685_54689">
<rect width="30" height="30" fill="white"/>
</clipPath>
</defs>
</svg>
