<svg width="25" height="25" viewBox="0 0 25 25" fill="none" xmlns="http://www.w3.org/2000/svg">
<path d="M22.8365 1.92308H21.1538V0.961538C21.1538 0.430769 20.7231 0 20.1923 0C19.6615 0 19.2308 0.430769 19.2308 0.961538V1.92308H5.76923V0.961538C5.76923 0.430769 5.33846 0 4.80769 0C4.27692 0 3.84615 0.430769 3.84615 0.961538V1.92308H2.16346C0.970673 1.92308 0 2.89375 0 4.08654V6.73077H25V4.08654C25 2.89375 24.0293 1.92308 22.8365 1.92308Z" fill="#C9311A"/>
<path d="M0 22.837C0 24.0298 0.970673 25.0005 2.16346 25.0005H22.8365C24.0293 25.0005 25 24.0298 25 22.837V8.6543H0V22.837ZM7.97404 12.2187C7.59856 11.8432 7.59856 11.2346 7.97404 10.8591C8.34904 10.4836 8.95865 10.4836 9.33365 10.8591L12.5 14.0255L15.6663 10.8591C16.0418 10.4836 16.6505 10.4836 17.026 10.8591C17.4014 11.2346 17.4014 11.8432 17.026 12.2187L13.8596 15.3851L17.026 18.5514C17.4014 18.9269 17.4014 19.5355 17.026 19.911C16.838 20.099 16.5923 20.1928 16.3462 20.1928C16.1 20.1928 15.8543 20.099 15.6663 19.911L12.5 16.7447L9.33365 19.911C9.14615 20.099 8.9 20.1928 8.65385 20.1928C8.40769 20.1928 8.16154 20.099 7.97404 19.911C7.59856 19.5355 7.59856 18.9269 7.97404 18.5514L11.1404 15.3851L7.97404 12.2187Z" fill="#C9311A"/>
</svg>
