<svg width="30" height="25" viewBox="0 0 30 25" fill="none" xmlns="http://www.w3.org/2000/svg">
<path d="M25 13.542H11.4583C11.1821 13.542 10.9171 13.6517 10.7218 13.8471C10.5264 14.0424 10.4167 14.3074 10.4167 14.5837V18.7503H2.08333V8.33366C2.08333 8.05739 1.97359 7.79244 1.77824 7.59709C1.58289 7.40174 1.31793 7.29199 1.04167 7.29199C0.765399 7.29199 0.500447 7.40174 0.305097 7.59709C0.109747 7.79244 0 8.05739 0 8.33366V23.9587C0 24.2349 0.109747 24.4999 0.305097 24.6952C0.500447 24.8906 0.765399 25.0003 1.04167 25.0003C1.31793 25.0003 1.58289 24.8906 1.77824 24.6952C1.97359 24.4999 2.08333 24.2349 2.08333 23.9587V20.8337H27.0833V23.9587C27.0833 24.2349 27.1931 24.4999 27.3884 24.6952C27.5838 24.8906 27.8487 25.0003 28.125 25.0003C28.4013 25.0003 28.6662 24.8906 28.8616 24.6952C29.0569 24.4999 29.1667 24.2349 29.1667 23.9587V17.7087C29.1655 16.6039 28.7261 15.5448 27.945 14.7637C27.1638 13.9825 26.1047 13.5432 25 13.542Z" fill="#2D58E6"/>
<path d="M6.25 18.75C7.97589 18.75 9.375 17.3509 9.375 15.625C9.375 13.8991 7.97589 12.5 6.25 12.5C4.52411 12.5 3.125 13.8991 3.125 15.625C3.125 17.3509 4.52411 18.75 6.25 18.75Z" fill="#2D58E6"/>
<path d="M14.5807 0C14.3045 0 14.0395 0.109747 13.8442 0.305097C13.6488 0.500448 13.5391 0.765399 13.5391 1.04167V3.125H11.4557C11.1795 3.125 10.9145 3.23475 10.7192 3.4301C10.5238 3.62545 10.4141 3.8904 10.4141 4.16667C10.4141 4.44293 10.5238 4.70789 10.7192 4.90324C10.9145 5.09859 11.1795 5.20833 11.4557 5.20833H13.5391V7.29167C13.5391 7.56793 13.6488 7.83289 13.8442 8.02824C14.0395 8.22359 14.3045 8.33333 14.5807 8.33333C14.857 8.33333 15.1219 8.22359 15.3173 8.02824C15.5126 7.83289 15.6224 7.56793 15.6224 7.29167V5.20833H17.7057C17.982 5.20833 18.2469 5.09859 18.4423 4.90324C18.6376 4.70789 18.7474 4.44293 18.7474 4.16667C18.7474 3.8904 18.6376 3.62545 18.4423 3.4301C18.2469 3.23475 17.982 3.125 17.7057 3.125H15.6224V1.04167C15.6224 0.765399 15.5126 0.500448 15.3173 0.305097C15.1219 0.109747 14.857 0 14.5807 0Z" fill="#2D58E6"/>
</svg>
