<svg width="29" height="29" viewBox="0 0 29 29" fill="none" xmlns="http://www.w3.org/2000/svg">
<path d="M14.5 0C6.525 0 0 6.525 0 14.5C0 22.475 6.525 29 14.5 29C22.475 29 29 22.475 29 14.5C29 6.525 22.475 0 14.5 0ZM14.4094 13.5938C16.4031 13.5938 18.125 15.225 18.125 17.2188C18.125 18.9406 17.2188 20.3 15.4062 20.7531V21.75C15.4062 22.2938 15.0437 22.6562 14.5 22.6562C13.9563 22.6562 13.5938 22.2938 13.5938 21.75V20.7531C12.6875 20.3906 10.875 18.9406 10.875 17.2188C10.875 16.675 11.3281 16.3125 11.8719 16.3125C12.4156 16.3125 12.7781 16.675 12.7781 17.2188C12.7781 18.2156 13.5938 19.0312 14.5906 19.0312C15.5875 19.0312 16.4031 18.2156 16.4031 17.2188C16.4031 16.2219 15.5875 15.4062 14.5906 15.4062C12.5969 15.4062 11.0562 13.775 11.0562 11.7812C11.0562 10.0594 12.8688 8.7 13.775 8.24688V7.25C13.775 6.70625 14.1375 6.34375 14.6813 6.34375C15.225 6.34375 15.5875 6.70625 15.5875 7.25V8.24688C17.4 8.60938 18.3063 10.0594 18.3063 11.7812C18.3063 12.325 17.9437 12.6875 17.4906 12.6875C17.0375 12.6875 16.5844 12.325 16.5844 11.7812C16.5844 10.7844 15.7687 9.96875 14.7719 9.96875C13.775 9.96875 12.9594 10.7844 12.9594 11.7812C12.9594 12.7781 13.4125 13.5938 14.4094 13.5938Z" fill="#28A745"/>
</svg>
