<svg width="19" height="25" viewBox="0 0 19 25" fill="none" xmlns="http://www.w3.org/2000/svg">
<path d="M9.69077 7.47376C11.014 7.47376 12.0875 6.08609 12.0875 4.77448C12.0875 3.46342 11.014 2.40078 9.69077 2.40078C8.3673 2.40078 7.29461 3.46342 7.29461 4.77448C7.29461 6.08582 8.3673 7.47376 9.69077 7.47376ZM12.0206 8.14543H7.36089C6.02417 8.14543 4.60128 9.29671 4.60128 10.5648H14.78C14.7802 9.29671 13.3579 8.14543 12.0206 8.14543ZM15.7278 0H3.65343C2.07836 0 0.796875 1.26975 0.796875 2.83005V21.9356C0.796875 23.4959 2.07836 24.7657 3.65343 24.7657H15.7281C17.3034 24.7657 18.5852 23.4959 18.5852 21.9356V2.83005C18.5849 1.26975 17.3032 0 15.7278 0ZM13.3413 18.7707H10.9071V21.1824H8.47501V18.7707H6.04019V16.3617H8.47501V13.95H10.9071V16.3617H13.3413V18.7707ZM17.4802 11.213H1.9016V2.83005C1.9016 1.87302 2.68762 1.09437 3.65343 1.09437H15.7281C16.6942 1.09437 17.4805 1.87302 17.4805 2.83005L17.4802 11.213Z" fill="#098B0D"/>
</svg>
