<svg width="25" height="25" viewBox="0 0 25 25" fill="none" xmlns="http://www.w3.org/2000/svg">
<path fill-rule="evenodd" clip-rule="evenodd" d="M25 12.5C25 19.4036 19.4036 25 12.5 25C5.59644 25 0 19.4036 0 12.5C0 5.59644 5.59644 0 12.5 0C19.4036 0 25 5.59644 25 12.5ZM22.8335 12.4997C22.8335 18.2069 18.2069 22.8335 12.4997 22.8335C6.79258 22.8335 2.16602 18.2069 2.16602 12.4997C2.16602 6.79258 6.79258 2.16602 12.4997 2.16602C18.2069 2.16602 22.8335 6.79258 22.8335 12.4997Z" fill="#00864E"/>
<path d="M3.18765 13.2605H0.875V11.7383H3.18765C3.6048 11.7383 3.94877 12.0749 3.94877 12.4994C3.94877 12.9239 3.61212 13.2605 3.18765 13.2605ZM21.8059 13.2605H24.1186V11.7383H21.8059C21.3888 11.7383 21.0448 12.0749 21.0448 12.4994C21.0448 12.9239 21.3814 13.2605 21.8059 13.2605Z" fill="#00864E"/>
<path d="M11.7422 3.19789V0.87793H13.2644V3.19058C13.2644 3.60773 12.9278 3.9517 12.5033 3.9517C12.0862 3.9517 11.7422 3.61505 11.7422 3.19789ZM11.7422 21.8088V24.1215H13.2644V21.8088C13.2644 21.3917 12.9278 21.0477 12.5033 21.0477C12.0862 21.0477 11.7422 21.3917 11.7422 21.8088Z" fill="#00864E"/>
<path d="M5.37763 6.46223L3.73828 4.82289L4.8141 3.74707L6.45344 5.38641C6.7535 5.68647 6.7535 6.16218 6.45344 6.46223C6.1607 6.75497 5.67768 6.75497 5.37763 6.46223ZM18.5436 19.6209L20.183 21.2602L21.2588 20.1844L19.6194 18.5451C19.3194 18.245 18.8437 18.245 18.5436 18.5451C18.2436 18.8451 18.2436 19.3282 18.5436 19.6209Z" fill="#00864E"/>
<path d="M19.6194 6.46223L21.2588 4.82289L20.183 3.74707L18.5436 5.38641C18.2436 5.68647 18.2436 6.16218 18.5436 6.46223C18.8363 6.75497 19.3194 6.75497 19.6194 6.46223ZM6.45344 19.6209L4.8141 21.2602L3.73828 20.1844L5.37763 18.5451C5.67768 18.245 6.15339 18.245 6.45344 18.5451C6.7535 18.8451 6.7535 19.3282 6.45344 19.6209Z" fill="#00864E"/>
<path d="M16.2055 17.0962L11.9534 12.8441C11.8071 12.6978 11.7266 12.5002 11.7266 12.2952V8.47498C11.7266 8.04319 12.0705 7.69922 12.5023 7.69922C12.9341 7.69922 13.2781 8.04319 13.2781 8.47498V11.9732L17.3033 15.9984C17.6033 16.2985 17.6033 16.7888 17.3033 17.0962C16.9959 17.3962 16.5055 17.3962 16.2055 17.0962Z" fill="#00864E"/>
</svg>
