<svg width="26" height="25" viewBox="0 0 26 25" fill="none" xmlns="http://www.w3.org/2000/svg">
<path d="M11.9135 4.98101e-06C13.6099 -0.00210043 15.2377 0.663317 16.4389 1.84993C17.6402 3.03655 18.3165 4.6472 18.3192 6.32772C18.3189 8.00748 17.6453 9.61839 16.4467 10.8065C15.248 11.9946 13.6222 12.6627 11.9266 12.6641C11.087 12.6651 10.2555 12.5023 9.47948 12.1849C8.70346 11.8675 7.99818 11.4018 7.40392 10.8143C6.80966 10.2268 6.33807 9.52907 6.01608 8.76099C5.69409 7.9929 5.52801 7.1695 5.52735 6.33781C5.52599 4.65851 6.19801 3.04743 7.3956 1.85891C8.59319 0.670378 10.2183 0.00172544 11.9135 4.98101e-06Z" fill="#FFC300"/>
<path d="M19.0906 12.8782C20.7085 12.8762 22.261 13.5108 23.4067 14.6425C24.5524 15.7742 25.1974 17.3103 25.2 18.9131C25.1996 20.5151 24.5573 22.0515 23.4141 23.1846C22.2709 24.3178 20.7203 24.955 19.1031 24.9563C18.3024 24.9573 17.5094 24.802 16.7693 24.4993C16.0292 24.1966 15.3565 23.7524 14.7897 23.1921C14.223 22.6318 13.7732 21.9663 13.4661 21.2338C13.159 20.5012 13.0006 19.7159 13 18.9227C12.9987 17.3211 13.6396 15.7846 14.7818 14.6511C15.924 13.5175 17.4739 12.8798 19.0906 12.8782Z" fill="#FFC300"/>
<path d="M13.6254 13.7335C10.8709 16.6244 11.1082 21.008 13.533 23.604C13.4383 23.6112 13.3633 23.622 13.2876 23.622C9.54705 23.622 5.80598 23.622 2.06443 23.622C0.845873 23.622 0.0131241 22.7978 0.0102124 21.5878C0.0102124 20.8775 -0.0327381 20.1592 0.0575252 19.459C0.222765 18.1827 0.994372 17.2402 1.97271 16.4571C3.2 15.4749 4.62455 14.8779 6.1219 14.4437C8.42871 13.7753 10.7894 13.5849 13.1828 13.6931C13.3233 13.6996 13.4638 13.7183 13.6254 13.7335Z" fill="#FFC300"/>
<path d="M21.9323 20.9911H21.5013V17.0969C21.5013 16.9773 21.3979 16.8749 21.2772 16.8749H17.5703V16.4479H21.2772C21.6392 16.4479 21.9323 16.7382 21.9323 17.0969V20.9911Z" fill="#FFF6DC"/>
<path d="M21.706 21.2984L20.2405 19.6075L20.5509 19.3342L21.706 20.6835L22.8612 19.3342L23.1715 19.6075L21.706 21.2984ZM20.6198 21.1959H16.913C16.5509 21.1959 16.2578 20.9055 16.2578 20.5469V16.6527H16.6888V20.5469C16.6888 20.6664 16.7923 20.7689 16.913 20.7689H20.6198V21.1959Z" fill="#FFF6DC"/>
<path d="M17.6207 18.3095L16.4655 16.9602L15.3103 18.3095L15 18.0362L16.4655 16.3453L17.931 18.0362L17.6207 18.3095Z" fill="#FFF6DC"/>
</svg>
