<svg width="14" height="12" viewBox="0 0 14 12" fill="none" xmlns="http://www.w3.org/2000/svg">
<g id="Group 1000006130">
<path id="Vector" d="M3.24938 11.0817C2.69797 11.2294 2.13118 10.9023 1.98342 10.3508L0.512038 4.85949C0.364292 4.30808 0.691517 3.74129 1.24294 3.59355L11.2271 0.918293C11.7785 0.770534 12.3453 1.09777 12.4931 1.64918L13.9645 7.1405C14.1122 7.69191 13.785 8.25869 13.2336 8.40644L3.24938 11.0817Z" fill="#312D2D"/>
<path id="Vector_2" d="M1.03364 9.87614C0.462774 9.87614 0 9.41337 0 8.8425V3.15748C0 2.58663 0.462774 2.12384 1.03364 2.12384H11.37C11.9409 2.12384 12.4037 2.58663 12.4037 3.15748V8.8425C12.4037 9.41337 11.9409 9.87614 11.37 9.87614H1.03364Z" fill="#312D2D"/>
<path id="Vector_3" d="M1.03516 3.15727H7.237V4.19091H1.03516V3.15727ZM1.03516 4.70773H4.13608V5.74137H1.03516V4.70773ZM10.8547 2.76965H11.3716V3.80329H10.8547V2.76965ZM10.8547 4.57852H11.3716V5.61216H10.8547V4.57852ZM10.8547 6.38739H11.3716V7.42103H10.8547V6.38739ZM10.8547 8.19626H11.3716V9.2299H10.8547V8.19626Z" fill="white"/>
</g>
</svg>
