<svg width="12" height="16" viewBox="0 0 12 16" fill="none" xmlns="http://www.w3.org/2000/svg">
<g id="Group 1000006127">
<path id="Vector" d="M9.78104 5.5H2.21543C1.8392 5.5 1.47839 5.65804 1.21236 5.93934C0.946329 6.22064 0.796875 6.60218 0.796875 7V14C0.796875 14.3978 0.946329 14.7794 1.21236 15.0607C1.47839 15.342 1.8392 15.5 2.21543 15.5H9.78104C10.1573 15.5 10.5181 15.342 10.7841 15.0607C11.0501 14.7794 11.1996 14.3978 11.1996 14V7C11.1996 6.60218 11.0501 6.22064 10.7841 5.93934C10.5181 5.65804 10.1573 5.5 9.78104 5.5ZM6.56565 10C6.79101 10.0013 7.00677 10.0966 7.16612 10.2651C7.32547 10.4336 7.41554 10.6617 7.41678 10.9V12.1C7.41554 12.3383 7.32547 12.5664 7.16612 12.7349C7.00677 12.9034 6.79101 12.9987 6.56565 13H6.47108V13.3C6.47108 13.4326 6.42127 13.5598 6.33259 13.6536C6.24391 13.7473 6.12364 13.8 5.99823 13.8C5.87283 13.8 5.75255 13.7473 5.66388 13.6536C5.5752 13.5598 5.52538 13.4326 5.52538 13.3V13H5.05253C4.92712 13 4.80685 12.9473 4.71818 12.8536C4.6295 12.7598 4.57968 12.6326 4.57968 12.5C4.57968 12.3674 4.6295 12.2402 4.71818 12.1464C4.80685 12.0527 4.92712 12 5.05253 12H6.47108V11H5.43081C5.20546 10.9987 4.98969 10.9034 4.83034 10.7349C4.67099 10.5664 4.58092 10.3383 4.57968 10.1V8.9C4.58092 8.66171 4.67099 8.43355 4.83034 8.26505C4.98969 8.09656 5.20546 8.00131 5.43081 8H5.52538V7.7C5.52538 7.56739 5.5752 7.44021 5.66388 7.34645C5.75255 7.25268 5.87283 7.2 5.99823 7.2C6.12364 7.2 6.24391 7.25268 6.33259 7.34645C6.42127 7.44021 6.47108 7.56739 6.47108 7.7V8H6.94393C7.06934 8 7.18961 8.05268 7.27829 8.14645C7.36697 8.24021 7.41678 8.36739 7.41678 8.5C7.41678 8.63261 7.36697 8.75979 7.27829 8.85355C7.18961 8.94732 7.06934 9 6.94393 9H5.52538V10H6.56565ZM5.99823 1.5C6.75068 1.5 7.47231 1.81607 8.00437 2.37868C8.53643 2.94129 8.83534 3.70435 8.83534 4.5H9.78104C9.78104 3.43913 9.38249 2.42172 8.67308 1.67157C7.96367 0.921427 7.0015 0.5 5.99823 0.5C4.99497 0.5 4.0328 0.921427 3.32339 1.67157C2.61397 2.42172 2.21543 3.43913 2.21543 4.5H3.16113C3.16113 3.70435 3.46004 2.94129 3.9921 2.37868C4.52416 1.81607 5.24579 1.5 5.99823 1.5Z" fill="#312D2D"/>
</g>
</svg>
