<svg width="100" height="100" viewBox="0 0 100 100" fill="none" xmlns="http://www.w3.org/2000/svg">
<path fill-rule="evenodd" clip-rule="evenodd" d="M25 11.4583C19.8223 11.4583 15.625 15.6557 15.625 20.8333V79.1667C15.625 84.3442 19.8223 88.5417 25 88.5417H75C80.1775 88.5417 84.375 84.3442 84.375 79.1667V37.859C84.375 35.6658 83.6062 33.5421 82.2021 31.8573L68.0142 14.8316C66.2329 12.6942 63.5942 11.4583 60.8121 11.4583H25ZM9.375 20.8333C9.375 12.2039 16.3705 5.20834 25 5.20834H60.8121C65.4492 5.20834 69.8467 7.26809 72.8154 10.8305L87.0033 27.8561C89.3433 30.6641 90.625 34.2037 90.625 37.859V79.1667C90.625 87.7963 83.6296 94.7917 75 94.7917H25C16.3705 94.7917 9.375 87.7963 9.375 79.1667V20.8333Z" fill="url(#paint0_linear_13474_21998)"/>
<path fill-rule="evenodd" clip-rule="evenodd" d="M62.5013 7.29166C64.2271 7.29166 65.6263 8.69078 65.6263 10.4167V25C65.6263 30.1777 69.8238 34.375 75.0013 34.375H85.418C87.1438 34.375 88.543 35.7741 88.543 37.5C88.543 39.2259 87.1438 40.625 85.418 40.625H75.0013C66.3717 40.625 59.3763 33.6294 59.3763 25V10.4167C59.3763 8.69078 60.7755 7.29166 62.5013 7.29166ZM60.5442 56.3762C59.3238 57.5967 57.3455 57.5967 56.125 56.3762L53.1263 53.3779V70.8333C53.1263 72.5592 51.7271 73.9583 50.0013 73.9583C48.2755 73.9583 46.8763 72.5592 46.8763 70.8333V53.3779L43.8775 56.3762C42.6571 57.5967 40.6786 57.5967 39.4582 56.3762C38.2379 55.1558 38.2379 53.1775 39.4582 51.9571L47.7917 43.6237C49.0121 42.4033 50.9905 42.4033 52.2109 43.6237L60.5442 51.9571C61.7646 53.1775 61.7646 55.1558 60.5442 56.3762Z" fill="url(#paint1_linear_13474_21998)"/>
<defs>
<linearGradient id="paint0_linear_13474_21998" x1="-23.8021" y1="-63.3616" x2="138.693" y2="19.5394" gradientUnits="userSpaceOnUse">
<stop stop-color="#020024"/>
<stop offset="1" stop-color="#3363FF"/>
</linearGradient>
<linearGradient id="paint1_linear_13474_21998" x1="18.1263" y1="-43.7372" x2="125.11" y2="1.39649" gradientUnits="userSpaceOnUse">
<stop stop-color="#020024"/>
<stop offset="1" stop-color="#3363FF"/>
</linearGradient>
</defs>
</svg>
