<svg width="16" height="16" viewBox="0 0 16 16" fill="none" xmlns="http://www.w3.org/2000/svg">
<g id="Group 1000006128">
<path id="Vector" d="M7.60171 9.75473C8.23065 9.33696 8.70837 8.72781 8.96419 8.01742C9.22001 7.30704 9.24032 6.53317 9.02213 5.81034C8.80393 5.08751 8.35882 4.45413 7.75267 4.00394C7.14652 3.55375 6.41154 3.31067 5.6565 3.31067C4.90146 3.31067 4.16648 3.55375 3.56033 4.00394C2.95418 4.45413 2.50907 5.08751 2.29087 5.81034C2.07268 6.53317 2.093 7.30704 2.34881 8.01742C2.60463 8.72781 3.08235 9.33696 3.71129 9.75473C2.63914 10.1502 1.7125 10.8622 1.0542 11.7963C1.00478 11.8665 0.975589 11.949 0.969812 12.0346C0.964036 12.1203 0.981896 12.2059 1.02145 12.2821C1.06099 12.3583 1.12071 12.4222 1.19409 12.4668C1.26746 12.5114 1.35167 12.5349 1.43753 12.5349L9.87528 12.5346C9.96114 12.5346 10.0453 12.511 10.1187 12.4664C10.1921 12.4219 10.2518 12.358 10.2913 12.2818C10.3309 12.2055 10.3487 12.1199 10.3429 12.0343C10.3372 11.9486 10.308 11.8662 10.2585 11.796C9.60024 10.8621 8.67371 10.1502 7.60171 9.75473Z" fill="#312D2D"/>
<path id="Vector_2" d="M15.0342 11.796C14.3759 10.8621 13.4494 10.1502 12.3774 9.75474C13.0744 9.29077 13.5829 8.59328 13.8114 7.78778C14.04 6.98228 13.9735 6.12165 13.624 5.36078C13.2746 4.59991 12.665 3.98874 11.9051 3.63726C11.1451 3.28578 10.2847 3.21707 9.47856 3.44348C9.40538 3.46406 9.3383 3.50213 9.28311 3.55441C9.22792 3.60669 9.18627 3.67161 9.16176 3.74357C9.13725 3.81553 9.1306 3.89237 9.1424 3.96747C9.15419 4.04256 9.18408 4.11367 9.22948 4.17464C9.75937 4.88644 10.064 5.74059 10.1041 6.62706C10.1442 7.51353 9.91797 8.39171 9.45452 9.14845C9.39332 9.24825 9.37168 9.36733 9.39385 9.48229C9.41603 9.59724 9.48041 9.69973 9.57434 9.7696C9.75207 9.90187 9.92306 10.043 10.0867 10.1923C10.0951 10.2015 10.1036 10.2107 10.113 10.2193C10.7386 10.7977 11.2457 11.4924 11.6059 12.2645C11.6436 12.3453 11.7036 12.4137 11.7789 12.4616C11.8541 12.5095 11.9415 12.535 12.0306 12.535L14.651 12.5346C14.7369 12.5346 14.8211 12.511 14.8944 12.4664C14.9678 12.4218 15.0275 12.358 15.067 12.2818C15.1066 12.2055 15.1244 12.1199 15.1186 12.0343C15.1128 11.9486 15.0836 11.8662 15.0342 11.796Z" fill="#312D2D"/>
</g>
</svg>
