<svg width="21" height="20" viewBox="0 0 21 20" fill="none" xmlns="http://www.w3.org/2000/svg">
<path id="Vector" d="M0.000661332 9.98402C0.000661332 8.43562 0.000661332 6.88736 0.000661332 5.33924C-0.00159602 4.05953 0.456198 2.82165 1.29055 1.85135C2.12491 0.881041 3.28024 0.242961 4.54583 0.0534741C4.79361 0.0174919 5.04375 0.000301485 5.29412 0.00204989C8.44625 -0.000379597 11.5981 -0.000649559 14.7497 0.00124005C17.3659 0.0052892 19.6229 1.9671 19.9913 4.55046C20.0251 4.7979 20.0418 5.04739 20.0411 5.29713C20.0444 8.42847 20.0444 11.5598 20.0411 14.6912C20.0375 17.3231 18.0943 19.5627 15.4866 19.9466C15.2318 19.982 14.9746 19.999 14.7173 19.9976C11.586 20.0008 8.45461 20.0008 5.32327 19.9976C4.04761 19.9953 2.81494 19.5363 1.84841 18.7037C0.88188 17.8712 0.24537 16.7201 0.0541101 15.4589C0.0172778 15.1905 9.06775e-05 14.9199 0.00268592 14.649C-0.00176815 13.0946 0.000661332 11.5385 0.000661332 9.98402ZM7.51386 7.77723C7.56286 7.83837 7.59485 7.87522 7.62278 7.91369C9.06266 9.83029 10.5028 11.7455 11.9432 13.6594C12.2882 14.1174 12.7689 14.1146 13.1175 13.6525C13.828 12.7099 14.5368 11.7658 15.2441 10.8202C15.3251 10.7104 15.4105 10.6582 15.553 10.6639C15.9078 10.6752 16.2629 10.6687 16.618 10.6671C17.0597 10.6651 17.3695 10.391 17.3715 10.0026C17.3735 9.61433 17.0618 9.33453 16.6232 9.33291C16.1292 9.33089 15.6348 9.33696 15.1408 9.33089C14.8469 9.32684 14.6238 9.43293 14.446 9.67304C13.8722 10.4493 13.288 11.2182 12.7073 11.9896C12.651 12.0645 12.5935 12.1382 12.5287 12.2224C12.4854 12.1661 12.4599 12.1337 12.4352 12.1009C10.9907 10.1803 9.54654 8.25989 8.10261 6.33978C7.75762 5.88182 7.27739 5.88506 6.92835 6.34707C6.21786 7.29025 5.50899 8.23505 4.80174 9.18148C4.72076 9.29161 4.63451 9.34344 4.49198 9.33777C4.13768 9.32644 3.78257 9.33292 3.42746 9.33453C2.98205 9.33453 2.67634 9.60785 2.67351 9.99779C2.67067 10.3877 2.98205 10.6651 3.42219 10.6671C3.8676 10.6671 4.31301 10.6481 4.75841 10.6732C5.17831 10.6967 5.46054 10.5363 5.7043 10.197C6.28454 9.38555 6.89758 8.59637 7.51386 7.77723Z" fill="#312D2D"/>
</svg>
