<svg width="24" height="25" viewBox="0 0 24 25" fill="none" xmlns="http://www.w3.org/2000/svg">
<path d="M16.2121 10.4976L16.1786 12.2L14.7539 11.4155V9.76318L16.2121 10.4976Z" fill="white"/>
<path d="M23.8866 16.5727L17.8525 20.0276L15.707 21.2794V18.8426L17.8525 17.6075L22.8306 14.7534L23.8866 16.5727Z" fill="white"/>
<path d="M23.1169 8.11098L16.1777 12.2001L16.2113 10.4977L22.128 7.07617L23.1169 8.11098Z" fill="white"/>
<path d="M22.1289 7.076L16.2121 10.4975L14.7539 9.77984L20.7042 6.375L22.1289 7.076Z" fill="white"/>
<path d="M14.6017 2.21925L9.67387 5.03992L7.41108 6.34178L5.26562 5.19014L7.51165 3.85491L13.5458 0.383301L14.6017 2.21925Z" fill="white"/>
<path d="M21.792 7.29291L11.3496 1.66824L13.5956 0.333008L23.9374 6.00775L21.792 7.29291Z" fill="white"/>
<path d="M21.7949 17.7736L23.9404 16.5552V6.00684L21.7949 7.292V17.7736Z" fill="white"/>
<path d="M10.5615 13.786L0.119141 8.16132L2.38193 6.84277L12.7237 12.5175L10.5615 13.786Z" fill="white"/>
<path d="M10.5605 24.2666L12.7228 23.0649V12.5166L10.5605 13.7851V24.2666Z" fill="white"/>
</svg>
